<svg xmlns="http://www.w3.org/2000/svg" viewBox="0 0 37 32"><path fill="#05c168" d="m28.503 26.581.04-.079.091-.041s.388.062.483.224.469.738.453.853c-.016.115-.114.176-.18.152s-.188-.185-.188-.185l-.052-.007-.615.141-.073-.126.573-.211-.312-.031-.273-.291.053-.399z"/><path fill="#0075ff" d="M28.066 27.491a.346.346 0 0 1-.051.319c-.101.133-.252.342-.393.527-.111.145-.856.528-1.259.728a.343.343 0 0 1-.442-.12 2.993 2.993 0 0 1-.339-.702.345.345 0 0 1 .18-.418l1.734-.817a.338.338 0 0 1 .281-.006.348.348 0 0 1 .192.205l.097.282z"/><path fill="#133578" d="M28.066 27.491s0-.006-.005-.017l-.017-.051-.065-.194a.359.359 0 0 0-.212-.234.345.345 0 0 0-.201-.015.486.486 0 0 0-.104.04l-.105.049-1.607.756a.357.357 0 0 0-.163.462 3.029 3.029 0 0 0 .314.645.353.353 0 0 0 .452.15c.1-.048.194-.097.288-.145.187-.097.364-.19.526-.282.082-.046.16-.092.233-.138.072-.043.14-.092.203-.147a.909.909 0 0 0 .073-.091l.065-.089.12-.162.105-.141c.031-.039.059-.08.084-.122a.345.345 0 0 0 .022-.252.337.337 0 0 1-.027.249 1.001 1.001 0 0 1-.085.12l-.106.14-.121.162-.066.088a.789.789 0 0 1-.072.09c-.062.054-.13.103-.201.145a5.337 5.337 0 0 1-.233.137c-.162.092-.339.185-.526.281-.094.047-.19.097-.288.144a.337.337 0 0 1-.43-.144 2.902 2.902 0 0 1-.312-.641.372.372 0 0 1-.028-.171.33.33 0 0 1 .182-.269l1.71-.81a.347.347 0 0 1 .436.073.374.374 0 0 1 .069.129l.068.194.018.05c.004.012.009.014.009.014zM29.228 27.543c.003 0 .012-.017.032-.041a.328.328 0 0 1 .21-.117.296.296 0 0 0 .052-.005c-.017-.006-.035-.009-.053-.006a.285.285 0 0 0-.219.122.126.126 0 0 0-.023.048zM28.707 27.064a.65.65 0 0 0 .082.065c.051.039.122.091.196.154.064.054.122.113.176.176.04.049.062.082.065.081a.539.539 0 0 0-.056-.088c-.051-.067-.109-.128-.174-.182a2.451 2.451 0 0 0-.29-.206z"/><path fill="#fff" d="m27.415 28.308-.479-.912-.865.395.564.995.78-.478z"/><path fill="#133578" d="M29.962 28.237a.55.55 0 0 0-.054-.073c-.035-.043-.084-.103-.139-.167s-.105-.123-.142-.164a.484.484 0 0 0-.063-.065c.016.026.034.05.054.072a12.206 12.206 0 0 0 .28.331c.019.024.04.045.063.065zM29.829 28.697c.004 0-.067-.194-.159-.432s-.17-.428-.174-.426c-.004.002.067.194.159.432s.17.427.174.425zM29.415 28.442c.008-.101.01-.203.006-.305a2.817 2.817 0 0 0-.011-.305c-.008.101-.01.203-.006.305-.002.102.002.204.011.305z"/><path fill="#dcddeb" d="M35.534 10.386a1.948 1.948 0 0 0-.391.106 1.917 1.917 0 0 0-.378.149c.134-.021.265-.056.391-.106.131-.036.258-.086.378-.149zM25.766 24.384v3.189h.427l.573-3.225-1.001.036zM29.649 24.384v3.189h.428l.573-3.225-1 .036zM34.506 24.384v3.189h-.427l-.573-3.225 1 .036zM37.233 24.384v3.189h-.427l-.573-3.225 1.001.036z"/><path fill="#68aeff" d="M28.435 17.369s-1.688-.487-2.153.162-.516 6.897-.516 6.897 3.013.054 3.068 0c.055-.054-.399-7.059-.399-7.059z"/><path fill="#0075ff" d="m37.148 23.289.05-10.807c.002-.332-.037-.689-.163-.997a2.502 2.502 0 0 0-1.369-1.369 2.516 2.516 0 0 0-.97-.188h-3.978a2.482 2.482 0 0 0-2.306 1.57 2.492 2.492 0 0 0-.172.966l.255 10.824h8.655z"/><path fill="#0075ff" d="M37.148 23.289s-1.531-2.261-3.336-2.335-5.688 0-5.688 0-1.722.065-1.842 2.198v1.258h10.866v-1.12z"/><path fill="#56a4ff" d="m33.621 21.018-4.461-.024c-.465 0-.995-.059-1.446.069-1.33.377-1.525 2.077-1.419 3.249.004.049-.071.049-.075 0-.085-.982.015-2.359.856-3.014.486-.378 1.049-.384 1.628-.381l4.917.026c.01 0 .02.004.026.011s.011.017.011.026c0 .01-.004.019-.011.026s-.017.011-.026.011z"/><path fill="#dcddeb" d="M29.469 10.266a.16.16 0 0 0 .03-.006c.02 0 .048-.014.085-.02l.143-.02c.057-.005.122-.013.196-.018.296-.02.726-.031 1.256-.031.265 0 .556 0 .867.009.332-.001.663.015.993.049.177.022.353.054.527.096.181.043.356.105.523.187.342.191.624.474.813.816.046.088.081.18.107.276.022.096.036.193.044.291.024.196.043.389.062.578.037.38.066.747.085 1.096.046.7.068 1.331.085 1.861s.026.957.034 1.255c0 .146.008.261.01.34v.085a.16.16 0 0 0 0 .031.16.16 0 0 0 0-.031V16.685c0-.297-.008-.725-.02-1.256s-.032-1.162-.076-1.863c-.022-.35-.049-.717-.085-1.097-.019-.191-.038-.384-.061-.58-.008-.1-.023-.199-.046-.297s-.057-.193-.1-.283a1.988 1.988 0 0 0-.363-.482 2.048 2.048 0 0 0-.47-.352 2.507 2.507 0 0 0-.533-.19 4.538 4.538 0 0 0-.533-.095 8.961 8.961 0 0 0-.996-.046c-.312 0-.602-.006-.868 0-.531 0-.961.019-1.257.044l-.197.021c-.057.006-.105.018-.143.025s-.066.02-.085.025c-.01.001-.02.002-.029.005z"/><path fill="#dcddeb" d="M32.942 13.53c.05 0 .098.018.135.05.019.017.032.039.039.063s.007.05-.001.074a.158.158 0 0 1-.133.11.171.171 0 0 1-.149-.091.158.158 0 0 1 0-.146.263.263 0 0 1 .109-.1s-.017 0-.043.006a.195.195 0 0 0-.123.165.184.184 0 0 0 .017.092.2.2 0 0 0 .189.116c.04-.004.077-.019.107-.045s.052-.06.063-.098a.164.164 0 0 0-.056-.17.17.17 0 0 0-.114-.041c-.027.004-.041.009-.04.012z"/><path fill="#dcddeb" d="M33.088 12.527a.353.353 0 0 0-.135.104.734.734 0 0 0-.142.776.35.35 0 0 0 .085.145c.007 0-.028-.058-.06-.155a.783.783 0 0 1 .136-.745c.068-.079.12-.118.116-.124zM32.992 14.935c.005-.004-.037-.061-.085-.162a1.259 1.259 0 0 1-.12-.419c-.014-.17 0-.331.064-.418a.287.287 0 0 1 .141-.099s-.019-.007-.051 0a.232.232 0 0 0-.117.077.387.387 0 0 0-.078.192 1.092 1.092 0 0 0 .131.678.434.434 0 0 0 .115.15zM32.374 13.661a1.51 1.51 0 0 1 .188-.033c.063.006.126.017.188.032.009-.009-.068-.077-.188-.077s-.197.07-.188.077zM30.411 13.53c.05 0 .098.017.135.05.019.017.032.039.039.063s.007.05-.001.074a.158.158 0 0 1-.133.11.171.171 0 0 1-.149-.091.157.157 0 0 1 .004-.147.27.27 0 0 1 .109-.1s-.017 0-.043.006a.206.206 0 0 0-.093.077.185.185 0 0 0-.013.18.2.2 0 0 0 .189.116c.04-.004.077-.019.107-.045s.052-.06.063-.098a.164.164 0 0 0-.056-.17.17.17 0 0 0-.114-.041c-.031.004-.045.009-.044.012z"/><path fill="#dcddeb" d="M30.557 12.527a.353.353 0 0 0-.135.104.736.736 0 0 0-.142.777.35.35 0 0 0 .085.145c.007 0-.028-.058-.06-.155a.807.807 0 0 1-.028-.39.818.818 0 0 1 .164-.356c.068-.079.12-.118.116-.124zM30.459 14.935c.006-.004-.037-.061-.085-.162a1.259 1.259 0 0 1-.12-.419c-.014-.17 0-.331.064-.418a.282.282 0 0 1 .143-.099s-.018-.007-.051 0a.232.232 0 0 0-.117.077.387.387 0 0 0-.078.192c-.01.083-.01.166 0 .249.014.151.061.298.136.429a.446.446 0 0 0 .108.15zM29.844 13.661a1.51 1.51 0 0 1 .188-.033c.063.006.126.017.188.032.009-.009-.068-.077-.188-.077a.218.218 0 0 0-.188.077z"/><path fill="#68aeff" d="M37.101 17.297s-2.58-.668-3.048.211-.551 6.927-.551 6.927 3.726.137 3.735-.02-.136-7.119-.136-7.119z"/><path fill="#4f9efb" d="M37.17 17.24s-1.631-.414-2.1.234-.588 6.987-.588 6.987 2.723.085 2.775.025c.053-.06-.088-7.247-.088-7.247z"/><path fill="#dcddeb" d="M36.242 20.427s.013-.004.032 0a.072.072 0 0 1 .056.05.278.278 0 0 1-.004.157.089.089 0 0 1-.021.026c-.009.007-.019.012-.03.015s-.022.003-.033.001a.113.113 0 0 1-.071-.059c-.007-.014-.011-.03-.011-.046s.002-.032.009-.047a.269.269 0 0 1 .085-.115l.016-.014h-.019c-.031-.007-.047-.009-.049-.005 0 0 .014.012.043.025v-.018a.238.238 0 0 0-.11.118.174.174 0 0 0 0 .119.135.135 0 0 0 .158.088.113.113 0 0 0 .047-.025.145.145 0 0 0 .041-.085.276.276 0 0 0-.016-.145c-.006-.017-.018-.031-.034-.041s-.033-.014-.051-.013c-.03-.001-.038.013-.037.014z"/><path fill="#dcddeb" d="M35.757 19.277c-.011.007.135.255.275.574s.219.595.232.595a.728.728 0 0 0-.039-.184 3.363 3.363 0 0 0-.36-.827.66.66 0 0 0-.108-.158zM36.775 19.384a.647.647 0 0 0-.092.145 4.65 4.65 0 0 0-.33.763.634.634 0 0 0-.043.17c.013.004.105-.241.233-.537s.244-.534.232-.541zM35.769 22.488c.027-.087.047-.176.061-.265a29.247 29.247 0 0 1 .288-1.278c.026-.087.045-.176.059-.266a1.44 1.44 0 0 0-.085.255 10.447 10.447 0 0 0-.288 1.282c-.02.09-.032.181-.035.273zM36.773 21.794a.701.701 0 0 0-.033-.17 3.43 3.43 0 0 0-.322-.788.586.586 0 0 0-.098-.148c-.011.007.117.242.242.549s.199.56.212.556z"/><path fill="#dcddeb" opacity=".25" d="M12.54 27.284V3.972h9.353v23.312H12.54z"/><path fill="#a0a3bd" opacity=".25" d="M13.054 11.419V4.557h8.327v6.862h-8.327zM13.054 18.898v-6.862h8.327v6.862h-8.327zM13.054 26.377v-6.862h8.327v6.862h-8.327z"/><path fill="#eff0f7" opacity=".25" d="M18.105 11.419V4.557h3.276v6.862h-3.276zM18.105 18.898v-6.862h3.276v6.862h-3.276zM18.107 26.377v-6.862h3.276v6.862h-3.276z"/><path fill="#f7f9fc" opacity=".25" d="M10 27.284V3.972h2.539v23.312H10z"/><path fill="#dcddeb" opacity=".25" d="M2.539 27.284V3.972h9.353v23.312H2.539z"/><path fill="#a0a3bd" opacity=".25" d="M3.053 11.419V4.557h8.327v6.862H3.053zM3.053 18.898v-6.862h8.327v6.862H3.053zM3.051 26.374v-6.862h8.327v6.862H3.051z"/><path fill="#eff0f7" opacity=".25" d="M8.105 11.419V4.557h3.276v6.862H8.105zM8.105 18.898v-6.862h3.276v6.862H8.105zM8.107 26.377v-6.862h3.276v6.862H8.107z"/><path fill="#f7f9fc" opacity=".25" d="M0 27.284V3.972h2.539v23.312H0z"/><path fill="#dcddeb" opacity=".25" d="M10.814 26.375H4.052v-5.873h6.762v5.873z"/><path fill="#eff0f7" opacity=".25" d="M3.053 20.503h1.001v5.873H3.053v-5.873z"/><path fill="#dcddeb" opacity=".25" d="M20.815 11.419h-6.762V5.546h6.762v5.873z"/><path fill="#eff0f7" opacity=".25" d="M13.053 5.545h1.001v5.873h-1.001V5.545z"/><path fill="#263238" d="M5.131 28.901c0-.034-.113-3.358-.654-3.884-.522-.51-1.131-.019-1.154 0l-.056-.067c.007-.006.69-.563 1.271 0 .566.549.676 3.805.681 3.943l-.087.008z"/><path fill="#263238" d="M5.178 29.554c0-.04-.37-3.993 1.074-5.649l.066.057c-1.42 1.627-1.059 5.542-1.054 5.583l-.086.009z"/><path fill="#263238" d="m5.127 29.137-.087-.006c0-.045.283-4.492-.775-5.466l.058-.064c1.09 1.001.816 5.351.804 5.536z"/><path fill="#263238" d="M5.265 29.134h-.087c0-.123.035-3.005.854-3.475a.587.587 0 0 1 .531-.051c.496.204.742 1.087.752 1.124l-.087.023c0-.009-.245-.878-.701-1.067a.5.5 0 0 0-.454.047c-.774.444-.808 3.37-.808 3.399zM4.946 29.136l-.087-.005c0-.023.124-2.277-.485-3.07-.147-.192-.307-.284-.476-.272-.399.028-.732.609-.735.617l-.076-.043c.015-.026.36-.63.805-.661.199-.014.386.087.552.306.627.82.507 3.035.502 3.129z"/><path fill="#263238" d="M5.077 29.443c-.017-.219-.398-5.368.273-6.276l.07.052c-.652.881-.261 6.163-.256 6.216l-.087.007z"/><path fill="#11845b" d="M6.745 26.13s-.402.148-.283.499 1.393.927 1.393.927.534-.489.044-1.283c-.49-.794-1.142-.392-1.153-.142zM4.998 25.462s.428-.017.453.348-.929 1.392-.929 1.392-.68-.245-.534-1.168c.146-.922.9-.8 1.01-.572zM4.633 23.695s.285-.031.261-.205-1.111-.621-1.753.103c0 0 .411.706 1.005.715s.487-.613.487-.613z"/><path fill="#05c168" d="M5.165 23.273s-.261.125-.332-.035.609-1.115 1.541-.84c0 0 .025.816-.474 1.138s-.735-.264-.735-.264zM3.812 25.989s.198-.159-.016-.237-1.257-.056-1.268.978c0 0 1.218.203 1.367-.191s-.084-.55-.084-.55zM6.292 23.669s-.198-.159.016-.237 1.258-.056 1.268.978c0 0-1.218.203-1.367-.191s.084-.55.084-.55zM5.649 24.502s-.017-.193.139-.117.696.663.137 1.218c0 0-.76-.563-.623-.855s.347-.245.347-.245zM3.636 24.778s.118-.154-.055-.174-.947.187-.767.957c0 0 .943-.071.983-.392s-.162-.392-.162-.392z"/><path fill="#6e7191" d="M6.821 32H3.586l-.348-3.54H7.17L6.821 32z"/><path fill="#fff" opacity=".7" d="M6.821 32H3.586l-.348-3.54H7.17L6.821 32z"/><path fill="#211f54" d="M7.342 28.069H3.064v.781h4.278v-.781z"/><path fill="#fff" opacity=".5" d="M7.342 28.069H3.064v.781h4.278v-.781z"/><path fill="#a0a3bd" opacity=".09" d="M30.664 0h-5.487v7.152l5.487.137v-7.29z"/><path fill="#fff" opacity=".09" d="M30.303.255h-4.801v6.486l4.801.162V.255z"/><path fill="#cee5ff" opacity=".09" d="m29.463 1.433-3.186-.121v4.534h3.186V1.433z"/><path fill="#0075ff" opacity=".09" d="m26.277 5.845 3.186-2.329-3.186-2.204v4.534z"/><path fill="#3f37a0" d="M4.608 10.071c0 .744 1.205 1.348 2.696 1.348S10 10.816 10 10.071H4.608z"/><path fill="#4b3cfb" d="M4.608 9.062c0 .744 1.205 1.348 2.696 1.348S10 9.805 10 9.062H4.608z"/><path fill="#1d53bb" d="M15.443 17.521c0 .744.964 1.348 2.152 1.348s2.145-.606 2.145-1.348h-4.297z"/><path fill="#0075ff" d="M15.443 16.514c0 .744.964 1.348 2.152 1.348s2.15-.603 2.15-1.348h-4.302z"/><path fill="#ffbf9d" d="M23.998 23.084c0 .105.947 2.472.947 2.472l2.289.906-.342.623s-2.391-.123-2.76-.327-.752-.704-.752-.704l-.67-2.428 1.289-.541z"/><path fill="#ff9a6c" d="M24.999 25.546a1.17 1.17 0 0 0-.652.49.374.374 0 0 1 .058-.11.926.926 0 0 1 .475-.355.347.347 0 0 1 .119-.025z"/><path fill="#ffbf9d" d="M22.135 24.367v2.813l1.221 3.329h.968l-.702-3.869.156-2.776-1.642.503z"/><path fill="#ff9a6c" d="M24.093 29.244a.202.202 0 0 1-.009-.033l-.02-.095-.068-.351-.214-1.161-.172-.965.033-.499.011-.138c0-.016.002-.033.006-.049a72.42 72.42 0 0 1-.028.687v-.003l.177.964.206 1.161.06.352.015.096a.187.187 0 0 1 .003.034z"/><path fill="#4a4566" d="m15.119 30.777-1.1-.348s-1.396.863-1.631.702l1.828-2.346.435.416.297.058 1.121.714-.95.804z"/><path fill="#cfe5ff" d="M14.685 29.782a.123.123 0 0 0-.058-.152.116.116 0 0 0-.15.056.13.13 0 0 0 .062.159c.03.009.062.007.09-.007s.05-.038.06-.068z"/><path fill="#211f54" d="m14.169 28.745.184.141-1.773 2.245s-.127.069-.191 0l1.78-2.386zM14 30.476c-.012-.009.028-.071.035-.156s-.018-.153-.005-.158c.013-.005.066.062.055.165s-.075.16-.085.149zM13.706 30.645c-.013-.006.006-.071-.012-.148s-.061-.128-.053-.139c.008-.011.08.032.101.128s-.025.165-.036.159zM13.303 30.553c.006-.013.076.016.115.094s.023.151.01.149c-.013-.003-.021-.062-.053-.126s-.08-.106-.072-.118zM26.397 17.021a.356.356 0 0 1 .405.083.493.493 0 0 1 .468.377.433.433 0 0 1 .379.475.42.42 0 0 1-.078.207.363.363 0 0 1-.123.678.347.347 0 0 1-.301.545.353.353 0 0 1-.231-.098l-.717-1.903a.36.36 0 0 1 .198-.363z"/><path fill="#ffbf9d" d="M26.926 19.357a1.476 1.476 0 0 0-.333-1.979l-.06-.047c-.683-.467-1.462-.148-1.911.547l-1.59 2.249-.122.343.429 1.38.739-.109.581-.59s.704.388 1.198-.234c.236-.298.678-.958 1.07-1.559z"/><path fill="#ff9a6c" d="M24.663 21.153a1.928 1.928 0 0 1-.637-.878s-.192.602.478 1.03l.158-.152z"/><path fill="#211f54" d="M26.294 19.798a.113.113 0 0 1-.158.023c-.012-.008-.023-.018-.031-.03s-.014-.026-.016-.04a.104.104 0 0 1 .05-.112.106.106 0 0 1 .042-.015c.015-.002.03-.001.044.002s.028.01.04.019c.012.008.023.018.031.03s.014.026.016.04a.104.104 0 0 1-.017.082zM26.536 19.597c-.02.003-.049-.1-.146-.174s-.205-.081-.206-.101c0-.009.026-.022.074-.02a.3.3 0 0 1 .176.067.299.299 0 0 1 .106.153c.012.046.005.075-.005.075zM25.435 19.199a.113.113 0 0 1-.158.023.107.107 0 0 1-.046-.07.104.104 0 0 1 .017-.082c.018-.024.045-.04.074-.045s.06.003.084.021c.012.008.022.018.031.03s.014.026.016.04c.003.014.003.029 0 .043s-.009.028-.017.04zM25.624 18.869c-.02.003-.049-.1-.146-.174s-.205-.081-.206-.101c0-.009.026-.022.075-.02.064.003.126.026.176.066s.088.092.106.154c.009.045.003.074-.005.075zM25.387 19.83a.87.87 0 0 1 .179.093c.026.016.053.03.071.016a.156.156 0 0 0 .04-.085l.072-.244c.106-.345.203-.622.216-.617s-.061.288-.166.633l-.076.243a.186.186 0 0 1-.062.106c-.01.006-.022.01-.034.01s-.024-.001-.035-.006a.82.82 0 0 1-.205-.148zM25.051 19.677c.016.012-.064.116-.032.26s.153.218.142.234c-.004.007-.041 0-.089-.034a.332.332 0 0 1-.123-.189.288.288 0 0 1 .034-.211c.03-.049.061-.065.068-.06zM25.836 18.595c-.031.016-.097-.071-.199-.147s-.203-.121-.194-.154c.005-.015.039-.025.091-.019a.372.372 0 0 1 .18.077.362.362 0 0 1 .119.152c.021.048.019.082.003.091zM26.719 19.315c-.033.012-.088-.059-.172-.115s-.166-.087-.167-.121c0-.016.027-.032.073-.034a.301.301 0 0 1 .274.19c.014.043.007.073-.007.08z"/><path fill="#211f54" d="M27.089 19.022s.139-.521.021-.76c-.144-.289-.438-.113-.609-.344s-.308-.507-.663-.511c-.388-.004-.374.214-.604.481-.936 1.082-1.389 1.242-1.036.664.039-.063-.088-.235.079-.5.216-.343.504-.739.751-.912.208-.145.419-.192.727-.187.486.009.914.332 1.179.584s.564 1.012.156 1.483z"/><path fill="#ffbf9d" d="M24.252 18.567a.215.215 0 0 0 .037-.166c-.005-.029-.016-.056-.033-.08s-.037-.045-.061-.061c-.126-.079-.308-.113-.487.134-.317.44.189.669.198.657s.212-.299.346-.484z"/><path fill="#ff9a6c" d="M23.928 18.817c0-.003-.012 0-.029-.004a.092.092 0 0 1-.058-.04c-.034-.053-.019-.153.035-.234a.313.313 0 0 1 .101-.094.109.109 0 0 1 .1-.017.05.05 0 0 1 .03.053c-.003.017-.013.023-.011.026s.015 0 .024-.021a.055.055 0 0 0 0-.04.075.075 0 0 0-.034-.042.136.136 0 0 0-.129.011.319.319 0 0 0-.116.106c-.061.091-.076.206-.026.271.009.012.021.022.035.029s.029.01.044.011c.024-.002.034-.01.033-.012z"/><path fill="#211f54" d="M24.902 17.742c.02.083.06.16.117.224.062.059.169.08.232.022.028-.026.047-.066.085-.074s.081.033.115.064a.348.348 0 0 0 .437.023c-.005.072.071.128.143.134a.737.737 0 0 0 .214-.035.223.223 0 0 1 .204.041c.029.029.043.071.078.093.06.039.139-.006.191-.053s.109-.11.181-.105c.071.004.111.066.158.114s.122.087.175.047a.125.125 0 0 0 .041-.093.35.35 0 0 0-.247-.359.477.477 0 0 0-.637-.609.487.487 0 0 0-.499-.398.493.493 0 0 0-.221.065.346.346 0 0 0-.366-.126.35.35 0 0 0-.259.288c-.111-.016-.236.009-.307.097s-.053.243.053.287a.195.195 0 0 0-.093.247.193.193 0 0 0 .24.111z"/><path fill="#4a4566" d="M24.756 17.363c-.013.013-.024.029-.03.047s-.009.037-.007.056c0 .044.016.086.046.118a.195.195 0 0 0 .15.059l-.016-.017a.558.558 0 0 0 .003.173.3.3 0 0 0 .041.109c.02.032.047.057.08.075a.208.208 0 0 0 .179.024.332.332 0 0 0 .136-.094.193.193 0 0 0-.038.023.36.36 0 0 1-.103.053.215.215 0 0 1-.174-.039.223.223 0 0 1-.089-.155.563.563 0 0 1-.004-.164v-.018h-.018a.168.168 0 0 1-.129-.048.16.16 0 0 1-.046-.101c0-.035.007-.07.02-.102zM26.327 17.01s.009.012.022.035a.186.186 0 0 1 .023.106v.012l.012-.003a.667.667 0 0 1 .338-.007.525.525 0 0 1 .198.094.46.46 0 0 1 .17.379.361.361 0 0 1-.053.166l-.009.015.016.006a.293.293 0 0 1 .178.338.423.423 0 0 1-.071.148.134.134 0 0 0 .032-.031.304.304 0 0 0 .044-.306.323.323 0 0 0-.173-.177l.007.021a.384.384 0 0 0 .059-.179.47.47 0 0 0-.182-.405.54.54 0 0 0-.211-.096.657.657 0 0 0-.349.017l.011.009a.188.188 0 0 0-.032-.115.094.094 0 0 0-.03-.026z"/><path fill="#211f54" d="M19.79 26.537s2.997 1.826 3.171 2.326c.103.296.411 1.888-.897 1.962-1.381.077-7.76 0-7.76 0l.649-1.719 1.405.062 2.364.027s-2.661-1.099-3.242-2.005c-.727-1.136.398-2.812.398-2.812l3.912 2.16z"/><path fill="#4a4566" d="M21.194 30.084a.16.16 0 0 1-.03-.006l-.085-.022a5.55 5.55 0 0 1-.306-.098c-.257-.088-.608-.219-.994-.369s-.732-.294-.982-.399l-.296-.126-.08-.036a.115.115 0 0 1-.027-.014l.029.009.082.031.299.118.985.391c.385.151.735.285.99.378.127.047.231.082.303.106l.083.026c.01.003.019.006.029.011z"/><path fill="#cfe5ff" d="M28.35 27.011a.495.495 0 0 0-.291-.356.583.583 0 0 0-.464.009.35.35 0 0 0-.148.118c-.019.026-.03.057-.034.088s0 .064.011.094l.09-.022c.243.084.495.139.751.163.013.003.026.003.038 0s.025-.007.035-.015c.008-.011.014-.024.016-.038s.001-.028-.004-.041z"/><path fill="#cfe5ff" d="M26.337 26.037c.025.008.642.297.642.297l.922-.004a.2.2 0 0 1 .126.044l.475.381.204.55s.023.164-.155.027-.475-.564-.475-.564l-.434-.081-.638.534-1.102-.134s.021-.215.205-.58.231-.469.231-.469z"/><path fill="#cfe5ff" d="m28.23 27.174-.456-.149-.591-.378-.373.493s.395.15.57.211c.252.077.516.111.78.101.121-.01.197-.088.211-.141s-.065-.096-.14-.136z"/><path fill="#211f54" d="M27.766 26.642a.523.523 0 0 1 .106.046c.064.032.152.078.248.13a.29.29 0 0 1 .069.047.276.276 0 0 1 .047.061c.02.038.037.076.053.116.027.066.053.1.053.102a.216.216 0 0 1-.069-.094c-.034-.063-.064-.164-.164-.208-.096-.053-.183-.101-.244-.137a.48.48 0 0 1-.097-.064zM28.365 27.31c-.003 0 .004-.018-.012-.042a.24.24 0 0 0-.096-.073 2.795 2.795 0 0 0-.486-.158c-.119-.069-.22-.134-.295-.176a1.19 1.19 0 0 1-.12-.068c.045.012.088.03.128.053.078.038.181.1.3.167h-.004l.1.024c.135.032.266.08.39.143a.243.243 0 0 1 .096.084c.004.007.005.015.005.022s-.002.015-.006.022z"/><path fill="#cfe5ff" d="m26.416 26.013-.468 1.141c-.007.018-.021.032-.039.039s-.038.007-.055 0c-.009-.004-.017-.009-.023-.016s-.012-.015-.016-.023a.066.066 0 0 1 0-.055l.468-1.141c.007-.018.021-.032.039-.039s.038-.007.055 0c.009.004.017.009.023.015s.012.015.016.023a.066.066 0 0 1 0 .055z"/><path fill="#211f54" d="M26.407 26.02a1.08 1.08 0 0 1-.053.167 9.137 9.137 0 0 1-.326.779c-.023.054-.05.105-.081.155a1.08 1.08 0 0 1 .064-.163l.164-.388.161-.389a1.2 1.2 0 0 1 .071-.16z"/><path fill="#cfe5ff" d="m25.361 30.328-.284-.101c-.089-.007-.696-.081-.696-.081l-.199-.785-1.109.57s.196.754.352.892 1.652.253 1.842.267a.396.396 0 0 0 .289-.083s.457.034.568 0 .1-.111.1-.111.145-.028.181-.106c.023-.103-.074-.164-.172-.203-.302-.118-.873-.261-.873-.261z"/><path fill="#cfe5ff" d="m24.231 29.402-1.121.516c-.009.004-.018.006-.027.007a.068.068 0 0 1-.052-.019.07.07 0 0 1-.019-.078.075.075 0 0 1 .037-.041l1.121-.514c.009-.004.018-.006.027-.007a.068.068 0 0 1 .052.019.076.076 0 0 1 .017.023c.008.017.008.037.002.054s-.02.032-.037.04z"/><path fill="#211f54" d="M24.195 29.445a1.493 1.493 0 0 1-.168.065 5.967 5.967 0 0 0-.791.359 1.4 1.4 0 0 1-.158.083.145.145 0 0 1 .039-.03 3.942 3.942 0 0 1 1.033-.468.125.125 0 0 1 .046-.009zM24.383 30.147c0 .008-.106.035-.229.085s-.219.106-.223.097a.62.62 0 0 1 .211-.122.647.647 0 0 1 .241-.059zM25.56 31.009l.009-.028a.12.12 0 0 0-.003-.075l.005.005a8.099 8.099 0 0 1-.37-.106 9.794 9.794 0 0 1-.336-.105.76.76 0 0 1-.137-.053.768.768 0 0 1 .142.032 13.153 13.153 0 0 1 .708.211h.005v.003a.119.119 0 0 1-.004.085c-.008.024-.018.031-.02.031zM25.062 30.469a.157.157 0 0 1 .053.004c.033.005.079.013.137.025.148.035.295.077.439.127.169.057.322.106.434.14a.173.173 0 0 1 .11.086c.005.008.008.017.008.026s0 .018-.004.027a.159.159 0 0 0-.014-.047c-.012-.018-.027-.034-.045-.047s-.039-.021-.06-.025c-.112-.029-.268-.075-.437-.132s-.323-.106-.435-.134c-.112-.028-.186-.045-.186-.049z"/><path fill="#0075ff" d="M15.878 24.374c-.131-.257.083-.422.217-.51 1.023-.659 4.214-2.789 4.828-3.181.721-.46 1.754-.556 1.754-.556l.465-.369 1.342 1.757-.158.584-.113.798-4.149 3.181.005.288-.229.191-2.123-.95-1.837-1.234z"/><path fill="#0075ff" d="m23.842 24.934.78-.384s-.576-2.29-.619-2.16-.806 1.473-.806 1.473l.646 1.071z"/><path fill="#211f54" d="m23.841 24.935-.645-1.072c.008-.013.764-1.345.806-1.473 0-.004.003-.006.006-.006.006 0 .025 0 .127.34.053.18.124.43.208.744.143.535.279 1.077.281 1.082l-.782.385zm-.645-1.072.644 1.069.781-.383c-.007-.027-.14-.557-.281-1.081a24.638 24.638 0 0 0-.208-.745c-.083-.279-.113-.338-.124-.338 0 0-.003 0-.004.004-.043.128-.785 1.437-.809 1.473z"/><path fill="#0075ff" d="m24.013 24.497.518-.29c.018-.01.038-.015.058-.016s.04.003.059.012c.018.009.035.021.047.038s.021.035.025.055l.092.488a.13.13 0 0 1-.079.142l-.669.271c-.021.008-.043.011-.065.008s-.043-.012-.061-.025c-.018-.014-.031-.032-.04-.052s-.012-.043-.009-.065l.059-.469a.128.128 0 0 1 .065-.096z"/><path fill="#211f54" d="M24.013 24.497s-.009.006-.023.02a.132.132 0 0 0-.036.078l-.037.329-.013.109c-.003.018-.005.037-.004.056a.112.112 0 0 0 .06.091.118.118 0 0 0 .055.014.156.156 0 0 0 .06-.015l.62-.252a.212.212 0 0 0 .067-.034.126.126 0 0 0 .032-.131l-.014-.075-.053-.285-.013-.067a.327.327 0 0 0-.014-.062c-.011-.027-.032-.048-.058-.06s-.056-.014-.083-.005a.23.23 0 0 0-.05.024l-.096.053-.291.158-.08.042a.151.151 0 0 1-.029.013.12.12 0 0 1 .026-.018l.078-.046.287-.166.095-.053a.265.265 0 0 1 .053-.027.142.142 0 0 1 .128.022.139.139 0 0 1 .042.054.311.311 0 0 1 .016.067l.013.067.053.285.014.074a.19.19 0 0 1 .003.082.142.142 0 0 1-.044.073.141.141 0 0 1-.036.024l-.038.015-.621.25a.146.146 0 0 1-.136-.002.139.139 0 0 1-.071-.109.243.243 0 0 1 .005-.06l.014-.109.046-.328a.125.125 0 0 1 .063-.094l.01-.005zM24.468 21.537a.078.078 0 0 1-.017.026l-.053.073-.201.264-.008.011-.008-.012a17.218 17.218 0 0 0-1.124-1.439l-.19-.213-.053-.059c-.006-.007-.012-.014-.016-.022.008.005.014.011.021.018l.053.053a12.142 12.142 0 0 1 .803.936c.211.269.389.522.518.716h-.016l.208-.259.058-.07a.188.188 0 0 1 .025-.024z"/><path fill="#0075ff" d="M21.805 23.123v2.497l2.036.14a2.84 2.84 0 0 0 .077-.439c.018-.533.231-1.602.271-1.794.211-1.021.021-2.064-1.15-2.064z"/><path fill="#211f54" d="M23.038 21.462h.098c.093.004.186.016.277.038a1.028 1.028 0 0 1 .746.654c.082.224.121.462.116.7a3.86 3.86 0 0 1-.101.808c-.053.282-.109.578-.158.886-.023.154-.045.311-.063.471-.008.08-.016.158-.02.242 0 .04-.003.082-.008.123s-.012.082-.019.124c-.015.086-.033.17-.053.254l-.003.012h-.011l-2.044-.143v-.011c0-.746.004-1.369.005-1.808 0-.218.003-.39.004-.509V23.123v.18c0 .119 0 .291.003.509 0 .439.003 1.062.005 1.808l-.012-.012 2.037.138-.014.011c.02-.083.038-.167.053-.252.007-.041.014-.081.018-.122s.006-.08.008-.121c.004-.082.012-.163.021-.244.017-.158.04-.317.063-.472.048-.309.102-.605.158-.887.064-.264.099-.533.106-.804a1.922 1.922 0 0 0-.111-.693 1.06 1.06 0 0 0-.335-.465 1.095 1.095 0 0 0-.395-.186 1.6 1.6 0 0 0-.276-.042l-.072-.004-.022-.003zM22.695 21.376c.003.004-.065.044-.166.12-.263.2-.469.464-.6.768-.05.116-.071.192-.076.19a1.406 1.406 0 0 1 .058-.196 1.72 1.72 0 0 1 .732-.857.201.201 0 0 1 .051-.025z"/><path fill="#211f54" d="M22.448 21.545c-.004 0-.038-.067-.097-.174a4.536 4.536 0 0 0-.545-.786c-.08-.093-.133-.149-.129-.151.015.01.029.021.041.034a3.525 3.525 0 0 1 .651.896c.027.055.048.101.061.132a.213.213 0 0 1 .018.05z"/><path fill="#0075ff" d="M23.846 25.953h-1.999a.125.125 0 0 1-.124-.114l-.053-.583a.122.122 0 0 1 .074-.125.125.125 0 0 1 .05-.011h2.125c.018 0 .035.004.051.012s.03.018.042.032c.012.013.02.029.025.046s.006.035.004.052l-.072.581a.123.123 0 0 1-.122.11z"/><path fill="#211f54" d="M23.846 25.953a.169.169 0 0 0 .058-.017.126.126 0 0 0 .049-.053.274.274 0 0 0 .018-.098l.032-.279.021-.174c.003-.03.009-.064.009-.093a.125.125 0 0 0-.04-.082.12.12 0 0 0-.091-.027H21.78c-.023.003-.045.013-.062.028s-.029.037-.034.059a.097.097 0 0 0 0 .034l.004.038.027.301.013.146.006.072c0 .022.005.044.014.065.041.088.154.053.241.061l.967.003.652.004.177.003h.062-.239l-.652.005h-1.104a.136.136 0 0 1-.127-.075.174.174 0 0 1-.017-.074l-.006-.072-.014-.146-.027-.301-.004-.039a.138.138 0 0 1 .045-.115.145.145 0 0 1 .077-.036h2.125c.019-.002.038 0 .056.006a.133.133 0 0 1 .081.071.16.16 0 0 1 .013.052c0 .036-.007.065-.01.097l-.023.174-.037.278a.29.29 0 0 1-.022.101.127.127 0 0 1-.099.066.081.081 0 0 1-.019.018zM19.134 25.234c.016.006.03.014.043.024a3.587 3.587 0 0 1 .84.792c.011.013.02.027.027.042a1.6 1.6 0 0 1-.124-.136 5.014 5.014 0 0 0-.643-.606 1.458 1.458 0 0 1-.143-.117z"/><path fill="#133578" opacity=".09" d="M21.637 24.869c.014-.011.011-1.828.086-2.046.031-.103.075-.201.131-.293l-.049 2.211-.168.128zM22.903 20.277l1.33 1.779.172-.439-.217.278s-1.146-1.536-1.285-1.617zM21.805 25.12s1.169-.258 2.104 0h-2.104zM19.527 25.568c-.198-.233-.49-.364-.779-.466s-.589-.183-.848-.347a.253.253 0 0 1-.094-.087.101.101 0 0 1 .009-.119c.037-.035.097-.024.146-.009a3.33 3.33 0 0 1 1.531.983z"/><path fill="#211f54" d="M18.52 24.761a.482.482 0 0 1-.124-.038 1.824 1.824 0 0 1-.532-.324.466.466 0 0 1-.09-.093.774.774 0 0 1 .103.078 2.46 2.46 0 0 0 .527.321.82.82 0 0 1 .116.055zM18.872 25.3c.004.007-.168.089-.358.224s-.325.269-.331.264a.432.432 0 0 1 .083-.093 1.938 1.938 0 0 1 .49-.347.473.473 0 0 1 .116-.048zM21.481 23.623c.004.006-.486.327-1.093.717s-1.104.7-1.109.693c-.005-.006.486-.327 1.093-.717s1.104-.7 1.109-.693z"/><path fill="#4a4566" d="m24.383 21.79.016-.017a.892.892 0 0 1 .349-.181l.043-.01a.096.096 0 0 1 .053 0 .055.055 0 0 1 .031.047c0 .01-.001.019-.004.028s-.008.017-.015.024a.322.322 0 0 1-.088.056.922.922 0 0 1-.32.088c-.012.001-.024 0-.035-.005s-.021-.011-.028-.021a.247.247 0 0 1-.029-.053 1.716 1.716 0 0 1-.103-.323.309.309 0 0 1-.01-.109.078.078 0 0 1 .032-.049c.008-.006.018-.01.029-.01s.021.001.03.006a.14.14 0 0 1 .063.078.651.651 0 0 1 .015.474c-.003.007-.006.015-.01.021-.003 0 .009-.031.02-.087a.697.697 0 0 0 .003-.241.617.617 0 0 0-.049-.158.121.121 0 0 0-.053-.065c-.023-.013-.053.008-.055.037a.277.277 0 0 0 .011.099 1.63 1.63 0 0 0 .128.37c.005.006.011.011.018.013s.015.004.022.003a.843.843 0 0 0 .31-.085.292.292 0 0 0 .081-.049c.019-.019.018-.053 0-.062a.162.162 0 0 0-.079.007.98.98 0 0 0-.296.127c-.052.027-.078.047-.079.046z"/><path fill="#4a4566" d="M24.495 23.415a.55.55 0 0 0 .005-.239c-.013-.073-.043-.158-.071-.254a.634.634 0 0 1-.023-.326c.012-.057.029-.111.038-.163a.426.426 0 0 0 0-.151c-.018-.096-.056-.179-.071-.254a.366.366 0 0 1 0-.18.225.225 0 0 1 .019-.045l.011-.014c.001 0-.011.021-.02.061a.394.394 0 0 0 .008.174c.016.072.056.154.077.254.01.052.01.106 0 .158s-.026.109-.038.164a.617.617 0 0 0 .021.313c.027.084.049.171.065.258.011.06.011.12 0 .18a.163.163 0 0 1-.022.064z"/><path fill="#4a4566" d="M24.687 22.527a.342.342 0 0 1-.089-.089.862.862 0 0 1-.185-.567.35.35 0 0 1 .02-.124 1.057 1.057 0 0 0 .254.779z"/><path fill="#211f54" d="M22.555 19.807a.042.042 0 0 1-.014.009l-.041.025-.739.439a93.248 93.248 0 0 0-3.787 2.374l-.718.476-.041.026-.014.008.013-.011.039-.028.151-.105a69.33 69.33 0 0 1 4.936-3.094l.158-.09.042-.023.015-.007z"/></svg>