<svg xmlns="http://www.w3.org/2000/svg" viewBox="0 0 34 32"><path fill="#cee5ff" d="M16.061 32c8.87 0 16.061-7.163 16.061-16S24.931 0 16.061 0C7.191 0 0 7.163 0 16s7.191 16 16.061 16z"/><path fill="#fff" d="M7.92 5.43c-.985 0-1.784.796-1.784 1.779A1.78 1.78 0 0 0 7.92 8.986c.987 0 1.786-.796 1.786-1.777 0-.983-.799-1.779-1.786-1.779z"/><path fill="#fff" d="M9.706 10.001a3.054 3.054 0 0 1-3.059 3.048 3.053 3.053 0 0 1-3.059-3.048 3.054 3.054 0 0 1 3.059-3.048 3.055 3.055 0 0 1 3.059 3.048z"/><path fill="#fff" d="M14.803 8.477c0 1.964-1.597 3.556-3.568 3.556s-3.57-1.592-3.57-3.556 1.598-3.554 3.57-3.554 3.568 1.591 3.568 3.554z"/><path fill="#133578" d="M12.92 21.041H4a.8.8 0 0 1-.799-.743L2.48 10.292a.402.402 0 0 1 .402-.427h11.159a.4.4 0 0 1 .4.427l-.719 10.006a.803.803 0 0 1-.801.743z"/><path fill="#1d53bb" d="M13.545 20.161h-8.92a.8.8 0 0 1-.799-.743L3.105 9.412a.402.402 0 0 1 .402-.427h11.159a.4.4 0 0 1 .4.427l-.719 10.006a.803.803 0 0 1-.801.743z"/><path fill="#0075ff" d="M14.694 11.38H3.478a.4.4 0 0 1-.402-.398V9.386c0-.221.18-.4.402-.4h11.216a.4.4 0 0 1 .401.4v1.596a.4.4 0 0 1-.401.398z"/><path d="M4.764 3.389c0 .562-.457 1.015-1.019 1.015-.564 0-1.021-.453-1.021-1.015s.457-1.015 1.021-1.015c.562 0 1.019.453 1.019 1.015zM8.73 3.179a.807.807 0 0 1-.809.805c-.448 0-.81-.36-.81-.805s.363-.805.81-.805c.446 0 .809.36.809.805zM4.553 6.235a.807.807 0 0 1-.809.805c-.448 0-.81-.36-.81-.805s.363-.805.81-.805c.446 0 .809.36.809.805z"/><path fill="#133578" d="M2.415 15.98a.51.51 0 0 0 .73.036l5.908-5.446a.506.506 0 0 0 .048-.716.512.512 0 0 0-.719-.05l-5.931 5.469a.506.506 0 0 0-.036.707zM27.346 24.326v-1.408c0-.387.315-.701.707-.701h2.117c.389 0 .704.314.704.701v1.408h1.413c.778 0 1.41.627 1.41 1.405v1.405c0 .39-.315.704-.707.704h-7.761a.705.705 0 0 1-.706-.704v-1.405c0-.778.632-1.405 1.413-1.405h1.41zM16.517 18.619v.424c-4.092-1.508-9.877-2.368-9.877 3.556v.753a3.15 3.15 0 0 0-1.413 2.626 3.165 3.165 0 0 0 3.17 3.158c.74 0 1.422-.253 1.962-.677h8.495c2.217 0 4.014-1.766 4.014-3.946 0-1.69-1.246-2.654-2.725-3.738-.031-.021-.063-.043-.098-.065v-2.091a.703.703 0 0 0-.704-.704h-2.117a.703.703 0 0 0-.706.704z"/><path fill="none" stroke="#133578" stroke-miterlimit="10" stroke-width="2.109" d="M19.231 17.761V7.455c0-2.91 2.368-5.272 5.292-5.272 2.921 0 5.292 2.362 5.292 5.272v16.869"/><path fill="#1d53bb" d="M20.993 20.107h-3.527v-2.81c0-.39.315-.704.706-.704h2.117c.389 0 .704.314.704.704v2.81zM31.577 25.028H28.05v-2.812c0-.387.315-.701.707-.701h2.117c.389 0 .704.314.704.701v2.812z"/><path fill="#0075ff" d="M33.693 27.137h-7.76a.706.706 0 0 1-.707-.704v-1.405c0-.778.632-1.405 1.413-1.405h6.35c.778 0 1.41.627 1.41 1.405v1.405c0 .39-.315.704-.707.704zM7.589 27.137h12.214c2.217 0 4.014-1.766 4.014-3.946 0-1.69-1.246-2.654-2.725-3.738-2.138-1.455-13.502-6.479-13.502 1.824v5.859z"/><path fill="#1d53bb" d="M12.516 24.657c0 1.745-1.421 3.158-3.17 3.158s-3.17-1.413-3.17-3.158c0-1.742 1.421-3.155 3.17-3.155s3.17 1.413 3.17 3.155z"/></svg>