<svg xmlns="http://www.w3.org/2000/svg" viewBox="0 0 32 32"><path fill="#0075ff" d="M15.697 19.562a2.584 2.584 0 0 1 3.652-3.654c.11.11.201.229.287.352.086-.122.178-.242.287-.351a2.58 2.58 0 0 1 3.652 0c.034.034.057.074.089.109 1.068-1.815.839-4.183-.719-5.742-.925-.924-2.137-1.386-3.349-1.386s-2.425.463-3.349 1.387c-.2.2-.369.42-.526.644a4.701 4.701 0 0 0-.526-.644c-.925-.925-2.137-1.387-3.349-1.387s-2.425.463-3.349 1.387a4.735 4.735 0 0 0 0 6.698c.804.804 5.669 4.851 6.006 5.188s.777.504 1.218.504.882-.168 1.218-.504c.079-.079.412-.366.877-.762-.838-.711-1.862-1.581-2.121-1.839z"/><path fill="#123578" d="M23.578 15.909c-.504-.504-1.166-.757-1.826-.757s-1.322.252-1.826.756c-.11.11-.201.229-.287.351a2.574 2.574 0 0 0-.287-.351 2.58 2.58 0 0 0-3.652 0 2.584 2.584 0 0 0 0 3.654c.438.438 3.092 2.645 3.276 2.829s.424.275.665.275c.24 0 .481-.092.665-.275s2.838-2.392 3.276-2.829a2.583 2.583 0 0 0 0-3.653z"/></svg>