<svg xmlns="http://www.w3.org/2000/svg" viewBox="0 0 31 32"><path fill="#eff0f7" d="M3.439 28.067s-.828-4.627-.83-5.579c-.003-1.317.932-1.841.932-1.841l-.363-1.116h1.997L4.86 20.64s1.052.601.905 1.967a152.827 152.827 0 0 1-.711 5.459l-1.614.002zM12.944 31.401a.783.783 0 0 0-.706.018c-.006-.24-.068-.475-.181-.683s-.272-.381-.464-.505c-.192-.123-.409-.193-.632-.201s-.444.044-.643.152c-.067-.198-.174-.378-.313-.527s-.306-.263-.491-.335c-.184-.072-.381-.099-.576-.079s-.384.085-.553.191c-.168-.213-.391-.368-.64-.445s-.515-.073-.762.013c-.243.095-.455.265-.609.489s-.243.492-.256.771c-.17-.046-.348-.044-.517.006s-.323.146-.448.28c-.245.269-.569 1.094-.473 1.456l8.719-.019c-.032-.127-.089-.245-.168-.345s-.177-.181-.288-.235z"/><path fill="#dcddeb" d="M29.418 28.071c0 .007-6.586.012-14.708.012S0 28.077 0 28.071s6.584-.013 14.71-.013 14.708.006 14.708.013z"/><path fill="#05c168" d="M2.371 23.855c-.208-.116-.453-.131-.684-.091-.124.022-.253.062-.337.163s-.1.277-.003.364a.304.304 0 0 0 .213.058c.181-.002.38-.037.526.08.082.067.137.178.236.212.049.012.101.007.147-.015s.085-.06.109-.108a.46.46 0 0 0 .029-.318c-.012-.073-.04-.142-.081-.202s-.094-.108-.155-.143zM2.848 22.862c-.127.196-.375.131-.489.011s-.163-.293-.208-.46c-.101-.378-.203-.773-.127-1.159a.668.668 0 0 1 .137-.315c.036-.044.083-.077.134-.096s.107-.022.161-.011c.127.035.202.167.258.293.165.37.252.775.253 1.185 0 .191-.02.391-.12.549zM3.198 23.142c-.138-.177-.165-.435-.103-.656s.2-.409.361-.564a1.93 1.93 0 0 1 .645-.409.645.645 0 0 1 .29-.053c.05.003.098.019.14.047s.078.066.104.112c.068.14.003.309-.068.448a5.407 5.407 0 0 1-.424.696c-.127.177-.273.351-.467.431s-.395.07-.498-.074z"/><path fill="#211f54" d="M2.857 25.819a.397.397 0 0 1-.011-.091l-.022-.243a3.064 3.064 0 0 0-.171-.778 1.59 1.59 0 0 0-.2-.381.692.692 0 0 0-.464-.298.342.342 0 0 1-.084-.013.59.59 0 0 1 .305.062.763.763 0 0 1 .266.227c.086.118.156.249.207.388.051.139.091.282.119.428.021.119.035.24.042.361.007.103.01.187.011.245a.47.47 0 0 1 .002.092z"/><path fill="#211f54" d="M2.841 25.632a.28.28 0 0 1 0-.041v-.118c0-.102 0-.251-.005-.434a16.794 16.794 0 0 0-.094-1.319 21.571 21.571 0 0 0-.201-1.527c-.016-.091-.033-.171-.048-.242s-.027-.132-.04-.182c-.012-.05-.019-.085-.025-.115a.187.187 0 0 1-.007-.04c.006.012.01.025.013.039l.032.113c.014.049.029.11.045.182s.035.151.053.242c.094.468.164.941.211 1.417.057.557.084 1.065.084 1.432 0 .182 0 .332-.006.435l-.007.118a.14.14 0 0 1-.006.041z"/><path fill="#211f54" d="M2.839 24.653a.842.842 0 0 1 0-.123 3.51 3.51 0 0 1 .035-.335c.025-.164.059-.327.101-.487a4.14 4.14 0 0 1 .189-.577c.131-.344.319-.66.555-.931.041-.047.084-.09.13-.131.02-.018.038-.036.056-.051l.051-.038a.691.691 0 0 1 .097-.066c.005.008-.137.098-.316.304a3.284 3.284 0 0 0-.541.928 5.683 5.683 0 0 0-.298 1.054c-.024.139-.037.253-.046.331a.99.99 0 0 1-.014.122z"/><path fill="#4b3cfb" d="m3.716 26.38-.091 1.344H2.024l-.091-1.344h1.783z"/><path fill="#3f37a0" d="M3.871 25.85H1.742v.529h2.129v-.529zM3.871 27.672v.147H1.778v-.147h2.093z"/><path fill="#4b3cfb" d="m3.673 28.077.098-.258H1.854l.114.258h1.705z"/><path fill="#05c168" d="M26.976 14.872c.208-.116.453-.131.684-.091.124.022.253.062.337.163s.1.277.003.364a.304.304 0 0 1-.213.058c-.181-.002-.38-.037-.526.08-.082.067-.137.178-.236.212-.049.012-.101.007-.147-.015s-.085-.06-.109-.108a.46.46 0 0 1-.029-.318c.012-.073.04-.142.081-.202s.094-.108.155-.143zM26.499 13.88c.127.196.375.131.489.011s.163-.293.208-.46c.101-.377.202-.773.127-1.159a.674.674 0 0 0-.137-.315c-.036-.044-.083-.077-.134-.096s-.107-.022-.161-.011c-.127.036-.202.167-.258.293-.165.37-.252.775-.253 1.185 0 .191.02.391.12.549zM26.15 14.159c.138-.177.165-.435.103-.656s-.2-.409-.361-.564a1.93 1.93 0 0 0-.645-.409.645.645 0 0 0-.29-.053c-.05.003-.098.019-.14.047s-.078.066-.104.112c-.068.14-.003.309.067.448.124.243.266.476.424.696.127.177.273.351.467.431s.395.07.498-.074z"/><path fill="#211f54" d="M26.49 16.836a.397.397 0 0 0 .011-.091l.022-.243a3.064 3.064 0 0 1 .171-.778 1.61 1.61 0 0 1 .2-.381.701.701 0 0 1 .464-.298.342.342 0 0 0 .084-.013.59.59 0 0 0-.305.062.763.763 0 0 0-.266.227 1.589 1.589 0 0 0-.207.388 2.741 2.741 0 0 0-.119.428c-.021.119-.035.24-.042.361-.007.103-.01.187-.011.245a.47.47 0 0 0-.002.092z"/><path fill="#211f54" d="M26.506 16.649a.28.28 0 0 0 0-.041v-.118c0-.102 0-.251.005-.434.008-.367.038-.761.094-1.319.054-.523.127-1.132.201-1.527.016-.091.033-.171.048-.242s.027-.132.04-.182c.012-.05.019-.085.025-.115a.187.187 0 0 0 .007-.04.163.163 0 0 0-.013.039l-.032.113c-.014.049-.029.11-.045.182s-.035.151-.053.242c-.094.468-.164.941-.211 1.417a14.84 14.84 0 0 0-.084 1.432c0 .182 0 .332.006.435l.007.118a.14.14 0 0 0 .006.041z"/><path fill="#211f54" d="M26.508 15.671a.842.842 0 0 0 0-.123 3.51 3.51 0 0 0-.035-.335 4.726 4.726 0 0 0-.101-.487 4.276 4.276 0 0 0-.189-.577 3.11 3.11 0 0 0-.555-.932 1.462 1.462 0 0 0-.13-.131c-.02-.018-.038-.036-.056-.051l-.051-.038a.691.691 0 0 0-.097-.066c-.006.008.137.098.316.304.228.274.411.588.541.928a5.683 5.683 0 0 1 .298 1.054c.024.139.037.253.046.331a.99.99 0 0 0 .014.122z"/><path fill="#eff0f7" d="M25.388 23.686h-.583v2.499h.583v-2.499z"/><path fill="#dcddeb" d="M29.265 23.686h-.583v2.499h.583v-2.499z"/><path fill="#eff0f7" d="M33.004 17.925h-8.207v5.756h8.207v-5.756z"/><path fill="#dcddeb" d="M32.006 20.805a.182.182 0 0 1 0-.033V20.319c0-.314-.004-.77-.007-1.347l.013.014-6.401.009.021-.023V20.803l-.021-.023 5.921.017-1.34.007-4.601.01v-1.84l.022-.023 6.403.009v.014c0 .58-.005 1.039-.007 1.355V20.774c0 .019-.003.031-.003.031z"/><path fill="#dcddeb" d="M29.085 19.888c0 .06-.016.118-.047.168s-.075.088-.126.111a.268.268 0 0 1-.305-.066.316.316 0 0 1-.061-.33.298.298 0 0 1 .103-.136.267.267 0 0 1 .354.037.315.315 0 0 1 .082.214z"/><path fill="#0075ff" d="m25.996 15.772.314.486s-.705.211-.705.887.431.802.898.802.92-.148.898-.823-.608-.929-.608-.929l.294-.423h-1.091z"/><path fill="#05c168" d="M22.84 3.354c.018-.019.145.079.311.28.097.119.185.245.264.378.097.163.181.335.254.512.07.178.128.362.173.55.036.153.062.309.077.466.023.269 0 .435-.023.437-.06 0-.114-.646-.409-1.367s-.691-1.213-.647-1.256zM24.091 6.514c-.026 0-.097-.352-.164-.935s-.123-1.393-.144-2.288c-.021-.895-.013-1.704 0-2.289s.042-.948.07-.948c.028 0 .052.362.071.947s.033 1.394.055 2.284c.022.891.054 1.696.086 2.279s.055.949.026.949z"/><path fill="#05c168" d="M25.301 1.431c.026.016-.077.265-.216.68s-.311.993-.48 1.643c-.169.65-.296 1.241-.374 1.676s-.11.703-.14.702c-.03-.001-.046-.28 0-.725a12.21 12.21 0 0 1 .321-1.71c.142-.562.323-1.111.542-1.643.174-.408.325-.636.347-.622z"/><path fill="#6e7191" d="M22.533 5.77v.712c0 .2.036.397.107.582s.175.352.305.494c.131.141.286.253.457.33a1.311 1.311 0 0 0 1.08.001c.172-.076.326-.188.457-.329.131-.141.235-.309.306-.493s.107-.382.107-.582v-.714h-2.819z"/><path fill="#eff0f7" d="M33.657 8.005H20.649v.811h13.008v-.811z"/><path fill="#dcddeb" d="M23.545 8.816h-.429v1.404h.429V8.816zM30.68 8.816h-.429v1.404h.429V8.816z"/><path fill="#3f37a0" d="M34.849 16.688v1.237h-4.934c-.152 0-.297-.065-.404-.181s-.167-.272-.167-.436c0-.163.06-.32.167-.436s.253-.181.404-.181z"/><path fill="#4b3cfb" d="M34.849 15.499v1.237h-4.934c-.152 0-.297-.065-.404-.181s-.167-.272-.167-.436.06-.32.167-.436a.55.55 0 0 1 .404-.181l4.934-.004z"/><path fill="#dcddeb" d="m28.083 5.082-.295 2.948h3.775l.314-2.948h-3.794z"/><path fill="#fff" d="m28.238 5.293-.287 2.58h3.408l.276-2.58h-3.397z"/><path fill="#4b3cfb" d="m28.812 5.727-.176 1.712h2.15l.11-1.712h-2.084z"/><path fill="#6e7191" d="m24.038 25.706.471 2.383h-.604l-1.012-2.423 1.145.04z"/><path fill="#6e7191" d="M24.038 25.706h-.082l-.23-.006-.834-.025.008-.012.861 2.055.153.367-.01-.007h.604l-.01.013-.333-1.708-.095-.496-.025-.133a.432.432 0 0 1-.006-.035v-.012l.003.011.007.033.027.129.1.494.343 1.713.003.013h-.623l-.002-.006-.154-.367-.856-2.057-.005-.012h.012l.84.034.228.01.059.003.018.003zM7.338 25.706l-.471 2.383h.604l1.012-2.423-1.145.04z"/><path fill="#6e7191" d="M7.338 25.706a.067.067 0 0 1 .02 0l.059-.003.228-.01.852-.034-.005.012-.856 2.057-.153.367-.003.006h-.624l.002-.013.343-1.713.1-.493.027-.129.008-.033c0-.007.002-.011.003-.011l-.002.012c0 .009-.004.02-.006.035l-.025.133-.096.496c-.082.423-.2 1.018-.333 1.708l-.01-.013h.604l-.009.007.153-.367.861-2.055.007.012-1.063.031h-.06l-.021-.004z"/><path fill="#cbcddc" d="M25.335 23.327H7.432v3.091h17.903v-3.091zM16.143 20.853V17.37a.489.489 0 0 1 .126-.329.41.41 0 0 1 .305-.136h7.542c.114 0 .224.049.305.136s.126.205.126.329v4.84l-8.416.259.011-1.614z"/><path fill="#cbcddc" d="M7.699 20.853V17.37a.498.498 0 0 1 .127-.33.425.425 0 0 1 .307-.136h7.577c.115 0 .224.049.306.136s.127.205.127.329l-.011 5.097-8.432-.259v-1.354zM26.449 26.384h-1.934c-.181 0-.327-.207-.327-.462v-5.503c0-.255.146-.462.332-.462h1.934c.176 0 .32.207.32.462v5.503c.002.255-.144.462-.325.462z"/><path fill="#6e7191" d="M26.449 26.384s.014 0 .04-.006a.256.256 0 0 0 .113-.053.418.418 0 0 0 .123-.169.552.552 0 0 0 .037-.132.925.925 0 0 0 .008-.158l-.004-1.901c-.002-.802 0-1.759 0-2.82v-.608c.002-.069 0-.137-.006-.205-.009-.068-.03-.133-.062-.193s-.078-.109-.134-.142c-.028-.016-.059-.026-.09-.028s-.066 0-.099 0h-1.858c-.069.003-.135.034-.184.086s-.086.116-.108.187a.706.706 0 0 0-.026.22v5.442c-.001.05.003.1.013.15a.48.48 0 0 0 .127.249.282.282 0 0 0 .11.068c.041.01.083.014.125.011h1.233l.605.002h-1.838a.395.395 0 0 1-.128-.012.292.292 0 0 1-.116-.071.495.495 0 0 1-.132-.259.714.714 0 0 1-.014-.153v-5.442a.725.725 0 0 1 .028-.227.48.48 0 0 1 .113-.196.283.283 0 0 1 .198-.09H26.475a.23.23 0 0 1 .098.031c.06.035.109.087.142.15a.61.61 0 0 1 .065.2c.006.069.008.139.006.209v.608c0 1.062 0 2.017-.002 2.82l-.003 1.901a.943.943 0 0 1-.009.159.574.574 0 0 1-.04.134.419.419 0 0 1-.126.172.254.254 0 0 1-.115.051.196.196 0 0 1-.041.013z"/><path fill="#cbcddc" d="M23.979 22.146h-7.52c-.19 0-.344.166-.344.371v1.044c0 .205.154.371.344.371h7.52c.19 0 .344-.166.344-.371v-1.044c0-.205-.154-.371-.344-.371z"/><path fill="#6e7191" d="M23.979 23.931s.017 0 .049-.006c.063-.01.121-.039.17-.083s.084-.102.104-.167a.501.501 0 0 0 .017-.159v-.867c0-.085.01-.178-.023-.263a.355.355 0 0 0-.174-.2c-.082-.043-.179-.031-.276-.033l-7.386.006c-.08 0-.157.032-.218.088s-.099.134-.11.219c-.004.043-.005.086-.004.129v.909a.655.655 0 0 0 .006.125c.007.04.021.079.04.114a.335.335 0 0 0 .171.153c.07.03.148.02.226.022l7.215.01-.56.003-6.771.007c-.061-.001-.121-.018-.174-.051s-.097-.08-.128-.136a.405.405 0 0 1-.044-.122.797.797 0 0 1-.007-.129v-.902a1.2 1.2 0 0 1 .004-.134c.012-.092.055-.176.12-.236s.148-.095.235-.095l7.527.004a.317.317 0 0 1 .138.035c.061.03.113.079.149.14s.056.132.055.205V23.516a.492.492 0 0 1-.018.162.366.366 0 0 1-.144.197.325.325 0 0 1-.188.057z"/><path fill="#cbcddc" d="M7.386 26.417H5.452c-.18 0-.327-.207-.327-.462v-5.503c0-.255.147-.462.333-.462h1.934c.176 0 .32.207.32.462v5.504c.002.254-.144.461-.325.461z"/><path fill="#6e7191" d="M7.386 26.417s.014 0 .04-.005a.256.256 0 0 0 .113-.053.418.418 0 0 0 .123-.169.552.552 0 0 0 .037-.132.925.925 0 0 0 .008-.158c0-.45 0-1.099-.003-1.901s0-1.759-.002-2.821v-.608c.002-.069 0-.137-.006-.206-.009-.068-.03-.133-.062-.192s-.078-.109-.134-.142c-.028-.016-.059-.026-.09-.028s-.066 0-.099 0H5.453c-.069.002-.135.032-.184.084s-.086.116-.108.187a.703.703 0 0 0-.026.219v5.442c-.001.05.003.1.013.15a.487.487 0 0 0 .127.249.294.294 0 0 0 .11.068.406.406 0 0 0 .125.012h1.233l.48.002-.48.002H5.51c-.043.003-.086-.001-.128-.012s-.082-.031-.116-.06a.499.499 0 0 1-.132-.259.714.714 0 0 1-.013-.153v-5.442a.741.741 0 0 1 .025-.225.48.48 0 0 1 .113-.196.284.284 0 0 1 .2-.09H7.417a.23.23 0 0 1 .098.031c.06.034.109.086.142.15a.61.61 0 0 1 .065.2c.006.069.008.139.006.209v.608c0 1.061 0 2.017-.002 2.82l-.003 1.901a.937.937 0 0 1-.009.159.574.574 0 0 1-.04.134.413.413 0 0 1-.126.17.254.254 0 0 1-.16.055z"/><path fill="#cbcddc" d="M15.771 22.126H7.788c-.19 0-.344.166-.344.371v1.084c0 .205.154.371.344.371h7.983c.19 0 .344-.166.344-.371v-1.084c0-.205-.154-.371-.344-.371z"/><path fill="#6e7191" d="M15.771 23.952s.018 0 .052-.006c.066-.012.127-.044.176-.092s.084-.112.1-.181c.011-.056.014-.112.011-.169v-.912c0-.045 0-.092-.003-.138a.38.38 0 0 0-.129-.244.322.322 0 0 0-.123-.064.498.498 0 0 0-.144-.011l-7.921.004c-.084 0-.165.034-.226.096s-.099.147-.104.237v1.094a.386.386 0 0 0 .076.24.328.328 0 0 0 .2.125c.04.005.08.007.12.005l7.713.01-.587.002-7.127.007a.64.64 0 0 1-.124-.006c-.085-.015-.163-.063-.217-.135s-.083-.163-.08-.257v-1.096c.006-.097.046-.189.112-.255s.153-.104.244-.104l7.921.004a.358.358 0 0 1 .369.195c.022.043.035.09.04.139s.002.094.002.14V23.492a.705.705 0 0 1-.012.172c-.017.071-.053.135-.103.183a.332.332 0 0 1-.221.093l-.012.009zM16.143 17.331c.007 0 .013 1.114.013 2.489s-.006 2.489-.013 2.489c-.007 0-.012-1.114-.012-2.489s.006-2.489.012-2.489zM20.451 18.906s-.008.012-.018.033a.194.194 0 0 0 .009.166.167.167 0 0 0 .047.052c.024.012.051.017.078.013s.052-.015.073-.032c.021-.018.037-.042.047-.069s.012-.056.006-.085c-.007-.023-.02-.044-.035-.061s-.035-.031-.056-.039a.145.145 0 0 0-.092-.009c-.022.005-.033.012-.034.01a.066.066 0 0 1 .031-.021.143.143 0 0 1 .1 0 .177.177 0 0 1 .108.111c.01.032.01.067 0 .099-.012.033-.031.063-.057.085s-.057.036-.09.04a.132.132 0 0 1-.09-.022c-.022-.015-.039-.036-.052-.06a.195.195 0 0 1-.001-.184c.012-.022.024-.029.024-.028z"/><path fill="#6e7191" d="M21.217 18.257c0 .005-.051.006-.13.03-.102.03-.195.088-.271.168s-.131.179-.162.289c-.024.086-.026.139-.031.139a.604.604 0 0 1 .015-.144c.027-.115.083-.22.161-.303a.577.577 0 0 1 .383-.181.104.104 0 0 1 .035.003zM19.446 19.175a.593.593 0 0 1 .106-.12.617.617 0 0 1 .8.004c.02.019.03.031.029.032s-.047-.038-.131-.082a.628.628 0 0 0-.688.061c-.076.059-.113.109-.117.106zM20.636 19.627a.238.238 0 0 1-.05-.063.435.435 0 0 1-.075-.186c-.004-.035-.001-.07.009-.104s.028-.064.051-.088c.04-.037.073-.036.072-.033s-.029.011-.06.047a.243.243 0 0 0-.048.175.526.526 0 0 0 .065.179.285.285 0 0 1 .034.073z"/><path fill="#a0a3bd" d="m24.58 27.388.741 2.395-2.922 1.058c-.072-.29 1.26-1.408 1.26-1.408l-.535-1.512 1.456-.532z"/><path fill="#fff" opacity=".36" d="m25.32 29.786-.082-.24-2.772 1.101s-.114.105-.068.192l2.922-1.053z"/><path fill="#263238" d="M23.48 28.697a.291.291 0 0 0 .146-.053.689.689 0 0 0 .241-.23c.006-.014.008-.029.005-.043s-.011-.027-.022-.037c-.011-.008-.023-.012-.035-.014s-.026 0-.038.004a.537.537 0 0 0-.24.228c-.048.089-.054.151-.048.152s.027-.055.079-.133a.666.666 0 0 1 .183-.18c.028-.02.054-.029.067-.018s.006.007 0 .018a.893.893 0 0 1-.212.217 1.351 1.351 0 0 0-.125.089z"/><path fill="#263238" d="M23.505 28.711a.263.263 0 0 0-.006-.157.514.514 0 0 0-.137-.233c-.015-.017-.033-.03-.053-.037s-.042-.009-.063-.004c-.012.005-.023.013-.032.024s-.014.024-.016.038a.208.208 0 0 0 0 .061.356.356 0 0 0 .142.232.196.196 0 0 0 .146.047c.003-.009-.057-.019-.123-.077a.33.33 0 0 1-.115-.21c-.006-.033 0-.061.011-.061.012 0 .025.002.036.007s.022.013.03.023a.506.506 0 0 1 .137.206c.034.084.035.144.044.143z"/><path fill="#a0a3bd" d="m18.708 27.941.133 2.495-3.08.044c.014-.3 1.597-.922 1.597-.922l-.08-1.617h1.43z"/><path fill="#fff" opacity=".36" d="m18.841 30.439-.012-.254-2.95.137s-.136.061-.119.161l3.081-.044z"/><path fill="#263238" d="M17.331 29.171c.006.014.075-.009.16-.004s.152.031.159.018c.007-.013-.057-.067-.157-.071s-.171.046-.163.057zM17.399 28.799a.288.288 0 0 0 .154-.003.723.723 0 0 0 .249-.102.167.167 0 0 0 .046-.038.066.066 0 0 0 .005-.082c-.008-.011-.018-.019-.03-.025s-.024-.009-.037-.009a.514.514 0 0 0-.152.044.537.537 0 0 0-.141.097c-.071.068-.094.126-.089.129s.041-.044.114-.1a.627.627 0 0 1 .224-.11c.032-.009.057-.01.069.005.003.006.003.007-.003.017a.154.154 0 0 1-.034.028.83.83 0 0 1-.229.11.937.937 0 0 0-.147.039z"/><path fill="#263238" d="M17.419 28.82a.252.252 0 0 0 .038-.152.53.53 0 0 0-.064-.267c-.009-.021-.023-.039-.04-.053s-.038-.022-.059-.025c-.014 0-.027.005-.038.012s-.02.019-.026.032a.19.19 0 0 0-.015.058.368.368 0 0 0 .068.267c.061.081.124.098.125.093s-.048-.036-.095-.114a.378.378 0 0 1-.051-.239c.005-.033.017-.061.028-.057s.042.025.057.051a.508.508 0 0 1 .072.241c.006.092-.009.15-.001.152z"/><path fill="#211f54" d="M17.871 17.876s-1.202 6.307-1.202 6.522.464 4.877.464 4.877h1.762l-.403-5.049 1.43-4.227-.143-2.123h-1.908z"/><path fill="#211f54" d="M19.634 18.959c.029.21 3.569 10.054 3.569 10.054l1.749-.666c-.017 0-2.018-5.775-2.018-5.775s-.064-3.08-.234-4.608c-.107-.962-.911-1.529-.911-1.529l-2.332 1.329.177 1.195z"/><path fill="#0075ff" d="M16.849 11.935c-.011.061 1.044 3.955 1.044 3.955l.079 1.404-.151.67s1.227.16 2.146.204 1.87-1.583 1.87-1.583l-.468-4.261-1.654-2.064-.635.205s-.363 1.338-1.421.825l-.143.088-.668.557z"/><path fill="#0075ff" d="m16.95 11.445 1.103-.594 1.525-.545s.881-.203 1.415.119c.467.283.697 5.133.697 5.133l.131.967-3.833.783.065-.959s-.759-1.498-.934-2.156c-.067-.955-.168-2.748-.168-2.748z"/><path fill="#fff" d="M21.32 11.86a.027.027 0 0 1-.01.006l-.03.016a2.989 2.989 0 0 1-1.013.298l-.033.003-.012.001.012-.003.033-.005.121-.02a3.589 3.589 0 0 0 .892-.279l.031-.014a.049.049 0 0 1 .011-.004z"/><path fill="#211f54" d="M18.403 5.016a.403.403 0 0 1 .307-.189c.05-.004.105.002.143-.033a.363.363 0 0 0 .055-.098.205.205 0 0 1 .128-.096.183.183 0 0 1 .154.032c.019.02.041.037.065.049.104.035.176-.177.279-.141a.238.238 0 0 0-.09.11c-.009.023-.01.049-.004.073s.02.045.038.06c.103.066.216-.149.326-.099.06.029.083.123.148.127a.204.204 0 0 0 .072-.02c.041-.011.084-.005.121.017s.065.058.078.101c.02.074 0 .173.061.214.038.025.086.01.128-.005a.508.508 0 0 1-.012.209c.062.027.112.079.139.145s.03.141.007.209a.553.553 0 0 1 .175.134c.046.059.069.146.038.216a.203.203 0 0 0-.02.048.109.109 0 0 0 .009.056c.025.068.066.131.075.204s-.026.162-.094.168c-.016.001-.034-.001-.045.011a.052.052 0 0 0-.011.036c.004.053.017.104.036.153s.021.104.004.154c-.021.048-.084.075-.121.04l.098.23c.019.046.037.102.012.143-.034.054-.117.033-.158-.016s-.061-.115-.103-.162a.413.413 0 0 1-.052-.058c-.011-.018-.017-.041-.034-.051-.035-.021-.073.033-.062.074s.047.067.077.094c.03.027.058.07.044.111-.006.019-.022.035-.027.054-.021.068.072.111.093.178.016.05-.011.103-.039.146-.034.053-.108.104-.144.053a.662.662 0 0 1-.024-.062.154.154 0 0 0-.056-.049.326.326 0 0 1-.117-.144c.06.056.127.133.105.216a.364.364 0 0 1-.052.092c-.036.058-.053.129-.089.189s-.102.107-.164.085a.172.172 0 0 1-.034.194.139.139 0 0 1-.183.009.14.14 0 0 0-.046-.03.098.098 0 0 0-.056.012c-.055.021-.115.026-.172.013s-.111-.042-.154-.085l.054-.033c-.116.006-.237.012-.341-.041s-.19-.178-.159-.298c.013-.052.045-.11.019-.155-.018-.032-.057-.041-.091-.046l-.429-.075c-.069-.012-.143-.026-.196-.075s-.074-.148-.023-.2a.379.379 0 0 0-.167-.136c-.074-.031-.156-.035-.231-.061s-.151-.088-.16-.172c-.009-.084.087-.173.152-.12-.032-.125-.243-.092-.282-.214-.032-.099.081-.176.13-.267-.019-.032-.056-.049-.076-.082-.041-.068.017-.155.079-.203s.137-.098.14-.18c.003-.081-.075-.16-.048-.238.008-.021.024-.038.043-.048s.042-.011.062-.003c.029-.157.302-.096.354-.246a.06.06 0 0 0 .003-.037.068.068 0 0 0-.018-.026c-.036-.034-.086-.047-.128-.071s-.083-.07-.074-.121c.009-.051.093-.066.101-.015.011-.013.024-.023.039-.029s.031-.009.047-.008c.016.001.032.006.046.015s.026.021.035.035c.025-.049.088-.061.139-.041.048.024.089.06.122.104z"/><path fill="#4b3cfb" d="M19.317 6.505c-.082-.2-.257-.337-.439-.432a.479.479 0 0 0-.243-.07c-.085.004-.172.056-.199.143l.04.147c.028.242.236.403.359.607.053.089.105.198.199.22a.194.194 0 0 0 .147-.034c.176-.111.218-.379.136-.581z"/><path fill="#211f54" d="M19.547 7.599c.042-.105.049-.222.019-.332s-.095-.204-.183-.268c.058-.129-.005-.29-.11-.379s-.239-.122-.369-.152c-.13-.305-.51-.45-.789-.303-.204-.207-.54-.167-.785-.022a.687.687 0 0 1-.186.092c-.05.007-.1.011-.15.011-.275.025-.498.291-.547.584a.588.588 0 0 1-.031.138c-.025.056-.072.097-.109.145a.504.504 0 0 0-.093.38c.018.113.076.224.053.336-.011.056-.043.107-.049.164-.018.165.172.286.176.451.002.033-.007.067-.009.1a.3.3 0 0 0 .057.195c.031.042.074.077.087.129.006.04.006.081.002.122.002.1.267.421.354.455l2.285-.522c.082-.041.15-.109.194-.194s.063-.183.054-.28a.19.19 0 0 1 .003-.095.214.214 0 0 1 .053-.059c.129-.12.102-.342.05-.517a.243.243 0 0 1-.014-.075.316.316 0 0 1 .036-.103z"/><path fill="#ffbf9d" d="M18.894 7.758c-.083-.437-.438-.877-.883-.994-.282-.074-.478-.028-.614-.013a.914.914 0 0 0-.513.25c-.119.062-.487.627-.409 1.126.086.555.211 1.228.359 1.621.298.79.903.748.903.748l.225 1.377 1.393-1.417-.461-2.699z"/><path fill="#211f54" d="M18.015 8.697c.003.031.018.06.04.08s.051.03.08.027c.014-.001.028-.004.041-.011s.024-.016.034-.027c.009-.011.017-.025.022-.039a.114.114 0 0 0-.034-.125.105.105 0 0 0-.08-.027c-.014.001-.028.004-.041.011s-.024.016-.034.027a.116.116 0 0 0-.028.084zM16.884 8.783c.003.031.018.06.04.08s.051.03.08.027c.014-.001.028-.004.041-.011s.024-.016.034-.027a.116.116 0 0 0 .028-.084c-.003-.031-.017-.06-.04-.08s-.051-.03-.08-.027c-.014.001-.028.004-.041.011s-.024.016-.034.027a.116.116 0 0 0-.028.084zM16.645 8.413c.015.014.092-.064.21-.079s.214.038.225.021c.006-.008-.011-.032-.053-.059a.287.287 0 0 0-.348.047c-.032.035-.042.065-.034.071zM17.86 8.335c.017.012.086-.073.202-.102s.216.014.226-.005c.005-.008-.015-.032-.059-.053a.284.284 0 0 0-.186-.015.285.285 0 0 0-.157.101c-.029.038-.035.069-.027.074zM17.503 9.306a.802.802 0 0 0-.198-.013c-.031.001-.062-.002-.068-.024s-.001-.06.009-.1l.062-.262c.085-.372.143-.677.129-.68s-.094.295-.18.668l-.058.263c-.007.039-.022.084-.001.131.006.011.014.02.023.028s.021.012.032.014a.181.181 0 0 0 .052.001c.122-.008.197-.018.196-.025z"/><path fill="#ff9a6c" d="M17.589 9.609a.217.217 0 0 1 .183-.111c.027-.001.053.004.078.015s.047.026.066.046a.145.145 0 0 1 .026.152c-.027.053-.093.073-.15.063a.439.439 0 0 1-.201-.112c-.005-.007-.008-.015-.009-.023s.001-.017.004-.025z"/><path fill="#211f54" d="M17.864 9.349c-.019.001-.004.141-.104.254s-.239.116-.238.136c.001.009.034.023.093.017a.318.318 0 0 0 .279-.317c-.003-.059-.022-.091-.03-.089zM17.713 7.84c.019.032.132-.013.273-.029s.261-.002.273-.037c.005-.017-.021-.045-.073-.067-.068-.026-.141-.035-.213-.026s-.141.035-.203.077c-.046.034-.066.067-.057.082zM16.626 7.856c.024.026.103-.014.202-.029s.184-.004.201-.037c.007-.016-.01-.043-.049-.066a.28.28 0 0 0-.325.053c-.031.036-.039.067-.029.079z"/><path fill="#894943" d="M17.738 10.496c.36-.084.692-.274.958-.55 0 0-.147.646-.925.76l-.034-.211z"/><path fill="#ffbf9d" d="M18.939 8.567c-.013-.061.021-.221.076-.245.144-.063.416-.117.507.291.124.558-.421.577-.425.562s-.113-.398-.158-.608z"/><path fill="#894943" d="M19.193 8.933c.002-.002.01.004.028.008a.087.087 0 0 0 .068-.016c.05-.037.075-.141.055-.242a.35.35 0 0 0-.056-.133c-.009-.016-.021-.03-.036-.04s-.031-.016-.049-.017c-.011 0-.022.004-.03.011s-.015.018-.017.029c-.003.017.002.028 0 .029s-.013-.006-.014-.032c0-.015.004-.029.012-.04a.07.07 0 0 1 .047-.027c.022-.001.044.004.064.015s.037.027.049.047a.355.355 0 0 1 .066.148c.022.113-.008.233-.078.275-.013.008-.027.012-.042.014s-.03-.001-.044-.007c-.019-.008-.024-.02-.023-.021z"/><path fill="#211f54" d="M16.362 8.164c.089-.097.136-.209.101-.34.074.005.124-.109.151-.184s.069-.12.049-.197a.093.093 0 0 1-.003-.047c.006-.024.028-.037.049-.05.051-.033.094-.08.124-.135s.047-.118.049-.182a.709.709 0 0 0 .368-.025.27.27 0 0 0 .396-.009.324.324 0 0 0 .075-.133.253.253 0 0 0 .198.092.713.713 0 0 0 .218-.041c.003.079.033.154.083.212a.3.3 0 0 0 .22.106.076.076 0 0 1 .026.015c.009.02.011.043.004.064a.277.277 0 0 0 .058.193.231.231 0 0 0 .169.089.206.206 0 0 0-.026.166.2.2 0 0 0 .039.075.166.166 0 0 0 .066.049c.022.008.049.016.052.041a.063.063 0 0 1-.006.027c-.027.065-.053.135-.042.205s.07.137.135.123c-.015.019-.026.041-.033.065s-.009.049-.007.074c.01.049.067.087.104.059.016-.012.263-.131.271-.15.1-.252-.135-.443-.207-.706a1.806 1.806 0 0 0-.387-.701 1.215 1.215 0 0 0-.242-.223 1.58 1.58 0 0 0-.334-.155c-.15-.055-.304-.11-.462-.11-.295-.001-.563.181-.796.376a1.286 1.286 0 0 0-.243.251c-.076.12-.132.253-.165.394-.054.201-.09.412-.065.619z"/><path fill="#4a4566" d="M16.218 7.994a.267.267 0 0 1 .015-.068c.007-.021.018-.047.026-.078a.28.28 0 0 0 .007-.112.813.813 0 0 0-.032-.138.675.675 0 0 1-.031-.167.505.505 0 0 1 .146-.374.372.372 0 0 0 .063-.093.523.523 0 0 0 .027-.117.79.79 0 0 1 .245-.464.538.538 0 0 1 .39-.149c.048-.001.095-.012.139-.034s.086-.051.131-.076a.849.849 0 0 1 .451-.111.5.5 0 0 1 .301.121l.025.023-.009-.001c.145-.069.309-.075.458-.018s.272.175.343.328l-.005-.005c.069.015.137.034.204.058a.544.544 0 0 1 .179.106.398.398 0 0 1 .109.176.293.293 0 0 1-.009.2l-.003-.009a.524.524 0 0 1 .163.613c-.009.021-.018.039-.025.059-.007.019-.009.039-.007.059s.008.039.014.058c.021.069.034.141.04.214a.485.485 0 0 1-.017.174.295.295 0 0 1-.061.111c-.023.026-.045.039-.056.052a.177.177 0 0 0-.016.022.068.068 0 0 1 .014-.023c.011-.014.033-.029.054-.054a.293.293 0 0 0 .059-.11.475.475 0 0 0 .014-.172.997.997 0 0 0-.041-.211.566.566 0 0 1-.015-.059c-.003-.022 0-.044.007-.064s.016-.041.025-.06a.508.508 0 0 0-.161-.596l-.005-.003.003-.006a.279.279 0 0 0 .008-.191.376.376 0 0 0-.105-.169.553.553 0 0 0-.175-.103 1.446 1.446 0 0 0-.202-.057h-.004v-.004c-.07-.148-.19-.261-.335-.316s-.304-.049-.445.018l-.005.002-.004-.004-.024-.022a.488.488 0 0 0-.292-.117.73.73 0 0 0-.304.045c-.048.017-.094.038-.139.063s-.086.054-.132.076a.355.355 0 0 1-.145.035l-.072.003c-.024.001-.046.006-.069.011a.505.505 0 0 0-.129.049.667.667 0 0 0-.112.079.776.776 0 0 0-.242.455.506.506 0 0 1-.028.121.357.357 0 0 1-.066.096.465.465 0 0 0-.113.176.504.504 0 0 0-.001.353.932.932 0 0 1 .031.139.275.275 0 0 1-.009.114c-.009.032-.021.057-.028.078a.397.397 0 0 0-.018.067z"/><path fill="#4a4566" d="m17.846 6.102-.044-.012a.327.327 0 0 0-.285.062.371.371 0 0 0-.135.26c-.001.01-.001.021.002.031s.008.019.014.027l.017.016-.022-.001a.21.21 0 0 0-.158.061.234.234 0 0 0-.066.125.287.287 0 0 0-.001.097l.007.035a.241.241 0 0 1 .051-.266.22.22 0 0 1 .166-.066l-.006.015c-.008-.009-.015-.021-.018-.033s-.005-.025-.003-.038a.384.384 0 0 1 .143-.272.32.32 0 0 1 .296-.055c.011.003.021.008.032.013.008.002.011.005.011.005zM18.824 6.536a.348.348 0 0 1-.064.084.26.26 0 0 1-.096.059.179.179 0 0 1-.138-.01l.011-.005-.01.027c-.003.01-.009.018-.013.026a.326.326 0 0 1-.231.166.248.248 0 0 1-.086 0 .085.085 0 0 1-.031-.009.443.443 0 0 0 .115-.003.329.329 0 0 0 .219-.163l.013-.025.01-.025.003-.009.008.004c.04.02.084.023.126.01a.275.275 0 0 0 .094-.053c.048-.041.069-.075.071-.073zM19.209 6.986l.001.011a.16.16 0 0 1-.006.03.153.153 0 0 1-.071.081.252.252 0 0 1-.153.019c-.029-.004-.058-.007-.089-.015a.146.146 0 0 1-.087-.053l-.005-.008.013.001a.622.622 0 0 1-.133.138.257.257 0 0 1-.142.052.182.182 0 0 1-.122-.038l-.007-.007s.011.007.032.017c.03.013.063.019.096.016a.269.269 0 0 0 .135-.053.614.614 0 0 0 .128-.136l.007-.009.007.01.004.007a.13.13 0 0 0 .078.047.66.66 0 0 0 .087.015c.049.01.099.005.145-.014a.149.149 0 0 0 .082-.111zM19.339 4.852s-.009.003-.024.011a.128.128 0 0 0-.049.054.196.196 0 0 0-.016.117c.01.052.028.102.052.148l.004.008-.009.001a.295.295 0 0 0-.22.207.272.272 0 0 0 .035.215c.02.029.046.053.076.069l.02.01-.022.005c-.037.009-.071.027-.101.051s-.055.055-.074.091c-.03.057-.04.124-.03.188a.328.328 0 0 0 .044.119c.016.025.027.037.026.038s-.003-.002-.009-.008-.015-.017-.021-.027A.32.32 0 0 1 19 5.831a.296.296 0 0 1 .186-.152l-.002.016c-.032-.017-.06-.043-.082-.074s-.036-.067-.043-.106a.277.277 0 0 1 .005-.128.303.303 0 0 1 .231-.214l-.005.01a.58.58 0 0 1-.051-.152.208.208 0 0 1 .02-.123.118.118 0 0 1 .054-.054.06.06 0 0 1 .019-.006l.006.001zM20.523 5.835l-.007.008-.023.019a.358.358 0 0 1-.099.051c-.054.019-.111.025-.167.019a.384.384 0 0 1-.201-.08l.011-.004c-.015.052-.04.099-.074.139s-.076.071-.122.091a.244.244 0 0 1-.29-.084l.013-.004a.239.239 0 0 1-.042.11.316.316 0 0 1-.074.072c-.047.03-.1.05-.154.057a.745.745 0 0 1-.106.008c-.013.001-.025 0-.038-.001a.366.366 0 0 0 .293-.074.242.242 0 0 0 .108-.174l.002-.02.011.016c.032.042.076.072.125.087s.101.012.148-.007a.345.345 0 0 0 .188-.219l.003-.011.008.006a.382.382 0 0 0 .357.065.473.473 0 0 0 .131-.07zM20.154 6.788s0 .004-.004.012a.058.058 0 0 1-.026.021.22.22 0 0 1-.119.009.28.28 0 0 1-.157-.086.336.336 0 0 1-.086-.213v-.002l.013.007a.335.335 0 0 1-.202.082.37.37 0 0 1-.173-.034.424.424 0 0 1-.133-.097.635.635 0 0 0 .137.087.36.36 0 0 0 .168.029.327.327 0 0 0 .192-.081l.012-.011.001.019a.319.319 0 0 0 .08.202.271.271 0 0 0 .264.083.053.053 0 0 0 .032-.027zM18.209 5.153a.532.532 0 0 0 .013.178c.018.069.053.132.102.18a.351.351 0 0 0 .301.099l.01-.001.001.011a.548.548 0 0 0 .079.32c.01.016.02.031.032.045.004.005.009.009.014.012s.011.004.018.004c.004 0 .008-.002.011-.004l.008-.008c.003-.005.003-.008.003-.008l-.001.01c-.002.004-.005.008-.009.011s-.008.005-.012.005a.046.046 0 0 1-.039-.016.567.567 0 0 1-.099-.181.538.538 0 0 1-.022-.191l.009.009a.36.36 0 0 1-.313-.103.4.4 0 0 1-.104-.189.451.451 0 0 1-.006-.168l.001-.014z"/><path fill="#4b3cfb" d="M19.418 9.214c.002.037-.005.073-.022.105s-.042.057-.073.074a.162.162 0 0 1-.19-.026c-.026-.024-.044-.056-.053-.091s-.008-.073.003-.108.031-.065.058-.088.059-.036.093-.038a.166.166 0 0 1 .125.045c.017.016.031.035.041.057s.016.046.018.07z"/><path fill="#fff" d="m20.725 14.154-.008.002-.025.005-.096.017-.355.058c-.3.047-.715.154-1.174.21s-.876.049-1.178.077a25.59 25.59 0 0 1-.358.029l-.123.009-.009.001.009-.001.025-.002.097-.01.357-.034c.301-.03.718-.025 1.177-.082s.874-.161 1.174-.205l.355-.053.097-.014.025-.002.008-.006z"/><path opacity=".09" d="m20.181 11.716.472 2.006.232.042.111.859-2.047 3.296h.932l.202-.59 1.682-1.21v-.284l-.645-2.498-.308.172-.63-1.792z"/><path fill="#0075ff" d="M16.954 11.444c-.382.37-.556.762-.743 1.211-.338.838-.42 1.153-.42 1.153l1.451.75-.093-.564-.194-2.55z"/><path fill="#ffbf9d" d="m15.604 11.56-.412 2.641 1.025.628.183-3.285-.797.016z"/><path fill="#ffbf9d" d="M15.192 14.201s-.173.976.562 1.303c.546.243 1.159-.288 1.316-1.043l-.801-.401-1.077.142z"/><path fill="#ff9a6c" d="M16.263 13.858a.87.87 0 0 1 .015.161c.009.262-.015.524-.072.779a.761.761 0 0 1-.044.155c.006-.054.014-.107.026-.16a4.532 4.532 0 0 0 .07-.772c-.002-.055 0-.11.005-.164z"/><path fill="#ffbf9d" d="m16.4 11.559.228-.906-.125-.868s-.023-.257-.153-.207-.088.331-.088.331l-.457.527-.118-.079a.553.553 0 0 0-.131.331c0 .183.045.874.045.874z"/><path fill="#ff9a6c" d="M15.604 11.559a.085.085 0 0 1-.003-.023l-.005-.067-.016-.253-.023-.392c0-.038-.005-.077-.007-.117a.41.41 0 0 1 .01-.126.596.596 0 0 1 .121-.236l.007-.008.008.006.118.079h-.015l.456-.528-.004.012a.679.679 0 0 1 0-.191.287.287 0 0 1 .031-.095.13.13 0 0 1 .076-.062c.016-.005.033-.005.049.001s.03.015.042.028a.23.23 0 0 1 .044.085c.015.059.026.119.032.18l.025.172.088.623v.005l-.171.661c-.02.076-.038.137-.051.182l-.013.047a.04.04 0 0 1-.006.015.05.05 0 0 1 .003-.017c0-.013.006-.029.01-.048l.043-.184.162-.661v.005l-.091-.623a18.783 18.783 0 0 0-.026-.173 1.025 1.025 0 0 0-.032-.174.231.231 0 0 0-.038-.075c-.008-.01-.019-.017-.03-.021s-.024-.004-.036 0c-.025.011-.047.029-.062.053s-.024.052-.025.081a.686.686 0 0 0 0 .181v.007l-.004.005-.465.534-.008-.006-.118-.079h.014a.564.564 0 0 0-.117.225.849.849 0 0 0-.005.236l.017.392.01.253v.067a.064.064 0 0 1 .003.02z"/><path fill="#ffbf9d" d="M15.767 10.561c.024.01.048.019.073.026 0 0-.025.244.043.253.17.024.165-.217.165-.217s.028.152.115.15c.087-.001.144-.025.128-.197l-.029-.313a.141.141 0 0 0-.044-.082l-.08-.061.194.048s.085.165.173.118a.101.101 0 0 0 .04-.12.83.83 0 0 0-.085-.195c-.051-.063-.323-.187-.384-.159s-.096.215-.096.215-.137.022-.173.22a.415.415 0 0 0-.153.158z"/><path fill="#ff9a6c" d="M15.654 10.408s0-.005.006-.014a.42.42 0 0 1 .145-.15l-.004.005a.36.36 0 0 1 .047-.132.214.214 0 0 1 .13-.099l-.008.008a.784.784 0 0 1 .035-.126.284.284 0 0 1 .031-.063c.007-.011.016-.021.026-.028s.024-.012.037-.011a.456.456 0 0 1 .14.034c.047.018.093.04.137.064a.436.436 0 0 1 .067.045c.022.019.04.043.051.07a.968.968 0 0 1 .063.165c.004.017.004.034 0 .051s-.01.033-.02.046a.087.087 0 0 1-.089.035.167.167 0 0 1-.079-.055.394.394 0 0 1-.054-.079l.009.007-.034-.008-.16-.04.011-.026.08.061a.212.212 0 0 1 .039.055.106.106 0 0 1 .009.035v.032l.011.124.011.12a.784.784 0 0 1 .005.119.136.136 0 0 1-.047.11.174.174 0 0 1-.102.02c-.017-.003-.034-.01-.048-.022s-.026-.026-.034-.043a.336.336 0 0 1-.034-.095h.02a.284.284 0 0 1-.062.19.119.119 0 0 1-.079.036.134.134 0 0 1-.04 0c-.006-.004-.011-.009-.016-.015s-.007-.013-.008-.021a.359.359 0 0 1-.017-.134c0-.032.002-.064.006-.096l.003.004-.055-.021a.089.089 0 0 1-.017-.008c.006 0 .012.002.018.004l.055.018h.003v.003a1.505 1.505 0 0 0 0 .095.363.363 0 0 0 .019.127c.006.009.012.02.021.021a.204.204 0 0 0 .035 0 .106.106 0 0 0 .068-.032.262.262 0 0 0 .054-.176v-.093l.019.091c.006.03.017.06.032.086a.095.095 0 0 0 .066.055.157.157 0 0 0 .09-.018c.012-.011.022-.024.028-.04s.009-.032.008-.049a.739.739 0 0 0-.006-.115 4.107 4.107 0 0 1-.011-.12l-.012-.124-.003-.031a.077.077 0 0 0-.007-.026.198.198 0 0 0-.035-.047l-.08-.061-.055-.042.065.016.194.048h.006l.003.006a.234.234 0 0 0 .116.118c.011.003.023.002.034-.003s.021-.012.028-.022c.007-.01.012-.022.015-.035s.002-.026-.001-.039a1.084 1.084 0 0 0-.06-.159c-.01-.024-.025-.045-.045-.062s-.042-.03-.064-.042a1.172 1.172 0 0 0-.134-.064.43.43 0 0 0-.131-.034.052.052 0 0 0-.047.028.262.262 0 0 0-.029.058.854.854 0 0 0-.036.122v.007h-.006a.205.205 0 0 0-.12.089.362.362 0 0 0-.049.124v.003a.417.417 0 0 0-.121.105c-.03.039-.039.057-.041.056z"/><path fill="#ff9a6c" d="M15.794 10.263c0-.004.027-.008.068 0 .055.015.103.049.137.097s.054.107.054.167c0 .046-.01.073-.013.072a.826.826 0 0 1-.006-.07.325.325 0 0 0-.056-.15.282.282 0 0 0-.122-.095.448.448 0 0 1-.062-.02z"/><path fill="#4a4566" d="M22.47 30.57a3.345 3.345 0 0 1-1.038-.184c-.724-.239-1.258-.779-1.587-1.604-.277-.696-.356-1.476-.392-2.001-.079-1.168.591-4.762.727-5.421.104-.505.168-1.803-.297-2.592-.079-.145-.185-.27-.312-.368s-.27-.167-.423-.202c-1.182-.267-2.354 1.328-2.452 1.463l-2.58 5.048-.305-.192 2.591-5.071.007-.01c.057-.079 1.362-1.942 2.808-1.617.399.09.724.339.96.738.506.861.48 2.226.342 2.886-.208 1.012-.788 4.285-.719 5.308.08 1.182.346 2.806 1.729 3.263 1.445.477 2.018-.123 2.443-.726.474-.672.768-1.011 1.151-1.12.586-.167.96.084 1.195.311l-.237.35c-.011-.019-.394-.422-.869-.287-.285.081-.546.394-.962.984-.376.536-.883 1.043-1.78 1.043z"/><path fill="#dcddeb" d="m11.671 29.445-.332-.207 2.528-4.796.331.207-2.527 4.796z"/><path fill="#0075ff" d="M9.3 29.715s-.176.016-.235.072-.558 1.137-.558 1.137v.344h1.39l.33-.969.026-.406a.173.173 0 0 0-.04-.125.148.148 0 0 0-.112-.053h-.8z"/><path fill="#4a4566" d="m11.575 28.503-.396.852-.541.307.295.518.446-.272a.823.823 0 0 0 .301-.333l.384-.773-.489-.299z"/><path fill="#1d53bb" d="M9.14 30.12h.964v.581h.591s.163-.037.202-.159c.027-.118.041-.239.041-.36l-.3-.518-.332.184h-.814c-.061 0-.121.017-.174.049s-.098.079-.129.135l-.048.088z"/><path fill="#263238" d="M9.14 30.12v-.005a.07.07 0 0 1 .009-.017l.034-.065a.379.379 0 0 1 .07-.093.351.351 0 0 1 .218-.099h.833l.34-.188v.006l.295.517a2.036 2.036 0 0 1-.019.258c-.004.033-.011.065-.02.097s-.027.061-.05.085a.353.353 0 0 1-.155.092h-.598v-.588l.005.006-.703-.004.705-.004v.587l-.006-.007h.587a.335.335 0 0 0 .153-.084.291.291 0 0 0 .066-.173c.011-.085.018-.171.019-.256v.004l-.295-.518h.008l-.334.181h-.83a.34.34 0 0 0-.214.095.363.363 0 0 0-.07.09l-.036.061-.01.017-.003.003z"/><path fill="#0075ff" d="M32.09 27.402c-.236-.39-.509-.607-1.275-.703h-.2c-1.478.053-2.788.369-4.026 1.241-.318.223-.642.533-.661.941-.021.43.305.787.646 1.008.678.44 1.483.572 2.269.686.564.082 1.141.159 1.701.061s1.121-.39 1.429-.907c.217-.363.293-.804.305-1.236.011-.375.001-.779-.189-1.093z"/><path fill="#211f54" d="M31.078 28.074c-.005-.002-.009-.006-.012-.009l-.034-.028a.802.802 0 0 0-.145-.088c-.132-.065-.342-.103-.603-.1-.52.007-1.245.031-2.018.24a6.365 6.365 0 0 0-1.063.375c-.15.069-.294.151-.431.246a.759.759 0 0 0-.354.684.923.923 0 0 0 .057.276c.03.074.065.146.105.215l-.01-.012c-.007-.008-.015-.023-.026-.038a.798.798 0 0 1-.08-.159.893.893 0 0 1-.05-.46.774.774 0 0 1 .176-.377c.052-.057.109-.108.171-.153.137-.097.282-.181.433-.25a6.285 6.285 0 0 1 1.066-.377c.776-.21 1.504-.231 2.025-.232.261 0 .474.042.607.111.051.025.1.057.144.094l.033.031c.005.007.009.011.008.012zM25.987 28.864c-.016.029-.041.051-.071.061s-.062.008-.091-.005l-.086-.04c-.032-.013-.061-.033-.085-.06s-.042-.058-.054-.093a.307.307 0 0 1 .034-.184c.05-.123.105-.239.165-.354a.354.354 0 0 1 .102-.136.22.22 0 0 1 .196-.02.724.724 0 0 1 .18.1s.045.014.023.116c-.016.076-.206.431-.313.616z"/><path fill="#211f54" d="M28.244 28.067a3.482 3.482 0 0 1-.151-.438 3.8 3.8 0 0 1-.123-.448c.11.288.201.584.274.885z"/><path opacity=".09" d="M32.243 30.306c.52-.56.52-1.468 0-2.029s-1.362-.56-1.882 0c-.52.56-.52 1.468 0 2.029s1.362.56 1.882 0z"/><path fill="#143c8b" d="M32.441 30.444c.52-.56.52-1.468 0-2.029s-1.362-.56-1.882 0c-.52.56-.52 1.468 0 2.029s1.362.56 1.882 0z"/><path fill="#0075ff" d="M31.506 30.628c-.22 0-.435-.07-.618-.202s-.326-.319-.41-.538c-.084-.219-.106-.46-.063-.693s.149-.447.305-.614c.156-.168.354-.282.57-.328s.44-.022.643.069.377.245.499.442.187.429.187.667c0 .318-.118.623-.326.848s-.491.351-.786.351zm0-2.337c-.209 0-.413.067-.586.192s-.309.303-.389.511c-.08.208-.101.437-.06.658s.141.424.289.583c.148.159.336.268.541.311s.417.021.61-.065c.193-.086.358-.232.474-.419s.178-.407.178-.632c0-.302-.111-.591-.309-.805s-.466-.334-.746-.334v.001zM19.717 10.262s.795-.173 1.32.224c.303.23 1.32 2.139 1.32 2.139l-1.504.84-1.136-3.204z"/><path fill="#ffbf9d" d="m20.948 13.412.254 1.045-1.619 1.853.363.901s2.206-1.497 2.504-1.971.108-1.187.035-1.448-.317-1.06-.317-1.06l-1.22.68z"/><path fill="#ffbf9d" d="M17.653 18.407s.614-.783.673-.853.81-.785.81-.785l.481-.492.538.686-.249.296s-.057.246-.129.351-.627.14-.627.14l-.082.285.072.119.155-.018s0 .169-.096.2a.432.432 0 0 1-.22-.006c-.016.032-.041.058-.072.073s-.066.018-.099.009a.184.184 0 0 1-.052-.027.436.436 0 0 1-.16-.218l-.038-.109-.041.229.152.153c.011.011.019.025.022.041s.002.032-.003.047c-.006.015-.015.028-.028.037s-.027.013-.042.013h-.022a.784.784 0 0 1-.251-.135c-.064-.046-.088-.152-.09-.236l.023-.098s-.408.341-.513.385c-.082.034-.114-.087-.114-.087z"/><path fill="#ff9a6c" d="M22.006 14.581a2.703 2.703 0 0 0-.402-.114 2.753 2.753 0 0 0-.416-.019.362.362 0 0 1 .121-.024 1.197 1.197 0 0 1 .587.096.39.39 0 0 1 .109.061zM18.522 17.523c.003.005-.028.029-.067.078-.05.065-.089.14-.114.22s-.044.162-.057.246a.42.42 0 0 1-.023.105.39.39 0 0 1 0-.108c.008-.087.025-.173.052-.256a.586.586 0 0 1 .127-.224.216.216 0 0 1 .083-.061zM18.799 17.496c0 .005-.028.025-.068.068a.579.579 0 0 0-.12.196c-.064.173-.057.331-.066.33a.265.265 0 0 1-.008-.101c.002-.083.018-.164.046-.241s.074-.146.133-.2a.186.186 0 0 1 .082-.051zM18.99 17.496a.855.855 0 0 1-.069.117.63.63 0 0 0-.107.299.61.61 0 0 0 .093.304.85.85 0 0 1 .064.119.47.47 0 0 1-.082-.106.793.793 0 0 1-.07-.132.463.463 0 0 1-.035-.184.586.586 0 0 1 .119-.311.481.481 0 0 1 .086-.104z"/><path fill="#263238" d="M22.357 12.625c-.009.007-.018.014-.029.019l-.085.051-.317.184-1.081.61-.006-.017c-.018-.052-.036-.107-.057-.162l-.451-1.327c-.057-.166-.106-.302-.14-.4l-.038-.109a.127.127 0 0 1-.012-.039 2.711 2.711 0 0 1 .061.142c.037.093.088.229.149.397.122.337.285.806.46 1.324.019.056.037.111.057.162l-.021-.009 1.07-.592.322-.174.087-.046a.13.13 0 0 1 .031-.016zM17.505 11.483c0 .011-.002.021-.004.032l-.014.089a18.88 18.88 0 0 1-.06.325c-.052.275-.134.651-.195 1.073a5.96 5.96 0 0 0-.057.598l-.005.135v.127c0 .082.005.159.008.228.009.139.019.252.03.329l.01.089c.002.01.002.021.002.032a.17.17 0 0 1-.006-.031l-.014-.086a4.524 4.524 0 0 1-.037-.329c-.003-.07-.01-.147-.01-.229v-.13c0-.046.002-.089.004-.135.008-.201.026-.401.054-.6.062-.423.146-.799.201-1.072l.066-.324.018-.086a.168.168 0 0 1 .009-.032z"/><path opacity=".3" d="M17.385 12.066c-.422.721-.506 1.458-.484 2.31l.316.162c-.054-.763.025-1.766.168-2.473z"/><path fill="#f7f9fc" d="M12.397.381H5.185V14.35h7.212V.381z"/><path fill="#fff" d="M12.034.786H5.473v13.148h6.561V.786z"/><path fill="#dcddeb" d="m12.702 14.476-.305-.126V.145h.305v14.332z"/><path fill="#fff" d="m7.082 9.279 1.704-1.708c.216-.216.498-.449.776-.343.133.051.234.174.365.233.261.117.56-.052.762-.267s.36-.485.603-.641c.244-.156.622-.136.743.14v1.859L9.559 9.695l-2.477-.416z"/><path fill="#dcddeb" d="M5.473 8.211c.628-.276 1.255-.041 1.704.506.095.115.181.246.311.312.176.086.381.022.571 0 .264-.028.53.023.768.148s.44.318.583.559l-2.095 1.112-1.841-.014-.001-2.621z"/><path fill="#eff0f7" d="M12.034 8.22c-.414-.215-.778.045-1.159.321s-.736.629-1.184.739c-.299.074-.62.033-.909.144-.589.226-.929 1.032-1.554 1.071-.339.021-.643-.201-.945-.367s-.541-.324-.811-.102v3.906h6.561V8.219z"/><path fill="#dcddeb" d="M12.177 4.568H5.473v.14h6.704v-.14zM12.177 7.699H5.473v.14h6.704v-.14zM12.177 10.83H5.473v.14h6.704v-.14z"/><path fill="#dcddeb" d="M8.588 4.638v9.668h.331V4.638h-.331zM6.887.786h-.15v3.852h.15V.786zM8.182.786h-.15v3.852h.15V.786zM9.477.786h-.15v3.852h.15V.786zM10.772.786h-.15v3.852h.15V.786zM5.185.144H4.88v14.292h.305V.144z"/><path fill="#dcddeb" d="M12.702 0H4.88v.381h7.822V0zM12.908 14.523H4.663v.355h8.245v-.355zM12.397 14.35l.512.173H4.664l.521-.173h7.212zM8.809 29.061c.027.242.328.348.514.238.092-.059.162-.15.198-.258s.038-.226.003-.335c.164.131.425.01.493-.197s-.027-.446-.184-.586c-.127-.113-.325-.168-.453-.057.064-.238-.111-.509-.338-.554s-.466.115-.556.344a.78.78 0 0 0 .096.705c-.135-.061-.303.044-.344.195s.031.321.15.413c.124.087.274.12.419.093z"/></svg>