<svg xmlns="http://www.w3.org/2000/svg" viewBox="0 0 36 32"><path fill="#cee5ff" d="M17.993 32c8.833 0 15.994-7.163 15.994-16S26.826 0 17.993 0 1.999 7.163 1.999 16 9.16 32 17.993 32z"/><path fill="#133578" d="M23.362 13.779 4.594 10.468a2 2 0 0 0-2.317 1.622L.347 23.038a2 2 0 0 0 1.622 2.317l18.768 3.311a2 2 0 0 0 2.317-1.622l1.93-10.948a2 2 0 0 0-1.622-2.317z"/><path fill="#fff" d="M24.561 12.713 5.793 9.402a2 2 0 0 0-2.317 1.622l-1.93 10.948a2 2 0 0 0 1.622 2.317L21.936 27.6a2 2 0 0 0 2.317-1.622l1.93-10.948a2 2 0 0 0-1.622-2.317z"/><path fill="#4b3cfb" d="m7.239 12.881-1.843-.325a.4.4 0 0 0-.463.324l-.2 1.134a.4.4 0 0 0 .324.463l1.843.325a.4.4 0 0 0 .463-.325l.2-1.134a.4.4 0 0 0-.324-.463z"/><path fill="#dcddeb" d="m12.209 21.991-8.802-1.553a.4.4 0 0 0-.463.324l-.133.756a.4.4 0 0 0 .325.463l8.802 1.553a.4.4 0 0 0 .463-.324l.133-.756a.4.4 0 0 0-.324-.463z"/><path fill="#0075ff" d="M18.213 24.995a1.13 1.13 0 1 0 .393-2.227 1.13 1.13 0 0 0-.393 2.227z"/><path fill="#cee5ff" d="M19.768 25.269a1.13 1.13 0 1 0 .393-2.227 1.13 1.13 0 0 0-.393 2.227z"/><path fill="#eff0f7" d="m7.04 17.297-2.966-.523a.422.422 0 0 0-.146.83l2.966.523a.421.421 0 1 0 .146-.83zM12.017 18.175l-2.966-.523a.422.422 0 0 0-.146.83l2.966.523a.422.422 0 0 0 .146-.83zM16.994 19.053l-2.966-.523a.422.422 0 0 0-.146.83l2.966.523a.422.422 0 0 0 .146-.83zM21.971 19.931l-2.966-.523a.422.422 0 0 0-.146.83l2.966.523a.422.422 0 0 0 .146-.83z"/><path fill="#133578" d="M30.348 3.545 11.58 6.856a2 2 0 0 0-1.622 2.317l1.93 10.948a2 2 0 0 0 2.317 1.622l18.768-3.311a2.001 2.001 0 0 0 1.623-2.317l-1.93-10.948a2 2 0 0 0-2.317-1.622z"/><path fill="#0075ff" d="M31.22 2.302 12.452 5.613A2 2 0 0 0 10.83 7.93l1.93 10.948a2 2 0 0 0 2.317 1.622l18.768-3.311a2 2 0 0 0 1.622-2.317l-1.93-10.948a2 2 0 0 0-2.317-1.622z"/><path fill="#133578" d="M33.666 4.655 10.959 8.66l.477 2.709 22.707-4.005-.477-2.709zM18.829 12.163l-5.472.965a.422.422 0 0 0 .146.83l5.472-.965a.422.422 0 0 0-.146-.83zM23.768 11.291l-3.356.592a.422.422 0 0 0 .146.83l3.356-.592a.422.422 0 0 0-.146-.83z"/></svg>