<svg xmlns="http://www.w3.org/2000/svg" viewBox="0 0 32 32"><path fill="#0075ff" d="M20.927 23.726h-.017c-2.639-.086-5.731-2.645-7.862-4.777-2.133-2.132-4.692-5.225-4.774-7.852-.03-.922 2.232-2.561 2.255-2.578.587-.409 1.239-.263 1.506.107a235.51 235.51 0 0 1 2.082 3.144c.193.306.165.761-.077 1.218-.133.254-.575 1.03-.782 1.392.224.318.815 1.099 2.036 2.32 1.222 1.221 2.001 1.814 2.321 2.037a76.06 76.06 0 0 1 1.392-.782c.45-.239.903-.269 1.211-.08.316.193 2.907 1.916 3.146 2.082.2.141.329.383.355.664.025.284-.063.584-.245.846-.015.022-1.635 2.257-2.549 2.257z"/></svg>