<svg xmlns="http://www.w3.org/2000/svg" viewBox="0 0 32 32"><path fill="#cee5ff" d="M16 32c8.837 0 16-7.163 16-16S24.837 0 16 0 0 7.163 0 16s7.163 16 16 16z"/><path fill="#133578" d="M26.115 2.471H7.503a1.6 1.6 0 0 0-1.6 1.6v20.672a1.6 1.6 0 0 0 1.6 1.6h18.612a1.6 1.6 0 0 0 1.6-1.6V4.071a1.6 1.6 0 0 0-1.6-1.6z"/><path fill="#fff" d="M24.479.745H5.866a1.6 1.6 0 0 0-1.6 1.6v20.672a1.6 1.6 0 0 0 1.6 1.6h18.613a1.6 1.6 0 0 0 1.6-1.6V2.345a1.6 1.6 0 0 0-1.6-1.6z"/><path fill="#0075ff" d="M4.267 2.345a1.6 1.6 0 0 1 1.6-1.6H24.48a1.6 1.6 0 0 1 1.6 1.6v1.641H4.267V2.345z"/><path fill="#eff0f7" d="M8.848 8.882H7.383c-.589 0-1.067.478-1.067 1.067v1.465c0 .589.478 1.067 1.067 1.067h1.465c.589 0 1.067-.478 1.067-1.067V9.949c0-.589-.478-1.067-1.067-1.067zM8.848 13.548H7.383c-.589 0-1.067.478-1.067 1.067v1.465c0 .589.478 1.067 1.067 1.067h1.465c.589 0 1.067-.477 1.067-1.067v-1.465c0-.589-.478-1.067-1.067-1.067zM8.848 18.213H7.383c-.589 0-1.067.478-1.067 1.067v1.465c0 .589.478 1.067 1.067 1.067h1.465c.589 0 1.067-.477 1.067-1.067V19.28c0-.589-.478-1.067-1.067-1.067zM13.38 8.882h-1.465c-.589 0-1.067.478-1.067 1.067v1.465c0 .589.478 1.067 1.067 1.067h1.465c.589 0 1.067-.478 1.067-1.067V9.949c0-.589-.478-1.067-1.067-1.067z"/><path fill="#4b3cfb" d="M13.38 13.548h-1.465c-.589 0-1.067.478-1.067 1.067v1.465c0 .589.478 1.067 1.067 1.067h1.465c.589 0 1.067-.477 1.067-1.067v-1.465c0-.589-.478-1.067-1.067-1.067z"/><path fill="#eff0f7" d="M13.38 18.213h-1.465c-.589 0-1.067.478-1.067 1.067v1.465c0 .589.478 1.067 1.067 1.067h1.465c.589 0 1.067-.477 1.067-1.067V19.28c0-.589-.478-1.067-1.067-1.067zM17.912 8.882h-1.465c-.589 0-1.067.478-1.067 1.067v1.465c0 .589.478 1.067 1.067 1.067h1.465c.589 0 1.067-.478 1.067-1.067V9.949c0-.589-.477-1.067-1.067-1.067zM17.912 13.548h-1.465c-.589 0-1.067.478-1.067 1.067v1.465c0 .589.478 1.067 1.067 1.067h1.465c.589 0 1.067-.477 1.067-1.067v-1.465c0-.589-.477-1.067-1.067-1.067zM17.912 18.213h-1.465c-.589 0-1.067.478-1.067 1.067v1.465c0 .589.478 1.067 1.067 1.067h1.465c.589 0 1.067-.477 1.067-1.067V19.28c0-.589-.477-1.067-1.067-1.067zM22.444 8.882h-1.465c-.589 0-1.067.478-1.067 1.067v1.465c0 .589.478 1.067 1.067 1.067h1.465c.589 0 1.067-.478 1.067-1.067V9.949c0-.589-.477-1.067-1.067-1.067zM22.444 13.548h-1.465c-.589 0-1.067.478-1.067 1.067v1.465c0 .589.478 1.067 1.067 1.067h1.465c.589 0 1.067-.477 1.067-1.067v-1.465c0-.589-.477-1.067-1.067-1.067zM22.444 18.213h-1.465c-.589 0-1.067.478-1.067 1.067v1.465c0 .589.478 1.067 1.067 1.067h1.465c.589 0 1.067-.477 1.067-1.067V19.28c0-.589-.477-1.067-1.067-1.067z"/><path fill="#a0a3bd" opacity=".6" d="M9.381 6.202H6.849a.533.533 0 1 0 0 1.066h2.532a.533.533 0 1 0 0-1.066zM13.913 6.202h-2.532a.533.533 0 1 0 0 1.066h2.532a.533.533 0 1 0 0-1.066zM18.445 6.202h-2.532a.533.533 0 1 0 0 1.066h2.532a.533.533 0 1 0 0-1.066zM22.977 6.202h-2.532a.533.533 0 1 0 0 1.066h2.532a.533.533 0 1 0 0-1.066z"/></svg>