<svg xmlns="http://www.w3.org/2000/svg" viewBox="0 0 25 32"><path fill="#383669" d="M3.194 36.044s-1.093-5.657-1.096-6.82c-.003-1.61 1.231-2.251 1.231-2.251l-.479-1.365h2.636l-.416 1.356s1.389.735 1.195 2.405c-.362 3.121-.939 6.672-.939 6.672l-2.131.002z"/><path fill="#504e83" d="M9.934 3.213H-.971v19.559H9.934V3.213z"/><path fill="#383669" d="M9.385 3.78H-.536v18.409h9.921V3.78z"/><path fill="#36346b" d="m10.395 22.947-.461-.176V2.881h.461v20.066z"/><path fill="#423f76" d="m1.897 15.671 2.58-2.391c.326-.303.753-.629 1.173-.48.202.074.354.244.552.326.395.164.847-.074 1.151-.375s.544-.678.913-.896c.369-.218.941-.191 1.123.196v2.603l-3.749 1.6-3.744-.583z"/><path fill="#8689aa" d="M-.536 14.175c.95-.386 1.897-.058 2.576.708.143.161.274.348.47.437.266.121.574.03.864 0a2.177 2.177 0 0 1 2.044.989l-3.17 1.554-2.784-.02v-3.669z"/><path fill="#6e7191" d="M9.386 14.187c-.626-.301-1.176.063-1.753.449s-1.112.881-1.79 1.036c-.452.104-.937.046-1.374.201-.89.317-1.409 1.446-2.35 1.5-.512.03-.972-.281-1.429-.514s-.816-.454-1.226-.142v5.471h9.922v-8.002z"/><path fill="#747799" d="M8.162 9.449a1.637 1.637 0 0 0-3.188-.745 1.637 1.637 0 0 0 3.188.745z"/><path fill="#504e83" d="M9.601 9.076H-.536v.196H9.601v-.196zM9.601 13.459H-.536v.196H9.601v-.196z"/><path fill="#6e7191" d="M9.601 17.843H-.536v.196H9.601v-.196z"/><path fill="#504e83" d="M4.175 9.173V22.71h.501V9.173h-.501zM1.602 3.78h-.227v5.394h.227V3.78zM3.561 3.78h-.227v5.394h.227V3.78zM5.519 3.78h-.227v5.394h.227V3.78zM7.478 3.78h-.227v5.394h.227V3.78z"/><path fill="#36346b" d="M10.395 2.679H-1.433v.534h11.828v-.534z"/><path fill="#6e7191" d="M10.707 23.013H-1.76v.497h12.467v-.497z"/><path fill="#504e83" d="m9.934 22.771.773.242H-1.76l.788-.242H9.934z"/><path fill="#05c168" d="M6.92 13.727c-.391.062-.566.543-.532.937s.196.779.153 1.173c-.055.5-.433.922-.477 1.423-.052.592.366 1.114.492 1.694.061.282.052.58.157.848a1.067 1.067 0 0 0 1.799.303 1.06 1.06 0 0 0 .254-.669c.009-.454-.271-.881-.237-1.332.025-.335.222-.651.179-.984-.05-.396-.417-.677-.547-1.054s-.004-.793-.05-1.19c-.08-.711-.475-1.207-1.19-1.15z"/><path fill="#05c168" d="M4.921 17.167c-.067.66.222 1.435.564 2.004a3.15 3.15 0 0 0 1.478 1.28c.069.029.155.053.214.007a.208.208 0 0 0 .053-.17 3.233 3.233 0 0 0-2.309-3.121z"/><path opacity=".01" d="M4.921 17.167c-.067.66.222 1.435.564 2.004a3.15 3.15 0 0 0 1.478 1.28c.069.029.155.053.214.007a.208.208 0 0 0 .053-.17c.005-.699-.218-1.382-.634-1.944s-1.004-.975-1.675-1.177z"/><path fill="#eff0f7" d="M7.797 21.829a.162.162 0 0 1-.019-.037l-.047-.108a13.701 13.701 0 0 0-1.874-3.2l-.074-.094a.254.254 0 0 1-.023-.034s.011.009.029.03l.074.09a11.994 11.994 0 0 1 1.881 3.203l.041.111a.29.29 0 0 1 .012.039zM7.373 15.547a.448.448 0 0 1 .007.064l.013.181.043.666a260.955 260.955 0 0 0 .313 4.404l.051.666.012.181a.342.342 0 0 1 0 .064.458.458 0 0 1-.01-.063l-.019-.181-.063-.666a127.917 127.917 0 0 1-.311-4.405l-.031-.666c0-.074-.004-.137-.006-.182a.342.342 0 0 1 .001-.064z"/><path fill="#312e72" d="M6.78 21.188a.284.284 0 0 1 .284-.299h1.069c.157 0 .284.127.284.284v.928a.793.793 0 0 1-1.586.043l-.051-.955z"/><path fill="#dcddeb" d="M8.425 21.466s-.021-.012-.061-.025a.353.353 0 0 0-.174-.007 1.37 1.37 0 0 0-.25.087.515.515 0 0 1-.332.034 3.12 3.12 0 0 1-.315-.101.665.665 0 0 0-.258-.037.339.339 0 0 0-.165.053c-.035.024-.05.042-.053.04a.128.128 0 0 1 .043-.052.337.337 0 0 1 .172-.068.67.67 0 0 1 .271.03c.098.03.2.074.311.098a.525.525 0 0 0 .163.01.75.75 0 0 0 .148-.039c.083-.037.169-.064.258-.081a.34.34 0 0 1 .184.019c.041.018.057.038.056.039z"/><path fill="#dcddeb" d="M8.425 21.608s-.021-.012-.061-.025a.35.35 0 0 0-.176-.009 1.37 1.37 0 0 0-.25.087.515.515 0 0 1-.332.034 2.891 2.891 0 0 1-.315-.102.665.665 0 0 0-.258-.037.346.346 0 0 0-.165.053c-.035.023-.05.041-.053.039a.128.128 0 0 1 .043-.052.327.327 0 0 1 .172-.067.654.654 0 0 1 .271.03c.098.029.2.074.311.098a.498.498 0 0 0 .311-.029c.083-.036.169-.064.258-.081a.34.34 0 0 1 .184.019.128.128 0 0 1 .058.042zM7.06 21.689c0 .005-.013.012-.017.031s.004.042.031.038c.027-.004.029-.028.018-.046s-.026-.018-.027-.024.021-.016.047.005c.007.007.013.015.016.024s.005.019.004.029c-.002.013-.009.024-.018.033s-.021.015-.034.016a.062.062 0 0 1-.066-.031c-.004-.009-.006-.019-.005-.029s.004-.02.009-.028c.018-.028.043-.024.042-.019zM7.658 21.374c-.005 0 .007-.025.041-.02.01.002.019.007.026.015s.011.017.012.027c.002.013-.001.025-.008.036s-.017.019-.029.024c-.012.004-.025.005-.037.001a.055.055 0 0 1-.037-.051c0-.01.003-.02.008-.028.018-.027.041-.024.041-.018s-.012.013-.016.03v.013a.02.02 0 0 0 .006.011c.003.003.007.006.012.007h.014c.004-.002.008-.005.01-.008s.004-.008.004-.012-.001-.008-.003-.011-.005-.006-.009-.008c-.018-.008-.031-.002-.035-.006zM8.237 21.679c0-.004.022-.014.048.01.008.008.013.017.016.028s.002.021-.002.032c-.004.014-.012.025-.023.034s-.025.012-.039.012-.027-.006-.038-.015a.057.057 0 0 1-.02-.036c-.002-.011-.001-.022.003-.032s.012-.019.021-.025c.032-.018.053 0 .049.004s-.018 0-.033.018c-.003.003-.006.008-.007.012s-.001.01.001.014a.03.03 0 0 0 .024.02.03.03 0 0 0 .027-.018c.002-.005.004-.01.004-.015s-.001-.01-.004-.015c-.013-.018-.03-.021-.029-.027z"/><path fill="#4e4b88" d="m18.376 7.317-1.575.015.015 1.572 1.575-.015-.015-1.572z"/><path fill="#7976ab" d="M18.373 7.717a6.933 6.933 0 0 1-.776.029 7.196 7.196 0 0 1-.777-.014 7.18 7.18 0 0 1 .776-.029c.259-.009.518-.005.777.014zM17.895 8.205a.754.754 0 0 1-.018-.068.296.296 0 0 0-.108-.15.278.278 0 0 0-.39.068.273.273 0 0 0 .138.411.28.28 0 0 0 .26-.038.292.292 0 0 0 .106-.152.578.578 0 0 1 .017-.069.15.15 0 0 1 0 .073.286.286 0 0 1-.103.171.31.31 0 0 1-.291.051.312.312 0 0 1-.209-.29.308.308 0 0 1 .496-.247.285.285 0 0 1 .106.17.139.139 0 0 1-.003.07z"/><path fill="#36346b" d="M24.479 8.893h-9.892v.504h9.892v-.504z"/><path fill="#36346b" d="M22.809 9.277h-.28v1.655h.28V9.277zM16.571 9.252h-.288v1.705h.288V9.252z"/><path fill="#05c168" d="M19.225.79a1.245 1.245 0 0 1 .869.453 2.2 2.2 0 0 1 .436.898c.165.629.054 1.369-.131 1.991-.679-.247-1.092-.977-1.279-1.359-.294-.604-.459-1.876.104-1.985zM21.372 4.903a1.071 1.071 0 0 1-.041-1.071 1.424 1.424 0 0 1 .861-.679c.165-.049.36-.069.503.028a.457.457 0 0 1 .172.43.926.926 0 0 1-.2.437c-.335.444-.742.813-1.296.854zM20.652 5.569a2.499 2.499 0 0 0-1.968-1.164c-.202-.01-.443.029-.529.211s.039.394.178.539a2.14 2.14 0 0 0 2.324.467z"/><path fill="#dcddeb" d="M21.378 7.061a.749.749 0 0 1-.028-.133 8.587 8.587 0 0 1-.056-.367 4.74 4.74 0 0 1-.027-1.225c.049-.41.207-.8.457-1.128.077-.098.165-.187.263-.264.034-.028.064-.045.082-.058a.139.139 0 0 1 .031-.018c-.13.106-.248.226-.352.358a2.38 2.38 0 0 0-.437 1.118c-.043.404-.037.811.016 1.214l.042.367c.006.045.009.09.009.136z"/><path fill="#dcddeb" d="M19.436 1.747a.36.36 0 0 1 .026.052l.068.152c.059.132.142.324.242.563a60.028 60.028 0 0 1 1.432 3.783c.082.247.148.444.192.582l.049.159a.27.27 0 0 1 .014.056 6.77 6.77 0 0 1-.079-.211l-.205-.576c-.172-.488-.412-1.16-.695-1.898s-.544-1.4-.737-1.883l-.229-.567-.061-.156a.27.27 0 0 1-.018-.057z"/><path fill="#dcddeb" d="M19.002 4.925a.804.804 0 0 1 .13.008 1.965 1.965 0 0 1 .35.065l.114.031c.04.012.082.028.121.043.089.032.176.068.261.11.193.097.376.213.545.348.169.139.323.295.459.467.058.074.111.152.161.232.023.038.047.073.066.11l.054.105c.031.06.058.122.082.185.02.047.037.094.051.143a.904.904 0 0 1 .035.126c-.01 0-.058-.177-.196-.441l-.056-.102c-.019-.035-.044-.07-.067-.107-.045-.075-.104-.148-.165-.227a2.937 2.937 0 0 0-.985-.799c-.089-.041-.172-.082-.256-.112l-.118-.045-.112-.034c-.285-.083-.474-.093-.474-.105z"/><path fill="#615f91" d="M20.086 6.453h2.444v1.428a1.005 1.005 0 0 1-.626.934c-.123.05-.255.077-.388.077h-.417a1.01 1.01 0 0 1-1.014-1.012V6.452z"/><path fill="#7876b4" d="M23.966 12.124c-.023.027-.056.044-.092.047s-.071-.008-.099-.03l-4.14-3.43.173-.207 4.137 3.431a.136.136 0 0 1 .02.19z"/><path fill="#4b3cfb" d="M20.913 9.591s-.252.641-.511.615-.329-.439-.329-.439-.213.367-.433.19-.162-.614-.162-.614-.363.227-.489.032c-.172-.269.347-.724.347-.724s.375-1.005.654-.98c.23.02.179.401.179.401s.188-.265.416-.269c.228-.004.142.561.142.561s.402-.249.541-.034c.139.216-.267.55-.267.55s.536-.131.483.176c-.053.307-.572.536-.572.536z"/><path fill="#fff" d="M19.543 6.963c-.217-.18-.51.056-.51.056s.064-.277-.075-.349c-.283-.149-.599.484-.599.484s-.871.342-.88.623c-.009.281.363.249.363.249a.412.412 0 0 0-.123.364c.038.223.579.034.579.034s-.171.441.066.538c.169.069.346-.143.435-.272-.064.12-.14.328.024.456.08.063.203-.034.325-.177a.193.193 0 0 0 .16.129c.193.028.329-.311.322-.53.2-.045.394-.125.343-.27a.354.354 0 0 0-.232-.208c.126-.198.256-.446.216-.584-.072-.251-.401.019-.401.019s.205-.379-.012-.559z"/><path fill="#4b3cfb" d="M17.755 5.91s.005-.358-.235-.461-.48.463-.48.463-.57-.122-.716.153c-.147.274.209.556.209.556s-.287.132-.221.38c.066.249.526.135.526.135s-.259.512-.043.579c.216.067.491-.192.491-.192s-.142.426.137.454c.123.012.259-.151.372-.337a.232.232 0 0 0 .284.097c.315-.123.139-.454.139-.454s.672-.111.638-.352c-.014-.102-.128-.132-.255-.135.14-.117.237-.246.179-.36-.12-.253-.566-.063-.566-.063s.228-.254.078-.491c-.15-.237-.537.027-.537.027z"/><path fill="#ffbe9d" d="M23.772 11.779s.111-.023.157.024c.098.101-.064.237-.064.237a6.034 6.034 0 0 1-.499.432s-2.668 3.364-3.184 3.589c-.41.186-2.871.15-3.829.128l-.886 2.923.73 2.804-4.89.064 1.146-2.825-.187-.654-.43-.884c-1.048 2.337-1.775 5.997-2.027 7.244l.018.112c.007.192.033.382.079.569a.81.81 0 0 0 .113.263c.059.103.132.198.217.281.018.014.031.032.039.053s.008.044.002.066c-.006.022-.018.041-.035.056s-.038.024-.06.026c-.099-.005-.34-.187-.499-.5s-.277.228-.324.424-.22.797-.292.831c-.106.048-.178-.052-.126-.25s.161-.79.059-.811c-.102-.02-.328.984-.328.984s-.014.221-.135.203c-.221-.034.096-1.083.128-1.182.02-.07-.091-.093-.113-.019s-.2 1.005-.426.974c-.172-.025.252-.865.182-1.078s-.257.67-.421.64c-.061-.011-.105-.028.077-.521.156-.372.332-.734.527-1.087.258-2.676 1.72-7.44 2.365-9.452a1.722 1.722 0 0 1 1.358-1.176c.69-.114 1.388-.176 2.088-.183.277-.003.327-.043.605-.055.22-.002.44.013.658.045.641.068 3.835.397 3.993.246.178-.168 2.635-2.521 2.635-2.521h.009c.064-.165.115-.335.152-.508a.816.816 0 0 0 .012-.283 1.243 1.243 0 0 0-.079-.346c-.048-.098.046-.204.135-.159s.231.31.242.662c.011.352.472-.247.472-.247.106-.055.3-.06.23.36a.531.531 0 0 1 .212.038c.011.005.02.013.025.024s.008.022.007.034a.612.612 0 0 0 0 .16s.142-.012.162.051a.586.586 0 0 1 0 .196z"/><path fill="#0075ff" d="M11.091 19.892c.142-.483.871-2.874.871-2.874s.358 1.948.264 2.183c-.087.201-.19.395-.307.58-.827 1.256-.719 1.884-.719 1.884l4.995-.152c.011-.697-.402-2.318-.488-2.577s.199-1.105.199-1.105.563-.572.543-.867a4.73 4.73 0 0 0-.098-.787l3.041.112-.096-2.058-4.367-.436c-.152.428-1.527.218-1.527.218-1.484.049-1.577.322-2.194.801s-1.639 4.59-1.639 4.59l1.523.487z"/><path fill="#fff" d="M14.044 19.405c-.087.015-.175.02-.262.014a7.104 7.104 0 0 1-1.262-.127 1.081 1.081 0 0 1-.256-.065c.088 0 .176.008.262.025.16.02.382.048.627.073s.468.042.63.053c.088.001.175.011.261.028zM14.387 18.981a1.143 1.143 0 0 1-.273.093 4.997 4.997 0 0 1-1.377.163 1.147 1.147 0 0 1-.286-.027 1.95 1.95 0 0 1 .286-.015 7.333 7.333 0 0 0 1.364-.161c.094-.025.19-.043.286-.053zM16.067 17.09a1.143 1.143 0 0 1-.035.254c-.029.156-.074.37-.132.604s-.113.45-.162.596c-.02.084-.049.165-.088.242.006-.085.022-.17.047-.252l.145-.599.149-.599c.015-.084.041-.167.075-.245zM11.144 19.605a5.17 5.17 0 0 1-.769-.179 5.411 5.411 0 0 1-.755-.236c.26.041.518.101.769.179.257.06.509.139.755.236zM16.405 16.153a.393.393 0 0 1-.128 0 1.403 1.403 0 0 1-1.159-.882 1.456 1.456 0 0 1-.1-.633.98.98 0 0 1 .154-.501.515.515 0 0 1 .285-.21.309.309 0 0 1 .096-.012h.034s-.047 0-.123.03a.508.508 0 0 0-.258.21c-.153.241-.196.68-.033 1.091.076.194.195.367.348.508.125.115.27.208.427.274.147.058.301.1.457.125zM19.03 16.25a9.443 9.443 0 0 1-.027-1.037 9.194 9.194 0 0 1 .032-1.036c.028.344.037.69.027 1.036.009.346-.001.692-.032 1.037z"/><path fill="#ffbe9d" d="M14.899 13.923c.012-.251.038-.534.038-.534s.622-.069.659-.709c.037-.641 0-2.119 0-2.119l-1.126-.576-1.25.982.193 3.204 1.146.073a.33.33 0 0 0 .34-.32z"/><path fill="#eb996e" d="M15.011 12.172s0 .012-.01.027c-.008.011-.019.019-.032.025s-.026.008-.039.007c-.072 0-.142-.083-.167-.18a.289.289 0 0 1 0-.143.126.126 0 0 1 .068-.097.064.064 0 0 1 .047 0c.011.006.02.015.026.026.008.019 0 .031 0 .03s0-.011-.011-.023c-.006-.008-.015-.014-.024-.016s-.02 0-.029.005c-.014.008-.025.02-.033.034s-.012.03-.013.046a.302.302 0 0 0 0 .127c.023.088.083.159.137.165.011.001.021.001.032-.002s.02-.008.028-.015c.014-.009.018-.018.02-.017z"/><path fill="#6e7191" d="M15.982 10.213c-.087-.295-.401-.441-.687-.522-.436-.124-.907-.178-1.332-.021s-.937.431-.937.899c-.251-.02-.395.199-.494.471a1.8 1.8 0 0 0-.113.517c-.032.614-.204 1.462-.602 1.911-.225.251-.537.424-.666.736-.113.271-.054.593-.159.867-.094.242-.3.414-.45.624a1.673 1.673 0 0 0-.107 1.618 2.039 2.039 0 0 0 1.226 1.056c.526.16 1.087.165 1.616.016a2.708 2.708 0 0 0 1.083-.536c.323-.264.545-.631.628-1.039.08-.459-.048-.925-.144-1.382-.3-1.443-.214-1.518.164-2.857.009-.024.014-.048.02-.072l.015-.053a.871.871 0 0 0 .017-.161.318.318 0 0 1-.326-.07c-.042-.044-.071-.099-.085-.158s-.011-.121.008-.179a.497.497 0 0 1 .29-.273c.125-.052.259-.079.382-.136.26-.124.44-.38.563-.649a.889.889 0 0 0 .088-.609zM11.199 21.666l4.995-.152 2.174 8.471-.4 9.717h-2.641l.323-9.51-1.931-5.897.297 15.784-2.669.039-.28-14.836c-.012-.413-.148-1.343-.097-1.752l.23-1.864z"/><path fill="#a0a3bd" d="M14.383 24.415a.996.996 0 0 1-.244-.015 7.823 7.823 0 0 1-1.158-.232.904.904 0 0 1-.225-.081c0-.017.367.071.818.162s.813.15.811.166z"/><path fill="#a0a3bd" d="M13.648 39.628c-.016 0-.086-3.448-.157-7.702s-.113-7.704-.098-7.704.087 3.447.157 7.703.115 7.703.098 7.703zM17.586 39.169a.353.353 0 0 1 0-.046v-.135c0-.121.009-.296.016-.517l.066-1.903.24-6.28v-.066.008l-1.515-6.055-.45-1.834-.119-.499c-.014-.055-.023-.098-.03-.13a.236.236 0 0 1-.008-.045c.006.014.01.029.014.044l.036.128.131.497c.113.434.271 1.059.47 1.829.392 1.549.932 3.687 1.532 6.051V30.29l-.258 6.278-.084 1.902-.026.517c0 .057-.007.102-.008.135a.18.18 0 0 1-.005.046z"/><path fill="#a0a3bd" d="M16.725 30.023c-.19.062-.385.106-.583.129-.243.042-.316.04-.409.044v-.023c.03.009.046.015.046.019s-.019 0-.051 0h-.068l.068-.02c.088-.026.16-.038.403-.082.195-.042.394-.065.593-.069zM16.678 30.346c-.176.008-.352 0-.526-.024a2.83 2.83 0 0 1-.502-.059c.352-.029.685.001 1.028.083z"/><path fill="#a0a3bd" opacity=".2" d="M11.178 21.845a.679.679 0 0 0 .494.261c.201.024.405.02.605-.011 1.29-.143 2.656-.274 3.918-.581-1.634.091-3.361.061-4.995.152l-.017.139z"/><path opacity=".04" d="m12.862 24.144.921 3.569-.064-3.418-.857-.151z"/><path fill="#407bff" d="M22.438 5.069c.293.111.176.464.176.464s.239-.074.353.095c.114.169-.286.228-.223.288s.33.19.138.34c-.191.15-.447-.081-.447-.081s-.057.139-.277.172c-.22.033-.131-.335-.131-.335s-.142.191-.24-.109a.25.25 0 0 1 .011-.227c.019-.034.046-.064.078-.087s.069-.038.108-.044c0 0-.138-.263-.019-.328s.339.149.339.149-.013-.352.134-.297z"/><path fill="#acaad1" d="M22.438 5.069c.293.111.176.464.176.464s.239-.074.353.095c.114.169-.286.228-.223.288s.33.19.138.34c-.191.15-.447-.081-.447-.081s-.057.139-.277.172c-.22.033-.131-.335-.131-.335s-.142.191-.24-.109a.25.25 0 0 1 .011-.227c.019-.034.046-.064.078-.087s.069-.038.108-.044c0 0-.138-.263-.019-.328s.339.149.339.149-.013-.352.134-.297z"/><path fill="#407bff" d="M24.475 6.574c.055.134-.1.207-.1.207s.101.056.08.149c-.021.093-.167-.023-.167.017s.041.172-.07.155-.115-.175-.115-.175a.162.162 0 0 1-.145-.038c-.081-.063.071-.149.071-.149s-.109.013-.039-.115a.123.123 0 0 1 .134-.07.11.11 0 0 1 .049.022s.045-.13.104-.111.057.161.057.161.114-.12.142-.053z"/><path fill="#acaad1" d="M24.475 6.574c.055.134-.1.207-.1.207s.101.056.08.149c-.021.093-.167-.023-.167.017s.041.172-.07.155-.115-.175-.115-.175a.162.162 0 0 1-.145-.038c-.081-.063.071-.149.071-.149s-.109.013-.039-.115a.123.123 0 0 1 .134-.07.11.11 0 0 1 .049.022s.045-.13.104-.111.057.161.057.161.114-.12.142-.053z"/><path fill="#407bff" d="M22.865 7.841c-.155.142-.331-.034-.331-.034s-.027.166-.163.183c-.136.017-.051-.24-.106-.218s-.214.14-.246-.02.182-.243.182-.243c-.022-.031-.035-.068-.038-.106s.003-.076.018-.111c.046-.141.241.022.241.022s-.074-.142.138-.111a.176.176 0 0 1 .131.074c.015.021.025.046.029.072s.002.052-.005.077c0 0 .199 0 .203.087s-.193.158-.193.158.217.1.14.171z"/><path fill="#acaad1" d="M22.865 7.841c-.155.142-.331-.034-.331-.034s-.027.166-.163.183c-.136.017-.051-.24-.106-.218s-.214.14-.246-.02.182-.243.182-.243c-.022-.031-.035-.068-.038-.106s.003-.076.018-.111c.046-.141.241.022.241.022s-.074-.142.138-.111a.176.176 0 0 1 .131.074c.015.021.025.046.029.072s.002.052-.005.077c0 0 .199 0 .203.087s-.193.158-.193.158.217.1.14.171z"/><path fill="#fff" d="M15.598 12.219c-.246.076-.576-.221-.71-.379v.899c0 .213.17.611.284.592.142-.024.544-.379.426-1.112z"/></svg>