<svg xmlns="http://www.w3.org/2000/svg" viewBox="0 0 57 32"><path fill="#cee5ff" d="M56.814 0H0v32h56.814V0z"/><path fill="#6fafff" d="M49.833 26.625c-1.26.02-2.52.033-3.779.039-1.258.012-2.517.01-3.779.014l.053-.053v1.599l-.002 1.598c-.011 1.066-.021 2.133-.046 3.199-.026-1.066-.036-2.133-.047-3.199v-3.253h.053c1.258 0 2.517 0 3.779.014s2.509.021 3.767.041zM42.283 33.934c1.26-.02 2.519-.033 3.779-.04 1.258-.012 2.517-.009 3.779-.013l-.053.053v-1.568l.007-1.569c.01-1.045.02-2.091.044-3.136.026 1.045.036 2.091.046 3.136l.007 1.569c0 .523.006 1.045 0 1.568v.054h-.053c-1.258-.006-2.517 0-3.779-.014s-2.518-.019-3.776-.04zM33.304 26.625c1.26-.02 2.519-.033 3.779-.039 1.258-.012 2.517-.01 3.779-.014h.053v3.25c-.011 1.066-.021 2.133-.047 3.199-.024-1.066-.034-2.133-.046-3.199v-3.197l.053.053c-1.258 0-2.517 0-3.779-.014s-2.535-.019-3.794-.039z"/><path fill="#8dbdf9" d="M40.854 33.934c-1.258.021-2.517.032-3.779.04s-2.517.009-3.779.014h-.053v-1.622l.007-1.569c.01-1.045.02-2.091.046-3.136.024 1.045.034 2.091.044 3.136l.007 1.569c0 .523.006 1.045 0 1.568l-.053-.053c1.258 0 2.517 0 3.779.013s2.524.021 3.783.04z"/><path fill="#e4f0ff" d="m15.185 21.532.847.18-.847.248a.3.3 0 0 0-.212.229l-.212 1.016-.234-.997a.31.31 0 0 0-.229-.227l-.847-.193.87-.245c.054-.015.103-.045.141-.087s.064-.093.075-.148l.194-.977.219.971a.307.307 0 0 0 .233.23zM11.265 28.815l.444.094-.445.131a.157.157 0 0 0-.108.12l-.112.533-.123-.524a.156.156 0 0 0-.121-.119l-.444-.102.457-.129a.159.159 0 0 0 .114-.122l.101-.513.115.51a.162.162 0 0 0 .121.121zM17.527 20.679l.258.055-.258.078c-.016.004-.031.013-.042.026s-.019.027-.023.044l-.065.313-.071-.304a.092.092 0 0 0-.07-.068l-.258-.059.265-.078c.016-.005.031-.014.043-.026s.019-.028.023-.045l.059-.298.066.295a.093.093 0 0 0 .072.068zM18.8 25.907l.258.054-.258.078c-.016.005-.031.014-.042.026s-.019.028-.023.044l-.064.309-.071-.303c-.004-.017-.013-.032-.025-.045s-.028-.021-.045-.025l-.258-.059.265-.078c.016-.005.031-.014.043-.026s.019-.028.023-.045l.059-.298.066.295c.004.018.012.034.025.046s.029.022.046.025zM12.512 27.628l.212.045-.212.062c-.013.004-.025.011-.034.021s-.016.022-.019.036l-.055.255-.059-.25c-.003-.014-.011-.026-.021-.036s-.023-.017-.036-.021l-.211-.046.218-.062c.014-.004.026-.011.035-.022s.016-.023.019-.037l.048-.245.055.243c.004.014.011.026.021.036s.023.017.037.02z"/><path fill="#e0e0e0" d="m26.623 30.043.212.045-.212.062c-.013.004-.025.012-.034.022s-.016.023-.019.036l-.053.254-.059-.249c-.003-.014-.011-.026-.021-.036s-.023-.017-.036-.021l-.212-.048.218-.061c.013-.004.026-.012.035-.022s.016-.023.019-.037l.049-.245.055.243c.003.014.011.027.021.037s.023.017.038.021z"/><path fill="#e4f0ff" d="m20.979 15.303.212.045-.212.062c-.013.004-.025.012-.034.022s-.016.023-.019.036l-.053.254-.059-.249a.081.081 0 0 0-.057-.058l-.212-.048.218-.062c.014-.004.026-.011.035-.022s.016-.023.019-.037l.048-.245.055.243c.003.014.011.027.021.037s.023.017.038.021z"/><path fill="#e0e0e0" d="m40.638 22.26.212.045-.212.062c-.013.004-.025.012-.034.022s-.016.023-.019.036l-.053.254-.059-.249a.076.076 0 0 0-.058-.057l-.212-.048.218-.062a.072.072 0 0 0 .053-.058l.049-.245.055.243c.003.014.011.027.021.037s.023.017.038.021zM37.121 16.151l.212.045-.212.063c-.013.004-.025.011-.034.021s-.016.022-.019.036l-.053.255-.059-.25a.076.076 0 0 0-.058-.057l-.212-.048.218-.062c.013-.004.026-.012.035-.022s.016-.023.019-.037l.049-.245.055.243c.003.014.011.027.021.037s.023.017.037.021z"/><path fill="#e4f0ff" d="m29.81 4.413.212.045-.212.062c-.013.004-.025.012-.034.022s-.016.023-.019.036l-.053.254-.059-.249a.076.076 0 0 0-.058-.057l-.212-.048.219-.062c.013-.004.025-.012.035-.022s.016-.023.019-.037l.048-.245.055.243c.003.014.011.027.021.037s.023.017.038.021z"/><path fill="#e0e0e0" d="m20.984 26.798.429.091-.429.125a.16.16 0 0 0-.108.117l-.108.514-.119-.505a.151.151 0 0 0-.115-.115l-.43-.098.442-.125a.16.16 0 0 0 .11-.118l.098-.495.111.492a.157.157 0 0 0 .119.116z"/><path fill="#e4f0ff" d="m21.892 17.437.429.091-.429.126a.16.16 0 0 0-.108.117l-.107.515-.119-.506c-.007-.028-.021-.054-.042-.074s-.046-.034-.074-.041l-.429-.098.442-.125a.155.155 0 0 0 .109-.119l.098-.495.111.492c.007.029.021.055.042.076s.047.035.076.041zM27.884 1.812l.429.091-.429.126a.159.159 0 0 0-.108.118l-.107.514-.122-.506c-.007-.028-.021-.054-.042-.074s-.046-.034-.074-.041l-.429-.098.442-.125a.155.155 0 0 0 .109-.118l.098-.496.112.492a.157.157 0 0 0 .122.118zM40.173 12.41l.738.156-.738.216a.268.268 0 0 0-.186.201l-.187.884-.201-.866a.265.265 0 0 0-.2-.197l-.738-.168.759-.214a.264.264 0 0 0 .188-.204l.169-.852.191.846a.269.269 0 0 0 .204.199z"/><path fill="#e0e0e0" d="M17.392 7.234h-6.909V.022h6.909v7.212zm-6.906-.004h6.901V.027h-6.901V7.23z"/><path fill="#b8d9ff" d="M11.413 6.298a.863.863 0 0 1-.125.145c-.078.085-.194.201-.321.326s-.244.234-.33.317a.74.74 0 0 1-.146.121.905.905 0 0 1 .124-.145c.078-.085.194-.2.322-.326s.244-.234.331-.317a.759.759 0 0 1 .145-.12zM16.463 6.285a.825.825 0 0 1 .145.125 11.367 11.367 0 0 1 .638.651.852.852 0 0 1 .122.146.738.738 0 0 1-.144-.123c-.085-.078-.201-.195-.326-.322s-.234-.245-.317-.331a.86.86 0 0 1-.118-.145zM16.448 1.007a.82.82 0 0 1 .124-.145 13.327 13.327 0 0 1 .651-.639.712.712 0 0 1 .146-.122.73.73 0 0 1-.125.141c-.078.085-.194.201-.322.327s-.244.234-.33.317a.79.79 0 0 1-.144.121zM11.399 1.02a.82.82 0 0 1-.145-.124c-.085-.078-.2-.195-.325-.322s-.234-.244-.312-.33a.852.852 0 0 1-.122-.146.743.743 0 0 1 .144.124 11.228 11.228 0 0 1 .638.653.84.84 0 0 1 .121.145z"/><path fill="#b8d9ff" d="M16.448 6.263a.113.113 0 0 1 0-.026v-.358c0-.25 0-.613-.005-1.074 0-.923-.005-2.238-.009-3.812l.02.02h-5.035l.022-.022v5.27l-.019-.02 4.678.015-4.708.023V.967h5.077v.02a3710.5 3710.5 0 0 0-.01 3.825c0 .459 0 .821-.005 1.069V6.234a.1.1 0 0 1-.004.029z"/><path fill="#e0e0e0" d="M17.386 16.237h-6.91V9.025h6.91v7.212zm-6.906-.004h6.901V9.03H10.48v7.203z"/><path fill="#b8d9ff" d="M11.407 15.301a.825.825 0 0 1-.125.145c-.078.085-.194.2-.321.326s-.244.234-.33.313a.852.852 0 0 1-.146.122.799.799 0 0 1 .125-.141c.078-.085.194-.201.322-.327s.244-.234.331-.317a.79.79 0 0 1 .144-.121zM16.455 15.289a.78.78 0 0 1 .145.124c.085.078.201.195.326.321s.234.245.312.331a.712.712 0 0 1 .122.146.813.813 0 0 1-.144-.124c-.085-.078-.201-.195-.326-.322s-.234-.245-.317-.331a.86.86 0 0 1-.118-.145zM16.442 10.01a.857.857 0 0 1 .124-.145c.078-.085.194-.201.322-.326s.243-.234.329-.317a.803.803 0 0 1 .146-.121.774.774 0 0 1-.124.144c-.078.085-.194.201-.322.327s-.244.234-.33.317a.764.764 0 0 1-.145.121zM11.39 10.023a.825.825 0 0 1-.145-.125c-.085-.078-.2-.194-.325-.321s-.233-.244-.311-.327a.852.852 0 0 1-.122-.146.813.813 0 0 1 .144.124 11.228 11.228 0 0 1 .638.653c.045.042.086.09.119.142z"/><path fill="#b8d9ff" d="M16.442 15.267a.105.105 0 0 1 0-.025v-.359c0-.249 0-.613-.005-1.074 0-.923-.006-2.238-.009-3.812l.019.02h-5.035l.022-.023v5.27l-.019-.019 5.035.015a.089.089 0 0 1-.023 0h-.335l-1.02.005-3.682.01v-5.3h5.073v.02a3710.5 3710.5 0 0 0-.01 3.825c0 .46-.004.821-.005 1.07V15.242l-.006.026z"/><path fill="#87bdff" d="m12.405 30.611 2.139-.051s1.12-.68 1.208-.731.598-.156.598-.156l3.391 1.064v.313H11.8v-.237l.365-.038.239-.163z"/><path fill="#133578" d="M21.15 26.039c-.064-.01-1.864 2.799-1.864 2.799l-2.15.395-2.384 1.329s-.054.27.215.288 1.717-.625 1.717-.625-.496.242-.401.553c.111.365 1.046.078 1.046.078l1.997-.13a.647.647 0 0 0 .472-.248l.254-.322 2.796-2.225s-.247-1.675-1.699-1.89z"/><path fill="#fff" d="M17.962 29.823a.231.231 0 0 1-.048.051 1.384 1.384 0 0 1-.398.248 1.113 1.113 0 0 1-.338.07 2.925 2.925 0 0 0-.337.027.954.954 0 0 0-.253.1c-.138.078-.209.145-.214.139s.013-.021.047-.052a1.13 1.13 0 0 1 .152-.113.952.952 0 0 1 .26-.112c.113-.018.227-.028.342-.03.204-.011.402-.075.574-.185.133-.084.208-.148.212-.143zM20.114 29.66a.474.474 0 0 1-.13-.088 1.651 1.651 0 0 1-.451-.599.492.492 0 0 1-.049-.149c.082.155.173.306.272.45.111.136.231.265.357.386zM20.773 29.081a.238.238 0 0 1-.011-.07c0-.045-.008-.111-.009-.192-.003-.212.011-.424.043-.634s.08-.417.144-.62a2.108 2.108 0 0 1 .096-.244c-.018.086-.041.17-.068.253a5.095 5.095 0 0 0-.187 1.245c.002.088-.002.175-.009.263z"/><path fill="#133578" d="m30.054 32.066.225-1.793 8.518-4.743s1.249 2.022 1.726 6.538l-5.985-.028-4.484.027z"/><path fill="#0075ff" d="m25.543 14.534-1.086 1.21-.18 2.409 2.09 4.291 2.397 5.052c.198.434.397 1.433.256 2.002 0 0-.39 1.376 1.591 1.467 1.08.05 2.323-.235 3.229-.506l.023-.007a6.17 6.17 0 0 0 3.643-2.922l1.39-1.922c-.308-1.198-.781-.871-.967-1.324-.899-2.173-1.639-3.744-1.639-3.744l-2.978-6.871c-.446-1.009-1.008-1.379-1.662-1.54a3.113 3.113 0 0 0-1.477.005l-1.463.352-3.167 2.048z"/><path fill="#0075ff" d="M24.386 26.977c.61-.703 1.6-5.553 1.6-5.553l-1.529-5.681s-.707.806-.926 1.576l-1.282 6.789s-.468.098-.464.818c.001.485 2.601 2.051 2.601 2.051z"/><path fill="#133578" d="M27.121 24.007a.34.34 0 0 1-.029-.048l-.078-.142-.272-.527-.884-1.746-.871-1.751-.261-.533-.069-.145a.262.262 0 0 1-.022-.052.292.292 0 0 1 .029.048l.078.142.272.528.884 1.747.874 1.751.261.533.069.145a.292.292 0 0 1 .019.052zM37.9 24.755a.405.405 0 0 1-.018.066l-.059.186-.044.134c-.017.049-.038.101-.06.156-.044.113-.09.242-.156.379l-.098.218c-.034.076-.078.151-.116.231-.078.161-.176.324-.277.499a8.514 8.514 0 0 1-1.668 1.999c-.156.13-.297.256-.441.362-.072.053-.138.108-.206.156s-.134.091-.197.135c-.123.088-.243.156-.345.22-.051.031-.099.061-.144.087l-.125.064-.173.091a.708.708 0 0 1-.062.03.382.382 0 0 1 .058-.037l.169-.098.122-.07c.045-.027.091-.058.142-.09.101-.066.219-.135.34-.225l.194-.137c.067-.048.133-.102.204-.156.143-.106.285-.234.437-.363a8.722 8.722 0 0 0 1.661-1.991c.101-.173.2-.335.279-.495.041-.078.083-.156.118-.229l.101-.216c.066-.136.114-.264.16-.375.023-.056.045-.108.063-.156l.047-.133.066-.184a.546.546 0 0 1 .027-.06z"/><path fill="#133578" opacity=".09" d="M32.397 24.49c.637-.012 1.536-.118 2.148-.296s1.197-.485 1.635-.946c.438-.461.721-1.094.702-1.728-.36.782-1.062 1.495-1.861 1.9-.266.135-.746.371-.801.301l-1.824.77z"/><path fill="#0075ff" d="M34.153 23.978c.503-.203.988-.418 1.318-.672 1.561-1.206 1.664-2.294 1.461-3.089-.222-.875-3.773-7.034-4.165-7.43s-1.63-1.031-2.867.383c-.718.821.709 3.136.709 3.136l2.537 4.445c-.714-.121-1.04.613-1.04.613l2.047 2.614z"/><path fill="#133578" d="M32.16 21.553a.75.75 0 0 1 .039-.405.627.627 0 0 1 .342-.32c.193-.076.4-.109.607-.095l-.016.025-.901-1.572-1.153-2.032-.346-.618-.092-.17a.671.671 0 0 1-.03-.06 11.01 11.01 0 0 1 .136.222l.357.612c.3.521.709 1.237 1.164 2.027l.894 1.576.016.027h-.031a1.382 1.382 0 0 0-.594.087.61.61 0 0 0-.335.302.711.711 0 0 0-.059.291c0 .07.005.103.002.103zM36.821 19.917a.294.294 0 0 1 .023.051c.013.034.037.083.059.149a2.12 2.12 0 0 1 .093.988 2.64 2.64 0 0 1-.112.456 3.019 3.019 0 0 1-.217.469 3.85 3.85 0 0 1-.312.458 4.801 4.801 0 0 1-2.051 1.444c-.066.025-.118.039-.152.05a.341.341 0 0 1-.055.014.338.338 0 0 1 .052-.022c.034-.013.086-.03.15-.057.182-.071.36-.153.532-.245a4.952 4.952 0 0 0 1.493-1.21 3.143 3.143 0 0 0 .528-.915 2.57 2.57 0 0 0 .114-.449 2.256 2.256 0 0 0-.074-.978c-.019-.066-.041-.116-.051-.152a.225.225 0 0 1-.02-.051z"/><path fill="#133578" opacity=".09" d="M33.127 20.751a2.047 2.047 0 0 1 1.424.834.44.44 0 0 1 .086.178c.007.033.004.067-.008.098s-.033.058-.059.078c-.028.014-.058.021-.089.019s-.061-.011-.087-.027a.595.595 0 0 1-.136-.124c-.358-.406-.663-.751-1.11-1.057z"/><path fill="#133578" d="M34.509 22.287c-.006 0-.059-.102-.156-.264a4.104 4.104 0 0 0-.424-.599 3.373 3.373 0 0 0-.539-.495c-.151-.112-.251-.172-.247-.178a.338.338 0 0 1 .074.036 2.97 2.97 0 0 1 .742.611 3.224 3.224 0 0 1 .516.812.35.35 0 0 1 .033.077zM31.684 12.13a2.397 2.397 0 0 0-.617.106 1.999 1.999 0 0 0-.598.317 1.863 1.863 0 0 0-.742 1.425c-.011.227.017.454.082.671.063.2.152.391.266.567 0 0-.011-.011-.028-.034a1.767 1.767 0 0 1-.266-.525 1.992 1.992 0 0 1-.092-.681 1.883 1.883 0 0 1 .757-1.455c.184-.139.392-.245.612-.313.148-.046.301-.072.456-.078.055-.005.097 0 .126 0a.213.213 0 0 1 .044-.002z"/><path fill="#05c168" d="m25.183 25.506-.097-.191-.219-.099s-.937.151-1.165.541-1.13 1.782-1.093 2.059c.037.277.275.426.434.367s.453-.446.453-.446l.126-.016 1.483.342.176-.305-1.381-.51.752-.074.658-.703-.128-.964z"/><path fill="#fff" d="M26.59 27.859a.824.824 0 0 0 .123.77c.244.321.606.825.948 1.274.267.349 2.064 1.275 3.035 1.758a.829.829 0 0 0 1.065-.288c.345-.526.62-1.096.816-1.694a.831.831 0 0 0-.436-1.009l-4.18-1.974a.824.824 0 0 0-.961.186.83.83 0 0 0-.178.298l-.233.681z"/><path fill="#133578" d="M26.59 27.859s0-.015.012-.042l.04-.123.156-.469a.84.84 0 0 1 .995-.603c.087.023.171.055.251.096l.254.119 3.874 1.826a.853.853 0 0 1 .461.685.942.942 0 0 1-.069.429 7.323 7.323 0 0 1-.756 1.556.848.848 0 0 1-1.088.36c-.24-.116-.468-.234-.695-.35a38.672 38.672 0 0 1-1.268-.682 11.4 11.4 0 0 1-.561-.334 3.216 3.216 0 0 1-.489-.356 2.323 2.323 0 0 1-.176-.22 13.877 13.877 0 0 1-.156-.214l-.29-.391c-.09-.121-.174-.234-.252-.342a2.48 2.48 0 0 1-.202-.295.83.83 0 0 1-.04-.65s0 .014-.011.042a.83.83 0 0 0 .065.601c.061.102.129.199.204.291l.255.339.292.391.16.213c.053.076.111.149.174.217.15.131.313.248.485.349.176.111.364.22.561.331.39.221.818.446 1.268.678.226.114.457.234.695.349a.8.8 0 0 0 .758-.055.8.8 0 0 0 .156-.128 1.15 1.15 0 0 0 .123-.164 7.434 7.434 0 0 0 .753-1.547.885.885 0 0 0 .067-.413.809.809 0 0 0-.437-.652l-4.122-1.956a1.195 1.195 0 0 0-.245-.095.813.813 0 0 0-.468.034.809.809 0 0 0-.338.239.9.9 0 0 0-.166.313c-.07.202-.126.358-.163.469l-.044.121c-.011.029-.023.034-.023.034z"/><path fill="#133578" d="M24.944 26.203s.096-.689.331-.759l1.698-.509 4.009-2.754 1.565 3.007-3.668 1.485s-.144.188-.304.116c0 0-.243.295-.372.313s-.083.087-.083.087-1.075 1.798-1.333 1.833c-.258.035-.584-.013-.574-.223 0 0-.484.176-.64-.01 0 0-.375.286-.62-.02a3.66 3.66 0 0 1-.174-.342s-.325.403-.618.263c-.279-.134-.217-.567-.064-.832s.848-1.654.848-1.654zM23.436 27.83c-.006 0-.029-.04-.078-.1a.776.776 0 0 0-.507-.282.77.77 0 0 1-.126-.013.28.28 0 0 1 .128-.016.675.675 0 0 1 .527.294.283.283 0 0 1 .055.116z"/><path fill="#133578" d="M24.692 26.673c-.061.057-.127.11-.197.156-.123.093-.295.219-.474.371a3.482 3.482 0 0 0-.424.426c-.098.119-.149.198-.156.195a.23.23 0 0 1 .03-.061c.031-.053.066-.104.103-.152.123-.161.264-.308.419-.438s.316-.252.484-.364a1.47 1.47 0 0 1 .214-.133z"/><path fill="#fff" d="M26.778 27.917a.548.548 0 0 1-.06.146 2.875 2.875 0 0 1-.427.634.517.517 0 0 1-.113.111c-.009-.008.148-.191.312-.437s.276-.46.288-.454zM27.875 26.287a.49.49 0 0 1-.151-.036 2.883 2.883 0 0 1-.677-.314.488.488 0 0 1-.124-.092c.006-.01.208.113.468.234s.486.192.483.208z"/><path fill="#133578" opacity=".09" d="M28.573 26.561c-.018-.034-.03-.07-.047-.105a2.918 2.918 0 0 0-.769-.971c-.03-.024-.07-.049-.103-.03-.012.008-.022.02-.026.035s-.004.03.001.044c.01.028.025.053.046.073.291.342.525.67.816 1.012.022.029.101-.018.082-.057z"/><path fill="#133578" d="M21.667 29.504c.038-.062.081-.121.13-.175a26.589 26.589 0 0 1 .677-.8c.045-.057.096-.109.151-.156a1.167 1.167 0 0 1-.13.175 18.405 18.405 0 0 1-.676.799 1.245 1.245 0 0 1-.151.157z"/><path fill="#211f54" d="M20.478 9.754c0-.398.126-.532.034-.606-.333-.267-.629-.967-.656-1.278-.063-.732.554-1.375.554-1.375.115-.391.273-.909.737-1.268.503-.391 1.29-.855 1.92-.774s1.085.12 1.488.612l-.88 7.809c-.489-.015-.923-.324-1.255-.684s-.594-.782-.937-1.128c-.258-.259-.312-.152-.756-.739-.276-.365-.253-.204-.249-.569z"/><path fill="#ffbe9d" d="M26.714 7.369c-.551-1.582-1.93-2.579-3.494-1.984l-.141.064a2.992 2.992 0 0 0-1.593 3.736c.485 1.368 1.038 2.871 1.364 3.576.675 1.458 2.242 1.028 2.242 1.028l.665 1.266a2.928 2.928 0 0 0 3.331-1.903l-2.374-5.783z"/><path fill="#211f54" d="M25.06 10.121c.026.053.072.093.127.113s.116.017.169-.008c.027-.011.051-.027.071-.048s.036-.045.047-.071a.22.22 0 0 0-.002-.168.224.224 0 0 0-.297-.105c-.027.011-.051.027-.071.048s-.036.045-.047.071a.22.22 0 0 0 .002.168zM22.968 11.054c.026.053.072.093.127.113s.116.017.17-.008c.027-.011.051-.027.071-.048s.036-.045.047-.071a.22.22 0 0 0-.002-.168.224.224 0 0 0-.297-.105.215.215 0 0 0-.116.287zM22.277 10.568c.038.014.133-.176.348-.285s.43-.081.44-.119c.006-.018-.042-.049-.138-.068a.62.62 0 0 0-.631.323c-.037.084-.038.143-.019.149zM24.534 9.59c.04.01.116-.187.319-.32s.42-.125.426-.165c.004-.018-.048-.046-.145-.053a.62.62 0 0 0-.596.388c-.03.087-.022.146-.003.15zM24.477 11.547c-.006-.013-.151.032-.384.115-.058.022-.118.039-.144.005s-.041-.105-.046-.183l-.05-.504c-.076-.714-.162-1.291-.191-1.288s.01.586.087 1.3l.057.503c.011.073.011.163.081.232a.16.16 0 0 0 .132.034.38.38 0 0 0 .1-.034c.226-.098.362-.167.357-.179zM25.19 11.374c-.036.016.082.251-.034.52s-.379.369-.364.403c.007.015.079.017.188-.034a.66.66 0 0 0 .312-.324.57.57 0 0 0 .013-.429c-.044-.101-.099-.146-.115-.136zM23.938 8.82c.056.043.242-.115.5-.24s.494-.184.494-.254c-.001-.033-.069-.064-.181-.067a.967.967 0 0 0-.757.377c-.065.092-.081.164-.056.185zM21.885 9.599c.063.03.186-.097.364-.19s.347-.135.357-.204c.002-.033-.046-.07-.136-.083a.566.566 0 0 0-.339.07.577.577 0 0 0-.242.247c-.036.085-.032.146-.004.159zM24.554 5.064a2.558 2.558 0 0 0-.156-.057c-.436-.156-.925-.242-1.3.01-.215.145-.353.382-.56.54-.279.213-.651.259-.958.429a1.335 1.335 0 0 0-.668 1.016c-.032.327.055.68-.098.969-.071.134-.312.228-.396.354 0 0-.149 1.063.665 1.016l.102-.087.798-1.057c.266-.09.54-.156.656-.401.078-.162.056-.357.067-.538l.427-.508c.135-.034.284-.046.418-.078a1.215 1.215 0 0 0 .903-1.495l.097-.112z"/><path fill="#211f54" d="M23.216 6.284c.179-.147.542-.459.575-.684.073-.488.381-.932.821-1.094a1.13 1.13 0 0 1 1.279.419c.521-.219 1.171-.109 1.628.275a1.876 1.876 0 0 1 .64 1.627c-.02.156-.059.319 0 .469.078.183.271.269.43.379.435.299.656.871.647 1.407s-.083.75-.329.961c-.482.414.556 1.382-.371 1.78L26.855 8.55l-.004.006a.369.369 0 0 1-.347.196c-.937-.06-.877-1.044-.69-1.229a3.398 3.398 0 0 1-.798-.343c-.247-.156-.667-.464-.753-.753-.19.088-1.126-.078-1.047-.142z"/><path fill="#eb996e" d="M27.598 9.493c0-.005.023.005.059.006a.19.19 0 0 0 .133-.052c.091-.084.111-.292.041-.477a.63.63 0 0 0-.156-.234.218.218 0 0 0-.189-.078.097.097 0 0 0-.085.091c0 .034.013.052.009.056s-.029-.008-.038-.053a.125.125 0 0 1 .014-.078.14.14 0 0 1 .087-.066.269.269 0 0 1 .249.079c.079.07.141.159.178.258.078.208.051.442-.078.547a.207.207 0 0 1-.173.04c-.039-.014-.054-.034-.051-.038z"/><path fill="#fff" d="m27.488 18.508.429.091-.429.126a.16.16 0 0 0-.108.117l-.107.514-.116-.505a.154.154 0 0 0-.117-.115l-.429-.098.442-.124a.158.158 0 0 0 .104-.12l.098-.495.112.492a.156.156 0 0 0 .121.117zM26.513 19.804l.191.041-.191.055c-.012.004-.023.01-.031.02s-.014.021-.017.033l-.048.229-.053-.225a.067.067 0 0 0-.051-.051l-.191-.043.197-.055c.012-.004.023-.011.032-.02s.015-.021.017-.033l.044-.22.049.219c.003.013.009.025.019.034s.021.016.034.018zM32.244 13.511l.191.041-.191.056c-.012.004-.023.01-.031.02s-.014.021-.017.033l-.048.229-.053-.225a.067.067 0 0 0-.051-.051l-.191-.043.197-.056c.012-.003.023-.01.032-.02s.015-.021.017-.034l.044-.22.049.219c.003.013.009.025.019.034s.021.016.034.018z"/><path fill="#4a4566" d="M30.938 30.907H9.658v1.102h21.28v-1.102z"/><path fill="#6e7191" d="M30.94 30.907h-6.156v1.102h6.156v-1.102z"/><path fill="#8883a5" d="M11.032 32.01c-.009-.016-.018-.032-.025-.049-.016-.031-.038-.078-.068-.132a2.781 2.781 0 0 0-.599-.765c-.047-.042-.085-.078-.112-.098a.24.24 0 0 1-.041-.037 1.438 1.438 0 0 1 .16.126 2.515 2.515 0 0 1 .665.903.282.282 0 0 1 .019.051zM12.644 32.029c-.105.001-.21-.01-.312-.032a1.873 1.873 0 0 1-.68-.294 2.12 2.12 0 0 1-.532-.524 1.694 1.694 0 0 1-.156-.267l.012.018.032.053a2.214 2.214 0 0 0 .656.705 1.891 1.891 0 0 0 .9.331l.061.005.019.003zM14.132 31.468s-.096.011-.271.013c-.087 0-.194 0-.318-.01a4.153 4.153 0 0 1-.198-.02l-.108-.015a.436.436 0 0 1-.112-.027c-.019-.006-.037-.017-.053-.03s-.028-.03-.037-.048a.108.108 0 0 1 .036-.12.297.297 0 0 1 .121-.052 3.178 3.178 0 0 1 1.361-.07c.114.018.226.044.336.078a.257.257 0 0 1 .14.109.227.227 0 0 1 .008.179.282.282 0 0 1-.109.143.49.49 0 0 1-.164.067 6.19 6.19 0 0 1-.337.063 4.53 4.53 0 0 1-.646.064 2.345 2.345 0 0 1-1.07-.207 1.769 1.769 0 0 1-.752-.656l.041.057a1.777 1.777 0 0 0 .717.583c.334.15.699.219 1.065.202.216-.007.431-.029.643-.065.111-.019.224-.039.336-.063a.466.466 0 0 0 .156-.065.27.27 0 0 0 .103-.135.2.2 0 0 0-.009-.166.234.234 0 0 0-.131-.102 2.368 2.368 0 0 0-.333-.078 3.227 3.227 0 0 0-1.223.034c-.045.009-.089.021-.131.032a.297.297 0 0 0-.117.05c-.016.012-.027.029-.033.048s-.006.039 0 .058c.015.035.043.063.078.078s.072.023.109.027l.108.016a3.987 3.987 0 0 0 .515.033c.084 0 .156 0 .201-.004l.077-.002zM17.9 30.982h-.03c-.02 0-.048-.006-.084-.006a1.135 1.135 0 0 0-.307.034 1.872 1.872 0 0 0-.427.169c-.165.09-.325.19-.479.299-.165.113-.325.22-.477.305a2.053 2.053 0 0 1-.425.184 1.144 1.144 0 0 1-.421.045h.114c.103-.005.206-.023.304-.054.146-.046.287-.109.42-.186.151-.086.312-.192.475-.306.155-.109.315-.209.482-.299.136-.073.281-.129.431-.166a1.092 1.092 0 0 1 .424-.021zM19.351 31.47l-.059-.013a1.013 1.013 0 0 0-.601.049.29.29 0 0 0-.151.104.157.157 0 0 0 .026.187.441.441 0 0 0 .187.119.849.849 0 0 0 .489.01c.088-.021.173-.049.256-.084a.864.864 0 0 0 .244-.137.328.328 0 0 0 .122-.249.407.407 0 0 0-.111-.267.542.542 0 0 0-.25-.156.818.818 0 0 0-.287-.027 2.092 2.092 0 0 0-.534.134 5.547 5.547 0 0 0-1.383.731l-.138.102-.049.036s.063-.054.183-.143a5.43 5.43 0 0 1 1.382-.74c.172-.069.353-.115.538-.136a.804.804 0 0 1 .293.027.578.578 0 0 1 .258.156.426.426 0 0 1 .115.278.348.348 0 0 1-.128.261.876.876 0 0 1-.247.14 1.69 1.69 0 0 1-.258.084.87.87 0 0 1-.498-.012.46.46 0 0 1-.192-.123.203.203 0 0 1-.047-.099.15.15 0 0 1 .021-.102.3.3 0 0 1 .156-.108 1.119 1.119 0 0 1 .435-.068.98.98 0 0 1 .171.025l.059.02zM21.099 32.003v-.057a1.082 1.082 0 0 0-.151-.641.894.894 0 0 0-.373-.34 1.031 1.031 0 0 0-.201-.067.596.596 0 0 1 .206.056.89.89 0 0 1 .382.342 1.061 1.061 0 0 1 .136.707zM23.373 31.992a2.448 2.448 0 0 1-.328-.068 3.5 3.5 0 0 1-.346-.114 3.702 3.702 0 0 1-.402-.192 3.593 3.593 0 0 1-.829-.648l-.045-.049-.015-.017.017.016.048.047a3.648 3.648 0 0 0 1.234.832 3.377 3.377 0 0 0 .577.176l.066.013a.086.086 0 0 1 .023.005zM24.971 31.685l-.022-.01c-.014-.007-.033-.02-.06-.032a1.511 1.511 0 0 0-.234-.091 2.383 2.383 0 0 0-.364-.078c-.138-.02-.292-.034-.453-.055-.322-.04-.609-.136-.781-.263a.995.995 0 0 1-.242-.241l.016.017c.01.012.023.03.044.052.057.061.12.116.19.163.173.123.457.216.781.256.16.021.312.035.453.056.123.016.245.042.365.078.081.025.159.057.234.097.044.033.074.052.074.052z"/></svg>