<!-- Generated by IcoMoon.io -->
<svg version="1.1" xmlns="http://www.w3.org/2000/svg"  viewBox="0 0 37 32">
<title>cleaner2</title>
<path fill="#05c168" d="M28.503 26.581l0.040-0.079 0.091-0.041c0 0 0.388 0.062 0.483 0.224s0.469 0.738 0.453 0.853c-0.016 0.115-0.114 0.176-0.18 0.152s-0.188-0.185-0.188-0.185l-0.052-0.007-0.615 0.141-0.073-0.126 0.573-0.211-0.312-0.031-0.273-0.291 0.053-0.399z"></path>
<path fill="#0075ff" d="M28.066 27.491c0.018 0.053 0.023 0.11 0.014 0.166s-0.031 0.108-0.065 0.153c-0.101 0.133-0.252 0.342-0.393 0.527-0.111 0.145-0.856 0.528-1.259 0.728-0.075 0.038-0.162 0.046-0.244 0.024s-0.152-0.073-0.198-0.144c-0.143-0.218-0.257-0.454-0.339-0.702-0.026-0.080-0.022-0.166 0.011-0.243s0.093-0.139 0.169-0.175l1.734-0.817c0.044-0.021 0.091-0.032 0.14-0.033s0.096 0.008 0.141 0.027c0.045 0.019 0.085 0.047 0.118 0.082s0.058 0.077 0.074 0.123l0.097 0.282z"></path>
<path fill="#133578" d="M28.066 27.491c0 0 0-0.006-0.005-0.017l-0.017-0.051c-0.015-0.045-0.037-0.11-0.065-0.194-0.014-0.048-0.037-0.093-0.069-0.131-0.038-0.046-0.087-0.082-0.143-0.103-0.064-0.025-0.134-0.030-0.201-0.015-0.036 0.009-0.071 0.023-0.104 0.040l-0.105 0.049-1.607 0.756c-0.053 0.027-0.099 0.067-0.132 0.117s-0.054 0.107-0.059 0.167c-0.004 0.061 0.005 0.121 0.028 0.178 0.020 0.057 0.041 0.114 0.065 0.17 0.046 0.111 0.099 0.219 0.158 0.324 0.029 0.052 0.060 0.102 0.091 0.151 0.016 0.025 0.033 0.049 0.053 0.071 0.050 0.052 0.115 0.088 0.187 0.102s0.145 0.006 0.212-0.023c0.1-0.048 0.194-0.097 0.288-0.145 0.187-0.097 0.364-0.19 0.526-0.282 0.082-0.046 0.16-0.092 0.233-0.138 0.072-0.043 0.14-0.092 0.203-0.147 0.026-0.029 0.051-0.059 0.073-0.091 0.022-0.030 0.044-0.060 0.065-0.089 0.042-0.058 0.083-0.112 0.12-0.162s0.072-0.097 0.105-0.141c0.031-0.039 0.059-0.080 0.084-0.122 0.031-0.062 0.043-0.131 0.034-0.2-0.003-0.024-0.008-0.047-0.017-0.069 0 0 0 0.006 0.005 0.017 0.004 0.017 0.008 0.035 0.010 0.052 0.008 0.068-0.005 0.136-0.037 0.197-0.025 0.042-0.054 0.082-0.085 0.12l-0.106 0.14-0.121 0.162-0.066 0.088c-0.022 0.032-0.046 0.062-0.072 0.090-0.062 0.054-0.13 0.103-0.201 0.145-0.073 0.046-0.151 0.091-0.233 0.137-0.162 0.092-0.339 0.185-0.526 0.281-0.094 0.047-0.19 0.097-0.288 0.144-0.050 0.022-0.105 0.032-0.16 0.028s-0.108-0.021-0.154-0.051c-0.024-0.015-0.045-0.033-0.065-0.053s-0.036-0.044-0.051-0.068c-0.032-0.049-0.061-0.097-0.090-0.15-0.059-0.104-0.111-0.211-0.157-0.322-0.023-0.056-0.044-0.112-0.065-0.169-0.023-0.054-0.032-0.113-0.028-0.171 0.005-0.057 0.024-0.111 0.056-0.158s0.075-0.086 0.126-0.111l1.71-0.81c0.032-0.017 0.067-0.030 0.102-0.040 0.065-0.014 0.132-0.009 0.194 0.014 0.055 0.020 0.103 0.054 0.14 0.099 0.031 0.038 0.055 0.082 0.069 0.129 0.029 0.084 0.052 0.148 0.068 0.194 0.008 0.021 0.014 0.038 0.018 0.050s0.009 0.014 0.009 0.014z"></path>
<path fill="#133578" d="M29.228 27.543c0.003 0 0.012-0.017 0.032-0.041 0.052-0.064 0.128-0.106 0.21-0.117 0.018-0 0.035-0.002 0.052-0.005-0.017-0.006-0.035-0.009-0.053-0.006-0.043 0.002-0.086 0.014-0.124 0.035s-0.071 0.051-0.095 0.087c-0.011 0.014-0.019 0.031-0.023 0.048z"></path>
<path fill="#133578" d="M28.707 27.064c0.025 0.024 0.053 0.045 0.082 0.065 0.051 0.039 0.122 0.091 0.196 0.154 0.064 0.054 0.122 0.113 0.176 0.176 0.040 0.049 0.062 0.082 0.065 0.081-0.003-0.009-0.007-0.018-0.013-0.025-0.013-0.022-0.027-0.043-0.043-0.063-0.051-0.067-0.109-0.128-0.174-0.182s-0.131-0.104-0.201-0.151c-0.028-0.021-0.058-0.039-0.089-0.055z"></path>
<path fill="#fff" d="M27.415 28.308l-0.479-0.912-0.865 0.395 0.564 0.995 0.78-0.478z"></path>
<path fill="#133578" d="M29.962 28.237c-0.016-0.026-0.034-0.050-0.054-0.073-0.035-0.043-0.084-0.103-0.139-0.167s-0.105-0.123-0.142-0.164c-0.019-0.024-0.040-0.045-0.063-0.065 0.016 0.026 0.034 0.050 0.054 0.072 0.035 0.043 0.084 0.103 0.138 0.167s0.105 0.123 0.142 0.164c0.019 0.024 0.040 0.045 0.063 0.065z"></path>
<path fill="#133578" d="M29.829 28.697c0.004 0-0.067-0.194-0.159-0.432s-0.17-0.428-0.174-0.426c-0.004 0.002 0.067 0.194 0.159 0.432s0.17 0.427 0.174 0.425z"></path>
<path fill="#133578" d="M29.415 28.442c0.008-0.101 0.010-0.203 0.006-0.305 0.002-0.102-0.002-0.204-0.011-0.305-0.008 0.101-0.010 0.203-0.006 0.305-0.002 0.102 0.002 0.204 0.011 0.305z"></path>
<path fill="#dcddeb" d="M35.534 10.386c-0.134 0.022-0.265 0.057-0.391 0.106-0.131 0.036-0.257 0.086-0.378 0.149 0.134-0.021 0.265-0.056 0.391-0.106 0.131-0.036 0.258-0.086 0.378-0.149z"></path>
<path fill="#dcddeb" d="M25.766 24.384v3.189h0.427l0.573-3.225-1.001 0.036z"></path>
<path fill="#dcddeb" d="M29.649 24.384v3.189h0.428l0.573-3.225-1 0.036z"></path>
<path fill="#dcddeb" d="M34.506 24.384v3.189h-0.427l-0.573-3.225 1 0.036z"></path>
<path fill="#dcddeb" d="M37.233 24.384v3.189h-0.427l-0.573-3.225 1.001 0.036z"></path>
<path fill="#68aeff" d="M28.435 17.369c0 0-1.688-0.487-2.153 0.162s-0.516 6.897-0.516 6.897 3.013 0.054 3.068 0c0.055-0.054-0.399-7.059-0.399-7.059z"></path>
<path fill="#0075ff" d="M37.148 23.289l0.050-10.807c0.002-0.332-0.037-0.689-0.163-0.997s-0.312-0.587-0.547-0.822c-0.235-0.235-0.515-0.421-0.822-0.547s-0.637-0.19-0.97-0.188h-3.978c-0.33 0-0.658 0.066-0.962 0.194s-0.581 0.316-0.811 0.552c-0.231 0.236-0.412 0.517-0.533 0.824s-0.179 0.636-0.172 0.966l0.255 10.824h8.655z"></path>
<path fill="#0075ff" d="M37.148 23.289c0 0-1.531-2.261-3.336-2.335s-5.688 0-5.688 0-1.722 0.065-1.842 2.198v1.258h10.866v-1.12z"></path>
<path fill="#56a4ff" d="M33.621 21.018l-4.461-0.024c-0.465 0-0.995-0.059-1.446 0.069-1.33 0.377-1.525 2.077-1.419 3.249 0.004 0.049-0.071 0.049-0.075 0-0.085-0.982 0.015-2.359 0.856-3.014 0.486-0.378 1.049-0.384 1.628-0.381l4.917 0.026c0.010 0 0.020 0.004 0.026 0.011s0.011 0.017 0.011 0.026c0 0.010-0.004 0.019-0.011 0.026s-0.017 0.011-0.026 0.011z"></path>
<path fill="#dcddeb" d="M29.469 10.266c0.010-0.001 0.020-0.003 0.030-0.006 0.020 0 0.048-0.014 0.085-0.020l0.143-0.020c0.057-0.005 0.122-0.013 0.196-0.018 0.296-0.020 0.726-0.031 1.256-0.031 0.265 0 0.556 0 0.867 0.009 0.332-0.001 0.663 0.015 0.993 0.049 0.177 0.022 0.353 0.054 0.527 0.096 0.181 0.043 0.356 0.105 0.523 0.187 0.342 0.191 0.624 0.474 0.813 0.816 0.046 0.088 0.081 0.18 0.107 0.276 0.022 0.096 0.036 0.193 0.044 0.291 0.024 0.196 0.043 0.389 0.062 0.578 0.037 0.38 0.066 0.747 0.085 1.096 0.046 0.7 0.068 1.331 0.085 1.861s0.026 0.957 0.034 1.255c0 0.146 0.008 0.261 0.010 0.34 0 0.037 0 0.066 0 0.085-0.001 0.010-0.001 0.020 0 0.031 0.001-0.010 0.001-0.020 0-0.031v-0.085c0-0.081 0-0.196 0-0.34 0-0.297-0.008-0.725-0.020-1.256s-0.032-1.162-0.076-1.863c-0.022-0.35-0.049-0.717-0.085-1.097-0.019-0.191-0.038-0.384-0.061-0.58-0.008-0.1-0.023-0.199-0.046-0.297s-0.057-0.193-0.1-0.283c-0.096-0.178-0.218-0.341-0.363-0.482-0.139-0.139-0.297-0.258-0.47-0.352-0.17-0.083-0.348-0.147-0.533-0.19-0.175-0.042-0.353-0.074-0.533-0.095-0.331-0.034-0.664-0.049-0.996-0.046-0.312 0-0.602-0.006-0.868 0-0.531 0-0.961 0.019-1.257 0.044-0.074 0.007-0.14 0.015-0.197 0.021s-0.105 0.018-0.143 0.025-0.066 0.020-0.085 0.025c-0.010 0.001-0.020 0.002-0.029 0.005z"></path>
<path fill="#dcddeb" d="M32.942 13.53c0.050-0 0.098 0.018 0.135 0.050 0.019 0.017 0.032 0.039 0.039 0.063s0.007 0.050-0.001 0.074c-0.009 0.029-0.026 0.055-0.050 0.075s-0.052 0.032-0.083 0.035c-0.031-0-0.061-0.009-0.087-0.025s-0.048-0.039-0.062-0.066c-0.012-0.023-0.018-0.048-0.018-0.073s0.006-0.051 0.018-0.073c0.026-0.043 0.064-0.078 0.109-0.1 0 0-0.017 0-0.043 0.006-0.038 0.015-0.071 0.042-0.093 0.077-0.017 0.026-0.028 0.057-0.030 0.088s0.003 0.063 0.017 0.092c0.017 0.036 0.044 0.066 0.077 0.086s0.072 0.031 0.112 0.030c0.040-0.004 0.077-0.019 0.107-0.045s0.052-0.060 0.063-0.098c0.008-0.031 0.007-0.063-0.003-0.093s-0.028-0.057-0.053-0.077c-0.032-0.027-0.072-0.042-0.114-0.041-0.027 0.004-0.041 0.009-0.040 0.012z"></path>
<path fill="#dcddeb" d="M33.088 12.527c-0.053 0.023-0.099 0.059-0.135 0.104-0.095 0.102-0.16 0.23-0.185 0.367s-0.010 0.28 0.043 0.409c0.016 0.054 0.045 0.104 0.085 0.145 0.007 0-0.028-0.058-0.060-0.155-0.042-0.126-0.052-0.26-0.028-0.39s0.080-0.253 0.164-0.355c0.068-0.079 0.12-0.118 0.116-0.124z"></path>
<path fill="#dcddeb" d="M32.992 14.935c0.005-0.004-0.037-0.061-0.085-0.162-0.064-0.132-0.105-0.274-0.12-0.419-0.014-0.17 0-0.331 0.064-0.418 0.036-0.047 0.085-0.081 0.141-0.099 0 0-0.019-0.007-0.051 0-0.046 0.013-0.087 0.040-0.117 0.077-0.043 0.056-0.070 0.122-0.078 0.192-0.011 0.083-0.013 0.166-0.005 0.249 0.015 0.151 0.061 0.297 0.136 0.429 0.027 0.058 0.066 0.109 0.115 0.15z"></path>
<path fill="#dcddeb" d="M32.374 13.661c0.062-0.015 0.125-0.026 0.188-0.033 0.063 0.006 0.126 0.017 0.188 0.032 0.009-0.009-0.068-0.077-0.188-0.077s-0.197 0.070-0.188 0.077z"></path>
<path fill="#dcddeb" d="M30.411 13.53c0.050-0 0.098 0.017 0.135 0.050 0.019 0.017 0.032 0.039 0.039 0.063s0.007 0.050-0.001 0.074c-0.009 0.029-0.026 0.055-0.050 0.075s-0.052 0.032-0.083 0.035c-0.031-0-0.061-0.009-0.087-0.025s-0.048-0.039-0.062-0.066c-0.011-0.023-0.017-0.048-0.016-0.074s0.008-0.050 0.020-0.073c0.026-0.043 0.064-0.077 0.109-0.1 0 0-0.017 0-0.043 0.006-0.038 0.016-0.071 0.043-0.093 0.077-0.017 0.026-0.028 0.057-0.030 0.088s0.003 0.063 0.017 0.092c0.017 0.036 0.044 0.066 0.077 0.086s0.072 0.031 0.112 0.030c0.040-0.004 0.077-0.019 0.107-0.045s0.052-0.060 0.063-0.098c0.008-0.031 0.007-0.063-0.003-0.093s-0.028-0.057-0.053-0.077c-0.032-0.027-0.072-0.042-0.114-0.041-0.031 0.004-0.045 0.009-0.044 0.012z"></path>
<path fill="#dcddeb" d="M30.557 12.527c-0.053 0.023-0.099 0.059-0.135 0.104-0.095 0.103-0.159 0.23-0.184 0.368s-0.011 0.279 0.042 0.409c0.016 0.054 0.045 0.104 0.085 0.145 0.007 0-0.028-0.058-0.060-0.155-0.041-0.126-0.051-0.26-0.028-0.39 0.025-0.13 0.081-0.252 0.164-0.356 0.068-0.079 0.12-0.118 0.116-0.124z"></path>
<path fill="#dcddeb" d="M30.459 14.935c0.006-0.004-0.037-0.061-0.085-0.162-0.064-0.132-0.105-0.274-0.12-0.419-0.014-0.17 0-0.331 0.064-0.418 0.036-0.047 0.086-0.082 0.143-0.099 0 0-0.018-0.007-0.051 0-0.046 0.013-0.087 0.040-0.117 0.077-0.043 0.056-0.070 0.122-0.078 0.192-0.010 0.083-0.010 0.166 0 0.249 0.014 0.151 0.061 0.298 0.136 0.429 0.025 0.057 0.062 0.108 0.108 0.15z"></path>
<path fill="#dcddeb" d="M29.844 13.661c0.062-0.015 0.125-0.026 0.188-0.033 0.063 0.006 0.126 0.017 0.188 0.032 0.009-0.009-0.068-0.077-0.188-0.077-0.035-0.004-0.071 0.002-0.104 0.015s-0.062 0.035-0.084 0.062z"></path>
<path fill="#68aeff" d="M37.101 17.297c0 0-2.58-0.668-3.048 0.211s-0.551 6.927-0.551 6.927c0 0 3.726 0.137 3.735-0.020s-0.136-7.119-0.136-7.119z"></path>
<path fill="#4f9efb" d="M37.17 17.24c0 0-1.631-0.414-2.1 0.234s-0.588 6.987-0.588 6.987 2.723 0.085 2.775 0.025c0.053-0.060-0.088-7.247-0.088-7.247z"></path>
<path fill="#dcddeb" d="M36.242 20.427c0 0 0.013-0.004 0.032 0 0.013 0.003 0.025 0.008 0.035 0.017s0.017 0.020 0.021 0.033c0.011 0.041 0.013 0.084 0.005 0.125-0.001 0.011-0.003 0.022-0.009 0.032s-0.012 0.019-0.021 0.026c-0.009 0.007-0.019 0.012-0.030 0.015s-0.022 0.003-0.033 0.001c-0.015-0.004-0.030-0.012-0.042-0.022s-0.022-0.023-0.029-0.037c-0.007-0.014-0.011-0.030-0.011-0.046s0.002-0.032 0.009-0.047c0.017-0.045 0.047-0.085 0.085-0.115l0.016-0.014h-0.019c-0.031-0.007-0.047-0.009-0.049-0.005 0 0 0.014 0.012 0.043 0.025v-0.018c-0.049 0.025-0.088 0.067-0.11 0.118-0.014 0.038-0.014 0.081 0 0.119 0.008 0.023 0.022 0.044 0.040 0.059s0.041 0.026 0.065 0.031c0.018 0.003 0.036 0.002 0.053-0.002s0.033-0.013 0.047-0.025c0.023-0.023 0.037-0.053 0.041-0.085 0.008-0.049 0.002-0.099-0.016-0.145-0.006-0.017-0.018-0.031-0.034-0.041s-0.033-0.014-0.051-0.013c-0.030-0.001-0.038 0.013-0.037 0.014z"></path>
<path fill="#dcddeb" d="M35.757 19.277c-0.011 0.007 0.135 0.255 0.275 0.574s0.219 0.595 0.232 0.595c-0.005-0.063-0.018-0.124-0.039-0.184-0.041-0.145-0.093-0.287-0.153-0.425s-0.129-0.273-0.207-0.402c-0.028-0.058-0.065-0.111-0.108-0.158z"></path>
<path fill="#dcddeb" d="M36.775 19.384c-0.037 0.044-0.068 0.093-0.092 0.145-0.051 0.094-0.117 0.225-0.181 0.374s-0.116 0.287-0.149 0.389c-0.022 0.055-0.037 0.112-0.043 0.17 0.013 0.004 0.105-0.241 0.233-0.537s0.244-0.534 0.232-0.541z"></path>
<path fill="#dcddeb" d="M35.769 22.488c0.027-0.087 0.047-0.176 0.061-0.265 0.033-0.164 0.080-0.391 0.136-0.64s0.111-0.475 0.152-0.638c0.026-0.087 0.045-0.176 0.059-0.266-0.036 0.082-0.065 0.168-0.085 0.255-0.048 0.161-0.108 0.386-0.165 0.636s-0.098 0.479-0.123 0.646c-0.020 0.090-0.032 0.181-0.035 0.273z"></path>
<path fill="#dcddeb" d="M36.773 21.794c-0.004-0.058-0.015-0.115-0.033-0.17-0.037-0.137-0.083-0.272-0.137-0.404s-0.116-0.26-0.185-0.384c-0.025-0.054-0.058-0.104-0.098-0.148-0.011 0.007 0.117 0.242 0.242 0.549s0.199 0.56 0.212 0.556z"></path>
<path fill="#dcddeb" opacity="0.25" d="M12.54 27.284v-23.312h9.353v23.312h-9.353z"></path>
<path fill="#a0a3bd" opacity="0.25" d="M13.054 11.419v-6.862h8.327v6.862h-8.327z"></path>
<path fill="#a0a3bd" opacity="0.25" d="M13.054 18.898v-6.862h8.327v6.862h-8.327z"></path>
<path fill="#a0a3bd" opacity="0.25" d="M13.054 26.377v-6.862h8.327v6.862h-8.327z"></path>
<path fill="#eff0f7" opacity="0.25" d="M18.105 11.419v-6.862h3.276v6.862h-3.276z"></path>
<path fill="#eff0f7" opacity="0.25" d="M18.105 18.898v-6.862h3.276v6.862h-3.276z"></path>
<path fill="#eff0f7" opacity="0.25" d="M18.107 26.377v-6.862h3.276v6.862h-3.276z"></path>
<path fill="#f7f9fc" opacity="0.25" d="M10 27.284v-23.312h2.539v23.312h-2.539z"></path>
<path fill="#dcddeb" opacity="0.25" d="M2.539 27.284v-23.312h9.353v23.312h-9.353z"></path>
<path fill="#a0a3bd" opacity="0.25" d="M3.053 11.419v-6.862h8.327v6.862h-8.327z"></path>
<path fill="#a0a3bd" opacity="0.25" d="M3.053 18.898v-6.862h8.327v6.862h-8.327z"></path>
<path fill="#a0a3bd" opacity="0.25" d="M3.051 26.374v-6.862h8.327v6.862h-8.327z"></path>
<path fill="#eff0f7" opacity="0.25" d="M8.105 11.419v-6.862h3.276v6.862h-3.276z"></path>
<path fill="#eff0f7" opacity="0.25" d="M8.105 18.898v-6.862h3.276v6.862h-3.276z"></path>
<path fill="#eff0f7" opacity="0.25" d="M8.107 26.377v-6.862h3.276v6.862h-3.276z"></path>
<path fill="#f7f9fc" opacity="0.25" d="M0 27.284v-23.312h2.539v23.312h-2.539z"></path>
<path fill="#dcddeb" opacity="0.25" d="M10.814 26.375h-6.762v-5.873h6.762v5.873z"></path>
<path fill="#eff0f7" opacity="0.25" d="M3.053 20.503h1.001v5.873h-1.001v-5.873z"></path>
<path fill="#dcddeb" opacity="0.25" d="M20.815 11.419h-6.762v-5.873h6.762v5.873z"></path>
<path fill="#eff0f7" opacity="0.25" d="M13.053 5.545h1.001v5.873h-1.001v-5.873z"></path>
<path fill="#263238" d="M5.131 28.901c0-0.034-0.113-3.358-0.654-3.884-0.522-0.51-1.131-0.019-1.154 0l-0.056-0.067c0.007-0.006 0.69-0.563 1.271 0 0.566 0.549 0.676 3.805 0.681 3.943l-0.087 0.008z"></path>
<path fill="#263238" d="M5.178 29.554c0-0.040-0.37-3.993 1.074-5.649l0.066 0.057c-1.42 1.627-1.059 5.542-1.054 5.583l-0.086 0.009z"></path>
<path fill="#263238" d="M5.127 29.137l-0.087-0.006c0-0.045 0.283-4.492-0.775-5.466l0.058-0.064c1.090 1.001 0.816 5.351 0.804 5.536z"></path>
<path fill="#263238" d="M5.265 29.134h-0.087c0-0.123 0.035-3.005 0.854-3.475 0.078-0.050 0.167-0.081 0.259-0.090s0.186 0.004 0.272 0.039c0.496 0.204 0.742 1.087 0.752 1.124l-0.087 0.023c0-0.009-0.245-0.878-0.701-1.067-0.074-0.029-0.154-0.040-0.233-0.032s-0.155 0.035-0.221 0.079c-0.774 0.444-0.808 3.37-0.808 3.399z"></path>
<path fill="#263238" d="M4.946 29.136l-0.087-0.005c0-0.023 0.124-2.277-0.485-3.070-0.147-0.192-0.307-0.284-0.476-0.272-0.399 0.028-0.732 0.609-0.735 0.617l-0.076-0.043c0.015-0.026 0.36-0.63 0.805-0.661 0.199-0.014 0.386 0.087 0.552 0.306 0.627 0.82 0.507 3.035 0.502 3.129z"></path>
<path fill="#263238" d="M5.077 29.443c-0.017-0.219-0.398-5.368 0.273-6.276l0.070 0.052c-0.652 0.881-0.261 6.163-0.256 6.216l-0.087 0.007z"></path>
<path fill="#11845b" d="M6.745 26.13c0 0-0.402 0.148-0.283 0.499s1.393 0.927 1.393 0.927 0.534-0.489 0.044-1.283c-0.49-0.794-1.142-0.392-1.153-0.142z"></path>
<path fill="#11845b" d="M4.998 25.462c0 0 0.428-0.017 0.453 0.348s-0.929 1.392-0.929 1.392-0.68-0.245-0.534-1.168c0.146-0.922 0.9-0.8 1.010-0.572z"></path>
<path fill="#11845b" d="M4.633 23.695c0 0 0.285-0.031 0.261-0.205s-1.111-0.621-1.753 0.103c0 0 0.411 0.706 1.005 0.715s0.487-0.613 0.487-0.613z"></path>
<path fill="#05c168" d="M5.165 23.273c0 0-0.261 0.125-0.332-0.035s0.609-1.115 1.541-0.84c0 0 0.025 0.816-0.474 1.138s-0.735-0.264-0.735-0.264z"></path>
<path fill="#05c168" d="M3.812 25.989c0 0 0.198-0.159-0.016-0.237s-1.257-0.056-1.268 0.978c0 0 1.218 0.203 1.367-0.191s-0.084-0.55-0.084-0.55z"></path>
<path fill="#05c168" d="M6.292 23.669c0 0-0.198-0.159 0.016-0.237s1.258-0.056 1.268 0.978c0 0-1.218 0.203-1.367-0.191s0.084-0.55 0.084-0.55z"></path>
<path fill="#05c168" d="M5.649 24.502c0 0-0.017-0.193 0.139-0.117s0.696 0.663 0.137 1.218c0 0-0.76-0.563-0.623-0.855s0.347-0.245 0.347-0.245z"></path>
<path fill="#05c168" d="M3.636 24.778c0 0 0.118-0.154-0.055-0.174s-0.947 0.187-0.767 0.957c0 0 0.943-0.071 0.983-0.392s-0.162-0.392-0.162-0.392z"></path>
<path fill="#6e7191" d="M6.821 32h-3.235l-0.348-3.54h3.932l-0.349 3.54z"></path>
<path fill="#fff" opacity="0.7" d="M6.821 32h-3.235l-0.348-3.54h3.932l-0.349 3.54z"></path>
<path fill="#211f54" d="M7.342 28.069h-4.278v0.781h4.278v-0.781z"></path>
<path fill="#fff" opacity="0.5" d="M7.342 28.069h-4.278v0.781h4.278v-0.781z"></path>
<path fill="#a0a3bd" opacity="0.09" d="M30.664 0h-5.487v7.152l5.487 0.137v-7.29z"></path>
<path fill="#fff" opacity="0.09" d="M30.303 0.255h-4.801v6.486l4.801 0.162v-6.648z"></path>
<path fill="#cee5ff" opacity="0.09" d="M29.463 1.433l-3.186-0.121v4.534h3.186v-4.413z"></path>
<path fill="#0075ff" opacity="0.09" d="M26.277 5.845l3.186-2.329-3.186-2.204v4.534z"></path>
<path fill="#3f37a0" d="M4.608 10.071c0 0.744 1.205 1.348 2.696 1.348s2.696-0.603 2.696-1.348h-5.392z"></path>
<path fill="#4b3cfb" d="M4.608 9.062c0 0.744 1.205 1.348 2.696 1.348s2.696-0.605 2.696-1.348h-5.392z"></path>
<path fill="#1d53bb" d="M15.443 17.521c0 0.744 0.964 1.348 2.152 1.348s2.145-0.606 2.145-1.348h-4.297z"></path>
<path fill="#0075ff" d="M15.443 16.514c0 0.744 0.964 1.348 2.152 1.348s2.15-0.603 2.15-1.348h-4.302z"></path>
<path fill="#ffbf9d" d="M23.998 23.084c0 0.105 0.947 2.472 0.947 2.472l2.289 0.906-0.342 0.623c0 0-2.391-0.123-2.76-0.327s-0.752-0.704-0.752-0.704l-0.67-2.428 1.289-0.541z"></path>
<path fill="#ff9a6c" d="M24.999 25.546c-0.269 0.080-0.501 0.254-0.652 0.49 0.013-0.040 0.033-0.077 0.058-0.11 0.115-0.167 0.282-0.292 0.475-0.355 0.038-0.015 0.078-0.024 0.119-0.025z"></path>
<path fill="#ffbf9d" d="M22.135 24.367v2.813l1.221 3.329h0.968l-0.702-3.869 0.156-2.776-1.642 0.503z"></path>
<path fill="#ff9a6c" d="M24.093 29.244c-0.004-0.011-0.007-0.022-0.009-0.033-0.005-0.024-0.012-0.056-0.020-0.095-0.017-0.086-0.040-0.205-0.068-0.351l-0.214-1.161c-0.064-0.361-0.124-0.695-0.172-0.965 0.013-0.206 0.024-0.376 0.033-0.499 0.004-0.057 0.008-0.103 0.011-0.138 0-0.016 0.002-0.033 0.006-0.049 0.002 0.016 0.002 0.033 0 0.049 0 0.035-0.002 0.081-0.005 0.138-0.005 0.123-0.013 0.293-0.023 0.5v-0.003c0.050 0.27 0.111 0.603 0.177 0.964 0.080 0.452 0.153 0.86 0.206 1.161 0.025 0.146 0.045 0.264 0.060 0.352 0.006 0.040 0.011 0.071 0.015 0.096 0.002 0.011 0.003 0.022 0.003 0.034z"></path>
<path fill="#4a4566" d="M15.119 30.777l-1.1-0.348c0 0-1.396 0.863-1.631 0.702l1.828-2.346 0.435 0.416 0.297 0.058 1.121 0.714-0.95 0.804z"></path>
<path fill="#cfe5ff" d="M14.685 29.782c0.011-0.028 0.011-0.059-0-0.087s-0.031-0.051-0.058-0.065c-0.027-0.012-0.058-0.012-0.086-0.002s-0.051 0.031-0.064 0.058c-0.011 0.029-0.010 0.062 0.001 0.091s0.033 0.053 0.061 0.068c0.030 0.009 0.062 0.007 0.090-0.007s0.050-0.038 0.060-0.068z"></path>
<path fill="#211f54" d="M14.169 28.745l0.184 0.141-1.773 2.245c0 0-0.127 0.069-0.191 0l1.78-2.386z"></path>
<path fill="#211f54" d="M14 30.476c-0.012-0.009 0.028-0.071 0.035-0.156s-0.018-0.153-0.005-0.158c0.013-0.005 0.066 0.062 0.055 0.165s-0.075 0.16-0.085 0.149z"></path>
<path fill="#211f54" d="M13.706 30.645c-0.013-0.006 0.006-0.071-0.012-0.148s-0.061-0.128-0.053-0.139c0.008-0.011 0.080 0.032 0.101 0.128s-0.025 0.165-0.036 0.159z"></path>
<path fill="#211f54" d="M13.303 30.553c0.006-0.013 0.076 0.016 0.115 0.094s0.023 0.151 0.010 0.149c-0.013-0.003-0.021-0.062-0.053-0.126s-0.080-0.106-0.072-0.118z"></path>
<path fill="#211f54" d="M26.397 17.021c0.068-0.030 0.143-0.038 0.216-0.023s0.139 0.052 0.189 0.106c0.109 0.002 0.214 0.040 0.299 0.108s0.144 0.163 0.169 0.269c0.075 0.009 0.145 0.038 0.206 0.083s0.108 0.105 0.138 0.173c0.030 0.069 0.042 0.144 0.035 0.219s-0.034 0.146-0.078 0.207c0.067 0.037 0.12 0.093 0.153 0.162s0.043 0.146 0.029 0.221c-0.014 0.075-0.051 0.144-0.105 0.197s-0.125 0.087-0.2 0.098c0.049 0.071 0.069 0.158 0.057 0.244s-0.055 0.164-0.121 0.219-0.151 0.085-0.237 0.082c-0.086-0.003-0.168-0.038-0.231-0.098l-0.717-1.903c-0.009-0.073 0.006-0.148 0.041-0.213s0.090-0.117 0.157-0.15z"></path>
<path fill="#ffbf9d" d="M26.926 19.357c0.204-0.311 0.283-0.688 0.221-1.055s-0.26-0.697-0.554-0.924l-0.060-0.047c-0.683-0.467-1.462-0.148-1.911 0.547l-1.59 2.249-0.122 0.343 0.429 1.38 0.739-0.109 0.581-0.59c0 0 0.704 0.388 1.198-0.234 0.236-0.298 0.678-0.958 1.070-1.559z"></path>
<path fill="#ff9a6c" d="M24.663 21.153c-0.292-0.226-0.513-0.53-0.637-0.878 0 0-0.192 0.602 0.478 1.030l0.158-0.152z"></path>
<path fill="#211f54" d="M26.294 19.798c-0.018 0.024-0.045 0.040-0.074 0.044s-0.060-0.003-0.084-0.021c-0.012-0.008-0.023-0.018-0.031-0.030s-0.014-0.026-0.016-0.040c-0.003-0.014-0.003-0.029 0-0.043s0.009-0.028 0.017-0.039c0.009-0.012 0.020-0.022 0.033-0.030s0.027-0.013 0.042-0.015c0.015-0.002 0.030-0.001 0.044 0.002s0.028 0.010 0.040 0.019c0.012 0.008 0.023 0.018 0.031 0.030s0.014 0.026 0.016 0.040c0.003 0.014 0.003 0.029-0 0.043s-0.009 0.028-0.017 0.039z"></path>
<path fill="#211f54" d="M26.536 19.597c-0.020 0.003-0.049-0.1-0.146-0.174s-0.205-0.081-0.206-0.101c0-0.009 0.026-0.022 0.074-0.020 0.064 0.003 0.126 0.026 0.176 0.067 0.051 0.039 0.088 0.092 0.106 0.153 0.012 0.046 0.005 0.075-0.005 0.075z"></path>
<path fill="#211f54" d="M25.435 19.199c-0.018 0.024-0.045 0.040-0.074 0.044s-0.060-0.003-0.084-0.021c-0.012-0.008-0.022-0.018-0.030-0.030s-0.014-0.026-0.016-0.040c-0.003-0.014-0.003-0.029 0-0.043s0.009-0.028 0.017-0.039c0.018-0.024 0.045-0.040 0.074-0.045s0.060 0.003 0.084 0.021c0.012 0.008 0.022 0.018 0.031 0.030s0.014 0.026 0.016 0.040c0.003 0.014 0.003 0.029-0 0.043s-0.009 0.028-0.017 0.040z"></path>
<path fill="#211f54" d="M25.624 18.869c-0.020 0.003-0.049-0.1-0.146-0.174s-0.205-0.081-0.206-0.101c0-0.009 0.026-0.022 0.075-0.020 0.064 0.003 0.126 0.026 0.176 0.066s0.088 0.092 0.106 0.154c0.009 0.045 0.003 0.074-0.005 0.075z"></path>
<path fill="#211f54" d="M25.387 19.83c0.063 0.024 0.123 0.055 0.179 0.093 0.026 0.016 0.053 0.030 0.071 0.016 0.022-0.024 0.036-0.054 0.040-0.085 0.023-0.078 0.047-0.158 0.072-0.244 0.106-0.345 0.203-0.622 0.216-0.617s-0.061 0.288-0.166 0.633c-0.026 0.085-0.052 0.166-0.076 0.243-0.008 0.041-0.030 0.079-0.062 0.106-0.010 0.006-0.022 0.010-0.034 0.010s-0.024-0.001-0.035-0.006c-0.016-0.007-0.032-0.016-0.046-0.026-0.058-0.034-0.111-0.075-0.159-0.122z"></path>
<path fill="#211f54" d="M25.051 19.677c0.016 0.012-0.064 0.116-0.032 0.26s0.153 0.218 0.142 0.234c-0.004 0.007-0.041 0-0.089-0.034-0.062-0.047-0.105-0.113-0.123-0.189-0.016-0.072-0.004-0.148 0.034-0.211 0.030-0.049 0.061-0.065 0.068-0.060z"></path>
<path fill="#211f54" d="M25.836 18.595c-0.031 0.016-0.097-0.071-0.199-0.147s-0.203-0.121-0.194-0.154c0.005-0.015 0.039-0.025 0.091-0.019 0.066 0.009 0.128 0.036 0.18 0.077 0.053 0.039 0.094 0.092 0.119 0.152 0.021 0.048 0.019 0.082 0.003 0.091z"></path>
<path fill="#211f54" d="M26.719 19.315c-0.033 0.012-0.088-0.059-0.172-0.115s-0.166-0.087-0.167-0.121c0-0.016 0.027-0.032 0.073-0.034 0.059 0.001 0.117 0.020 0.166 0.054s0.086 0.081 0.108 0.136c0.014 0.043 0.007 0.073-0.007 0.080z"></path>
<path fill="#211f54" d="M27.089 19.022c0 0 0.139-0.521 0.021-0.76-0.144-0.289-0.438-0.113-0.609-0.344s-0.308-0.507-0.663-0.511c-0.388-0.004-0.374 0.214-0.604 0.481-0.936 1.082-1.389 1.242-1.036 0.664 0.039-0.063-0.088-0.235 0.079-0.5 0.216-0.343 0.504-0.739 0.751-0.912 0.208-0.145 0.419-0.192 0.727-0.187 0.486 0.009 0.914 0.332 1.179 0.584s0.564 1.012 0.156 1.483z"></path>
<path fill="#ffbf9d" d="M24.252 18.567c0.017-0.024 0.029-0.051 0.035-0.079s0.007-0.058 0.002-0.087c-0.005-0.029-0.016-0.056-0.033-0.080s-0.037-0.045-0.061-0.061c-0.126-0.079-0.308-0.113-0.487 0.134-0.317 0.44 0.189 0.669 0.198 0.657s0.212-0.299 0.346-0.484z"></path>
<path fill="#ff9a6c" d="M23.928 18.817c0-0.003-0.012-0-0.029-0.004-0.024-0.005-0.045-0.020-0.058-0.040-0.034-0.053-0.019-0.153 0.035-0.234 0.026-0.038 0.061-0.071 0.101-0.094 0.014-0.011 0.031-0.018 0.048-0.021s0.035-0.002 0.052 0.004c0.010 0.004 0.019 0.012 0.024 0.021s0.008 0.021 0.006 0.032c-0.003 0.017-0.013 0.023-0.011 0.026s0.015 0 0.024-0.021c0.005-0.013 0.005-0.027 0-0.040-0.006-0.018-0.018-0.033-0.034-0.042-0.021-0.009-0.043-0.013-0.066-0.011s-0.044 0.009-0.063 0.022c-0.047 0.025-0.086 0.061-0.116 0.106-0.061 0.091-0.076 0.206-0.026 0.271 0.009 0.012 0.021 0.022 0.035 0.029s0.029 0.010 0.044 0.011c0.024-0.002 0.034-0.010 0.033-0.012z"></path>
<path fill="#211f54" d="M24.902 17.742c0.020 0.083 0.060 0.16 0.117 0.224 0.062 0.059 0.169 0.080 0.232 0.022 0.028-0.026 0.047-0.066 0.085-0.074s0.081 0.033 0.115 0.064c0.059 0.053 0.135 0.085 0.214 0.089s0.158-0.019 0.223-0.066c-0.005 0.072 0.071 0.128 0.143 0.134 0.073-0.001 0.145-0.013 0.214-0.035 0.035-0.010 0.072-0.012 0.107-0.005s0.069 0.023 0.097 0.046c0.029 0.029 0.043 0.071 0.078 0.093 0.060 0.039 0.139-0.006 0.191-0.053s0.109-0.11 0.181-0.105c0.071 0.004 0.111 0.066 0.158 0.114s0.122 0.087 0.175 0.047c0.013-0.012 0.023-0.026 0.030-0.042s0.011-0.033 0.011-0.051c0.005-0.079-0.016-0.157-0.061-0.222s-0.11-0.113-0.186-0.137c0.035-0.088 0.043-0.184 0.023-0.277s-0.067-0.177-0.136-0.242c-0.068-0.065-0.155-0.109-0.248-0.125s-0.189-0.004-0.276 0.035c-0.014-0.077-0.046-0.149-0.093-0.21s-0.109-0.111-0.18-0.144c-0.071-0.033-0.148-0.048-0.226-0.044s-0.153 0.026-0.221 0.065c-0.042-0.055-0.099-0.096-0.164-0.118s-0.135-0.025-0.202-0.008c-0.067 0.017-0.127 0.054-0.173 0.105s-0.076 0.115-0.086 0.183c-0.111-0.016-0.236 0.009-0.307 0.097s-0.053 0.243 0.053 0.287c-0.044 0.022-0.078 0.060-0.095 0.105s-0.017 0.097 0.002 0.142c0.019 0.045 0.054 0.082 0.098 0.103s0.095 0.023 0.142 0.008z"></path>
<path fill="#4a4566" d="M24.756 17.363c-0.013 0.013-0.024 0.029-0.030 0.047s-0.009 0.037-0.007 0.056c0 0.044 0.016 0.086 0.046 0.118 0.019 0.020 0.043 0.036 0.068 0.046s0.054 0.015 0.082 0.013l-0.016-0.017c-0.008 0.057-0.007 0.116 0.003 0.173 0.007 0.039 0.020 0.076 0.041 0.109 0.020 0.032 0.047 0.057 0.080 0.075 0.026 0.017 0.056 0.028 0.087 0.032s0.062 0.002 0.092-0.008c0.039-0.014 0.075-0.035 0.106-0.062 0.022-0.018 0.031-0.031 0.030-0.032s-0.014 0.007-0.038 0.023c-0.031 0.023-0.066 0.041-0.103 0.053-0.030 0.006-0.061 0.006-0.091-0.001s-0.058-0.020-0.083-0.038c-0.025-0.018-0.046-0.041-0.061-0.068s-0.025-0.056-0.028-0.087c-0.009-0.054-0.011-0.109-0.004-0.164v-0.018h-0.018c-0.024 0.002-0.047-0.002-0.070-0.010s-0.043-0.021-0.059-0.038c-0.027-0.027-0.043-0.063-0.046-0.101-0-0.035 0.007-0.070 0.020-0.102z"></path>
<path fill="#4a4566" d="M26.327 17.010c0 0 0.009 0.012 0.022 0.035 0.018 0.032 0.026 0.069 0.023 0.106v0.012l0.012-0.003c0.11-0.031 0.226-0.034 0.338-0.007 0.072 0.017 0.139 0.049 0.198 0.094 0.057 0.045 0.102 0.103 0.131 0.169s0.043 0.138 0.039 0.21c-0.004 0.059-0.022 0.116-0.053 0.166l-0.009 0.015 0.016 0.006c0.072 0.030 0.13 0.087 0.162 0.158 0.024 0.057 0.030 0.12 0.016 0.18-0.014 0.054-0.038 0.104-0.071 0.148 0.012-0.008 0.023-0.019 0.032-0.031 0.027-0.033 0.046-0.072 0.056-0.113 0.017-0.064 0.013-0.132-0.012-0.193-0.032-0.080-0.094-0.143-0.173-0.177l0.007 0.021c0.034-0.054 0.055-0.116 0.059-0.179 0.005-0.077-0.009-0.155-0.041-0.225s-0.080-0.133-0.141-0.18c-0.063-0.047-0.135-0.080-0.211-0.096-0.116-0.026-0.236-0.020-0.349 0.017l0.011 0.009c0.002-0.041-0.009-0.081-0.032-0.115-0.008-0.011-0.018-0.019-0.030-0.026z"></path>
<path fill="#211f54" d="M19.79 26.537c0 0 2.997 1.826 3.171 2.326 0.103 0.296 0.411 1.888-0.897 1.962-1.381 0.077-7.76 0-7.76 0l0.649-1.719 1.405 0.062 2.364 0.027c0 0-2.661-1.099-3.242-2.005-0.727-1.136 0.398-2.812 0.398-2.812l3.912 2.16z"></path>
<path fill="#4a4566" d="M21.194 30.084c-0.010-0.001-0.020-0.003-0.030-0.006l-0.085-0.022c-0.073-0.021-0.178-0.053-0.306-0.098-0.257-0.088-0.608-0.219-0.994-0.369s-0.732-0.294-0.982-0.399l-0.296-0.126-0.080-0.036c-0.010-0.004-0.019-0.008-0.027-0.014 0.010 0.003 0.020 0.006 0.029 0.009l0.082 0.031 0.299 0.118 0.985 0.391c0.385 0.151 0.735 0.285 0.99 0.378 0.127 0.047 0.231 0.082 0.303 0.106l0.083 0.026c0.010 0.003 0.019 0.006 0.029 0.011z"></path>
<path fill="#cfe5ff" d="M28.35 27.011c-0.017-0.078-0.052-0.151-0.102-0.213s-0.115-0.111-0.189-0.143c-0.074-0.031-0.153-0.046-0.233-0.045s-0.159 0.020-0.231 0.054c-0.059 0.025-0.111 0.066-0.148 0.118-0.019 0.026-0.030 0.057-0.034 0.088s-0 0.064 0.011 0.094l0.090-0.022c0.243 0.084 0.495 0.139 0.751 0.163 0.013 0.003 0.026 0.003 0.038 0s0.025-0.007 0.035-0.015c0.008-0.011 0.014-0.024 0.016-0.038s0.001-0.028-0.004-0.041z"></path>
<path fill="#cfe5ff" d="M26.337 26.037c0.025 0.008 0.642 0.297 0.642 0.297l0.922-0.004c0.046-0 0.090 0.015 0.126 0.044l0.475 0.381 0.204 0.55c0 0 0.023 0.164-0.155 0.027s-0.475-0.564-0.475-0.564l-0.434-0.081-0.638 0.534-1.102-0.134c0 0 0.021-0.215 0.205-0.58s0.231-0.469 0.231-0.469z"></path>
<path fill="#cfe5ff" d="M28.23 27.174l-0.456-0.149-0.591-0.378-0.373 0.493c0 0 0.395 0.15 0.57 0.211 0.252 0.077 0.516 0.111 0.78 0.101 0.121-0.010 0.197-0.088 0.211-0.141s-0.065-0.096-0.14-0.136z"></path>
<path fill="#211f54" d="M27.766 26.642c0.037 0.011 0.072 0.027 0.106 0.046 0.064 0.032 0.152 0.078 0.248 0.13 0.025 0.012 0.048 0.028 0.069 0.047 0.019 0.018 0.034 0.039 0.047 0.061 0.020 0.038 0.037 0.076 0.053 0.116 0.027 0.066 0.053 0.1 0.053 0.102-0.031-0.024-0.055-0.057-0.069-0.094-0.034-0.063-0.064-0.164-0.164-0.208-0.096-0.053-0.183-0.101-0.244-0.137-0.035-0.017-0.067-0.039-0.097-0.064z"></path>
<path fill="#211f54" d="M28.365 27.31c-0.003 0 0.004-0.018-0.012-0.042-0.025-0.032-0.058-0.057-0.096-0.073-0.124-0.057-0.254-0.102-0.387-0.134-0.034-0.009-0.068-0.017-0.099-0.024-0.119-0.069-0.22-0.134-0.295-0.176-0.041-0.020-0.081-0.043-0.12-0.068 0.045 0.012 0.088 0.030 0.128 0.053 0.078 0.038 0.181 0.1 0.3 0.167h-0.004c0.033 0.007 0.066 0.015 0.1 0.024 0.135 0.032 0.266 0.080 0.39 0.143 0.039 0.019 0.072 0.048 0.096 0.084 0.004 0.007 0.005 0.015 0.005 0.022s-0.002 0.015-0.006 0.022z"></path>
<path fill="#cfe5ff" d="M26.416 26.013l-0.468 1.141c-0.007 0.018-0.021 0.032-0.039 0.039s-0.038 0.007-0.055 0c-0.009-0.004-0.017-0.009-0.023-0.016s-0.012-0.015-0.016-0.023c-0.004-0.009-0.006-0.018-0.006-0.027s0.002-0.019 0.006-0.028l0.468-1.141c0.007-0.018 0.021-0.032 0.039-0.039s0.038-0.007 0.055 0c0.009 0.004 0.017 0.009 0.023 0.015s0.012 0.015 0.016 0.023c0.004 0.009 0.006 0.018 0.006 0.027s-0.002 0.019-0.006 0.028z"></path>
<path fill="#211f54" d="M26.407 26.020c-0.013 0.057-0.031 0.113-0.053 0.167-0.036 0.102-0.090 0.241-0.154 0.393s-0.125 0.288-0.172 0.386c-0.023 0.054-0.050 0.105-0.081 0.155 0.017-0.056 0.038-0.11 0.064-0.163 0.045-0.105 0.101-0.241 0.164-0.388l0.161-0.389c0.020-0.055 0.043-0.108 0.071-0.16z"></path>
<path fill="#cfe5ff" d="M25.361 30.328l-0.284-0.101c-0.089-0.007-0.696-0.081-0.696-0.081l-0.199-0.785-1.109 0.57c0 0 0.196 0.754 0.352 0.892s1.652 0.253 1.842 0.267c0.051 0.006 0.103 0.002 0.153-0.012s0.096-0.038 0.136-0.071c0 0 0.457 0.034 0.568 0s0.1-0.111 0.1-0.111 0.145-0.028 0.181-0.106c0.023-0.103-0.074-0.164-0.172-0.203-0.302-0.118-0.873-0.261-0.873-0.261z"></path>
<path fill="#cfe5ff" d="M24.231 29.402l-1.121 0.516c-0.009 0.004-0.018 0.006-0.027 0.007s-0.019-0.001-0.028-0.004c-0.009-0.003-0.017-0.008-0.024-0.015s-0.013-0.014-0.017-0.023c-0.008-0.017-0.009-0.037-0.002-0.055s0.020-0.033 0.037-0.041l1.121-0.514c0.009-0.004 0.018-0.006 0.027-0.007s0.019 0.001 0.028 0.004c0.009 0.003 0.017 0.008 0.024 0.015s0.013 0.014 0.017 0.023c0.008 0.017 0.008 0.037 0.002 0.054s-0.020 0.032-0.037 0.040z"></path>
<path fill="#211f54" d="M24.195 29.445c-0.055 0.025-0.111 0.047-0.168 0.065-0.106 0.039-0.248 0.095-0.402 0.165s-0.291 0.14-0.389 0.194c-0.051 0.031-0.104 0.059-0.158 0.083 0.011-0.012 0.024-0.022 0.039-0.030 0.026-0.018 0.064-0.042 0.112-0.071 0.251-0.149 0.517-0.27 0.794-0.36 0.053-0.017 0.097-0.030 0.127-0.037 0.015-0.006 0.031-0.009 0.046-0.009z"></path>
<path fill="#211f54" d="M24.383 30.147c0 0.008-0.106 0.035-0.229 0.085s-0.219 0.106-0.223 0.097c0.062-0.054 0.133-0.096 0.211-0.122 0.076-0.035 0.157-0.055 0.241-0.059z"></path>
<path fill="#211f54" d="M25.56 31.009c0 0 0.004-0.010 0.009-0.028 0.007-0.025 0.006-0.051-0.003-0.075l0.005 0.005c-0.087-0.022-0.221-0.060-0.37-0.106-0.132-0.039-0.25-0.076-0.336-0.105-0.047-0.013-0.093-0.031-0.137-0.053 0.048 0.006 0.096 0.017 0.142 0.032 0.087 0.023 0.206 0.057 0.338 0.096 0.151 0.045 0.284 0.087 0.37 0.115h0.005v0.003c0.009 0.028 0.008 0.058-0.004 0.085-0.008 0.024-0.018 0.031-0.020 0.031z"></path>
<path fill="#211f54" d="M25.062 30.469c0.018-0.002 0.036-0 0.053 0.004 0.033 0.005 0.079 0.013 0.137 0.025 0.148 0.035 0.295 0.077 0.439 0.127 0.169 0.057 0.322 0.106 0.434 0.14 0.023 0.006 0.045 0.016 0.064 0.031s0.034 0.034 0.046 0.055c0.005 0.008 0.008 0.017 0.008 0.026s-0 0.018-0.004 0.027c-0.002-0.016-0.007-0.032-0.014-0.047-0.012-0.018-0.027-0.034-0.045-0.047s-0.039-0.021-0.060-0.025c-0.112-0.029-0.268-0.075-0.437-0.132s-0.323-0.106-0.435-0.134c-0.112-0.028-0.186-0.045-0.186-0.049z"></path>
<path fill="#0075ff" d="M15.878 24.374c-0.131-0.257 0.083-0.422 0.217-0.51 1.023-0.659 4.214-2.789 4.828-3.181 0.721-0.46 1.754-0.556 1.754-0.556l0.465-0.369 1.342 1.757-0.158 0.584-0.113 0.798-4.149 3.181 0.005 0.288-0.229 0.191-2.123-0.95-1.837-1.234z"></path>
<path fill="#0075ff" d="M23.842 24.934l0.78-0.384c0 0-0.576-2.29-0.619-2.16s-0.806 1.473-0.806 1.473l0.646 1.071z"></path>
<path fill="#211f54" d="M23.841 24.935l-0.645-1.072c0.008-0.013 0.764-1.345 0.806-1.473 0-0.004 0.003-0.006 0.006-0.006 0.006 0 0.025 0 0.127 0.34 0.053 0.18 0.124 0.43 0.208 0.744 0.143 0.535 0.279 1.077 0.281 1.082l-0.782 0.385zM23.196 23.863l0.644 1.069 0.781-0.383c-0.007-0.027-0.14-0.557-0.281-1.081-0.084-0.317-0.154-0.565-0.208-0.745-0.083-0.279-0.113-0.338-0.124-0.338 0 0-0.003 0-0.004 0.004-0.043 0.128-0.785 1.437-0.809 1.473z"></path>
<path fill="#0075ff" d="M24.013 24.497l0.518-0.29c0.018-0.010 0.038-0.015 0.058-0.016s0.040 0.003 0.059 0.012c0.018 0.009 0.035 0.021 0.047 0.038s0.021 0.035 0.025 0.055l0.092 0.488c0.005 0.029 0.001 0.059-0.014 0.085s-0.037 0.046-0.065 0.057l-0.669 0.271c-0.021 0.008-0.043 0.011-0.065 0.008s-0.043-0.012-0.061-0.025c-0.018-0.014-0.031-0.032-0.040-0.052s-0.012-0.043-0.009-0.065l0.059-0.469c0.002-0.020 0.010-0.039 0.021-0.056s0.026-0.030 0.044-0.040z"></path>
<path fill="#211f54" d="M24.013 24.497c0 0-0.009 0.006-0.023 0.020-0.020 0.021-0.033 0.048-0.036 0.078-0.009 0.081-0.022 0.193-0.037 0.329-0.004 0.035-0.008 0.071-0.013 0.109-0.003 0.018-0.005 0.037-0.004 0.056s0.008 0.037 0.018 0.053c0.011 0.016 0.025 0.029 0.042 0.038s0.036 0.014 0.055 0.014c0.021-0.001 0.041-0.006 0.060-0.015l0.62-0.252c0.024-0.007 0.047-0.019 0.067-0.034 0.017-0.016 0.029-0.037 0.035-0.060s0.004-0.048-0.003-0.071c-0.005-0.025-0.009-0.050-0.014-0.075-0.018-0.099-0.036-0.194-0.053-0.285-0.004-0.023-0.009-0.045-0.013-0.067-0.003-0.021-0.007-0.042-0.014-0.062-0.011-0.027-0.032-0.048-0.058-0.060s-0.056-0.014-0.083-0.005c-0.018 0.006-0.034 0.014-0.050 0.024l-0.096 0.053-0.291 0.158-0.080 0.042c-0.009 0.005-0.019 0.010-0.029 0.013 0.008-0.007 0.016-0.013 0.026-0.018l0.078-0.046 0.287-0.166 0.095-0.053c0.017-0.011 0.034-0.020 0.053-0.027 0.021-0.007 0.044-0.008 0.065-0.005 0.023 0.004 0.045 0.013 0.063 0.027s0.033 0.033 0.042 0.054c0.008 0.022 0.013 0.044 0.016 0.067 0.004 0.022 0.009 0.044 0.013 0.067 0.017 0.091 0.035 0.186 0.053 0.285l0.014 0.074c0.007 0.027 0.008 0.055 0.003 0.082-0.007 0.028-0.022 0.054-0.044 0.073-0.011 0.010-0.023 0.018-0.036 0.024l-0.038 0.015-0.621 0.25c-0.021 0.010-0.045 0.016-0.069 0.016-0.023-0-0.046-0.007-0.067-0.018s-0.038-0.028-0.050-0.047c-0.012-0.019-0.019-0.040-0.021-0.062-0.001-0.020 0.001-0.040 0.005-0.060l0.014-0.109c0.019-0.136 0.034-0.247 0.046-0.328 0.004-0.031 0.019-0.060 0.043-0.080 0.006-0.005 0.013-0.010 0.020-0.014l0.010-0.005z"></path>
<path fill="#211f54" d="M24.468 21.537c-0.004 0.010-0.010 0.019-0.017 0.026l-0.053 0.073c-0.050 0.066-0.118 0.155-0.201 0.264l-0.008 0.011-0.008-0.012c-0.133-0.19-0.314-0.442-0.523-0.71-0.226-0.291-0.442-0.547-0.601-0.729l-0.19-0.213-0.053-0.059c-0.006-0.007-0.012-0.014-0.016-0.022 0.008 0.005 0.014 0.011 0.021 0.018l0.053 0.053c0.047 0.049 0.114 0.12 0.195 0.211 0.163 0.179 0.382 0.433 0.608 0.725 0.211 0.269 0.389 0.522 0.518 0.716h-0.016l0.208-0.259c0.024-0.028 0.043-0.053 0.058-0.070 0.008-0.009 0.016-0.017 0.025-0.024z"></path>
<path fill="#0075ff" d="M21.805 23.123v2.497l2.036 0.14c0.037-0.144 0.063-0.291 0.077-0.439 0.018-0.533 0.231-1.602 0.271-1.794 0.211-1.021 0.021-2.064-1.15-2.064z"></path>
<path fill="#211f54" d="M23.038 21.462h0.098c0.093 0.004 0.186 0.016 0.277 0.038 0.17 0.036 0.328 0.115 0.458 0.23s0.23 0.261 0.288 0.424c0.082 0.224 0.121 0.462 0.116 0.7-0.005 0.272-0.039 0.543-0.101 0.808-0.053 0.282-0.109 0.578-0.158 0.886-0.023 0.154-0.045 0.311-0.063 0.471-0.008 0.080-0.016 0.158-0.020 0.242 0 0.040-0.003 0.082-0.008 0.123s-0.012 0.082-0.019 0.124c-0.015 0.086-0.033 0.17-0.053 0.254l-0.003 0.012h-0.011l-2.044-0.143v-0.011c0-0.746 0.004-1.369 0.005-1.808 0-0.218 0.003-0.39 0.004-0.509 0-0.058 0-0.102 0-0.134v-0.034c-0-0.004-0-0.008 0-0.012 0 0.004 0 0.008 0 0.012 0 0.009 0 0.020 0 0.034 0 0.032 0 0.076 0 0.134 0 0.119 0 0.291 0.003 0.509 0 0.439 0.003 1.062 0.005 1.808l-0.012-0.012 2.037 0.138-0.014 0.011c0.020-0.083 0.038-0.167 0.053-0.252 0.007-0.041 0.014-0.081 0.018-0.122s0.006-0.080 0.008-0.121c0.004-0.082 0.012-0.163 0.021-0.244 0.017-0.158 0.040-0.317 0.063-0.472 0.048-0.309 0.102-0.605 0.158-0.887 0.064-0.264 0.099-0.533 0.106-0.804 0.006-0.236-0.032-0.471-0.111-0.693-0.067-0.183-0.183-0.344-0.335-0.465-0.118-0.088-0.252-0.151-0.395-0.186-0.090-0.022-0.183-0.036-0.276-0.042l-0.072-0.004c-0.007-0.001-0.014-0.002-0.022-0.003z"></path>
<path fill="#211f54" d="M22.695 21.376c0.003 0.004-0.065 0.044-0.166 0.12-0.263 0.2-0.469 0.464-0.6 0.768-0.050 0.116-0.071 0.192-0.076 0.19 0.001-0.018 0.005-0.036 0.011-0.053 0.013-0.049 0.029-0.096 0.047-0.143 0.122-0.312 0.332-0.582 0.605-0.776 0.041-0.029 0.083-0.056 0.127-0.081 0.016-0.011 0.033-0.019 0.051-0.025z"></path>
<path fill="#211f54" d="M22.448 21.545c-0.004 0-0.038-0.067-0.097-0.174-0.154-0.281-0.336-0.544-0.545-0.786-0.080-0.093-0.133-0.149-0.129-0.151 0.015 0.010 0.029 0.021 0.041 0.034 0.025 0.024 0.060 0.059 0.102 0.106 0.109 0.118 0.21 0.244 0.302 0.376s0.174 0.271 0.247 0.414c0.027 0.055 0.048 0.101 0.061 0.132 0.008 0.016 0.014 0.032 0.018 0.050z"></path>
<path fill="#0075ff" d="M23.846 25.953h-1.999c-0.031-0-0.061-0.012-0.084-0.033s-0.037-0.050-0.040-0.081l-0.053-0.583c-0.002-0.017 0-0.035 0.006-0.051s0.014-0.032 0.026-0.044 0.026-0.023 0.042-0.030c0.016-0.007 0.033-0.011 0.050-0.011h2.125c0.018 0 0.035 0.004 0.051 0.012s0.030 0.018 0.042 0.032c0.012 0.013 0.020 0.029 0.025 0.046s0.006 0.035 0.004 0.052l-0.072 0.581c-0.003 0.030-0.018 0.058-0.040 0.078s-0.052 0.032-0.082 0.032z"></path>
<path fill="#211f54" d="M23.846 25.953c0.020-0.002 0.040-0.008 0.058-0.017 0.021-0.012 0.038-0.031 0.049-0.053 0.012-0.031 0.018-0.065 0.018-0.098 0.009-0.077 0.020-0.171 0.032-0.279 0.006-0.053 0.013-0.112 0.021-0.174 0.003-0.030 0.009-0.064 0.009-0.093-0.001-0.016-0.005-0.031-0.012-0.045s-0.016-0.026-0.028-0.037c-0.013-0.011-0.027-0.018-0.043-0.023s-0.032-0.006-0.048-0.004h-2.045c-0.025 0-0.053 0-0.077 0-0.023 0.003-0.045 0.013-0.062 0.028s-0.029 0.037-0.034 0.059c-0.002 0.011-0.002 0.023 0 0.034l0.004 0.038c0.009 0.102 0.018 0.202 0.027 0.301 0.004 0.049 0.009 0.098 0.013 0.146l0.006 0.072c0 0.022 0.005 0.044 0.014 0.065 0.041 0.088 0.154 0.053 0.241 0.061l0.967 0.003 0.652 0.004 0.177 0.003h0.046c0.005-0 0.011-0 0.016 0h-0.239l-0.652 0.005h-1.104c-0.026 0-0.052-0.006-0.074-0.019s-0.041-0.032-0.053-0.056c-0.011-0.023-0.017-0.049-0.017-0.074l-0.006-0.072c-0.005-0.049-0.009-0.097-0.014-0.146-0.009-0.099-0.018-0.199-0.027-0.301l-0.004-0.039c-0.001-0.014-0-0.028 0.003-0.042 0.006-0.028 0.021-0.054 0.042-0.073s0.048-0.032 0.077-0.036c0.030 0 0.053 0 0.080 0h2.045c0.019-0.002 0.038 0 0.056 0.006s0.035 0.015 0.049 0.028c0.014 0.012 0.025 0.026 0.032 0.043s0.012 0.034 0.013 0.052c0 0.036-0.007 0.065-0.010 0.097-0.008 0.061-0.016 0.119-0.023 0.174-0.014 0.106-0.026 0.201-0.037 0.278-0.001 0.035-0.009 0.069-0.022 0.101-0.010 0.018-0.024 0.034-0.041 0.045s-0.037 0.019-0.058 0.021c-0.005 0.007-0.012 0.013-0.019 0.018z"></path>
<path fill="#211f54" d="M19.134 25.234c0.016 0.006 0.030 0.014 0.043 0.024 0.027 0.017 0.065 0.043 0.111 0.076 0.12 0.088 0.234 0.183 0.342 0.285s0.21 0.21 0.305 0.325c0.036 0.044 0.064 0.080 0.082 0.106 0.011 0.013 0.020 0.027 0.027 0.042-0.044-0.043-0.085-0.088-0.124-0.136-0.075-0.085-0.183-0.199-0.308-0.317s-0.247-0.219-0.335-0.289c-0.050-0.036-0.098-0.075-0.143-0.117z"></path>
<path fill="#133578" opacity="0.09" d="M21.637 24.869c0.014-0.011 0.011-1.828 0.086-2.046 0.031-0.103 0.075-0.201 0.131-0.293l-0.049 2.211-0.168 0.128z"></path>
<path fill="#133578" opacity="0.09" d="M22.903 20.277l1.33 1.779 0.172-0.439-0.217 0.278c0 0-1.146-1.536-1.285-1.617z"></path>
<path fill="#133578" opacity="0.09" d="M21.805 25.12c0 0 1.169-0.258 2.104 0h-2.104z"></path>
<path fill="#133578" opacity="0.09" d="M19.527 25.568c-0.198-0.233-0.49-0.364-0.779-0.466s-0.589-0.183-0.848-0.347c-0.038-0.020-0.070-0.050-0.094-0.087-0.011-0.018-0.017-0.040-0.015-0.061s0.010-0.042 0.024-0.058c0.037-0.035 0.097-0.024 0.146-0.009 0.592 0.179 1.122 0.52 1.531 0.983z"></path>
<path fill="#211f54" d="M18.52 24.761c-0.043-0.007-0.085-0.020-0.124-0.038-0.097-0.038-0.191-0.085-0.28-0.139s-0.174-0.116-0.252-0.185c-0.034-0.027-0.065-0.058-0.090-0.093 0.036 0.023 0.071 0.049 0.103 0.078 0.081 0.064 0.166 0.123 0.253 0.177s0.18 0.101 0.274 0.144c0.040 0.015 0.079 0.034 0.116 0.055z"></path>
<path fill="#211f54" d="M18.872 25.3c0.004 0.007-0.168 0.089-0.358 0.224s-0.325 0.269-0.331 0.264c0.023-0.035 0.051-0.066 0.083-0.093 0.072-0.070 0.15-0.134 0.232-0.192s0.168-0.11 0.258-0.155c0.036-0.021 0.075-0.037 0.116-0.048z"></path>
<path fill="#211f54" d="M21.481 23.623c0.004 0.006-0.486 0.327-1.093 0.717s-1.104 0.7-1.109 0.693c-0.005-0.006 0.486-0.327 1.093-0.717s1.104-0.7 1.109-0.693z"></path>
<path fill="#4a4566" d="M24.383 21.79c0 0 0.005-0.006 0.016-0.017s0.029-0.025 0.053-0.042c0.067-0.048 0.14-0.087 0.218-0.115 0.024-0.008 0.053-0.017 0.078-0.024l0.043-0.010c0.017-0.005 0.036-0.005 0.053 0 0.009 0.004 0.017 0.011 0.022 0.019s0.009 0.018 0.009 0.028c0 0.010-0.001 0.019-0.004 0.028s-0.008 0.017-0.015 0.024c-0.026 0.023-0.055 0.042-0.088 0.056-0.065 0.032-0.134 0.055-0.205 0.071-0.038 0.009-0.076 0.014-0.115 0.017-0.012 0.001-0.024-0-0.035-0.005s-0.021-0.011-0.028-0.021c-0.012-0.016-0.021-0.034-0.029-0.053-0.031-0.071-0.057-0.144-0.078-0.218-0.010-0.036-0.018-0.072-0.025-0.105-0.010-0.035-0.013-0.073-0.010-0.109 0.004-0.020 0.015-0.037 0.032-0.049 0.008-0.006 0.018-0.010 0.029-0.010s0.021 0.001 0.030 0.006c0.030 0.017 0.052 0.045 0.063 0.078 0.023 0.052 0.039 0.108 0.047 0.165 0.012 0.082 0.008 0.165-0.011 0.245-0.005 0.022-0.012 0.043-0.021 0.064-0.003 0.007-0.006 0.015-0.010 0.021-0.003 0 0.009-0.031 0.020-0.087 0.015-0.079 0.016-0.161 0.003-0.241-0.009-0.055-0.026-0.108-0.049-0.158-0.009-0.027-0.028-0.050-0.053-0.065-0.023-0.013-0.053 0.008-0.055 0.037-0.002 0.033 0.001 0.067 0.011 0.099 0.007 0.034 0.016 0.070 0.026 0.106 0.021 0.073 0.046 0.145 0.077 0.215 0.006 0.017 0.015 0.033 0.025 0.049 0.005 0.006 0.011 0.011 0.018 0.013s0.015 0.004 0.022 0.003c0.037-0.003 0.074-0.009 0.11-0.017 0.069-0.014 0.136-0.037 0.2-0.068 0.029-0.012 0.057-0.028 0.081-0.049 0.019-0.019 0.018-0.053 0-0.062-0.027-0.004-0.054-0.002-0.079 0.007-0.026 0.006-0.052 0.013-0.077 0.022-0.077 0.026-0.151 0.061-0.219 0.105-0.052 0.027-0.078 0.047-0.079 0.046z"></path>
<path fill="#4a4566" d="M24.495 23.415c0.019-0.078 0.021-0.16 0.005-0.239-0.013-0.073-0.043-0.158-0.071-0.254-0.036-0.105-0.044-0.217-0.023-0.326 0.012-0.057 0.029-0.111 0.038-0.163 0.009-0.050 0.009-0.101 0-0.151-0.018-0.096-0.056-0.179-0.071-0.254-0.015-0.059-0.015-0.121 0-0.18 0.005-0.016 0.011-0.031 0.019-0.045 0.006-0.009 0.010-0.014 0.011-0.014s-0.011 0.021-0.020 0.061c-0.010 0.058-0.008 0.117 0.008 0.174 0.016 0.072 0.056 0.154 0.077 0.254 0.010 0.052 0.010 0.106 0 0.158s-0.026 0.109-0.038 0.164c-0.020 0.104-0.013 0.212 0.021 0.313 0.027 0.084 0.049 0.171 0.065 0.258 0.011 0.060 0.011 0.12 0 0.18-0.003 0.023-0.010 0.044-0.022 0.064z"></path>
<path fill="#4a4566" d="M24.687 22.527c-0.035-0.024-0.065-0.054-0.089-0.089-0.127-0.161-0.193-0.362-0.185-0.567-0.001-0.042 0.006-0.084 0.020-0.124-0.012 0.14 0.005 0.281 0.049 0.415s0.113 0.258 0.205 0.364z"></path>
<path fill="#211f54" d="M22.555 19.807c-0.004 0.004-0.009 0.007-0.014 0.009l-0.041 0.025-0.739 0.439c-0.492 0.292-1.168 0.7-1.908 1.164s-1.402 0.897-1.879 1.21l-0.718 0.476-0.041 0.026c-0.009 0.006-0.014 0.009-0.014 0.008l0.013-0.011 0.039-0.028 0.151-0.105c0.131-0.091 0.322-0.222 0.56-0.382 0.475-0.32 1.136-0.754 1.875-1.217s1.419-0.87 1.913-1.158c0.247-0.143 0.448-0.259 0.588-0.337l0.158-0.090 0.042-0.023 0.015-0.007z"></path>
</svg>
