
<svg version="1.1" xmlns="http://www.w3.org/2000/svg" viewBox="0 0 34 32">
<title>cleaner</title>
<path fill="#cee5ff" d="M16.061 32c8.87 0 16.061-7.163 16.061-16s-7.191-16-16.061-16c-8.87 0-16.061 7.163-16.061 16s7.191 16 16.061 16z"></path>
<path fill="#fff" d="M7.92 5.43c-0.985 0-1.784 0.796-1.784 1.779 0 0.981 0.799 1.777 1.784 1.777 0.987 0 1.786-0.796 1.786-1.777 0-0.983-0.799-1.779-1.786-1.779z"></path>
<path fill="#fff" d="M9.706 10.001c0 1.684-1.371 3.048-3.059 3.048-1.69 0-3.059-1.364-3.059-3.048 0-1.682 1.369-3.048 3.059-3.048 1.688 0 3.059 1.366 3.059 3.048z"></path>
<path fill="#fff" d="M14.803 8.477c0 1.964-1.597 3.556-3.568 3.556s-3.57-1.592-3.57-3.556c0-1.964 1.598-3.554 3.57-3.554s3.568 1.591 3.568 3.554z"></path>
<path fill="#133578" d="M12.92 21.041h-8.92c-0.421 0-0.771-0.326-0.799-0.743l-0.721-10.006c-0.015-0.23 0.168-0.427 0.402-0.427h11.159c0.233 0 0.417 0.196 0.4 0.427l-0.719 10.006c-0.031 0.417-0.379 0.743-0.801 0.743z"></path>
<path fill="#1d53bb" d="M13.545 20.161h-8.92c-0.421 0-0.771-0.326-0.799-0.743l-0.721-10.006c-0.015-0.23 0.168-0.427 0.402-0.427h11.159c0.233 0 0.417 0.196 0.4 0.427l-0.719 10.006c-0.031 0.417-0.379 0.743-0.801 0.743z"></path>
<path fill="#0075ff" d="M14.694 11.38h-11.216c-0.222 0-0.402-0.179-0.402-0.398v-1.596c0-0.221 0.18-0.4 0.402-0.4h11.216c0.222 0 0.401 0.179 0.401 0.4v1.596c0 0.219-0.18 0.398-0.401 0.398z"></path>
<path fill="#000" d="M4.764 3.389c0 0.562-0.457 1.015-1.019 1.015-0.564 0-1.021-0.453-1.021-1.015s0.457-1.015 1.021-1.015c0.562 0 1.019 0.453 1.019 1.015z"></path>
<path fill="#000" d="M8.73 3.179c0 0.446-0.363 0.805-0.809 0.805-0.448 0-0.81-0.36-0.81-0.805s0.363-0.805 0.81-0.805c0.446 0 0.809 0.36 0.809 0.805z"></path>
<path fill="#000" d="M4.553 6.235c0 0.446-0.363 0.805-0.809 0.805-0.448 0-0.81-0.36-0.81-0.805s0.363-0.805 0.81-0.805c0.446 0 0.809 0.36 0.809 0.805z"></path>
<path fill="#133578" d="M2.415 15.98c0.189 0.215 0.52 0.232 0.73 0.036l5.908-5.446c0.212-0.185 0.233-0.507 0.048-0.716-0.185-0.213-0.507-0.232-0.719-0.050l-5.931 5.469c-0.203 0.187-0.218 0.499-0.036 0.707z"></path>
<path fill="#133578" d="M27.346 24.326v-1.408c0-0.387 0.315-0.701 0.707-0.701h2.117c0.389 0 0.704 0.314 0.704 0.701v1.408h1.413c0.778 0 1.41 0.627 1.41 1.405v1.405c0 0.39-0.315 0.704-0.707 0.704h-7.761c-0.389 0-0.706-0.314-0.706-0.704v-1.405c0-0.778 0.632-1.405 1.413-1.405h1.41z"></path>
<path fill="#133578" d="M16.517 18.619v0.424c-4.092-1.508-9.877-2.368-9.877 3.556v0.753c-0.851 0.566-1.413 1.531-1.413 2.626 0 1.745 1.421 3.158 3.17 3.158 0.74 0 1.422-0.253 1.962-0.677h8.495c2.217 0 4.014-1.766 4.014-3.946 0-1.69-1.246-2.654-2.725-3.738-0.031-0.021-0.063-0.043-0.098-0.065v-2.091c0-0.39-0.315-0.704-0.704-0.704h-2.117c-0.392 0-0.706 0.314-0.706 0.704z"></path>
<path fill="none" stroke="#133578" stroke-linejoin="miter" stroke-linecap="butt" stroke-miterlimit="10" stroke-width="2.1087" d="M19.231 17.761v-10.306c0-2.91 2.368-5.272 5.292-5.272 2.921 0 5.292 2.362 5.292 5.272v16.869"></path>
<path fill="#1d53bb" d="M20.993 20.107h-3.527v-2.81c0-0.39 0.315-0.704 0.706-0.704h2.117c0.389 0 0.704 0.314 0.704 0.704v2.81z"></path>
<path fill="#1d53bb" d="M31.577 25.028h-3.527v-2.812c0-0.387 0.315-0.701 0.707-0.701h2.117c0.389 0 0.704 0.314 0.704 0.701v2.812z"></path>
<path fill="#0075ff" d="M33.693 27.137h-7.76c-0.389 0-0.707-0.314-0.707-0.704v-1.405c0-0.778 0.632-1.405 1.413-1.405h6.35c0.778 0 1.41 0.627 1.41 1.405v1.405c0 0.39-0.315 0.704-0.707 0.704z"></path>
<path fill="#0075ff" d="M7.589 27.137h12.214c2.217 0 4.014-1.766 4.014-3.946 0-1.69-1.246-2.654-2.725-3.738-2.138-1.455-13.502-6.479-13.502 1.824v5.859z"></path>
<path fill="#1d53bb" d="M12.516 24.657c0 1.745-1.421 3.158-3.17 3.158s-3.17-1.413-3.17-3.158c0-1.742 1.421-3.155 3.17-3.155s3.17 1.413 3.17 3.155z"></path>
</svg>
