
<svg version="1.1" xmlns="http://www.w3.org/2000/svg"  viewBox="0 0 32 32">
<title>clients</title>
<path fill="#0075ff" d="M15.697 19.562c-1.009-1.009-1.009-2.645 0-3.654 0.504-0.503 1.166-0.756 1.826-0.756s1.322 0.252 1.826 0.756c0.11 0.11 0.201 0.229 0.287 0.352 0.086-0.122 0.178-0.242 0.287-0.351 0.504-0.503 1.166-0.756 1.826-0.756s1.322 0.252 1.826 0.756c0.034 0.034 0.057 0.074 0.089 0.109 1.068-1.815 0.839-4.183-0.719-5.742-0.925-0.924-2.137-1.386-3.349-1.386s-2.425 0.463-3.349 1.387c-0.2 0.2-0.369 0.42-0.526 0.644-0.157-0.225-0.326-0.444-0.526-0.644-0.925-0.925-2.137-1.387-3.349-1.387s-2.425 0.463-3.349 1.387c-1.85 1.85-1.85 4.848 0 6.698 0.804 0.804 5.669 4.851 6.006 5.188s0.777 0.504 1.218 0.504 0.882-0.168 1.218-0.504c0.079-0.079 0.412-0.366 0.877-0.762-0.838-0.711-1.862-1.581-2.121-1.839z"></path>
<path fill="#123578" d="M23.578 15.909c-0.504-0.504-1.166-0.757-1.826-0.757s-1.322 0.252-1.826 0.756c-0.11 0.11-0.201 0.229-0.287 0.351-0.086-0.123-0.178-0.242-0.287-0.351-0.504-0.503-1.166-0.756-1.826-0.756s-1.322 0.252-1.826 0.756c-1.009 1.009-1.009 2.645 0 3.654 0.438 0.438 3.092 2.645 3.276 2.829s0.424 0.275 0.665 0.275c0.24 0 0.481-0.092 0.665-0.275s2.838-2.392 3.276-2.829c1.009-1.009 1.009-2.644 0-3.653z"></path>
</svg>
