<!-- Generated by IcoMoon.io -->
<svg version="1.1" xmlns="http://www.w3.org/2000/svg" viewBox="0 0 31 32">
<title>hero</title>
<path fill="#eff0f7" d="M3.439 28.067c0 0-0.828-4.627-0.83-5.579-0.003-1.317 0.932-1.841 0.932-1.841l-0.363-1.116h1.997l-0.315 1.109c0 0 1.052 0.601 0.905 1.967-0.274 2.553-0.711 5.459-0.711 5.459l-1.614 0.002z"></path>
<path fill="#eff0f7" d="M12.944 31.401c-0.112-0.053-0.233-0.079-0.355-0.076s-0.242 0.035-0.351 0.094c-0.006-0.24-0.068-0.475-0.181-0.683s-0.272-0.381-0.464-0.505c-0.192-0.123-0.409-0.193-0.632-0.201s-0.444 0.044-0.643 0.152c-0.067-0.198-0.174-0.378-0.313-0.527s-0.306-0.263-0.491-0.335c-0.184-0.072-0.381-0.099-0.576-0.079s-0.384 0.085-0.553 0.191c-0.168-0.213-0.391-0.368-0.64-0.445s-0.515-0.073-0.762 0.013c-0.243 0.095-0.455 0.265-0.609 0.489s-0.243 0.492-0.256 0.771c-0.17-0.046-0.348-0.044-0.517 0.006s-0.323 0.146-0.448 0.28c-0.245 0.269-0.569 1.094-0.473 1.456l8.719-0.019c-0.032-0.127-0.089-0.245-0.168-0.345s-0.177-0.181-0.288-0.235z"></path>
<path fill="#dcddeb" d="M29.418 28.071c0 0.007-6.586 0.012-14.708 0.012s-14.71-0.006-14.71-0.012c0-0.006 6.584-0.013 14.71-0.013s14.708 0.006 14.708 0.013z"></path>
<path fill="#05c168" d="M2.371 23.855c-0.208-0.116-0.453-0.131-0.684-0.091-0.124 0.022-0.253 0.062-0.337 0.163s-0.1 0.277-0.003 0.364c0.063 0.046 0.138 0.066 0.213 0.058 0.181-0.002 0.38-0.037 0.526 0.080 0.082 0.067 0.137 0.178 0.236 0.212 0.049 0.012 0.101 0.007 0.147-0.015s0.085-0.060 0.109-0.108c0.047-0.098 0.058-0.212 0.029-0.318-0.012-0.073-0.040-0.142-0.081-0.202s-0.094-0.108-0.155-0.143z"></path>
<path fill="#05c168" d="M2.848 22.862c-0.127 0.196-0.375 0.131-0.489 0.011s-0.163-0.293-0.208-0.46c-0.101-0.378-0.203-0.773-0.127-1.159 0.018-0.116 0.065-0.225 0.137-0.315 0.036-0.044 0.083-0.077 0.134-0.096s0.107-0.022 0.161-0.011c0.127 0.035 0.202 0.167 0.258 0.293 0.165 0.37 0.252 0.775 0.253 1.185 0 0.191-0.020 0.391-0.12 0.549z"></path>
<path fill="#05c168" d="M3.198 23.142c-0.138-0.177-0.165-0.435-0.103-0.656s0.2-0.409 0.361-0.564c0.189-0.18 0.408-0.319 0.645-0.409 0.092-0.040 0.191-0.058 0.29-0.053 0.050 0.003 0.098 0.019 0.14 0.047s0.078 0.066 0.104 0.112c0.068 0.14 0.003 0.309-0.068 0.448-0.124 0.243-0.266 0.476-0.424 0.696-0.127 0.177-0.273 0.351-0.467 0.431s-0.395 0.070-0.498-0.074z"></path>
<path fill="#211f54" d="M2.857 25.819c-0.007-0.030-0.011-0.060-0.011-0.091-0.006-0.065-0.014-0.146-0.022-0.243-0.011-0.12-0.028-0.239-0.051-0.357-0.030-0.143-0.070-0.284-0.12-0.421s-0.117-0.265-0.2-0.381c-0.068-0.095-0.154-0.173-0.253-0.227-0.066-0.035-0.138-0.059-0.211-0.071-0.028-0.001-0.057-0.005-0.084-0.013 0.028-0.004 0.056-0.004 0.084 0 0.077 0.006 0.152 0.027 0.221 0.062 0.104 0.053 0.195 0.131 0.266 0.227 0.086 0.118 0.156 0.249 0.207 0.388 0.051 0.139 0.091 0.282 0.119 0.428 0.021 0.119 0.035 0.24 0.042 0.361 0.007 0.103 0.010 0.187 0.011 0.245 0.004 0.030 0.004 0.061 0.002 0.092z"></path>
<path fill="#211f54" d="M2.841 25.632c-0.001-0.014-0.001-0.028 0-0.041 0-0.031 0-0.070 0-0.118 0-0.102 0-0.251-0.005-0.434-0.008-0.367-0.038-0.761-0.094-1.319-0.054-0.523-0.127-1.132-0.201-1.527-0.016-0.091-0.033-0.171-0.048-0.242s-0.027-0.132-0.040-0.182c-0.012-0.050-0.019-0.085-0.025-0.115-0.004-0.013-0.006-0.027-0.007-0.040 0.006 0.012 0.010 0.025 0.013 0.039l0.032 0.113c0.014 0.049 0.029 0.11 0.045 0.182s0.035 0.151 0.053 0.242c0.094 0.468 0.164 0.941 0.211 1.417 0.057 0.557 0.084 1.065 0.084 1.432 0 0.182 0 0.332-0.006 0.435-0.003 0.048-0.005 0.087-0.007 0.118-0 0.014-0.002 0.028-0.006 0.041z"></path>
<path fill="#211f54" d="M2.839 24.653c-0.003-0.041-0.003-0.082 0-0.123 0.004-0.080 0.014-0.194 0.035-0.335 0.025-0.164 0.059-0.327 0.101-0.487 0.049-0.197 0.112-0.39 0.189-0.577 0.131-0.344 0.319-0.66 0.555-0.931 0.041-0.047 0.084-0.090 0.13-0.131 0.020-0.018 0.038-0.036 0.056-0.051l0.051-0.038c0.031-0.025 0.063-0.047 0.097-0.066 0.005 0.008-0.137 0.098-0.316 0.304-0.228 0.274-0.411 0.588-0.541 0.928-0.075 0.186-0.138 0.377-0.19 0.572-0.043 0.159-0.079 0.32-0.108 0.482-0.024 0.139-0.037 0.253-0.046 0.331-0.002 0.041-0.007 0.082-0.014 0.122z"></path>
<path fill="#4b3cfb" d="M3.716 26.38l-0.091 1.344h-1.601l-0.091-1.344h1.783z"></path>
<path fill="#3f37a0" d="M3.871 25.85h-2.129v0.529h2.129v-0.529z"></path>
<path fill="#3f37a0" d="M3.871 27.672v0.147h-2.093v-0.147h2.093z"></path>
<path fill="#4b3cfb" d="M3.673 28.077l0.098-0.258h-1.917l0.114 0.258h1.705z"></path>
<path fill="#05c168" d="M26.976 14.872c0.208-0.116 0.453-0.131 0.684-0.091 0.124 0.022 0.253 0.062 0.337 0.163s0.1 0.277 0.003 0.364c-0.063 0.046-0.138 0.066-0.213 0.058-0.181-0.002-0.38-0.037-0.526 0.080-0.082 0.067-0.137 0.178-0.236 0.212-0.049 0.012-0.101 0.007-0.147-0.015s-0.085-0.060-0.109-0.108c-0.047-0.098-0.058-0.212-0.029-0.318 0.012-0.073 0.040-0.142 0.081-0.202s0.094-0.108 0.155-0.143z"></path>
<path fill="#05c168" d="M26.499 13.88c0.127 0.196 0.375 0.131 0.489 0.011s0.163-0.293 0.208-0.46c0.101-0.377 0.202-0.773 0.127-1.159-0.018-0.117-0.066-0.225-0.137-0.315-0.036-0.044-0.083-0.077-0.134-0.096s-0.107-0.022-0.161-0.011c-0.127 0.036-0.202 0.167-0.258 0.293-0.165 0.37-0.252 0.775-0.253 1.185 0 0.191 0.020 0.391 0.12 0.549z"></path>
<path fill="#05c168" d="M26.15 14.159c0.138-0.177 0.165-0.435 0.103-0.656s-0.2-0.409-0.361-0.564c-0.189-0.18-0.408-0.319-0.645-0.409-0.092-0.040-0.191-0.058-0.29-0.053-0.050 0.003-0.098 0.019-0.14 0.047s-0.078 0.066-0.104 0.112c-0.068 0.14-0.003 0.309 0.067 0.448 0.124 0.243 0.266 0.476 0.424 0.696 0.127 0.177 0.273 0.351 0.467 0.431s0.395 0.070 0.498-0.074z"></path>
<path fill="#211f54" d="M26.49 16.836c0.007-0.030 0.011-0.060 0.011-0.091 0.006-0.065 0.014-0.146 0.022-0.243 0.011-0.12 0.028-0.239 0.051-0.357 0.030-0.143 0.070-0.284 0.12-0.421s0.117-0.264 0.2-0.381c0.068-0.095 0.154-0.173 0.253-0.227 0.067-0.035 0.138-0.059 0.211-0.071 0.028-0.001 0.057-0.005 0.084-0.013-0.028-0.004-0.056-0.004-0.084 0-0.077 0.006-0.152 0.027-0.221 0.062-0.104 0.053-0.195 0.131-0.266 0.227-0.086 0.118-0.156 0.249-0.207 0.388-0.051 0.139-0.091 0.282-0.119 0.428-0.021 0.119-0.035 0.24-0.042 0.361-0.007 0.103-0.010 0.187-0.011 0.245-0.004 0.030-0.004 0.061-0.002 0.092z"></path>
<path fill="#211f54" d="M26.506 16.649c0.001-0.014 0.001-0.028 0-0.041 0-0.031 0-0.070 0-0.118 0-0.102 0-0.251 0.005-0.434 0.008-0.367 0.038-0.761 0.094-1.319 0.054-0.523 0.127-1.132 0.201-1.527 0.016-0.091 0.033-0.171 0.048-0.242s0.027-0.132 0.040-0.182c0.012-0.050 0.019-0.085 0.025-0.115 0.004-0.013 0.006-0.027 0.007-0.040-0.006 0.012-0.010 0.025-0.013 0.039l-0.032 0.113c-0.014 0.049-0.029 0.11-0.045 0.182s-0.035 0.151-0.053 0.242c-0.094 0.468-0.164 0.941-0.211 1.417-0.057 0.557-0.084 1.065-0.084 1.432 0 0.182 0 0.332 0.006 0.435 0.003 0.048 0.005 0.087 0.007 0.118 0 0.014 0.002 0.028 0.006 0.041z"></path>
<path fill="#211f54" d="M26.508 15.671c0.003-0.041 0.003-0.082 0-0.123-0.004-0.080-0.014-0.194-0.035-0.335-0.025-0.164-0.059-0.327-0.101-0.487-0.049-0.197-0.113-0.39-0.189-0.577-0.131-0.344-0.319-0.66-0.555-0.932-0.041-0.047-0.084-0.090-0.13-0.131-0.020-0.018-0.038-0.036-0.056-0.051l-0.051-0.038c-0.031-0.025-0.063-0.047-0.097-0.066-0.006 0.008 0.137 0.098 0.316 0.304 0.228 0.274 0.411 0.588 0.541 0.928 0.075 0.186 0.138 0.377 0.19 0.572 0.043 0.159 0.079 0.32 0.108 0.482 0.024 0.139 0.037 0.253 0.046 0.331 0.002 0.041 0.007 0.082 0.014 0.122z"></path>
<path fill="#eff0f7" d="M25.388 23.686h-0.583v2.499h0.583v-2.499z"></path>
<path fill="#dcddeb" d="M29.265 23.686h-0.583v2.499h0.583v-2.499z"></path>
<path fill="#eff0f7" d="M33.004 17.925h-8.207v5.756h8.207v-5.756z"></path>
<path fill="#dcddeb" d="M32.006 20.805c-0.001-0.011-0.001-0.022 0-0.033 0-0.023 0-0.054 0-0.093 0-0.084 0-0.204 0-0.36 0-0.314-0.004-0.77-0.007-1.347l0.013 0.014-6.401 0.009 0.021-0.023v0.233c0 0.078 0 0.156 0 0.234v1.364l-0.021-0.023 5.921 0.017-1.34 0.007-4.601 0.010v-0.91c0-0.153 0-0.307 0-0.462v-0.468l0.022-0.023 6.403 0.009v0.014c0 0.58-0.005 1.039-0.007 1.355 0 0.155 0 0.274 0 0.357 0 0.039 0 0.069 0 0.088s-0.003 0.031-0.003 0.031z"></path>
<path fill="#dcddeb" d="M29.085 19.888c0 0.060-0.016 0.118-0.047 0.168s-0.075 0.088-0.126 0.111c-0.051 0.023-0.107 0.029-0.162 0.017s-0.104-0.040-0.143-0.083-0.066-0.096-0.077-0.155c-0.011-0.059-0.005-0.119 0.016-0.175s0.057-0.102 0.103-0.136c0.046-0.033 0.1-0.051 0.156-0.051 0.074 0 0.146 0.032 0.198 0.088s0.082 0.133 0.082 0.214z"></path>
<path fill="#0075ff" d="M25.996 15.772l0.314 0.486c0 0-0.705 0.211-0.705 0.887s0.431 0.802 0.898 0.802c0.467 0 0.92-0.148 0.898-0.823s-0.608-0.929-0.608-0.929l0.294-0.423h-1.091z"></path>
<path fill="#05c168" d="M22.84 3.354c0.018-0.019 0.145 0.079 0.311 0.28 0.097 0.119 0.185 0.245 0.264 0.378 0.097 0.163 0.181 0.335 0.254 0.512 0.070 0.178 0.128 0.362 0.173 0.55 0.036 0.153 0.062 0.309 0.077 0.466 0.023 0.269 0 0.435-0.023 0.437-0.060 0-0.114-0.646-0.409-1.367s-0.691-1.213-0.647-1.256z"></path>
<path fill="#05c168" d="M24.091 6.514c-0.026 0-0.097-0.352-0.164-0.935s-0.123-1.393-0.144-2.288c-0.021-0.895-0.013-1.704 0-2.289s0.042-0.948 0.070-0.948c0.028 0 0.052 0.362 0.071 0.947s0.033 1.394 0.055 2.284c0.022 0.891 0.054 1.696 0.086 2.279s0.055 0.949 0.026 0.949z"></path>
<path fill="#05c168" d="M25.301 1.431c0.026 0.016-0.077 0.265-0.216 0.68s-0.311 0.993-0.48 1.643c-0.169 0.65-0.296 1.241-0.374 1.676s-0.11 0.703-0.14 0.702c-0.030-0.001-0.046-0.28 0-0.725 0.066-0.578 0.174-1.149 0.321-1.71 0.142-0.562 0.323-1.111 0.542-1.643 0.174-0.408 0.325-0.636 0.347-0.622z"></path>
<path fill="#6e7191" d="M22.533 5.77v0.712c-0 0.2 0.036 0.397 0.107 0.582s0.175 0.352 0.305 0.494c0.131 0.141 0.286 0.253 0.457 0.33s0.354 0.116 0.54 0.116c0.185 0 0.368-0.039 0.54-0.115s0.326-0.188 0.457-0.329c0.131-0.141 0.235-0.309 0.306-0.493s0.107-0.382 0.107-0.582v-0.714h-2.819z"></path>
<path fill="#eff0f7" d="M33.657 8.005h-13.008v0.811h13.008v-0.811z"></path>
<path fill="#dcddeb" d="M23.545 8.816h-0.429v1.404h0.429v-1.404z"></path>
<path fill="#dcddeb" d="M30.68 8.816h-0.429v1.404h0.429v-1.404z"></path>
<path fill="#3f37a0" d="M34.849 16.688v1.237h-4.934c-0.152 0-0.297-0.065-0.404-0.181s-0.167-0.272-0.167-0.436c0-0.163 0.060-0.32 0.167-0.436s0.253-0.181 0.404-0.181z"></path>
<path fill="#4b3cfb" d="M34.849 15.499v1.237h-4.934c-0.152 0-0.297-0.065-0.404-0.181s-0.167-0.272-0.167-0.436 0.060-0.32 0.167-0.436c0.107-0.116 0.253-0.181 0.404-0.181l4.934-0.004z"></path>
<path fill="#dcddeb" d="M28.083 5.082l-0.295 2.948h3.775l0.314-2.948h-3.794z"></path>
<path fill="#fff" d="M28.238 5.293l-0.287 2.58h3.408l0.276-2.58h-3.397z"></path>
<path fill="#4b3cfb" d="M28.812 5.727l-0.176 1.712h2.15l0.11-1.712h-2.084z"></path>
<path fill="#6e7191" d="M24.038 25.706l0.471 2.383h-0.604l-1.012-2.423 1.145 0.040z"></path>
<path fill="#6e7191" d="M24.038 25.706h-0.082l-0.23-0.006-0.834-0.025 0.008-0.012 0.861 2.055c0.052 0.124 0.102 0.246 0.153 0.367l-0.010-0.007h0.604l-0.010 0.013c-0.135-0.69-0.251-1.285-0.333-1.708-0.040-0.211-0.073-0.379-0.095-0.496-0.011-0.057-0.019-0.102-0.025-0.133-0.003-0.015-0.005-0.026-0.006-0.035-0-0.004-0-0.008 0-0.012 0.001 0.004 0.002 0.007 0.003 0.011l0.007 0.033c0.006 0.031 0.016 0.075 0.027 0.129l0.1 0.494c0.085 0.424 0.204 1.020 0.343 1.713l0.003 0.013h-0.623l-0.002-0.006-0.154-0.367c-0.328-0.788-0.628-1.509-0.856-2.057l-0.005-0.012h0.012l0.84 0.034 0.228 0.010 0.059 0.003c0.006 0 0.012 0.001 0.018 0.003z"></path>
<path fill="#6e7191" d="M7.338 25.706l-0.471 2.383h0.604l1.012-2.423-1.145 0.040z"></path>
<path fill="#6e7191" d="M7.338 25.706c0.006-0.001 0.013-0.001 0.020 0l0.059-0.003 0.228-0.010 0.852-0.034-0.005 0.012-0.856 2.057c-0.052 0.124-0.103 0.246-0.153 0.367l-0.003 0.006h-0.624l0.002-0.013c0.139-0.692 0.258-1.288 0.343-1.713 0.043-0.21 0.077-0.377 0.1-0.493 0.012-0.056 0.021-0.1 0.027-0.129l0.008-0.033c0-0.007 0.002-0.011 0.003-0.011-0 0.004-0.001 0.008-0.002 0.012 0 0.009-0.004 0.020-0.006 0.035-0.006 0.031-0.014 0.076-0.025 0.133-0.022 0.117-0.055 0.285-0.096 0.496-0.082 0.423-0.2 1.018-0.333 1.708l-0.010-0.013h0.604l-0.009 0.007c0.050-0.12 0.101-0.243 0.153-0.367l0.861-2.055 0.007 0.012-1.063 0.031h-0.060l-0.021-0.004z"></path>
<path fill="#cbcddc" d="M25.335 23.327h-17.903v3.091h17.903v-3.091z"></path>
<path fill="#cbcddc" d="M16.143 20.853v-3.483c-0-0.061 0.011-0.122 0.033-0.178s0.053-0.108 0.093-0.151c0.040-0.043 0.088-0.078 0.14-0.101s0.109-0.035 0.165-0.035h7.542c0.114 0 0.224 0.049 0.305 0.136s0.126 0.205 0.126 0.329v4.84l-8.416 0.259 0.011-1.614z"></path>
<path fill="#cbcddc" d="M7.699 20.853v-3.483c0-0.061 0.011-0.122 0.033-0.179s0.054-0.108 0.094-0.151c0.040-0.043 0.088-0.078 0.141-0.101s0.109-0.035 0.166-0.035h7.577c0.115-0 0.224 0.049 0.306 0.136s0.127 0.205 0.127 0.329l-0.011 5.097-8.432-0.259v-1.354z"></path>
<path fill="#cbcddc" d="M26.449 26.384h-1.934c-0.181 0-0.327-0.207-0.327-0.462v-5.503c0-0.255 0.146-0.462 0.332-0.462h1.934c0.176 0 0.32 0.207 0.32 0.462v5.503c0.002 0.255-0.144 0.462-0.325 0.462z"></path>
<path fill="#6e7191" d="M26.449 26.384c0 0 0.014 0 0.040-0.006 0.041-0.008 0.080-0.026 0.113-0.053 0.054-0.044 0.096-0.102 0.123-0.169 0.018-0.042 0.030-0.087 0.037-0.132 0.007-0.052 0.010-0.105 0.008-0.158 0-0.449-0.002-1.099-0.004-1.901s0-1.759 0-2.82c0-0.133 0-0.267 0-0.403v-0.205c0.002-0.069 0-0.137-0.006-0.205-0.009-0.068-0.030-0.133-0.062-0.193s-0.078-0.109-0.134-0.142c-0.028-0.016-0.059-0.026-0.090-0.028s-0.066 0-0.099 0h-1.858c-0.069 0.003-0.135 0.034-0.184 0.086s-0.086 0.116-0.108 0.187c-0.020 0.071-0.029 0.145-0.026 0.22v1.106c0 0.578 0 1.135 0 1.666s0 1.035 0 1.509c0 0.236 0 0.463 0 0.683v0.322c0 0.052 0 0.104 0 0.156-0.001 0.050 0.003 0.1 0.013 0.15 0.017 0.095 0.062 0.182 0.127 0.249 0.032 0.031 0.069 0.055 0.11 0.068 0.041 0.010 0.083 0.014 0.125 0.011h1.233l0.605 0.002h-1.838c-0.043 0.003-0.086-0.001-0.128-0.012-0.043-0.014-0.083-0.038-0.116-0.071-0.068-0.069-0.114-0.16-0.132-0.259-0.010-0.050-0.015-0.102-0.014-0.153v-0.156c0-0.105 0-0.213 0-0.322 0-0.219 0-0.447 0-0.683 0-0.474 0-0.976 0-1.509s0-1.088 0-1.666c0-0.287 0-0.581 0-0.881v-0.225c-0.003-0.077 0.007-0.153 0.028-0.227 0.022-0.074 0.061-0.142 0.113-0.196 0.053-0.056 0.124-0.088 0.198-0.090h1.852c0.034 0 0.066 0 0.1 0 0.034 0.003 0.068 0.013 0.098 0.031 0.060 0.035 0.109 0.087 0.142 0.15 0.033 0.062 0.055 0.13 0.065 0.2 0.006 0.069 0.008 0.139 0.006 0.209 0 0.069 0 0.137 0 0.205v0.403c0 1.062 0 2.017-0.002 2.82s-0.002 1.452-0.003 1.901c0.002 0.053-0.002 0.106-0.009 0.159-0.008 0.046-0.021 0.091-0.040 0.134-0.027 0.068-0.071 0.128-0.126 0.172-0.034 0.027-0.074 0.044-0.115 0.051-0.013 0.006-0.027 0.010-0.041 0.013z"></path>
<path fill="#cbcddc" d="M23.979 22.146h-7.52c-0.19 0-0.344 0.166-0.344 0.371v1.044c0 0.205 0.154 0.371 0.344 0.371h7.52c0.19 0 0.344-0.166 0.344-0.371v-1.044c0-0.205-0.154-0.371-0.344-0.371z"></path>
<path fill="#6e7191" d="M23.979 23.931c0 0 0.017 0 0.049-0.006 0.063-0.010 0.121-0.039 0.17-0.083s0.084-0.102 0.104-0.167c0.014-0.052 0.020-0.105 0.017-0.159 0-0.058 0-0.119 0-0.184 0-0.129 0-0.276 0-0.435 0-0.079 0-0.163 0-0.248s0.010-0.178-0.023-0.263c-0.032-0.089-0.094-0.16-0.174-0.2-0.082-0.043-0.179-0.031-0.276-0.033l-7.386 0.006c-0.080 0-0.157 0.032-0.218 0.088s-0.099 0.134-0.11 0.219c-0.004 0.043-0.005 0.086-0.004 0.129v0.909c-0.002 0.042 0 0.083 0.006 0.125 0.007 0.040 0.021 0.079 0.040 0.114 0.039 0.071 0.099 0.125 0.171 0.153 0.070 0.030 0.148 0.020 0.226 0.022l7.215 0.010-0.56 0.003-6.771 0.007c-0.061-0.001-0.121-0.018-0.174-0.051s-0.097-0.080-0.128-0.136c-0.021-0.038-0.036-0.079-0.044-0.122-0.006-0.043-0.008-0.086-0.007-0.129v-0.902c-0.001-0.045-0-0.089 0.004-0.134 0.012-0.092 0.055-0.176 0.12-0.236s0.148-0.095 0.235-0.095l7.527 0.004c0.048 0.001 0.095 0.013 0.138 0.035 0.061 0.030 0.113 0.079 0.149 0.14s0.056 0.132 0.055 0.205c0 0.043 0 0.089 0 0.132 0 0.086 0 0.169 0 0.248 0 0.159 0 0.304 0 0.435 0 0.065 0 0.127 0 0.184 0.003 0.055-0.003 0.109-0.018 0.162-0.026 0.082-0.076 0.152-0.144 0.197-0.041 0.028-0.088 0.046-0.136 0.053-0.017 0.003-0.035 0.005-0.052 0.004z"></path>
<path fill="#cbcddc" d="M7.386 26.417h-1.934c-0.18 0-0.327-0.207-0.327-0.462v-5.503c0-0.255 0.147-0.462 0.333-0.462h1.934c0.176 0 0.32 0.207 0.32 0.462v5.504c0.002 0.254-0.144 0.461-0.325 0.461z"></path>
<path fill="#6e7191" d="M7.386 26.417c0 0 0.014 0 0.040-0.005 0.041-0.008 0.080-0.026 0.113-0.053 0.054-0.044 0.096-0.102 0.123-0.169 0.018-0.042 0.030-0.087 0.037-0.132 0.007-0.052 0.010-0.105 0.008-0.158 0-0.45 0-1.099-0.003-1.901s0-1.759-0.002-2.821c0-0.133 0-0.267 0-0.403v-0.205c0.002-0.069 0-0.137-0.006-0.206-0.009-0.068-0.030-0.133-0.062-0.192s-0.078-0.109-0.134-0.142c-0.028-0.016-0.059-0.026-0.090-0.028s-0.066 0-0.099 0h-1.858c-0.069 0.002-0.135 0.032-0.184 0.084s-0.086 0.116-0.108 0.187c-0.020 0.071-0.029 0.145-0.026 0.219v1.106c0 0.578 0 1.135 0 1.666s0 1.035 0 1.509c0 0.236 0 0.464 0 0.683v0.322c0 0.053 0 0.104 0 0.156-0.001 0.050 0.003 0.1 0.013 0.15 0.018 0.095 0.062 0.182 0.127 0.249 0.032 0.031 0.069 0.054 0.11 0.068 0.041 0.011 0.083 0.014 0.125 0.012h1.233l0.48 0.002-0.48 0.002h-1.233c-0.043 0.003-0.086-0.001-0.128-0.012s-0.082-0.031-0.116-0.060c-0.068-0.070-0.114-0.16-0.132-0.259-0.010-0.050-0.014-0.102-0.013-0.153 0-0.052 0-0.103 0-0.156 0-0.105 0-0.213 0-0.322 0-0.219 0-0.447 0-0.683 0-0.474 0-0.977 0-1.509s0-1.088 0-1.666c0-0.287 0-0.581 0-0.881v-0.225c-0.003-0.076 0.005-0.152 0.025-0.225 0.022-0.074 0.061-0.142 0.113-0.196 0.054-0.056 0.125-0.089 0.2-0.090h1.858c0.034 0 0.066 0 0.1 0 0.034 0.003 0.068 0.013 0.098 0.031 0.060 0.034 0.109 0.086 0.142 0.15 0.033 0.062 0.055 0.13 0.065 0.2 0.006 0.069 0.008 0.139 0.006 0.209v0.608c0 1.061 0 2.017-0.002 2.82s-0.002 1.452-0.003 1.901c0.002 0.053-0.002 0.107-0.009 0.159-0.008 0.046-0.021 0.091-0.040 0.134-0.027 0.068-0.071 0.126-0.126 0.17-0.034 0.027-0.074 0.044-0.115 0.051-0.015 0.003-0.030 0.004-0.045 0.004z"></path>
<path fill="#cbcddc" d="M15.771 22.126h-7.983c-0.19 0-0.344 0.166-0.344 0.371v1.084c0 0.205 0.154 0.371 0.344 0.371h7.983c0.19 0 0.344-0.166 0.344-0.371v-1.084c0-0.205-0.154-0.371-0.344-0.371z"></path>
<path fill="#6e7191" d="M15.771 23.952c0 0 0.018 0 0.052-0.006 0.066-0.012 0.127-0.044 0.176-0.092s0.084-0.112 0.1-0.181c0.011-0.056 0.014-0.112 0.011-0.169 0-0.061 0-0.125 0-0.194 0-0.137 0-0.29 0-0.457 0-0.084 0-0.172 0-0.261 0-0.045 0-0.092-0.003-0.138-0.005-0.047-0.019-0.092-0.040-0.133-0.022-0.043-0.053-0.081-0.089-0.111s-0.078-0.052-0.123-0.064c-0.047-0.011-0.096-0.014-0.144-0.011l-7.921 0.004c-0.084-0-0.165 0.034-0.226 0.096s-0.099 0.147-0.104 0.237c0 0.184 0 0.369 0 0.551s0 0.363 0 0.543c-0.002 0.087 0.025 0.172 0.076 0.24 0.051 0.066 0.122 0.111 0.2 0.125 0.040 0.005 0.080 0.007 0.12 0.005l7.713 0.010-0.587 0.002-7.127 0.007c-0.042 0.002-0.083 0-0.124-0.006-0.085-0.015-0.163-0.063-0.217-0.135s-0.083-0.163-0.080-0.257c0-0.18 0-0.361 0-0.543s0-0.366 0-0.553c0.006-0.097 0.046-0.189 0.112-0.255s0.153-0.104 0.244-0.104l7.921 0.004c0.050-0.003 0.099 0.001 0.148 0.012 0.046 0.013 0.090 0.036 0.128 0.067s0.070 0.071 0.093 0.116c0.022 0.043 0.035 0.090 0.040 0.139s0.002 0.094 0.002 0.14c0 0.090 0 0.178 0 0.261 0 0.167 0 0.32 0 0.457 0 0.069 0 0.133 0 0.194 0.003 0.058-0.001 0.116-0.012 0.172-0.017 0.071-0.053 0.135-0.103 0.183s-0.113 0.080-0.181 0.090c-0.013 0.002-0.027 0.003-0.040 0.003l-0.012 0.009z"></path>
<path fill="#6e7191" d="M16.143 17.331c0.007 0 0.013 1.114 0.013 2.489s-0.006 2.489-0.013 2.489c-0.007 0-0.012-1.114-0.012-2.489s0.006-2.489 0.012-2.489z"></path>
<path fill="#6e7191" d="M20.451 18.906c0 0-0.008 0.012-0.018 0.033-0.013 0.031-0.017 0.065-0.013 0.098 0.003 0.024 0.010 0.047 0.022 0.068s0.028 0.038 0.047 0.052c0.024 0.012 0.051 0.017 0.078 0.013s0.052-0.015 0.073-0.032c0.021-0.018 0.037-0.042 0.047-0.069s0.012-0.056 0.006-0.085c-0.007-0.023-0.020-0.044-0.035-0.061s-0.035-0.031-0.056-0.039c-0.029-0.013-0.061-0.016-0.092-0.009-0.022 0.005-0.033 0.012-0.034 0.010 0.008-0.010 0.019-0.017 0.031-0.021 0.033-0.012 0.068-0.012 0.1 0 0.025 0.009 0.047 0.023 0.066 0.042s0.033 0.043 0.042 0.069c0.010 0.032 0.010 0.067 0 0.099-0.012 0.033-0.031 0.063-0.057 0.085s-0.057 0.036-0.090 0.040c-0.031 0.004-0.063-0.004-0.090-0.022-0.022-0.015-0.039-0.036-0.052-0.060s-0.021-0.051-0.023-0.079c-0.003-0.037 0.004-0.074 0.022-0.105 0.012-0.022 0.024-0.029 0.024-0.028z"></path>
<path fill="#6e7191" d="M21.217 18.257c0 0.005-0.051 0.006-0.13 0.030-0.102 0.030-0.195 0.088-0.271 0.168s-0.131 0.179-0.162 0.289c-0.024 0.086-0.026 0.139-0.031 0.139-0.003-0.013-0.003-0.026 0-0.039 0.002-0.036 0.007-0.071 0.015-0.105 0.027-0.115 0.083-0.22 0.161-0.303s0.177-0.141 0.285-0.167c0.032-0.008 0.065-0.013 0.098-0.014 0.012-0.001 0.023-0 0.035 0.003z"></path>
<path fill="#6e7191" d="M19.446 19.175c0.006-0.013 0.014-0.026 0.024-0.036 0.025-0.031 0.052-0.059 0.082-0.084 0.1-0.083 0.22-0.133 0.345-0.144s0.251 0.018 0.362 0.082c0.033 0.018 0.065 0.041 0.093 0.066 0.020 0.019 0.030 0.031 0.029 0.032s-0.047-0.038-0.131-0.082c-0.109-0.058-0.231-0.083-0.352-0.072s-0.238 0.057-0.336 0.133c-0.076 0.059-0.113 0.109-0.117 0.106z"></path>
<path fill="#6e7191" d="M20.636 19.627c-0.003 0-0.023-0.021-0.050-0.063-0.039-0.054-0.064-0.118-0.075-0.186-0.004-0.035-0.001-0.070 0.009-0.104s0.028-0.064 0.051-0.088c0.040-0.037 0.073-0.036 0.072-0.033s-0.029 0.011-0.060 0.047c-0.019 0.024-0.032 0.052-0.041 0.082s-0.010 0.062-0.007 0.093c0.011 0.064 0.033 0.125 0.065 0.179 0.015 0.023 0.026 0.047 0.034 0.073z"></path>
<path fill="#a0a3bd" d="M24.58 27.388l0.741 2.395-2.922 1.058c-0.072-0.29 1.26-1.408 1.26-1.408l-0.535-1.512 1.456-0.532z"></path>
<path fill="#fff" opacity="0.36" d="M25.32 29.786l-0.082-0.24-2.772 1.101c0 0-0.114 0.105-0.068 0.192l2.922-1.053z"></path>
<path fill="#263238" d="M23.48 28.697c0.052-0.004 0.102-0.022 0.146-0.053 0.050-0.028 0.096-0.063 0.138-0.103 0.025-0.024 0.048-0.049 0.070-0.076 0.013-0.015 0.024-0.032 0.033-0.051 0.006-0.014 0.008-0.029 0.005-0.043s-0.011-0.027-0.022-0.037c-0.011-0.008-0.023-0.012-0.035-0.014s-0.026-0-0.038 0.004c-0.019 0.007-0.036 0.016-0.052 0.028-0.029 0.018-0.056 0.038-0.081 0.061-0.042 0.040-0.078 0.087-0.107 0.139-0.048 0.089-0.054 0.151-0.048 0.152s0.027-0.055 0.079-0.133c0.031-0.046 0.067-0.087 0.107-0.123 0.024-0.021 0.049-0.040 0.076-0.057 0.028-0.020 0.054-0.029 0.067-0.018s0.006 0.007 0 0.018c-0.007 0.014-0.015 0.026-0.025 0.038-0.020 0.026-0.041 0.050-0.063 0.073-0.038 0.040-0.080 0.075-0.124 0.106-0.043 0.027-0.085 0.057-0.125 0.089z"></path>
<path fill="#263238" d="M23.505 28.711c0.014-0.052 0.012-0.107-0.006-0.157-0.015-0.056-0.039-0.109-0.071-0.156-0.020-0.028-0.042-0.054-0.066-0.077-0.015-0.017-0.033-0.030-0.053-0.037s-0.042-0.009-0.063-0.004c-0.012 0.005-0.023 0.013-0.032 0.024s-0.014 0.024-0.016 0.038c-0.003 0.020-0.003 0.041 0 0.061 0.006 0.035 0.016 0.069 0.031 0.1 0.026 0.053 0.064 0.098 0.111 0.132 0.041 0.035 0.093 0.052 0.146 0.047 0.003-0.009-0.057-0.019-0.123-0.077-0.038-0.033-0.069-0.075-0.091-0.123-0.012-0.028-0.020-0.057-0.024-0.087-0.006-0.033 0-0.061 0.011-0.061 0.012-0 0.025 0.002 0.036 0.007s0.022 0.013 0.030 0.023c0.022 0.020 0.043 0.043 0.062 0.068 0.031 0.042 0.057 0.089 0.075 0.138 0.034 0.084 0.035 0.144 0.044 0.143z"></path>
<path fill="#a0a3bd" d="M18.708 27.941l0.133 2.495-3.080 0.044c0.014-0.3 1.597-0.922 1.597-0.922l-0.080-1.617h1.43z"></path>
<path fill="#fff" opacity="0.36" d="M18.841 30.439l-0.012-0.254-2.95 0.137c0 0-0.136 0.061-0.119 0.161l3.081-0.044z"></path>
<path fill="#263238" d="M17.331 29.171c0.006 0.014 0.075-0.009 0.16-0.004s0.152 0.031 0.159 0.018c0.007-0.013-0.057-0.067-0.157-0.071s-0.171 0.046-0.163 0.057z"></path>
<path fill="#263238" d="M17.399 28.799c0.051 0.013 0.104 0.012 0.154-0.003 0.055-0.011 0.109-0.029 0.161-0.053 0.030-0.014 0.060-0.031 0.088-0.049 0.017-0.010 0.033-0.022 0.046-0.038 0.010-0.011 0.016-0.025 0.017-0.040s-0.003-0.030-0.012-0.042c-0.008-0.011-0.018-0.019-0.030-0.025s-0.024-0.009-0.037-0.009c-0.019 0-0.038 0.003-0.057 0.009-0.033 0.009-0.065 0.020-0.095 0.035-0.051 0.024-0.099 0.057-0.141 0.097-0.071 0.068-0.094 0.126-0.089 0.129s0.041-0.044 0.114-0.1c0.042-0.033 0.088-0.060 0.136-0.081 0.029-0.012 0.058-0.022 0.088-0.029 0.032-0.009 0.057-0.010 0.069 0.005 0.003 0.006 0.003 0.007-0.003 0.017-0.010 0.011-0.021 0.020-0.034 0.028-0.026 0.018-0.053 0.034-0.081 0.049-0.047 0.025-0.097 0.046-0.148 0.061-0.050 0.009-0.099 0.022-0.147 0.039z"></path>
<path fill="#263238" d="M17.419 28.82c0.028-0.045 0.042-0.098 0.038-0.152 0.002-0.058-0.006-0.116-0.023-0.172-0.011-0.033-0.024-0.065-0.041-0.095-0.009-0.021-0.023-0.039-0.040-0.053s-0.038-0.022-0.059-0.025c-0.014 0-0.027 0.005-0.038 0.012s-0.020 0.019-0.026 0.032c-0.008 0.018-0.013 0.038-0.015 0.058-0.005 0.035-0.005 0.071 0 0.106 0.010 0.059 0.033 0.115 0.068 0.161 0.061 0.081 0.124 0.098 0.125 0.093s-0.048-0.036-0.095-0.114c-0.027-0.044-0.044-0.095-0.051-0.148-0.004-0.030-0.004-0.061 0-0.091 0.005-0.033 0.017-0.061 0.028-0.057s0.042 0.025 0.057 0.051c0.016 0.027 0.029 0.055 0.040 0.085 0.018 0.050 0.029 0.103 0.032 0.156 0.006 0.092-0.009 0.15-0.001 0.152z"></path>
<path fill="#211f54" d="M17.871 17.876c0 0-1.202 6.307-1.202 6.522s0.464 4.877 0.464 4.877h1.762l-0.403-5.049 1.43-4.227-0.143-2.123h-1.908z"></path>
<path fill="#211f54" d="M19.634 18.959c0.029 0.21 3.569 10.054 3.569 10.054l1.749-0.666c-0.017 0-2.018-5.775-2.018-5.775s-0.064-3.080-0.234-4.608c-0.107-0.962-0.911-1.529-0.911-1.529l-2.332 1.329 0.177 1.195z"></path>
<path fill="#0075ff" d="M16.849 11.935c-0.011 0.061 1.044 3.955 1.044 3.955l0.079 1.404-0.151 0.67c0 0 1.227 0.16 2.146 0.204s1.87-1.583 1.87-1.583l-0.468-4.261-1.654-2.064-0.635 0.205c0 0-0.363 1.338-1.421 0.825l-0.143 0.088-0.668 0.557z"></path>
<path fill="#0075ff" d="M16.95 11.445l1.103-0.594 1.525-0.545c0 0 0.881-0.203 1.415 0.119 0.467 0.283 0.697 5.133 0.697 5.133l0.131 0.967-3.833 0.783 0.065-0.959c0 0-0.759-1.498-0.934-2.156-0.067-0.955-0.168-2.748-0.168-2.748z"></path>
<path fill="#fff" d="M21.32 11.86c-0.003 0.003-0.007 0.005-0.010 0.006l-0.030 0.016c-0.026 0.014-0.064 0.032-0.112 0.054-0.25 0.112-0.512 0.189-0.779 0.229-0.051 0.008-0.093 0.013-0.122 0.015l-0.033 0.003c-0.004 0.001-0.008 0.001-0.012 0.001 0.004-0.001 0.008-0.002 0.012-0.003l0.033-0.005c0.029-0.004 0.071-0.011 0.121-0.020 0.133-0.023 0.265-0.054 0.395-0.092s0.258-0.084 0.383-0.137c0.048-0.020 0.087-0.037 0.114-0.050l0.031-0.014c0.004-0.002 0.007-0.003 0.011-0.004z"></path>
<path fill="#211f54" d="M18.403 5.016c0.034-0.055 0.079-0.1 0.133-0.133s0.112-0.052 0.174-0.056c0.050-0.004 0.105 0.002 0.143-0.033 0.023-0.029 0.042-0.063 0.055-0.098 0.014-0.024 0.033-0.046 0.055-0.062s0.047-0.028 0.073-0.034c0.026-0.006 0.053-0.006 0.080-0.001s0.052 0.017 0.074 0.033c0.019 0.020 0.041 0.037 0.065 0.049 0.104 0.035 0.176-0.177 0.279-0.141-0.040 0.026-0.071 0.064-0.090 0.11-0.009 0.023-0.010 0.049-0.004 0.073s0.020 0.045 0.038 0.060c0.103 0.066 0.216-0.149 0.326-0.099 0.060 0.029 0.083 0.123 0.148 0.127 0.025-0.002 0.049-0.009 0.072-0.020 0.041-0.011 0.084-0.005 0.121 0.017s0.065 0.058 0.078 0.101c0.020 0.074 0 0.173 0.061 0.214 0.038 0.025 0.086 0.010 0.128-0.005 0.011 0.070 0.006 0.141-0.012 0.209 0.062 0.027 0.112 0.079 0.139 0.145s0.030 0.141 0.007 0.209c0.066 0.032 0.125 0.077 0.175 0.134 0.046 0.059 0.069 0.146 0.038 0.216-0.009 0.015-0.015 0.031-0.020 0.048-0.002 0.019 0.001 0.038 0.009 0.056 0.025 0.068 0.066 0.131 0.075 0.204s-0.026 0.162-0.094 0.168c-0.016 0.001-0.034-0.001-0.045 0.011-0.008 0.010-0.012 0.023-0.011 0.036 0.004 0.053 0.017 0.104 0.036 0.153s0.021 0.104 0.004 0.154c-0.021 0.048-0.084 0.075-0.121 0.040 0.033 0.077 0.065 0.153 0.098 0.23 0.019 0.046 0.037 0.102 0.012 0.143-0.034 0.054-0.117 0.033-0.158-0.016s-0.061-0.115-0.103-0.162c-0.019-0.017-0.036-0.037-0.052-0.058-0.011-0.018-0.017-0.041-0.034-0.051-0.035-0.021-0.073 0.033-0.062 0.074s0.047 0.067 0.077 0.094c0.030 0.027 0.058 0.070 0.044 0.111-0.006 0.019-0.022 0.035-0.027 0.054-0.021 0.068 0.072 0.111 0.093 0.178 0.016 0.050-0.011 0.103-0.039 0.146-0.034 0.053-0.108 0.104-0.144 0.053-0.009-0.020-0.017-0.041-0.024-0.062-0.015-0.021-0.034-0.038-0.056-0.049-0.051-0.034-0.092-0.085-0.117-0.144 0.060 0.056 0.127 0.133 0.105 0.216-0.013 0.033-0.030 0.064-0.052 0.092-0.036 0.058-0.053 0.129-0.089 0.189s-0.102 0.107-0.164 0.085c0.016 0.032 0.021 0.068 0.014 0.103s-0.023 0.067-0.048 0.091c-0.025 0.024-0.057 0.037-0.090 0.039s-0.066-0.009-0.093-0.030c-0.013-0.013-0.029-0.023-0.046-0.030-0.020-0.002-0.039 0.003-0.056 0.012-0.055 0.021-0.115 0.026-0.172 0.013s-0.111-0.042-0.154-0.085l0.054-0.033c-0.116 0.006-0.237 0.012-0.341-0.041s-0.19-0.178-0.159-0.298c0.013-0.052 0.045-0.11 0.019-0.155-0.018-0.032-0.057-0.041-0.091-0.046l-0.429-0.075c-0.069-0.012-0.143-0.026-0.196-0.075s-0.074-0.148-0.023-0.2c-0.043-0.062-0.101-0.109-0.167-0.136-0.074-0.031-0.156-0.035-0.231-0.061s-0.151-0.088-0.16-0.172c-0.009-0.084 0.087-0.173 0.152-0.12-0.032-0.125-0.243-0.092-0.282-0.214-0.032-0.099 0.081-0.176 0.13-0.267-0.019-0.032-0.056-0.049-0.076-0.082-0.041-0.068 0.017-0.155 0.079-0.203s0.137-0.098 0.14-0.18c0.003-0.081-0.075-0.16-0.048-0.238 0.008-0.021 0.024-0.038 0.043-0.048s0.042-0.011 0.062-0.003c0.029-0.157 0.302-0.096 0.354-0.246 0.005-0.012 0.006-0.025 0.003-0.037-0.004-0.010-0.010-0.019-0.018-0.026-0.036-0.034-0.086-0.047-0.128-0.071s-0.083-0.070-0.074-0.121c0.009-0.051 0.093-0.066 0.101-0.015 0.011-0.013 0.024-0.023 0.039-0.029s0.031-0.009 0.047-0.008c0.016 0.001 0.032 0.006 0.046 0.015s0.026 0.021 0.035 0.035c0.025-0.049 0.088-0.061 0.139-0.041 0.048 0.024 0.089 0.060 0.122 0.104z"></path>
<path fill="#4b3cfb" d="M19.317 6.505c-0.082-0.2-0.257-0.337-0.439-0.432-0.074-0.045-0.158-0.069-0.243-0.070-0.085 0.004-0.172 0.056-0.199 0.143l0.040 0.147c0.028 0.242 0.236 0.403 0.359 0.607 0.053 0.089 0.105 0.198 0.199 0.22 0.051 0.009 0.104-0.003 0.147-0.034 0.176-0.111 0.218-0.379 0.136-0.581z"></path>
<path fill="#211f54" d="M19.547 7.599c0.042-0.105 0.049-0.222 0.019-0.332s-0.095-0.204-0.183-0.268c0.058-0.129-0.005-0.29-0.11-0.379s-0.239-0.122-0.369-0.152c-0.13-0.305-0.51-0.45-0.789-0.303-0.204-0.207-0.54-0.167-0.785-0.022-0.057 0.040-0.12 0.071-0.186 0.092-0.050 0.007-0.1 0.011-0.15 0.011-0.275 0.025-0.498 0.291-0.547 0.584-0.005 0.047-0.015 0.094-0.031 0.138-0.025 0.056-0.072 0.097-0.109 0.145-0.040 0.052-0.069 0.113-0.085 0.179s-0.019 0.134-0.008 0.201c0.018 0.113 0.076 0.224 0.053 0.336-0.011 0.056-0.043 0.107-0.049 0.164-0.018 0.165 0.172 0.286 0.176 0.451 0.002 0.033-0.007 0.067-0.009 0.1-0.004 0.070 0.016 0.139 0.057 0.195 0.031 0.042 0.074 0.077 0.087 0.129 0.006 0.040 0.006 0.081 0.002 0.122 0.002 0.1 0.267 0.421 0.354 0.455l2.285-0.522c0.082-0.041 0.15-0.109 0.194-0.194s0.063-0.183 0.054-0.28c-0.007-0.032-0.006-0.065 0.003-0.095 0.014-0.023 0.032-0.043 0.053-0.059 0.129-0.12 0.102-0.342 0.050-0.517-0.009-0.024-0.013-0.050-0.014-0.075 0.006-0.036 0.018-0.071 0.036-0.103z"></path>
<path fill="#ffbf9d" d="M18.894 7.758c-0.083-0.437-0.438-0.877-0.883-0.994-0.282-0.074-0.478-0.028-0.614-0.013-0.19 0.025-0.369 0.112-0.513 0.25-0.119 0.062-0.487 0.627-0.409 1.126 0.086 0.555 0.211 1.228 0.359 1.621 0.298 0.79 0.903 0.748 0.903 0.748l0.225 1.377 1.393-1.417-0.461-2.699z"></path>
<path fill="#211f54" d="M18.015 8.697c0.003 0.031 0.018 0.060 0.040 0.080s0.051 0.030 0.080 0.027c0.014-0.001 0.028-0.004 0.041-0.011s0.024-0.016 0.034-0.027c0.009-0.011 0.017-0.025 0.022-0.039s0.007-0.030 0.006-0.045c-0.003-0.031-0.017-0.060-0.040-0.080s-0.051-0.030-0.080-0.027c-0.014 0.001-0.028 0.004-0.041 0.011s-0.024 0.016-0.034 0.027c-0.010 0.011-0.017 0.025-0.022 0.039s-0.007 0.030-0.006 0.045z"></path>
<path fill="#211f54" d="M16.884 8.783c0.003 0.031 0.018 0.060 0.040 0.080s0.051 0.030 0.080 0.027c0.014-0.001 0.028-0.004 0.041-0.011s0.024-0.016 0.034-0.027c0.010-0.011 0.017-0.025 0.022-0.039s0.007-0.030 0.006-0.045c-0.003-0.031-0.017-0.060-0.040-0.080s-0.051-0.030-0.080-0.027c-0.014 0.001-0.028 0.004-0.041 0.011s-0.024 0.016-0.034 0.027c-0.010 0.011-0.017 0.025-0.022 0.039s-0.007 0.030-0.006 0.045z"></path>
<path fill="#211f54" d="M16.645 8.413c0.015 0.014 0.092-0.064 0.21-0.079s0.214 0.038 0.225 0.021c0.006-0.008-0.011-0.032-0.053-0.059-0.056-0.032-0.12-0.044-0.182-0.036s-0.12 0.037-0.166 0.083c-0.032 0.035-0.042 0.065-0.034 0.071z"></path>
<path fill="#211f54" d="M17.86 8.335c0.017 0.012 0.086-0.073 0.202-0.102s0.216 0.014 0.226-0.005c0.005-0.008-0.015-0.032-0.059-0.053-0.059-0.026-0.124-0.031-0.186-0.015-0.061 0.014-0.116 0.050-0.157 0.101-0.029 0.038-0.035 0.069-0.027 0.074z"></path>
<path fill="#211f54" d="M17.503 9.306c-0-0.007-0.076-0.011-0.198-0.013-0.031 0.001-0.062-0.002-0.068-0.024s-0.001-0.060 0.009-0.1c0.020-0.083 0.040-0.169 0.062-0.262 0.085-0.372 0.143-0.677 0.129-0.68s-0.094 0.295-0.18 0.668c-0.021 0.091-0.040 0.179-0.058 0.263-0.007 0.039-0.022 0.084-0.001 0.131 0.006 0.011 0.014 0.020 0.023 0.028s0.021 0.012 0.032 0.014c0.017 0.003 0.035 0.003 0.052 0.001 0.122-0.008 0.197-0.018 0.196-0.025z"></path>
<path fill="#ff9a6c" d="M17.589 9.609c0.019-0.034 0.046-0.062 0.078-0.081s0.068-0.030 0.105-0.030c0.027-0.001 0.053 0.004 0.078 0.015s0.047 0.026 0.066 0.046c0.018 0.019 0.031 0.044 0.035 0.072s0.002 0.055-0.009 0.080c-0.027 0.053-0.093 0.073-0.15 0.063-0.059-0.014-0.114-0.041-0.163-0.078-0.015-0.009-0.028-0.020-0.038-0.034-0.005-0.007-0.008-0.015-0.009-0.023s0.001-0.017 0.004-0.025z"></path>
<path fill="#211f54" d="M17.864 9.349c-0.019 0.001-0.004 0.141-0.104 0.254s-0.239 0.116-0.238 0.136c0.001 0.009 0.034 0.023 0.093 0.017 0.076-0.009 0.147-0.046 0.2-0.105 0.051-0.057 0.079-0.133 0.079-0.212-0.003-0.059-0.022-0.091-0.030-0.089z"></path>
<path fill="#211f54" d="M17.713 7.84c0.019 0.032 0.132-0.013 0.273-0.029s0.261-0.002 0.273-0.037c0.005-0.017-0.021-0.045-0.073-0.067-0.068-0.026-0.141-0.035-0.213-0.026s-0.141 0.035-0.203 0.077c-0.046 0.034-0.066 0.067-0.057 0.082z"></path>
<path fill="#211f54" d="M16.626 7.856c0.024 0.026 0.103-0.014 0.202-0.029s0.184-0.004 0.201-0.037c0.007-0.016-0.010-0.043-0.049-0.066-0.053-0.028-0.112-0.037-0.17-0.027-0.058 0.009-0.112 0.037-0.155 0.080-0.031 0.036-0.039 0.067-0.029 0.079z"></path>
<path fill="#894943" d="M17.738 10.496c0.36-0.084 0.692-0.274 0.958-0.55 0 0-0.147 0.646-0.925 0.76l-0.034-0.211z"></path>
<path fill="#ffbf9d" d="M18.939 8.567c-0.013-0.061 0.021-0.221 0.076-0.245 0.144-0.063 0.416-0.117 0.507 0.291 0.124 0.558-0.421 0.577-0.425 0.562s-0.113-0.398-0.158-0.608z"></path>
<path fill="#894943" d="M19.193 8.933c0.002-0.002 0.010 0.004 0.028 0.008 0.024 0.004 0.048-0.001 0.068-0.016 0.050-0.037 0.075-0.141 0.055-0.242-0.009-0.048-0.029-0.094-0.056-0.133-0.009-0.016-0.021-0.030-0.036-0.040s-0.031-0.016-0.049-0.017c-0.011-0-0.022 0.004-0.030 0.011s-0.015 0.018-0.017 0.029c-0.003 0.017 0.002 0.028-0 0.029s-0.013-0.006-0.014-0.032c-0-0.015 0.004-0.029 0.012-0.040 0.012-0.015 0.028-0.025 0.047-0.027 0.022-0.001 0.044 0.004 0.064 0.015s0.037 0.027 0.049 0.047c0.033 0.043 0.055 0.093 0.066 0.148 0.022 0.113-0.008 0.233-0.078 0.275-0.013 0.008-0.027 0.012-0.042 0.014s-0.030-0.001-0.044-0.007c-0.019-0.008-0.024-0.020-0.023-0.021z"></path>
<path fill="#211f54" d="M16.362 8.164c0.089-0.097 0.136-0.209 0.101-0.34 0.074 0.005 0.124-0.109 0.151-0.184s0.069-0.12 0.049-0.197c-0.005-0.015-0.006-0.031-0.003-0.047 0.006-0.024 0.028-0.037 0.049-0.050 0.051-0.033 0.094-0.080 0.124-0.135s0.047-0.118 0.049-0.182c0.123 0.024 0.249 0.016 0.368-0.025 0.036 0.035 0.080 0.060 0.127 0.072s0.097 0.011 0.144-0.003c0.047-0.014 0.090-0.041 0.125-0.078s0.060-0.082 0.075-0.133c0.025 0.030 0.055 0.053 0.090 0.069s0.071 0.024 0.108 0.023c0.074-0.002 0.147-0.016 0.218-0.041 0.003 0.079 0.033 0.154 0.083 0.212s0.118 0.094 0.191 0.103c0.010-0.001 0.020 0 0.029 0.003s0.018 0.008 0.026 0.015c0.009 0.020 0.011 0.043 0.004 0.064-0.003 0.035 0.001 0.069 0.011 0.103s0.026 0.064 0.047 0.090c0.021 0.026 0.047 0.048 0.076 0.063s0.060 0.024 0.093 0.026c-0.016 0.024-0.026 0.051-0.031 0.080s-0.003 0.058 0.005 0.086 0.021 0.054 0.039 0.075c0.018 0.022 0.041 0.039 0.066 0.049 0.022 0.008 0.049 0.016 0.052 0.041 0 0.009-0.002 0.019-0.006 0.027-0.027 0.065-0.053 0.135-0.042 0.205s0.070 0.137 0.135 0.123c-0.015 0.019-0.026 0.041-0.033 0.065s-0.009 0.049-0.007 0.074c0.010 0.049 0.067 0.087 0.104 0.059 0.016-0.012 0.263-0.131 0.271-0.15 0.1-0.252-0.135-0.443-0.207-0.706-0.077-0.263-0.209-0.503-0.387-0.701-0.071-0.086-0.153-0.161-0.242-0.223-0.106-0.065-0.218-0.117-0.334-0.155-0.15-0.055-0.304-0.11-0.462-0.11-0.295-0.001-0.563 0.181-0.796 0.376-0.091 0.071-0.173 0.156-0.243 0.251-0.076 0.12-0.132 0.253-0.165 0.394-0.054 0.201-0.090 0.412-0.065 0.619z"></path>
<path fill="#4a4566" d="M16.218 7.994c0.002-0.023 0.007-0.046 0.015-0.068 0.007-0.021 0.018-0.047 0.026-0.078 0.010-0.036 0.012-0.074 0.007-0.112-0.007-0.047-0.017-0.093-0.032-0.138-0.017-0.054-0.028-0.11-0.031-0.167-0.002-0.066 0.008-0.132 0.031-0.193 0.012-0.033 0.028-0.065 0.047-0.095 0.020-0.031 0.043-0.059 0.068-0.086s0.047-0.059 0.063-0.093c0.014-0.038 0.022-0.077 0.027-0.117 0.028-0.181 0.115-0.346 0.245-0.464 0.035-0.032 0.073-0.059 0.114-0.082 0.042-0.023 0.087-0.040 0.133-0.051 0.023-0.005 0.047-0.009 0.071-0.011s0.048-0.004 0.072-0.005c0.048-0.001 0.095-0.012 0.139-0.034s0.086-0.051 0.131-0.076c0.045-0.026 0.093-0.047 0.141-0.064s0.1-0.031 0.151-0.039c0.052-0.008 0.106-0.011 0.159-0.008 0.11 0.005 0.215 0.048 0.301 0.121l0.025 0.023-0.009-0.001c0.145-0.069 0.309-0.075 0.458-0.018s0.272 0.175 0.343 0.328l-0.005-0.005c0.069 0.015 0.137 0.034 0.204 0.058 0.065 0.023 0.126 0.059 0.179 0.106 0.051 0.047 0.088 0.108 0.109 0.176 0.021 0.065 0.017 0.137-0.009 0.2l-0.003-0.009c0.086 0.061 0.15 0.152 0.181 0.258 0.029 0.094 0.031 0.196 0.005 0.291-0.006 0.022-0.014 0.043-0.023 0.064s-0.018 0.039-0.025 0.059c-0.007 0.019-0.009 0.039-0.007 0.059s0.008 0.039 0.014 0.058c0.021 0.069 0.034 0.141 0.040 0.214 0.005 0.059-0.001 0.118-0.017 0.174-0.012 0.041-0.033 0.079-0.061 0.111-0.023 0.026-0.045 0.039-0.056 0.052-0.006 0.007-0.011 0.014-0.016 0.022 0.003-0.009 0.008-0.016 0.014-0.023 0.011-0.014 0.033-0.029 0.054-0.054 0.027-0.031 0.047-0.069 0.059-0.11 0.015-0.056 0.020-0.114 0.014-0.172-0.006-0.072-0.020-0.143-0.041-0.211-0.006-0.019-0.011-0.039-0.015-0.059-0.003-0.022-0-0.044 0.007-0.064s0.016-0.041 0.025-0.060c0.009-0.020 0.016-0.041 0.021-0.062 0.025-0.093 0.023-0.192-0.006-0.284-0.030-0.103-0.092-0.191-0.176-0.25l-0.005-0.003 0.003-0.006c0.025-0.060 0.028-0.129 0.008-0.191-0.020-0.066-0.056-0.124-0.105-0.169-0.052-0.045-0.111-0.080-0.175-0.103-0.066-0.024-0.134-0.043-0.202-0.057l-0.004 0-0-0.004c-0.070-0.148-0.19-0.261-0.335-0.316s-0.304-0.049-0.445 0.018l-0.005 0.002-0.004-0.004-0.024-0.022c-0.084-0.071-0.186-0.112-0.292-0.117-0.052-0.003-0.104-0.001-0.155 0.007s-0.101 0.021-0.149 0.038c-0.048 0.017-0.094 0.038-0.139 0.063s-0.086 0.054-0.132 0.076c-0.023 0.011-0.046 0.020-0.071 0.026s-0.049 0.008-0.074 0.009c-0.024 0.002-0.048 0.002-0.072 0.003s-0.046 0.006-0.069 0.011c-0.045 0.010-0.088 0.027-0.129 0.049-0.040 0.022-0.077 0.049-0.112 0.079-0.128 0.116-0.214 0.277-0.242 0.455-0.004 0.041-0.014 0.082-0.028 0.121-0.017 0.036-0.039 0.068-0.066 0.096-0.024 0.026-0.047 0.054-0.067 0.084-0.019 0.029-0.034 0.060-0.046 0.092-0.022 0.060-0.033 0.124-0.031 0.189 0.003 0.056 0.013 0.111 0.030 0.164 0.014 0.045 0.024 0.092 0.031 0.139 0.005 0.038 0.002 0.077-0.009 0.114-0.009 0.032-0.021 0.057-0.028 0.078-0.006 0.016-0.011 0.032-0.015 0.049-0.001 0.012-0.003 0.018-0.003 0.018z"></path>
<path fill="#4a4566" d="M17.846 6.102c0 0-0.015-0.005-0.044-0.012-0.039-0.010-0.080-0.012-0.121-0.007-0.059 0.007-0.116 0.031-0.164 0.069-0.059 0.048-0.102 0.114-0.123 0.19-0.006 0.023-0.010 0.046-0.012 0.070-0.001 0.010-0.001 0.021 0.002 0.031s0.008 0.019 0.014 0.027l0.017 0.016-0.022-0.001c-0.058-0.003-0.115 0.019-0.158 0.061-0.034 0.033-0.057 0.077-0.066 0.125-0.006 0.032-0.006 0.065-0.001 0.097 0.003 0.011 0.005 0.023 0.007 0.035-0.002-0.003-0.003-0.005-0.004-0.008-0.003-0.008-0.006-0.017-0.008-0.025-0.008-0.032-0.009-0.066-0.004-0.099 0.008-0.051 0.031-0.099 0.067-0.134 0.045-0.045 0.105-0.069 0.166-0.066l-0.006 0.015c-0.008-0.009-0.015-0.021-0.018-0.033s-0.005-0.025-0.003-0.038c0.002-0.025 0.006-0.050 0.013-0.074 0.022-0.079 0.068-0.149 0.13-0.198 0.042-0.033 0.091-0.055 0.142-0.064s0.104-0.007 0.154 0.009c0.011 0.003 0.021 0.008 0.032 0.013 0.008 0.002 0.011 0.005 0.011 0.005z"></path>
<path fill="#4a4566" d="M18.824 6.536c-0.003 0.009-0.008 0.017-0.014 0.025-0.014 0.021-0.031 0.041-0.050 0.059-0.028 0.027-0.061 0.047-0.096 0.059-0.046 0.015-0.095 0.012-0.138-0.010l0.011-0.005c-0.003 0.009-0.007 0.017-0.010 0.027s-0.009 0.018-0.013 0.026c-0.027 0.049-0.065 0.090-0.111 0.119-0.037 0.024-0.078 0.040-0.12 0.047-0.028 0.005-0.057 0.005-0.086 0-0.011-0.001-0.021-0.004-0.031-0.009 0.038 0.004 0.077 0.003 0.115-0.003 0.041-0.008 0.079-0.025 0.114-0.049 0.043-0.028 0.079-0.068 0.105-0.114 0.004-0.009 0.009-0.017 0.013-0.025s0.007-0.017 0.010-0.025l0.003-0.009 0.008 0.004c0.040 0.020 0.084 0.023 0.126 0.010 0.034-0.011 0.066-0.029 0.094-0.053 0.048-0.041 0.069-0.075 0.071-0.073z"></path>
<path fill="#4a4566" d="M19.209 6.986c0 0 0 0.004 0.001 0.011-0.001 0.010-0.003 0.020-0.006 0.030-0.013 0.035-0.039 0.064-0.071 0.081-0.048 0.022-0.101 0.029-0.153 0.019-0.029-0.004-0.058-0.007-0.089-0.015-0.034-0.006-0.064-0.025-0.087-0.053l-0.005-0.008 0.013 0.001c-0.037 0.053-0.082 0.099-0.133 0.138-0.042 0.031-0.091 0.050-0.142 0.052-0.034 0.002-0.068-0.005-0.099-0.022-0.008-0.004-0.016-0.010-0.023-0.016-0.005-0.004-0.007-0.007-0.007-0.007s0.011 0.007 0.032 0.017c0.030 0.013 0.063 0.019 0.096 0.016 0.049-0.005 0.095-0.023 0.135-0.053 0.049-0.038 0.092-0.084 0.128-0.136l0.007-0.009 0.007 0.010 0.004 0.007c0.020 0.025 0.047 0.041 0.078 0.047 0.029 0.007 0.058 0.012 0.087 0.015 0.049 0.010 0.099 0.005 0.145-0.014 0.030-0.014 0.055-0.040 0.070-0.072 0.005-0.012 0.009-0.025 0.012-0.039z"></path>
<path fill="#4a4566" d="M19.339 4.852c0 0-0.009 0.003-0.024 0.011-0.021 0.013-0.038 0.031-0.049 0.054-0.017 0.036-0.023 0.077-0.016 0.117 0.010 0.052 0.028 0.102 0.052 0.148l0.004 0.008-0.009 0.001c-0.065 0.014-0.123 0.050-0.167 0.104-0.025 0.029-0.043 0.065-0.053 0.103s-0.011 0.079-0.004 0.117c0.006 0.036 0.019 0.069 0.039 0.098s0.046 0.053 0.076 0.069l0.020 0.010-0.022 0.005c-0.037 0.009-0.071 0.027-0.101 0.051s-0.055 0.055-0.074 0.091c-0.030 0.057-0.040 0.124-0.030 0.188 0.007 0.043 0.022 0.083 0.044 0.119 0.016 0.025 0.027 0.037 0.026 0.038s-0.003-0.002-0.009-0.008-0.015-0.017-0.021-0.027c-0.031-0.045-0.049-0.099-0.053-0.156s0.008-0.112 0.032-0.162c0.019-0.038 0.046-0.071 0.078-0.097s0.069-0.045 0.108-0.055l-0.002 0.016c-0.032-0.017-0.060-0.043-0.082-0.074s-0.036-0.067-0.043-0.106c-0.008-0.042-0.007-0.086 0.005-0.128 0.011-0.039 0.030-0.076 0.055-0.107 0.046-0.056 0.108-0.093 0.176-0.107l-0.005 0.010c-0.024-0.048-0.041-0.099-0.051-0.152-0.006-0.042 0.001-0.086 0.020-0.123 0.012-0.024 0.031-0.043 0.054-0.054 0.006-0.003 0.012-0.005 0.019-0.006 0.002 0 0.004 0 0.006 0.001z"></path>
<path fill="#4a4566" d="M20.523 5.835c0 0-0.002 0.003-0.007 0.008-0.007 0.007-0.015 0.013-0.023 0.019-0.031 0.022-0.064 0.040-0.099 0.051-0.054 0.019-0.111 0.025-0.167 0.019-0.073-0.007-0.142-0.034-0.201-0.080l0.011-0.004c-0.015 0.052-0.040 0.099-0.074 0.139s-0.076 0.071-0.122 0.091c-0.050 0.020-0.105 0.023-0.158 0.008s-0.098-0.047-0.132-0.092l0.013-0.004c-0.005 0.040-0.019 0.078-0.042 0.11-0.021 0.028-0.046 0.053-0.074 0.072-0.047 0.030-0.1 0.050-0.154 0.057-0.035 0.005-0.070 0.008-0.106 0.008-0.013 0.001-0.025 0-0.038-0.001 0.012-0.002 0.025-0.003 0.038-0.003 0.035-0.002 0.070-0.006 0.105-0.012 0.053-0.008 0.104-0.028 0.15-0.059 0.029-0.019 0.053-0.044 0.072-0.074s0.031-0.064 0.036-0.1l0.002-0.020 0.011 0.016c0.032 0.042 0.076 0.072 0.125 0.087s0.101 0.012 0.148-0.007c0.044-0.019 0.084-0.049 0.117-0.087s0.057-0.083 0.071-0.132l0.003-0.011 0.008 0.006c0.057 0.045 0.124 0.072 0.194 0.080 0.055 0.006 0.11 0.001 0.163-0.015 0.047-0.016 0.091-0.040 0.131-0.070z"></path>
<path fill="#4a4566" d="M20.154 6.788c0 0 0 0.004-0.004 0.012-0.007 0.010-0.016 0.017-0.026 0.021-0.038 0.014-0.079 0.017-0.119 0.009-0.059-0.010-0.114-0.040-0.157-0.086-0.052-0.057-0.083-0.133-0.086-0.213l-0-0.002 0.013 0.007c-0.058 0.050-0.128 0.078-0.202 0.082-0.059 0.003-0.119-0.009-0.173-0.034-0.037-0.017-0.071-0.039-0.102-0.066-0.012-0.009-0.022-0.019-0.031-0.031 0.042 0.035 0.088 0.064 0.137 0.087 0.053 0.023 0.111 0.033 0.168 0.029 0.070-0.005 0.137-0.033 0.192-0.081l0.012-0.011 0.001 0.019c0.003 0.076 0.031 0.148 0.080 0.202 0.040 0.044 0.092 0.074 0.149 0.085 0.038 0.009 0.077 0.008 0.115-0.002 0.014-0.004 0.025-0.014 0.032-0.027z"></path>
<path fill="#4a4566" d="M18.209 5.153c-0.006 0.060-0.001 0.12 0.013 0.178 0.018 0.069 0.053 0.132 0.102 0.18s0.11 0.082 0.175 0.095c0.041 0.009 0.084 0.010 0.126 0.004l0.010-0.001 0.001 0.011c-0.004 0.063 0.002 0.125 0.019 0.185 0.014 0.048 0.034 0.093 0.060 0.135 0.010 0.016 0.020 0.031 0.032 0.045 0.004 0.005 0.009 0.009 0.014 0.012s0.011 0.004 0.018 0.004c0.004-0 0.008-0.002 0.011-0.004s0.006-0.005 0.008-0.008c0.003-0.005 0.003-0.008 0.003-0.008s0 0.004-0.001 0.010c-0.002 0.004-0.005 0.008-0.009 0.011s-0.008 0.005-0.012 0.005c-0.007 0.001-0.014 0-0.021-0.003s-0.013-0.007-0.018-0.013c-0.012-0.014-0.024-0.029-0.034-0.045-0.028-0.042-0.049-0.088-0.065-0.136-0.019-0.062-0.026-0.127-0.022-0.191l0.009 0.009c-0.044 0.007-0.088 0.006-0.131-0.003-0.068-0.014-0.131-0.048-0.182-0.1s-0.087-0.117-0.104-0.189c-0.010-0.043-0.014-0.088-0.011-0.132 0.001-0.012 0.003-0.024 0.005-0.036-0-0.010 0.001-0.014 0.001-0.014z"></path>
<path fill="#4b3cfb" d="M19.418 9.214c0.002 0.037-0.005 0.073-0.022 0.105s-0.042 0.057-0.073 0.074c-0.030 0.016-0.065 0.023-0.099 0.018s-0.065-0.020-0.091-0.044c-0.026-0.024-0.044-0.056-0.053-0.091s-0.008-0.073 0.003-0.108c0.011-0.035 0.031-0.065 0.058-0.088s0.059-0.036 0.093-0.038c0.023-0.002 0.045 0.001 0.067 0.009s0.041 0.020 0.058 0.036c0.017 0.016 0.031 0.035 0.041 0.057s0.016 0.046 0.018 0.070z"></path>
<path fill="#fff" d="M20.725 14.154c-0.003 0.001-0.006 0.002-0.008 0.002l-0.025 0.005-0.096 0.017c-0.084 0.014-0.205 0.034-0.355 0.058-0.3 0.047-0.715 0.154-1.174 0.21s-0.876 0.049-1.178 0.077c-0.151 0.013-0.273 0.023-0.358 0.029l-0.123 0.009c-0.003 0.001-0.006 0.001-0.009 0.001 0.003-0.001 0.006-0.001 0.009-0.001l0.025-0.002 0.097-0.010 0.357-0.034c0.301-0.030 0.718-0.025 1.177-0.082s0.874-0.161 1.174-0.205l0.355-0.053 0.097-0.014 0.025-0.002 0.008-0.006z"></path>
<path fill="#000" opacity="0.09" d="M20.181 11.716l0.472 2.006 0.232 0.042 0.111 0.859-2.047 3.296h0.932l0.202-0.59 1.682-1.21v-0.284l-0.645-2.498-0.308 0.172-0.63-1.792z"></path>
<path fill="#0075ff" d="M16.954 11.444c-0.382 0.37-0.556 0.762-0.743 1.211-0.338 0.838-0.42 1.153-0.42 1.153l1.451 0.75-0.093-0.564-0.194-2.55z"></path>
<path fill="#ffbf9d" d="M15.604 11.56l-0.412 2.641 1.025 0.628 0.183-3.285-0.797 0.016z"></path>
<path fill="#ffbf9d" d="M15.192 14.201c0 0-0.173 0.976 0.562 1.303 0.546 0.243 1.159-0.288 1.316-1.043l-0.801-0.401-1.077 0.142z"></path>
<path fill="#ff9a6c" d="M16.263 13.858c0.010 0.053 0.015 0.107 0.015 0.161 0.009 0.262-0.015 0.524-0.072 0.779-0.009 0.053-0.024 0.105-0.044 0.155 0.006-0.054 0.014-0.107 0.026-0.16 0.017-0.098 0.038-0.234 0.051-0.386s0.018-0.289 0.019-0.386c-0.002-0.055-0-0.11 0.005-0.164z"></path>
<path fill="#ffbf9d" d="M16.4 11.559c0.005-0.021 0.228-0.906 0.228-0.906l-0.125-0.868c0 0-0.023-0.257-0.153-0.207s-0.088 0.331-0.088 0.331l-0.457 0.527-0.118-0.079c-0.078 0.090-0.124 0.207-0.131 0.331 0 0.183 0.045 0.874 0.045 0.874z"></path>
<path fill="#ff9a6c" d="M15.604 11.559c-0.002-0.007-0.003-0.015-0.003-0.023l-0.005-0.067c-0.004-0.061-0.010-0.147-0.016-0.253s-0.014-0.242-0.023-0.392c0-0.038-0.005-0.077-0.007-0.117-0.003-0.042 0-0.085 0.010-0.126 0.023-0.088 0.064-0.169 0.121-0.236l0.007-0.008 0.008 0.006 0.118 0.079h-0.015l0.456-0.528-0.004 0.012c-0.009-0.063-0.009-0.127 0-0.191 0.005-0.033 0.015-0.066 0.031-0.095 0.017-0.030 0.044-0.053 0.076-0.062 0.016-0.005 0.033-0.005 0.049 0.001s0.030 0.015 0.042 0.028c0.020 0.024 0.035 0.053 0.044 0.085 0.015 0.059 0.026 0.119 0.032 0.18 0.009 0.058 0.017 0.116 0.025 0.172 0.032 0.226 0.061 0.436 0.088 0.623v0.005l-0.171 0.661c-0.020 0.076-0.038 0.137-0.051 0.182-0.005 0.019-0.010 0.035-0.013 0.047-0.001 0.005-0.003 0.011-0.006 0.015-0-0.006 0.001-0.011 0.003-0.017 0-0.013 0.006-0.029 0.010-0.048 0.011-0.045 0.025-0.106 0.043-0.184 0.039-0.161 0.095-0.386 0.162-0.661v0.005c-0.028-0.187-0.058-0.397-0.091-0.623-0.008-0.055-0.017-0.115-0.026-0.173-0.006-0.059-0.016-0.117-0.032-0.174-0.008-0.027-0.021-0.053-0.038-0.075-0.008-0.010-0.019-0.017-0.030-0.021s-0.024-0.004-0.036 0c-0.025 0.011-0.047 0.029-0.062 0.053s-0.024 0.052-0.025 0.081c-0.008 0.060-0.008 0.121 0 0.181v0.007l-0.004 0.005-0.465 0.534-0.008-0.006-0.118-0.079h0.014c-0.055 0.064-0.095 0.141-0.117 0.225-0.013 0.078-0.014 0.158-0.005 0.236 0.007 0.15 0.013 0.282 0.017 0.392s0.008 0.192 0.010 0.253c0 0.028 0 0.050 0 0.067 0.002 0.006 0.003 0.013 0.003 0.020z"></path>
<path fill="#ffbf9d" d="M15.767 10.561c0.024 0.010 0.048 0.019 0.073 0.026 0 0-0.025 0.244 0.043 0.253 0.17 0.024 0.165-0.217 0.165-0.217s0.028 0.152 0.115 0.15c0.087-0.001 0.144-0.025 0.128-0.197l-0.029-0.313c-0.005-0.032-0.021-0.061-0.044-0.082l-0.080-0.061 0.194 0.048c0 0 0.085 0.165 0.173 0.118 0.019-0.012 0.033-0.030 0.041-0.052s0.007-0.046-0.001-0.068c-0.020-0.069-0.049-0.135-0.085-0.195-0.051-0.063-0.323-0.187-0.384-0.159s-0.096 0.215-0.096 0.215-0.137 0.022-0.173 0.22c-0.063 0.037-0.116 0.091-0.153 0.158z"></path>
<path fill="#ff9a6c" d="M15.654 10.408c0 0 0-0.005 0.006-0.014 0.007-0.013 0.015-0.026 0.024-0.037 0.033-0.046 0.074-0.084 0.121-0.113l-0.004 0.005c0.007-0.047 0.023-0.092 0.047-0.132 0.030-0.050 0.076-0.085 0.13-0.099l-0.008 0.008c0.008-0.043 0.020-0.085 0.035-0.126 0.008-0.022 0.018-0.044 0.031-0.063 0.007-0.011 0.016-0.021 0.026-0.028s0.024-0.012 0.037-0.011c0.048 0.004 0.095 0.015 0.14 0.034 0.047 0.018 0.093 0.040 0.137 0.064 0.024 0.013 0.046 0.028 0.067 0.045 0.022 0.019 0.040 0.043 0.051 0.070 0.026 0.053 0.047 0.108 0.063 0.165 0.004 0.017 0.004 0.034 0 0.051s-0.010 0.033-0.020 0.046c-0.010 0.014-0.024 0.025-0.040 0.031s-0.032 0.008-0.049 0.004c-0.031-0.010-0.058-0.029-0.079-0.055-0.021-0.024-0.039-0.050-0.054-0.079l0.009 0.007-0.034-0.008-0.16-0.040 0.011-0.026 0.080 0.061c0.016 0.016 0.029 0.035 0.039 0.055 0.005 0.011 0.008 0.023 0.009 0.035v0.032c0.004 0.042 0.008 0.083 0.011 0.124s0.008 0.081 0.011 0.12c0.005 0.039 0.006 0.079 0.005 0.119 0.001 0.021-0.003 0.042-0.011 0.061s-0.021 0.036-0.036 0.049c-0.032 0.017-0.067 0.024-0.102 0.020-0.017-0.003-0.034-0.010-0.048-0.022s-0.026-0.026-0.034-0.043c-0.016-0.029-0.027-0.061-0.034-0.095h0.020c0.003 0.070-0.020 0.138-0.062 0.19-0.021 0.022-0.049 0.034-0.079 0.036-0.013 0.002-0.027 0.002-0.040 0-0.006-0.004-0.011-0.009-0.016-0.015s-0.007-0.013-0.008-0.021c-0.014-0.043-0.020-0.089-0.017-0.134 0-0.032 0.002-0.064 0.006-0.096l0.003 0.004-0.055-0.021c-0.006-0.002-0.012-0.005-0.017-0.008 0.006 0 0.012 0.002 0.018 0.004l0.055 0.018h0.003v0.003c-0.001 0.032-0.001 0.063 0 0.095-0.001 0.043 0.005 0.087 0.019 0.127 0.006 0.009 0.012 0.020 0.021 0.021 0.011 0.001 0.023 0.001 0.035 0 0.025-0.002 0.050-0.013 0.068-0.032 0.038-0.049 0.058-0.112 0.054-0.176v-0.093l0.019 0.091c0.006 0.030 0.017 0.060 0.032 0.086 0.006 0.014 0.015 0.026 0.027 0.036s0.025 0.016 0.039 0.019c0.031 0.003 0.062-0.003 0.090-0.018 0.012-0.011 0.022-0.024 0.028-0.040s0.009-0.032 0.008-0.049c0.001-0.038-0.001-0.077-0.006-0.115-0.004-0.039-0.008-0.079-0.011-0.12l-0.012-0.124-0.003-0.031c-0.001-0.009-0.003-0.018-0.007-0.026-0.009-0.017-0.021-0.033-0.035-0.047l-0.080-0.061-0.055-0.042 0.065 0.016 0.194 0.048h0.006l0.003 0.006c0.024 0.053 0.065 0.095 0.116 0.118 0.011 0.003 0.023 0.002 0.034-0.003s0.021-0.012 0.028-0.022c0.007-0.010 0.012-0.022 0.015-0.035s0.002-0.026-0.001-0.039c-0.016-0.055-0.036-0.108-0.060-0.159-0.010-0.024-0.025-0.045-0.045-0.062s-0.042-0.030-0.064-0.042c-0.044-0.024-0.088-0.046-0.134-0.064-0.042-0.018-0.086-0.030-0.131-0.034-0.009-0-0.019 0.002-0.027 0.007s-0.015 0.012-0.020 0.021c-0.012 0.018-0.022 0.038-0.029 0.058-0.015 0.040-0.027 0.080-0.036 0.122v0.007h-0.006c-0.049 0.013-0.091 0.044-0.12 0.089-0.024 0.037-0.040 0.080-0.049 0.124v0.003c-0.046 0.026-0.087 0.062-0.121 0.105-0.030 0.039-0.039 0.057-0.041 0.056z"></path>
<path fill="#ff9a6c" d="M15.794 10.263c0-0.004 0.027-0.008 0.068 0 0.055 0.015 0.103 0.049 0.137 0.097s0.054 0.107 0.054 0.167c0 0.046-0.010 0.073-0.013 0.072-0.003-0.023-0.005-0.047-0.006-0.070-0.006-0.055-0.026-0.107-0.056-0.15-0.032-0.043-0.074-0.076-0.122-0.095-0.021-0.005-0.042-0.012-0.062-0.020z"></path>
<path fill="#4a4566" d="M22.47 30.57c-0.353-0.006-0.703-0.068-1.038-0.184-0.724-0.239-1.258-0.779-1.587-1.604-0.277-0.696-0.356-1.476-0.392-2.001-0.079-1.168 0.591-4.762 0.727-5.421 0.104-0.505 0.168-1.803-0.297-2.592-0.079-0.145-0.185-0.27-0.312-0.368s-0.27-0.167-0.423-0.202c-1.182-0.267-2.354 1.328-2.452 1.463l-2.58 5.048-0.305-0.192 2.591-5.071 0.007-0.010c0.057-0.079 1.362-1.942 2.808-1.617 0.399 0.090 0.724 0.339 0.96 0.738 0.506 0.861 0.48 2.226 0.342 2.886-0.208 1.012-0.788 4.285-0.719 5.308 0.080 1.182 0.346 2.806 1.729 3.263 1.445 0.477 2.018-0.123 2.443-0.726 0.474-0.672 0.768-1.011 1.151-1.12 0.586-0.167 0.96 0.084 1.195 0.311l-0.237 0.35c-0.011-0.019-0.394-0.422-0.869-0.287-0.285 0.081-0.546 0.394-0.962 0.984-0.376 0.536-0.883 1.043-1.78 1.043z"></path>
<path fill="#dcddeb" d="M11.671 29.445l-0.332-0.207 2.528-4.796 0.331 0.207-2.527 4.796z"></path>
<path fill="#0075ff" d="M9.3 29.715c0 0-0.176 0.016-0.235 0.072s-0.558 1.137-0.558 1.137v0.344h1.39l0.33-0.969 0.026-0.406c0.001-0.023-0.001-0.045-0.008-0.067s-0.018-0.041-0.032-0.058c-0.014-0.017-0.032-0.030-0.051-0.039s-0.040-0.014-0.061-0.014h-0.8z"></path>
<path fill="#4a4566" d="M11.575 28.503l-0.396 0.852-0.541 0.307 0.295 0.518 0.446-0.272c0.127-0.078 0.231-0.194 0.301-0.333l0.384-0.773-0.489-0.299z"></path>
<path fill="#1d53bb" d="M9.14 30.12h0.964v0.581h0.591c0 0 0.163-0.037 0.202-0.159 0.027-0.118 0.041-0.239 0.041-0.36l-0.3-0.518-0.332 0.184h-0.814c-0.061-0-0.121 0.017-0.174 0.049s-0.098 0.079-0.129 0.135l-0.048 0.088z"></path>
<path fill="#263238" d="M9.14 30.12v-0.005c0.002-0.006 0.005-0.011 0.009-0.017l0.034-0.065c0.019-0.035 0.042-0.066 0.070-0.093 0.038-0.037 0.082-0.064 0.131-0.081 0.028-0.010 0.057-0.016 0.087-0.018 0.031 0 0.063 0 0.096 0h0.737l0.34-0.188v0.006l0.295 0.517c-0.001 0.086-0.007 0.172-0.019 0.258-0.004 0.033-0.011 0.065-0.020 0.097s-0.027 0.061-0.050 0.085c-0.044 0.044-0.097 0.076-0.155 0.092h-0.598v-0.007c0-0.21 0-0.405 0-0.581l0.005 0.006-0.703-0.004 0.705-0.004v0.006c0 0.176 0 0.369 0 0.581l-0.006-0.007h0.587c0.057-0.014 0.109-0.042 0.153-0.084 0.040-0.048 0.063-0.109 0.066-0.173 0.011-0.085 0.018-0.171 0.019-0.256v0.004l-0.295-0.518h0.008l-0.334 0.181h-0.734c-0.033 0-0.066 0-0.096 0-0.029 0.002-0.058 0.008-0.086 0.017-0.047 0.016-0.091 0.042-0.128 0.078-0.028 0.026-0.051 0.056-0.070 0.090l-0.036 0.061-0.010 0.017-0.003 0.003z"></path>
<path fill="#0075ff" d="M32.090 27.402c-0.236-0.39-0.509-0.607-1.275-0.703h-0.2c-1.478 0.053-2.788 0.369-4.026 1.241-0.318 0.223-0.642 0.533-0.661 0.941-0.021 0.43 0.305 0.787 0.646 1.008 0.678 0.44 1.483 0.572 2.269 0.686 0.564 0.082 1.141 0.159 1.701 0.061s1.121-0.39 1.429-0.907c0.217-0.363 0.293-0.804 0.305-1.236 0.011-0.375 0.001-0.779-0.189-1.093z"></path>
<path fill="#211f54" d="M31.078 28.074c-0.005-0.002-0.009-0.006-0.012-0.009l-0.034-0.028c-0.046-0.035-0.094-0.064-0.145-0.088-0.132-0.065-0.342-0.103-0.603-0.1-0.52 0.007-1.245 0.031-2.018 0.24-0.363 0.093-0.719 0.218-1.063 0.375-0.15 0.069-0.294 0.151-0.431 0.246-0.061 0.043-0.119 0.093-0.171 0.148-0.046 0.053-0.084 0.112-0.114 0.176-0.026 0.059-0.045 0.121-0.057 0.184-0.010 0.058-0.014 0.117-0.012 0.176 0.005 0.095 0.024 0.188 0.057 0.276 0.030 0.074 0.065 0.146 0.105 0.215 0 0-0.003-0.004-0.010-0.012s-0.015-0.023-0.026-0.038c-0.014-0.021-0.026-0.043-0.037-0.065-0.016-0.030-0.031-0.062-0.043-0.094-0.035-0.089-0.055-0.184-0.060-0.28-0.003-0.060 0.001-0.121 0.010-0.18 0.024-0.141 0.085-0.272 0.176-0.377 0.052-0.057 0.109-0.108 0.171-0.153 0.137-0.097 0.282-0.181 0.433-0.25 0.345-0.158 0.701-0.284 1.066-0.377 0.776-0.21 1.504-0.231 2.025-0.232 0.261 0 0.474 0.042 0.607 0.111 0.051 0.025 0.1 0.057 0.144 0.094l0.033 0.031c0.005 0.007 0.009 0.011 0.008 0.012z"></path>
<path fill="#211f54" d="M25.987 28.864c-0.016 0.029-0.041 0.051-0.071 0.061s-0.062 0.008-0.091-0.005c-0.029-0.014-0.057-0.026-0.086-0.040-0.032-0.013-0.061-0.033-0.085-0.060s-0.042-0.058-0.054-0.093c-0.008-0.064 0.004-0.129 0.034-0.184 0.050-0.123 0.105-0.239 0.165-0.354 0.023-0.054 0.058-0.1 0.102-0.136 0.029-0.018 0.062-0.030 0.096-0.033s0.068 0.001 0.1 0.013c0.064 0.024 0.124 0.058 0.18 0.1 0 0 0.045 0.014 0.023 0.116-0.016 0.076-0.206 0.431-0.313 0.616z"></path>
<path fill="#211f54" d="M28.244 28.067c-0.060-0.142-0.11-0.288-0.151-0.438-0.050-0.146-0.091-0.296-0.123-0.448 0.11 0.288 0.201 0.584 0.274 0.885z"></path>
<path fill="#000" opacity="0.09" d="M32.243 30.306c0.52-0.56 0.52-1.468 0-2.029s-1.362-0.56-1.882 0c-0.52 0.56-0.52 1.468 0 2.029s1.362 0.56 1.882 0z"></path>
<path fill="#143c8b" d="M32.441 30.444c0.52-0.56 0.52-1.468 0-2.029s-1.362-0.56-1.882 0c-0.52 0.56-0.52 1.468 0 2.029s1.362 0.56 1.882 0z"></path>
<path fill="#0075ff" d="M31.506 30.628c-0.22 0-0.435-0.070-0.618-0.202s-0.326-0.319-0.41-0.538c-0.084-0.219-0.106-0.46-0.063-0.693s0.149-0.447 0.305-0.614c0.156-0.168 0.354-0.282 0.57-0.328s0.44-0.022 0.643 0.069c0.203 0.091 0.377 0.245 0.499 0.442s0.187 0.429 0.187 0.667c-0 0.318-0.118 0.623-0.326 0.848s-0.491 0.351-0.786 0.351zM31.506 28.291c-0.209 0-0.413 0.067-0.586 0.192s-0.309 0.303-0.389 0.511c-0.080 0.208-0.101 0.437-0.060 0.658s0.141 0.424 0.289 0.583c0.148 0.159 0.336 0.268 0.541 0.311s0.417 0.021 0.61-0.065c0.193-0.086 0.358-0.232 0.474-0.419s0.178-0.407 0.178-0.632c-0-0.302-0.111-0.591-0.309-0.805s-0.466-0.334-0.746-0.334v0.001z"></path>
<path fill="#0075ff" d="M19.717 10.262c0 0 0.795-0.173 1.32 0.224 0.303 0.23 1.32 2.139 1.32 2.139l-1.504 0.84-1.136-3.204z"></path>
<path fill="#ffbf9d" d="M20.948 13.412l0.254 1.045-1.619 1.853 0.363 0.901c0 0 2.206-1.497 2.504-1.971s0.108-1.187 0.035-1.448-0.317-1.060-0.317-1.060l-1.22 0.68z"></path>
<path fill="#ffbf9d" d="M17.653 18.407c0 0 0.614-0.783 0.673-0.853s0.81-0.785 0.81-0.785l0.481-0.492 0.538 0.686-0.249 0.296c0 0-0.057 0.246-0.129 0.351s-0.627 0.14-0.627 0.14l-0.082 0.285 0.072 0.119 0.155-0.018c0 0 0 0.169-0.096 0.2-0.073 0.017-0.148 0.015-0.22-0.006-0.016 0.032-0.041 0.058-0.072 0.073s-0.066 0.018-0.099 0.009c-0.018-0.006-0.036-0.015-0.052-0.027-0.074-0.052-0.13-0.129-0.16-0.218l-0.038-0.109-0.041 0.229 0.152 0.153c0.011 0.011 0.019 0.025 0.022 0.041s0.002 0.032-0.003 0.047c-0.006 0.015-0.015 0.028-0.028 0.037s-0.027 0.013-0.042 0.013h-0.022c-0.090-0.029-0.175-0.074-0.251-0.135-0.064-0.046-0.088-0.152-0.090-0.236l0.023-0.098c0 0-0.408 0.341-0.513 0.385-0.082 0.034-0.114-0.087-0.114-0.087z"></path>
<path fill="#ff9a6c" d="M22.006 14.581c-0.131-0.048-0.266-0.087-0.402-0.114-0.138-0.017-0.277-0.023-0.416-0.019 0.039-0.015 0.080-0.023 0.121-0.024 0.1-0.009 0.2-0.005 0.299 0.011s0.195 0.045 0.288 0.085c0.039 0.014 0.076 0.035 0.109 0.061z"></path>
<path fill="#ff9a6c" d="M18.522 17.523c0.003 0.005-0.028 0.029-0.067 0.078-0.050 0.065-0.089 0.14-0.114 0.22s-0.044 0.162-0.057 0.246c-0.003 0.036-0.011 0.071-0.023 0.105-0.005-0.036-0.005-0.072 0-0.108 0.008-0.087 0.025-0.173 0.052-0.256 0.026-0.084 0.069-0.161 0.127-0.224 0.023-0.027 0.051-0.048 0.083-0.061z"></path>
<path fill="#ff9a6c" d="M18.799 17.496c0 0.005-0.028 0.025-0.068 0.068-0.052 0.056-0.093 0.122-0.12 0.196-0.064 0.173-0.057 0.331-0.066 0.33-0.009-0.033-0.012-0.067-0.008-0.101 0.002-0.083 0.018-0.164 0.046-0.241s0.074-0.146 0.133-0.2c0.023-0.024 0.051-0.042 0.082-0.051z"></path>
<path fill="#ff9a6c" d="M18.99 17.496c-0.020 0.041-0.043 0.080-0.069 0.117-0.060 0.087-0.097 0.191-0.107 0.299 0.004 0.109 0.036 0.214 0.093 0.304 0.024 0.038 0.046 0.077 0.064 0.119-0.032-0.031-0.060-0.067-0.082-0.106-0.027-0.041-0.051-0.086-0.070-0.132-0.024-0.058-0.036-0.121-0.035-0.184 0.009-0.114 0.051-0.223 0.119-0.311 0.024-0.039 0.053-0.074 0.086-0.104z"></path>
<path fill="#263238" d="M22.357 12.625c-0.009 0.007-0.018 0.014-0.029 0.019l-0.085 0.051-0.317 0.184-1.081 0.61-0.006-0.017c-0.018-0.052-0.036-0.107-0.057-0.162-0.176-0.517-0.335-0.984-0.451-1.327-0.057-0.166-0.106-0.302-0.14-0.4l-0.038-0.109c-0.006-0.012-0.010-0.025-0.012-0.039 0.007 0.011 0.013 0.024 0.017 0.036 0.011 0.024 0.026 0.061 0.044 0.106 0.037 0.093 0.088 0.229 0.149 0.397 0.122 0.337 0.285 0.806 0.46 1.324 0.019 0.056 0.037 0.111 0.057 0.162l-0.021-0.009 1.070-0.592 0.322-0.174 0.087-0.046c0.010-0.007 0.020-0.012 0.031-0.016z"></path>
<path fill="#263238" d="M17.505 11.483c-0 0.011-0.002 0.021-0.004 0.032l-0.014 0.089c-0.013 0.077-0.034 0.188-0.060 0.325-0.052 0.275-0.134 0.651-0.195 1.073-0.029 0.198-0.048 0.397-0.057 0.598-0.002 0.046-0.003 0.091-0.005 0.135 0 0.043 0 0.086 0 0.127 0 0.082 0.005 0.159 0.008 0.228 0.009 0.139 0.019 0.252 0.030 0.329 0.004 0.037 0.008 0.067 0.010 0.089 0.002 0.010 0.002 0.021 0.002 0.032-0.003-0.010-0.005-0.021-0.006-0.031-0.004-0.022-0.008-0.052-0.014-0.086-0.013-0.077-0.025-0.19-0.037-0.329-0.003-0.070-0.010-0.147-0.010-0.229 0-0.043 0-0.084 0-0.13s0.002-0.089 0.004-0.135c0.008-0.201 0.026-0.401 0.054-0.6 0.062-0.423 0.146-0.799 0.201-1.072 0.028-0.135 0.050-0.245 0.066-0.324 0.008-0.036 0.014-0.066 0.018-0.086 0.002-0.011 0.005-0.022 0.009-0.032z"></path>
<path fill="#000" opacity="0.3" d="M17.385 12.066c-0.422 0.721-0.506 1.458-0.484 2.31l0.316 0.162c-0.054-0.763 0.025-1.766 0.168-2.473z"></path>
<path fill="#f7f9fc" d="M12.397 0.381h-7.212v13.969h7.212v-13.969z"></path>
<path fill="#fff" d="M12.034 0.786h-6.561v13.148h6.561v-13.148z"></path>
<path fill="#dcddeb" d="M12.702 14.476l-0.305-0.126v-14.205h0.305v14.332z"></path>
<path fill="#fff" d="M7.082 9.279l1.704-1.708c0.216-0.216 0.498-0.449 0.776-0.343 0.133 0.051 0.234 0.174 0.365 0.233 0.261 0.117 0.56-0.052 0.762-0.267s0.36-0.485 0.603-0.641c0.244-0.156 0.622-0.136 0.743 0.14v1.859l-2.476 1.143-2.477-0.416z"></path>
<path fill="#dcddeb" d="M5.473 8.211c0.628-0.276 1.255-0.041 1.704 0.506 0.095 0.115 0.181 0.246 0.311 0.312 0.176 0.086 0.381 0.022 0.571 0 0.264-0.028 0.53 0.023 0.768 0.148s0.44 0.318 0.583 0.559l-2.095 1.112-1.841-0.014-0.001-2.621z"></path>
<path fill="#eff0f7" d="M12.034 8.22c-0.414-0.215-0.778 0.045-1.159 0.321s-0.736 0.629-1.184 0.739c-0.299 0.074-0.62 0.033-0.909 0.144-0.589 0.226-0.929 1.032-1.554 1.071-0.339 0.021-0.643-0.201-0.945-0.367s-0.541-0.324-0.811-0.102v3.906h6.561v-5.713z"></path>
<path fill="#dcddeb" d="M12.177 4.568h-6.704v0.14h6.704v-0.14z"></path>
<path fill="#dcddeb" d="M12.177 7.699h-6.704v0.14h6.704v-0.14z"></path>
<path fill="#dcddeb" d="M12.177 10.83h-6.704v0.14h6.704v-0.14z"></path>
<path fill="#dcddeb" d="M8.588 4.638v9.668h0.331v-9.668h-0.331z"></path>
<path fill="#dcddeb" d="M6.887 0.786h-0.15v3.852h0.15v-3.852z"></path>
<path fill="#dcddeb" d="M8.182 0.786h-0.15v3.852h0.15v-3.852z"></path>
<path fill="#dcddeb" d="M9.477 0.786h-0.15v3.852h0.15v-3.852z"></path>
<path fill="#dcddeb" d="M10.772 0.786h-0.15v3.852h0.15v-3.852z"></path>
<path fill="#dcddeb" d="M5.185 0.144h-0.305v14.292h0.305v-14.292z"></path>
<path fill="#dcddeb" d="M12.702 0h-7.822v0.381h7.822v-0.381z"></path>
<path fill="#dcddeb" d="M12.908 14.523h-8.245v0.355h8.245v-0.355z"></path>
<path fill="#dcddeb" d="M12.397 14.35l0.512 0.173h-8.245l0.521-0.173h7.212z"></path>
<path fill="#dcddeb" d="M8.809 29.061c0.027 0.242 0.328 0.348 0.514 0.238 0.092-0.059 0.162-0.15 0.198-0.258s0.038-0.226 0.003-0.335c0.164 0.131 0.425 0.010 0.493-0.197s-0.027-0.446-0.184-0.586c-0.127-0.113-0.325-0.168-0.453-0.057 0.064-0.238-0.111-0.509-0.338-0.554s-0.466 0.115-0.556 0.344c-0.090 0.229-0.041 0.506 0.096 0.705-0.135-0.061-0.303 0.044-0.344 0.195s0.031 0.321 0.15 0.413c0.124 0.087 0.274 0.12 0.419 0.093z"></path>
</svg>
