
<svg version="1.1" xmlns="http://www.w3.org/2000/svg" viewBox="0 0 32 32">
<title>jobs</title>
<path fill="#0075ff" d="M15.823 24.535c4.811 0 8.712-3.9 8.712-8.712s-3.9-8.712-8.712-8.712c-4.811 0-8.712 3.9-8.712 8.712s3.9 8.712 8.712 8.712z"></path>
<path fill="#edf5ff" d="M14.952 19.308c-0.223 0-0.446-0.085-0.616-0.255l-2.614-2.614c-0.341-0.341-0.341-0.891 0-1.232s0.891-0.341 1.232 0l1.998 1.998 3.74-3.74c0.341-0.341 0.891-0.341 1.232 0s0.341 0.891 0 1.232l-4.356 4.356c-0.17 0.17-0.393 0.255-0.616 0.255z"></path>
</svg>
