
<svg version="1.1" xmlns="http://www.w3.org/2000/svg"  viewBox="0 0 36 32">
<title>pay</title>
<path fill="#cee5ff" d="M17.993 32c8.833 0 15.994-7.163 15.994-16s-7.161-16-15.994-16c-8.833 0-15.994 7.163-15.994 16s7.161 16 15.994 16z"></path>
<path fill="#133578" d="M23.362 13.779l-18.768-3.311c-1.088-0.192-2.125 0.534-2.317 1.622l-1.93 10.948c-0.192 1.088 0.535 2.125 1.622 2.317l18.768 3.311c1.088 0.192 2.125-0.534 2.317-1.622l1.93-10.948c0.192-1.088-0.535-2.125-1.622-2.317z"></path>
<path fill="#fff" d="M24.561 12.713l-18.768-3.311c-1.088-0.192-2.125 0.534-2.317 1.622l-1.93 10.948c-0.192 1.088 0.535 2.125 1.622 2.317l18.768 3.311c1.088 0.192 2.125-0.534 2.317-1.622l1.93-10.948c0.192-1.088-0.535-2.125-1.622-2.317z"></path>
<path fill="#4b3cfb" d="M7.239 12.881l-1.843-0.325c-0.218-0.038-0.425 0.107-0.463 0.324l-0.2 1.134c-0.038 0.218 0.107 0.425 0.324 0.463l1.843 0.325c0.218 0.038 0.425-0.107 0.463-0.325l0.2-1.134c0.038-0.218-0.107-0.425-0.324-0.463z"></path>
<path fill="#dcddeb" d="M12.209 21.991l-8.802-1.553c-0.218-0.038-0.425 0.107-0.463 0.324l-0.133 0.756c-0.038 0.218 0.107 0.425 0.325 0.463l8.802 1.553c0.218 0.038 0.425-0.107 0.463-0.324l0.133-0.756c0.038-0.218-0.107-0.425-0.324-0.463z"></path>
<path fill="#0075ff" d="M18.213 24.995c0.615 0.108 1.202-0.302 1.31-0.918s-0.302-1.202-0.917-1.311c-0.615-0.109-1.202 0.302-1.31 0.918s0.302 1.202 0.917 1.311z"></path>
<path fill="#cee5ff" d="M19.768 25.269c0.615 0.108 1.202-0.302 1.31-0.918s-0.302-1.202-0.917-1.311c-0.615-0.109-1.202 0.302-1.31 0.918s0.302 1.202 0.917 1.311z"></path>
<path fill="#eff0f7" d="M7.040 17.297l-2.966-0.523c-0.229-0.040-0.448 0.113-0.488 0.342v0c-0.040 0.229 0.113 0.448 0.342 0.488l2.966 0.523c0.229 0.041 0.448-0.113 0.488-0.342s-0.113-0.448-0.342-0.488z"></path>
<path fill="#eff0f7" d="M12.017 18.175l-2.966-0.523c-0.229-0.040-0.448 0.113-0.488 0.342v0c-0.040 0.229 0.113 0.448 0.342 0.488l2.966 0.523c0.229 0.040 0.448-0.113 0.488-0.342s-0.113-0.448-0.342-0.488z"></path>
<path fill="#eff0f7" d="M16.994 19.053l-2.966-0.523c-0.229-0.040-0.448 0.113-0.488 0.342v0c-0.040 0.229 0.113 0.448 0.342 0.488l2.966 0.523c0.229 0.040 0.448-0.113 0.488-0.342s-0.113-0.448-0.342-0.488z"></path>
<path fill="#eff0f7" d="M21.971 19.931l-2.966-0.523c-0.229-0.040-0.448 0.113-0.488 0.342v0c-0.040 0.229 0.113 0.448 0.342 0.488l2.966 0.523c0.229 0.040 0.448-0.113 0.488-0.342s-0.113-0.448-0.342-0.488z"></path>
<path fill="#133578" d="M30.348 3.545l-18.768 3.311c-1.088 0.192-1.814 1.229-1.622 2.317l1.93 10.948c0.192 1.088 1.229 1.814 2.317 1.622l18.768-3.311c1.088-0.192 1.814-1.229 1.623-2.317l-1.93-10.948c-0.192-1.088-1.229-1.814-2.317-1.622z"></path>
<path fill="#0075ff" d="M31.22 2.302l-18.768 3.311c-1.088 0.192-1.814 1.229-1.622 2.317l1.93 10.948c0.192 1.088 1.229 1.814 2.317 1.622l18.768-3.311c1.088-0.192 1.814-1.229 1.622-2.317l-1.93-10.948c-0.192-1.088-1.229-1.814-2.317-1.622z"></path>
<path fill="#133578" d="M33.666 4.655l-22.707 4.005 0.477 2.709 22.707-4.005-0.477-2.709z"></path>
<path fill="#133578" d="M18.829 12.163l-5.472 0.965c-0.229 0.040-0.382 0.259-0.342 0.488v0c0.040 0.229 0.259 0.382 0.488 0.342l5.472-0.965c0.229-0.040 0.382-0.259 0.342-0.488s-0.259-0.382-0.488-0.342z"></path>
<path fill="#133578" d="M23.768 11.291l-3.356 0.592c-0.229 0.040-0.382 0.259-0.342 0.488v0c0.040 0.229 0.259 0.382 0.488 0.342l3.356-0.592c0.229-0.040 0.382-0.259 0.342-0.488s-0.259-0.382-0.488-0.342z"></path>
</svg>
