
<svg version="1.1" xmlns="http://www.w3.org/2000/svg" viewBox="0 0 32 32">
<title>phone</title>
<path fill="#0075ff" d="M20.927 23.726c-0.006 0-0.011 0-0.017 0-2.639-0.086-5.731-2.645-7.862-4.777-2.133-2.132-4.692-5.225-4.774-7.852-0.030-0.922 2.232-2.561 2.255-2.578 0.587-0.409 1.239-0.263 1.506 0.107 0.181 0.251 1.896 2.849 2.082 3.144 0.193 0.306 0.165 0.761-0.077 1.218-0.133 0.254-0.575 1.030-0.782 1.392 0.224 0.318 0.815 1.099 2.036 2.32 1.222 1.221 2.001 1.814 2.321 2.037 0.362-0.207 1.139-0.649 1.392-0.782 0.45-0.239 0.903-0.269 1.211-0.080 0.316 0.193 2.907 1.916 3.146 2.082 0.2 0.141 0.329 0.383 0.355 0.664 0.025 0.284-0.063 0.584-0.245 0.846-0.015 0.022-1.635 2.257-2.549 2.257z"></path>
</svg>
