
<svg version="1.1" xmlns="http://www.w3.org/2000/svg"  viewBox="0 0 32 32">
<title>schedule</title>
<path fill="#cee5ff" d="M16 32c8.837 0 16-7.163 16-16s-7.163-16-16-16c-8.837 0-16 7.163-16 16s7.163 16 16 16z"></path>
<path fill="#133578" d="M26.115 2.471h-18.612c-0.884 0-1.6 0.716-1.6 1.6v20.672c0 0.884 0.716 1.6 1.6 1.6h18.612c0.884 0 1.6-0.716 1.6-1.6v-20.672c0-0.884-0.716-1.6-1.6-1.6z"></path>
<path fill="#fff" d="M24.479 0.745h-18.613c-0.884 0-1.6 0.716-1.6 1.6v20.672c0 0.884 0.716 1.6 1.6 1.6h18.613c0.884 0 1.6-0.716 1.6-1.6v-20.672c0-0.884-0.716-1.6-1.6-1.6z"></path>
<path fill="#0075ff" d="M4.267 2.345c0-0.884 0.716-1.6 1.6-1.6h18.613c0.884 0 1.6 0.716 1.6 1.6v1.641h-21.813v-1.641z"></path>
<path fill="#eff0f7" d="M8.848 8.882h-1.465c-0.589 0-1.067 0.478-1.067 1.067v1.465c0 0.589 0.478 1.067 1.067 1.067h1.465c0.589 0 1.067-0.478 1.067-1.067v-1.465c0-0.589-0.478-1.067-1.067-1.067z"></path>
<path fill="#eff0f7" d="M8.848 13.548h-1.465c-0.589 0-1.067 0.478-1.067 1.067v1.465c0 0.589 0.478 1.067 1.067 1.067h1.465c0.589 0 1.067-0.477 1.067-1.067v-1.465c0-0.589-0.478-1.067-1.067-1.067z"></path>
<path fill="#eff0f7" d="M8.848 18.213h-1.465c-0.589 0-1.067 0.478-1.067 1.067v1.465c0 0.589 0.478 1.067 1.067 1.067h1.465c0.589 0 1.067-0.477 1.067-1.067v-1.465c0-0.589-0.478-1.067-1.067-1.067z"></path>
<path fill="#eff0f7" d="M13.38 8.882h-1.465c-0.589 0-1.067 0.478-1.067 1.067v1.465c0 0.589 0.478 1.067 1.067 1.067h1.465c0.589 0 1.067-0.478 1.067-1.067v-1.465c0-0.589-0.478-1.067-1.067-1.067z"></path>
<path fill="#4b3cfb" d="M13.38 13.548h-1.465c-0.589 0-1.067 0.478-1.067 1.067v1.465c0 0.589 0.478 1.067 1.067 1.067h1.465c0.589 0 1.067-0.477 1.067-1.067v-1.465c0-0.589-0.478-1.067-1.067-1.067z"></path>
<path fill="#eff0f7" d="M13.38 18.213h-1.465c-0.589 0-1.067 0.478-1.067 1.067v1.465c0 0.589 0.478 1.067 1.067 1.067h1.465c0.589 0 1.067-0.477 1.067-1.067v-1.465c0-0.589-0.478-1.067-1.067-1.067z"></path>
<path fill="#eff0f7" d="M17.912 8.882h-1.465c-0.589 0-1.067 0.478-1.067 1.067v1.465c0 0.589 0.478 1.067 1.067 1.067h1.465c0.589 0 1.067-0.478 1.067-1.067v-1.465c0-0.589-0.477-1.067-1.067-1.067z"></path>
<path fill="#eff0f7" d="M17.912 13.548h-1.465c-0.589 0-1.067 0.478-1.067 1.067v1.465c0 0.589 0.478 1.067 1.067 1.067h1.465c0.589 0 1.067-0.477 1.067-1.067v-1.465c0-0.589-0.477-1.067-1.067-1.067z"></path>
<path fill="#eff0f7" d="M17.912 18.213h-1.465c-0.589 0-1.067 0.478-1.067 1.067v1.465c0 0.589 0.478 1.067 1.067 1.067h1.465c0.589 0 1.067-0.477 1.067-1.067v-1.465c0-0.589-0.477-1.067-1.067-1.067z"></path>
<path fill="#eff0f7" d="M22.444 8.882h-1.465c-0.589 0-1.067 0.478-1.067 1.067v1.465c0 0.589 0.478 1.067 1.067 1.067h1.465c0.589 0 1.067-0.478 1.067-1.067v-1.465c0-0.589-0.477-1.067-1.067-1.067z"></path>
<path fill="#eff0f7" d="M22.444 13.548h-1.465c-0.589 0-1.067 0.478-1.067 1.067v1.465c0 0.589 0.478 1.067 1.067 1.067h1.465c0.589 0 1.067-0.477 1.067-1.067v-1.465c0-0.589-0.477-1.067-1.067-1.067z"></path>
<path fill="#eff0f7" d="M22.444 18.213h-1.465c-0.589 0-1.067 0.478-1.067 1.067v1.465c0 0.589 0.478 1.067 1.067 1.067h1.465c0.589 0 1.067-0.477 1.067-1.067v-1.465c0-0.589-0.477-1.067-1.067-1.067z"></path>
<path fill="#a0a3bd" opacity="0.6" d="M9.381 6.202h-2.532c-0.295 0-0.533 0.239-0.533 0.533s0.239 0.533 0.533 0.533h2.532c0.295 0 0.533-0.239 0.533-0.533s-0.239-0.533-0.533-0.533z"></path>
<path fill="#a0a3bd" opacity="0.6" d="M13.913 6.202h-2.532c-0.295 0-0.533 0.239-0.533 0.533s0.239 0.533 0.533 0.533h2.532c0.295 0 0.533-0.239 0.533-0.533s-0.239-0.533-0.533-0.533z"></path>
<path fill="#a0a3bd" opacity="0.6" d="M18.445 6.202h-2.532c-0.295 0-0.533 0.239-0.533 0.533s0.239 0.533 0.533 0.533h2.532c0.295 0 0.533-0.239 0.533-0.533s-0.239-0.533-0.533-0.533z"></path>
<path fill="#a0a3bd" opacity="0.6" d="M22.977 6.202h-2.532c-0.295 0-0.533 0.239-0.533 0.533s0.239 0.533 0.533 0.533h2.532c0.295 0 0.533-0.239 0.533-0.533s-0.239-0.533-0.533-0.533z"></path>
</svg>
