
<svg version="1.1" xmlns="http://www.w3.org/2000/svg" viewBox="0 0 25 32">
<title>society</title>
<path fill="#383669" d="M3.194 36.044c0 0-1.093-5.657-1.096-6.82-0.003-1.61 1.231-2.251 1.231-2.251l-0.479-1.365h2.636l-0.416 1.356c0 0 1.389 0.735 1.195 2.405-0.362 3.121-0.939 6.672-0.939 6.672l-2.131 0.002z"></path>
<path fill="#504e83" d="M9.934 3.213h-10.905v19.559h10.905v-19.559z"></path>
<path fill="#383669" d="M9.385 3.78h-9.921v18.409h9.921v-18.409z"></path>
<path fill="#36346b" d="M10.395 22.947l-0.461-0.176v-19.89h0.461v20.066z"></path>
<path fill="#423f76" d="M1.897 15.671l2.58-2.391c0.326-0.303 0.753-0.629 1.173-0.48 0.202 0.074 0.354 0.244 0.552 0.326 0.395 0.164 0.847-0.074 1.151-0.375s0.544-0.678 0.913-0.896c0.369-0.218 0.941-0.191 1.123 0.196v2.603l-3.749 1.6-3.744-0.583z"></path>
<path fill="#8689aa" d="M-0.536 14.175c0.95-0.386 1.897-0.058 2.576 0.708 0.143 0.161 0.274 0.348 0.47 0.437 0.266 0.121 0.574 0.030 0.864 0 0.399-0.039 0.801 0.032 1.162 0.207s0.666 0.445 0.882 0.782l-3.17 1.554-2.784-0.020v-3.669z"></path>
<path fill="#6e7191" d="M9.386 14.187c-0.626-0.301-1.176 0.063-1.753 0.449s-1.112 0.881-1.79 1.036c-0.452 0.104-0.937 0.046-1.374 0.201-0.89 0.317-1.409 1.446-2.35 1.5-0.512 0.030-0.972-0.281-1.429-0.514s-0.816-0.454-1.226-0.142v5.471h9.922v-8.002z"></path>
<path fill="#747799" d="M8.162 9.449c0.206-0.879-0.341-1.758-1.221-1.964s-1.761 0.34-1.967 1.219c-0.206 0.879 0.341 1.758 1.221 1.964s1.761-0.34 1.967-1.219z"></path>
<path fill="#504e83" d="M9.601 9.076h-10.137v0.196h10.137v-0.196z"></path>
<path fill="#504e83" d="M9.601 13.459h-10.137v0.196h10.137v-0.196z"></path>
<path fill="#6e7191" d="M9.601 17.843h-10.137v0.196h10.137v-0.196z"></path>
<path fill="#504e83" d="M4.175 9.173v13.537h0.501v-13.537h-0.501z"></path>
<path fill="#504e83" d="M1.602 3.78h-0.227v5.394h0.227v-5.394z"></path>
<path fill="#504e83" d="M3.561 3.78h-0.227v5.394h0.227v-5.394z"></path>
<path fill="#504e83" d="M5.519 3.78h-0.227v5.394h0.227v-5.394z"></path>
<path fill="#504e83" d="M7.478 3.78h-0.227v5.394h0.227v-5.394z"></path>
<path fill="#36346b" d="M10.395 2.679h-11.828v0.534h11.828v-0.534z"></path>
<path fill="#6e7191" d="M10.707 23.013h-12.467v0.497h12.467v-0.497z"></path>
<path fill="#504e83" d="M9.934 22.771l0.773 0.242h-12.467l0.788-0.242h10.906z"></path>
<path fill="#05c168" d="M6.92 13.727c-0.391 0.062-0.566 0.543-0.532 0.937s0.196 0.779 0.153 1.173c-0.055 0.5-0.433 0.922-0.477 1.423-0.052 0.592 0.366 1.114 0.492 1.694 0.061 0.282 0.052 0.58 0.157 0.848 0.089 0.229 0.255 0.42 0.47 0.54s0.464 0.162 0.707 0.119c0.242-0.043 0.462-0.169 0.622-0.356s0.249-0.423 0.254-0.669c0.009-0.454-0.271-0.881-0.237-1.332 0.025-0.335 0.222-0.651 0.179-0.984-0.050-0.396-0.417-0.677-0.547-1.054s-0.004-0.793-0.050-1.19c-0.080-0.711-0.475-1.207-1.19-1.15z"></path>
<path fill="#05c168" d="M4.921 17.167c-0.067 0.66 0.222 1.435 0.564 2.004 0.344 0.572 0.862 1.021 1.478 1.28 0.069 0.029 0.155 0.053 0.214 0.007 0.021-0.023 0.036-0.050 0.045-0.079s0.012-0.060 0.008-0.091c0.005-0.699-0.218-1.381-0.634-1.944s-1.004-0.975-1.675-1.177z"></path>
<path fill="#000" opacity="0.010000000000000002" d="M4.921 17.167c-0.067 0.66 0.222 1.435 0.564 2.004 0.344 0.572 0.862 1.021 1.478 1.28 0.069 0.029 0.155 0.053 0.214 0.007 0.021-0.023 0.036-0.050 0.045-0.079s0.012-0.060 0.008-0.091c0.005-0.699-0.218-1.382-0.634-1.944s-1.004-0.975-1.675-1.177z"></path>
<path fill="#eff0f7" d="M7.797 21.829c-0.008-0.011-0.014-0.024-0.019-0.037l-0.047-0.108c-0.040-0.094-0.099-0.229-0.174-0.395-0.393-0.867-0.876-1.692-1.44-2.459-0.107-0.148-0.196-0.265-0.26-0.346l-0.074-0.094c-0.009-0.011-0.016-0.022-0.023-0.034 0 0 0.011 0.009 0.029 0.030l0.074 0.090c0.067 0.078 0.159 0.193 0.27 0.339 0.579 0.761 1.065 1.588 1.447 2.463 0.074 0.168 0.128 0.305 0.164 0.401l0.041 0.111c0.005 0.013 0.009 0.026 0.012 0.039z"></path>
<path fill="#eff0f7" d="M7.373 15.547c0.004 0.021 0.006 0.042 0.007 0.064 0.004 0.044 0.008 0.105 0.013 0.181 0.010 0.161 0.025 0.389 0.043 0.666 0.036 0.564 0.086 1.343 0.148 2.202s0.121 1.639 0.165 2.202c0.021 0.279 0.039 0.506 0.051 0.666 0.005 0.074 0.009 0.137 0.012 0.181 0.002 0.021 0.002 0.043 0 0.064-0.005-0.021-0.008-0.042-0.010-0.063-0.004-0.044-0.011-0.105-0.019-0.181-0.015-0.161-0.036-0.388-0.063-0.666-0.050-0.563-0.114-1.341-0.175-2.201s-0.107-1.64-0.136-2.204c-0.013-0.28-0.023-0.507-0.031-0.666 0-0.074-0.004-0.137-0.006-0.182-0.002-0.021-0.001-0.043 0.001-0.064z"></path>
<path fill="#312e72" d="M6.78 21.188c-0.009-0.163 0.121-0.299 0.284-0.299h1.069c0.157 0 0.284 0.127 0.284 0.284v0.928c0 0.21-0.084 0.412-0.232 0.56s-0.351 0.232-0.561 0.232c-0.203-0-0.399-0.078-0.546-0.217s-0.236-0.33-0.247-0.532l-0.051-0.955z"></path>
<path fill="#dcddeb" d="M8.425 21.466c0 0-0.021-0.012-0.061-0.025-0.056-0.017-0.116-0.019-0.174-0.007-0.086 0.021-0.17 0.050-0.25 0.087-0.051 0.021-0.103 0.035-0.157 0.043-0.058 0.007-0.118 0.004-0.175-0.009-0.107-0.028-0.212-0.062-0.315-0.101-0.083-0.029-0.17-0.042-0.258-0.037-0.058 0.003-0.115 0.021-0.165 0.053-0.035 0.024-0.050 0.042-0.053 0.040 0.010-0.021 0.024-0.039 0.043-0.052 0.050-0.038 0.109-0.062 0.172-0.068 0.092-0.009 0.184 0.002 0.271 0.030 0.098 0.030 0.2 0.074 0.311 0.098 0.053 0.012 0.109 0.015 0.163 0.010 0.051-0.008 0.1-0.021 0.148-0.039 0.083-0.037 0.169-0.064 0.258-0.081 0.062-0.011 0.126-0.004 0.184 0.019 0.041 0.018 0.057 0.038 0.056 0.039z"></path>
<path fill="#dcddeb" d="M8.425 21.608c0 0-0.021-0.012-0.061-0.025-0.057-0.018-0.117-0.021-0.176-0.009-0.086 0.021-0.17 0.050-0.25 0.087-0.051 0.020-0.103 0.035-0.157 0.043-0.058 0.007-0.118 0.004-0.175-0.009-0.107-0.028-0.212-0.062-0.315-0.102-0.083-0.029-0.17-0.042-0.258-0.037-0.059 0.003-0.115 0.022-0.165 0.053-0.035 0.023-0.050 0.041-0.053 0.039 0.010-0.021 0.024-0.039 0.043-0.052 0.050-0.038 0.109-0.062 0.172-0.067 0.092-0.009 0.184 0.001 0.271 0.030 0.098 0.029 0.2 0.074 0.311 0.098 0.054 0.012 0.109 0.015 0.163 0.009 0.051-0.007 0.101-0.020 0.148-0.038 0.083-0.036 0.169-0.064 0.258-0.081 0.062-0.011 0.126-0.004 0.184 0.019 0.023 0.008 0.043 0.023 0.058 0.042z"></path>
<path fill="#dcddeb" d="M7.060 21.689c0 0.005-0.013 0.012-0.017 0.031s0.004 0.042 0.031 0.038c0.027-0.004 0.029-0.028 0.018-0.046s-0.026-0.018-0.027-0.024 0.021-0.016 0.047 0.005c0.007 0.007 0.013 0.015 0.016 0.024s0.005 0.019 0.004 0.029c-0.002 0.013-0.009 0.024-0.018 0.033s-0.021 0.015-0.034 0.016c-0.013 0.002-0.026 0.001-0.038-0.005s-0.021-0.015-0.028-0.026c-0.004-0.009-0.006-0.019-0.005-0.029s0.004-0.020 0.009-0.028c0.018-0.028 0.043-0.024 0.042-0.019z"></path>
<path fill="#dcddeb" d="M7.658 21.374c-0.005 0 0.007-0.025 0.041-0.020 0.010 0.002 0.019 0.007 0.026 0.015s0.011 0.017 0.012 0.027c0.002 0.013-0.001 0.025-0.008 0.036s-0.017 0.019-0.029 0.024c-0.012 0.004-0.025 0.005-0.037 0.001s-0.022-0.012-0.029-0.023c-0.005-0.008-0.008-0.018-0.008-0.028s0.003-0.020 0.008-0.028c0.018-0.027 0.041-0.024 0.041-0.018s-0.012 0.013-0.016 0.030c-0.001 0.004-0.001 0.008 0 0.013s0.003 0.008 0.006 0.011c0.003 0.003 0.007 0.006 0.012 0.007s0.009 0.001 0.014 0c0.004-0.002 0.008-0.005 0.010-0.008s0.004-0.008 0.004-0.012c0-0.004-0.001-0.008-0.003-0.011s-0.005-0.006-0.009-0.008c-0.018-0.008-0.031-0.002-0.035-0.006z"></path>
<path fill="#dcddeb" d="M8.237 21.679c0-0.004 0.022-0.014 0.048 0.010 0.008 0.008 0.013 0.017 0.016 0.028s0.002 0.021-0.002 0.032c-0.004 0.014-0.012 0.025-0.023 0.034s-0.025 0.012-0.039 0.012-0.027-0.006-0.038-0.015c-0.011-0.009-0.018-0.022-0.020-0.036-0.002-0.011-0.001-0.022 0.003-0.032s0.012-0.019 0.021-0.025c0.032-0.018 0.053 0 0.049 0.004s-0.018 0-0.033 0.018c-0.003 0.003-0.006 0.008-0.007 0.012s-0.001 0.010 0.001 0.014c0.002 0.005 0.005 0.010 0.009 0.013s0.009 0.006 0.015 0.007c0.006-0 0.011-0.002 0.016-0.005s0.009-0.008 0.011-0.013c0.002-0.005 0.004-0.010 0.004-0.015s-0.001-0.010-0.004-0.015c-0.013-0.018-0.030-0.021-0.029-0.027z"></path>
<path fill="#4e4b88" d="M18.376 7.317l-1.575 0.015 0.015 1.572 1.575-0.015-0.015-1.572z"></path>
<path fill="#7976ab" d="M18.373 7.717c-0.258 0.024-0.517 0.034-0.776 0.029-0.259 0.009-0.518 0.005-0.777-0.014 0.258-0.024 0.517-0.033 0.776-0.029 0.259-0.009 0.518-0.005 0.777 0.014z"></path>
<path fill="#7976ab" d="M17.895 8.205c-0.007-0.022-0.013-0.045-0.018-0.068-0.019-0.060-0.057-0.113-0.108-0.15-0.037-0.026-0.081-0.043-0.126-0.049s-0.092-0-0.134 0.016c-0.053 0.020-0.098 0.055-0.13 0.101s-0.048 0.101-0.047 0.158c0.001 0.056 0.019 0.111 0.052 0.156s0.080 0.079 0.133 0.097c0.043 0.015 0.089 0.020 0.135 0.013s0.088-0.024 0.125-0.051c0.051-0.038 0.088-0.091 0.106-0.152 0.004-0.023 0.010-0.046 0.017-0.069 0.006 0.024 0.006 0.049 0 0.073-0.013 0.068-0.049 0.128-0.103 0.171-0.040 0.032-0.088 0.054-0.139 0.063s-0.103 0.005-0.152-0.012c-0.061-0.021-0.113-0.060-0.151-0.112s-0.058-0.114-0.058-0.178c-0.001-0.064 0.019-0.127 0.055-0.179s0.089-0.093 0.149-0.114c0.049-0.017 0.101-0.022 0.152-0.014s0.099 0.029 0.14 0.060c0.055 0.042 0.092 0.102 0.106 0.17 0.005 0.023 0.004 0.047-0.003 0.070z"></path>
<path fill="#36346b" d="M24.479 8.893h-9.892v0.504h9.892v-0.504z"></path>
<path fill="#36346b" d="M22.809 9.277h-0.28v1.655h0.28v-1.655z"></path>
<path fill="#36346b" d="M16.571 9.252h-0.288v1.705h0.288v-1.705z"></path>
<path fill="#05c168" d="M19.225 0.79c0.168 0.013 0.332 0.060 0.481 0.138s0.281 0.185 0.388 0.315c0.212 0.262 0.362 0.57 0.436 0.898 0.165 0.629 0.054 1.369-0.131 1.991-0.679-0.247-1.092-0.977-1.279-1.359-0.294-0.604-0.459-1.876 0.104-1.985z"></path>
<path fill="#05c168" d="M21.372 4.903c-0.1-0.159-0.157-0.342-0.164-0.53s0.035-0.374 0.123-0.541c0.091-0.164 0.214-0.309 0.362-0.426s0.317-0.202 0.499-0.253c0.165-0.049 0.36-0.069 0.503 0.028 0.064 0.050 0.114 0.116 0.144 0.192s0.040 0.158 0.028 0.238c-0.027 0.161-0.096 0.311-0.2 0.437-0.335 0.444-0.742 0.813-1.296 0.854z"></path>
<path fill="#05c168" d="M20.652 5.569c-0.212-0.336-0.501-0.617-0.843-0.82s-0.728-0.32-1.125-0.344c-0.202-0.010-0.443 0.029-0.529 0.211s0.039 0.394 0.178 0.539c0.298 0.298 0.678 0.502 1.091 0.585s0.843 0.042 1.233-0.118z"></path>
<path fill="#dcddeb" d="M21.378 7.061c-0.013-0.043-0.023-0.088-0.028-0.133-0.015-0.082-0.035-0.211-0.056-0.367-0.062-0.405-0.071-0.817-0.027-1.225 0.049-0.41 0.207-0.8 0.457-1.128 0.077-0.098 0.165-0.187 0.263-0.264 0.034-0.028 0.064-0.045 0.082-0.058 0.010-0.007 0.020-0.014 0.031-0.018-0.13 0.106-0.248 0.226-0.352 0.358-0.239 0.329-0.389 0.714-0.437 1.118-0.043 0.404-0.037 0.811 0.016 1.214 0.017 0.15 0.031 0.273 0.042 0.367 0.006 0.045 0.009 0.090 0.009 0.136z"></path>
<path fill="#dcddeb" d="M19.436 1.747c0.010 0.017 0.019 0.034 0.026 0.052l0.068 0.152c0.059 0.132 0.142 0.324 0.242 0.563 0.2 0.477 0.469 1.14 0.748 1.879s0.518 1.413 0.684 1.904c0.082 0.247 0.148 0.444 0.192 0.582 0.020 0.066 0.036 0.119 0.049 0.159 0.007 0.018 0.011 0.037 0.014 0.056-0.010-0.017-0.017-0.035-0.022-0.054-0.015-0.040-0.034-0.091-0.057-0.157l-0.205-0.576c-0.172-0.488-0.412-1.16-0.695-1.898s-0.544-1.4-0.737-1.883l-0.229-0.567c-0.025-0.064-0.045-0.116-0.061-0.156-0.008-0.018-0.014-0.037-0.018-0.057z"></path>
<path fill="#dcddeb" d="M19.002 4.925c0.044-0.001 0.087 0.002 0.13 0.008 0.051 0.003 0.101 0.010 0.151 0.021 0.067 0.011 0.133 0.026 0.199 0.044l0.114 0.031c0.040 0.012 0.082 0.028 0.121 0.043 0.089 0.032 0.176 0.068 0.261 0.11 0.193 0.097 0.376 0.213 0.545 0.348 0.169 0.139 0.323 0.295 0.459 0.467 0.058 0.074 0.111 0.152 0.161 0.232 0.023 0.038 0.047 0.073 0.066 0.11l0.054 0.105c0.031 0.060 0.058 0.122 0.082 0.185 0.020 0.047 0.037 0.094 0.051 0.143 0.015 0.041 0.026 0.083 0.035 0.126-0.010 0-0.058-0.177-0.196-0.441l-0.056-0.102c-0.019-0.035-0.044-0.070-0.067-0.107-0.045-0.075-0.104-0.148-0.165-0.227-0.266-0.335-0.602-0.607-0.985-0.799-0.089-0.041-0.172-0.082-0.256-0.112-0.040-0.015-0.082-0.032-0.118-0.045l-0.112-0.034c-0.285-0.083-0.474-0.093-0.474-0.105z"></path>
<path fill="#615f91" d="M20.086 6.453h2.444v1.428c0 0.133-0.026 0.265-0.077 0.387s-0.126 0.234-0.22 0.328c-0.094 0.094-0.206 0.169-0.329 0.219s-0.255 0.077-0.388 0.077h-0.417c-0.269 0-0.527-0.107-0.717-0.296s-0.297-0.447-0.297-0.716v-1.428z"></path>
<path fill="#7876b4" d="M23.966 12.124c-0.023 0.027-0.056 0.044-0.092 0.047s-0.071-0.008-0.099-0.030l-4.14-3.43 0.173-0.207 4.137 3.431c0.027 0.023 0.045 0.055 0.049 0.091s-0.007 0.071-0.029 0.099z"></path>
<path fill="#4b3cfb" d="M20.913 9.591c0 0-0.252 0.641-0.511 0.615s-0.329-0.439-0.329-0.439c0 0-0.213 0.367-0.433 0.19s-0.162-0.614-0.162-0.614-0.363 0.227-0.489 0.032c-0.172-0.269 0.347-0.724 0.347-0.724s0.375-1.005 0.654-0.98c0.23 0.020 0.179 0.401 0.179 0.401s0.188-0.265 0.416-0.269c0.228-0.004 0.142 0.561 0.142 0.561s0.402-0.249 0.541-0.034c0.139 0.216-0.267 0.55-0.267 0.55s0.536-0.131 0.483 0.176c-0.053 0.307-0.572 0.536-0.572 0.536z"></path>
<path fill="#fff" d="M19.543 6.963c-0.217-0.18-0.51 0.056-0.51 0.056s0.064-0.277-0.075-0.349c-0.283-0.149-0.599 0.484-0.599 0.484s-0.871 0.342-0.88 0.623c-0.009 0.281 0.363 0.249 0.363 0.249-0.048 0.047-0.084 0.104-0.106 0.167s-0.027 0.131-0.017 0.197c0.038 0.223 0.579 0.034 0.579 0.034s-0.171 0.441 0.066 0.538c0.169 0.069 0.346-0.143 0.435-0.272-0.064 0.12-0.14 0.328 0.024 0.456 0.080 0.063 0.203-0.034 0.325-0.177 0.011 0.034 0.033 0.065 0.061 0.088s0.063 0.037 0.099 0.041c0.193 0.028 0.329-0.311 0.322-0.53 0.2-0.045 0.394-0.125 0.343-0.27-0.020-0.050-0.052-0.095-0.092-0.131s-0.088-0.063-0.14-0.077c0.126-0.198 0.256-0.446 0.216-0.584-0.072-0.251-0.401 0.019-0.401 0.019s0.205-0.379-0.012-0.559z"></path>
<path fill="#4b3cfb" d="M17.755 5.91c0 0 0.005-0.358-0.235-0.461s-0.48 0.463-0.48 0.463-0.57-0.122-0.716 0.153c-0.147 0.274 0.209 0.556 0.209 0.556s-0.287 0.132-0.221 0.38c0.066 0.249 0.526 0.135 0.526 0.135s-0.259 0.512-0.043 0.579c0.216 0.067 0.491-0.192 0.491-0.192s-0.142 0.426 0.137 0.454c0.123 0.012 0.259-0.151 0.372-0.337 0.028 0.047 0.072 0.083 0.124 0.101s0.109 0.016 0.16-0.004c0.315-0.123 0.139-0.454 0.139-0.454s0.672-0.111 0.638-0.352c-0.014-0.102-0.128-0.132-0.255-0.135 0.14-0.117 0.237-0.246 0.179-0.36-0.12-0.253-0.566-0.063-0.566-0.063s0.228-0.254 0.078-0.491c-0.15-0.237-0.537 0.027-0.537 0.027z"></path>
<path fill="#ffbe9d" d="M23.772 11.779c0 0 0.111-0.023 0.157 0.024 0.098 0.101-0.064 0.237-0.064 0.237-0.158 0.153-0.325 0.297-0.499 0.432 0 0-2.668 3.364-3.184 3.589-0.41 0.186-2.871 0.15-3.829 0.128l-0.886 2.923 0.73 2.804-4.89 0.064 1.146-2.825-0.187-0.654-0.43-0.884c-1.048 2.337-1.775 5.997-2.027 7.244l0.018 0.112c0.007 0.192 0.033 0.382 0.079 0.569 0.022 0.094 0.060 0.183 0.113 0.263 0.059 0.103 0.132 0.198 0.217 0.281 0.018 0.014 0.031 0.032 0.039 0.053s0.008 0.044 0.002 0.066c-0.006 0.022-0.018 0.041-0.035 0.056s-0.038 0.024-0.060 0.026c-0.099-0.005-0.34-0.187-0.499-0.5s-0.277 0.228-0.324 0.424-0.22 0.797-0.292 0.831c-0.106 0.048-0.178-0.052-0.126-0.25s0.161-0.79 0.059-0.811c-0.102-0.020-0.328 0.984-0.328 0.984s-0.014 0.221-0.135 0.203c-0.221-0.034 0.096-1.083 0.128-1.182 0.020-0.070-0.091-0.093-0.113-0.019s-0.2 1.005-0.426 0.974c-0.172-0.025 0.252-0.865 0.182-1.078s-0.257 0.67-0.421 0.64c-0.061-0.011-0.105-0.028 0.077-0.521 0.156-0.372 0.332-0.734 0.527-1.087 0.258-2.676 1.72-7.44 2.365-9.452 0.097-0.301 0.275-0.57 0.514-0.778s0.531-0.345 0.844-0.398c0.69-0.114 1.388-0.176 2.088-0.183 0.277-0.003 0.327-0.043 0.605-0.055 0.22-0.002 0.44 0.013 0.658 0.045 0.641 0.068 3.835 0.397 3.993 0.246 0.178-0.168 2.635-2.521 2.635-2.521h0.009c0.064-0.165 0.115-0.335 0.152-0.508 0.020-0.093 0.025-0.189 0.012-0.283-0.010-0.119-0.036-0.235-0.079-0.346-0.048-0.098 0.046-0.204 0.135-0.159s0.231 0.31 0.242 0.662c0.011 0.352 0.472-0.247 0.472-0.247 0.106-0.055 0.3-0.060 0.23 0.36 0.072-0.002 0.145 0.011 0.212 0.038 0.011 0.005 0.020 0.013 0.025 0.024s0.008 0.022 0.007 0.034c-0.007 0.053-0.007 0.107 0 0.16 0 0 0.142-0.012 0.162 0.051 0.011 0.065 0.011 0.131 0 0.196z"></path>
<path fill="#0075ff" d="M11.091 19.892c0.142-0.483 0.871-2.874 0.871-2.874s0.358 1.948 0.264 2.183c-0.087 0.201-0.19 0.395-0.307 0.58-0.827 1.256-0.719 1.884-0.719 1.884l4.995-0.152c0.011-0.697-0.402-2.318-0.488-2.577s0.199-1.105 0.199-1.105c0 0 0.563-0.572 0.543-0.867-0.011-0.265-0.043-0.528-0.098-0.787l3.041 0.112-0.096-2.058-4.367-0.436c-0.152 0.428-1.527 0.218-1.527 0.218-1.484 0.049-1.577 0.322-2.194 0.801s-1.639 4.59-1.639 4.59l1.523 0.487z"></path>
<path fill="#fff" d="M14.044 19.405c-0.087 0.015-0.175 0.020-0.262 0.014-0.163 0-0.387-0.011-0.634-0.036s-0.47-0.060-0.628-0.091c-0.088-0.011-0.173-0.033-0.256-0.065 0.088 0 0.176 0.008 0.262 0.025 0.16 0.020 0.382 0.048 0.627 0.073s0.468 0.042 0.63 0.053c0.088 0.001 0.175 0.011 0.261 0.028z"></path>
<path fill="#fff" d="M14.387 18.981c-0.087 0.042-0.178 0.074-0.273 0.093-0.449 0.118-0.913 0.173-1.377 0.163-0.096 0.003-0.192-0.006-0.286-0.027 0.095-0.012 0.19-0.017 0.286-0.015 0.177-0.006 0.42-0.018 0.688-0.049s0.507-0.076 0.676-0.112c0.094-0.025 0.19-0.043 0.286-0.053z"></path>
<path fill="#fff" d="M16.067 17.090c-0.002 0.086-0.014 0.171-0.035 0.254-0.029 0.156-0.074 0.37-0.132 0.604s-0.113 0.45-0.162 0.596c-0.020 0.084-0.049 0.165-0.088 0.242 0.006-0.085 0.022-0.17 0.047-0.252 0.043-0.175 0.091-0.378 0.145-0.599s0.106-0.424 0.149-0.599c0.015-0.084 0.041-0.167 0.075-0.245z"></path>
<path fill="#fff" d="M11.144 19.605c-0.261-0.040-0.518-0.1-0.769-0.179-0.257-0.060-0.509-0.139-0.755-0.236 0.26 0.041 0.518 0.101 0.769 0.179 0.257 0.060 0.509 0.139 0.755 0.236z"></path>
<path fill="#fff" d="M16.405 16.153c-0.043 0.007-0.086 0.007-0.128 0-0.118-0.012-0.233-0.040-0.344-0.082-0.184-0.069-0.352-0.176-0.492-0.314s-0.25-0.303-0.323-0.486c-0.080-0.201-0.114-0.417-0.1-0.633 0.005-0.178 0.058-0.351 0.154-0.501 0.067-0.101 0.168-0.176 0.285-0.21 0.031-0.009 0.063-0.013 0.096-0.012 0.023 0 0.034 0 0.034 0s-0.047 0-0.123 0.030c-0.107 0.039-0.198 0.113-0.258 0.21-0.153 0.241-0.196 0.68-0.033 1.091 0.076 0.194 0.195 0.367 0.348 0.508 0.125 0.115 0.27 0.208 0.427 0.274 0.147 0.058 0.301 0.1 0.457 0.125z"></path>
<path fill="#fff" d="M19.030 16.25c-0.028-0.345-0.037-0.691-0.027-1.037-0.009-0.345 0.002-0.691 0.032-1.036 0.028 0.344 0.037 0.69 0.027 1.036 0.009 0.346-0.001 0.692-0.032 1.037z"></path>
<path fill="#ffbe9d" d="M14.899 13.923c0.012-0.251 0.038-0.534 0.038-0.534s0.622-0.069 0.659-0.709c0.037-0.641 0-2.119 0-2.119l-1.126-0.576-1.25 0.982 0.193 3.204 1.146 0.073c0.088 0.002 0.173-0.030 0.236-0.090s0.101-0.143 0.104-0.23z"></path>
<path fill="#eb996e" d="M15.011 12.172c0 0 0 0.012-0.010 0.027-0.008 0.011-0.019 0.019-0.032 0.025s-0.026 0.008-0.039 0.007c-0.072 0-0.142-0.083-0.167-0.18-0.012-0.047-0.012-0.096 0-0.143 0.002-0.020 0.010-0.040 0.022-0.057s0.028-0.031 0.046-0.040c0.015-0.006 0.032-0.006 0.047 0 0.011 0.006 0.020 0.015 0.026 0.026 0.008 0.019 0 0.031 0 0.030s0-0.011-0.011-0.023c-0.006-0.008-0.015-0.014-0.024-0.016s-0.020-0-0.029 0.005c-0.014 0.008-0.025 0.020-0.033 0.034s-0.012 0.030-0.013 0.046c-0.009 0.042-0.009 0.085 0 0.127 0.023 0.088 0.083 0.159 0.137 0.165 0.011 0.001 0.021 0.001 0.032-0.002s0.020-0.008 0.028-0.015c0.014-0.009 0.018-0.018 0.020-0.017z"></path>
<path fill="#6e7191" d="M15.982 10.213c-0.087-0.295-0.401-0.441-0.687-0.522-0.436-0.124-0.907-0.178-1.332-0.021s-0.937 0.431-0.937 0.899c-0.251-0.020-0.395 0.199-0.494 0.471-0.063 0.166-0.101 0.34-0.113 0.517-0.032 0.614-0.204 1.462-0.602 1.911-0.225 0.251-0.537 0.424-0.666 0.736-0.113 0.271-0.054 0.593-0.159 0.867-0.094 0.242-0.3 0.414-0.45 0.624-0.154 0.239-0.244 0.512-0.263 0.795s0.035 0.566 0.156 0.823c0.122 0.25 0.293 0.473 0.504 0.654s0.457 0.319 0.722 0.402c0.526 0.16 1.087 0.165 1.616 0.016 0.397-0.095 0.767-0.278 1.083-0.536 0.323-0.264 0.545-0.631 0.628-1.039 0.080-0.459-0.048-0.925-0.144-1.382-0.3-1.443-0.214-1.518 0.164-2.857 0.009-0.024 0.014-0.048 0.020-0.072s0.010-0.035 0.015-0.053c0.011-0.053 0.016-0.107 0.017-0.161-0.055 0.021-0.115 0.025-0.173 0.012s-0.111-0.041-0.153-0.082c-0.042-0.044-0.071-0.099-0.085-0.158s-0.011-0.121 0.008-0.179c0.027-0.063 0.066-0.12 0.116-0.167s0.109-0.083 0.174-0.106c0.125-0.052 0.259-0.079 0.382-0.136 0.26-0.124 0.44-0.38 0.563-0.649 0.101-0.186 0.132-0.402 0.088-0.609z"></path>
<path fill="#6e7191" d="M11.199 21.666l4.995-0.152 2.174 8.471-0.4 9.717h-2.641l0.323-9.51-1.931-5.897 0.297 15.784-2.669 0.039-0.28-14.836c-0.012-0.413-0.148-1.343-0.097-1.752l0.23-1.864z"></path>
<path fill="#a0a3bd" d="M14.383 24.415c-0.082 0.005-0.164 0-0.244-0.015-0.151-0.018-0.357-0.049-0.583-0.094s-0.429-0.097-0.575-0.138c-0.078-0.017-0.154-0.044-0.225-0.081 0-0.017 0.367 0.071 0.818 0.162s0.813 0.15 0.811 0.166z"></path>
<path fill="#a0a3bd" d="M13.648 39.628c-0.016 0-0.086-3.448-0.157-7.702s-0.113-7.704-0.098-7.704c0.015 0 0.087 3.447 0.157 7.703s0.115 7.703 0.098 7.703z"></path>
<path fill="#a0a3bd" d="M17.586 39.169c-0.001-0.015-0.001-0.031 0-0.046v-0.135c0-0.121 0.009-0.296 0.016-0.517 0.016-0.45 0.038-1.103 0.066-1.903 0.061-1.61 0.146-3.83 0.24-6.28 0-0.024 0-0.046 0-0.066v0.008c-0.591-2.361-1.126-4.504-1.515-6.055l-0.45-1.834c-0.052-0.215-0.091-0.382-0.119-0.499-0.014-0.055-0.023-0.098-0.030-0.13-0.004-0.015-0.007-0.030-0.008-0.045 0.006 0.014 0.010 0.029 0.014 0.044 0.009 0.031 0.020 0.074 0.036 0.128 0.030 0.112 0.074 0.283 0.131 0.497 0.113 0.434 0.271 1.059 0.47 1.829 0.392 1.549 0.932 3.687 1.532 6.051v0.008c0 0.020 0 0.044 0 0.066-0.1 2.45-0.191 4.668-0.258 6.278-0.035 0.802-0.064 1.45-0.084 1.902-0.011 0.225-0.020 0.396-0.026 0.517 0 0.057-0.007 0.102-0.008 0.135 0 0.015-0.001 0.031-0.005 0.046z"></path>
<path fill="#a0a3bd" d="M16.725 30.023c-0.19 0.062-0.385 0.106-0.583 0.129-0.243 0.042-0.316 0.040-0.409 0.044v-0.023c0.030 0.009 0.046 0.015 0.046 0.019s-0.019 0-0.051 0h-0.068l0.068-0.020c0.088-0.026 0.16-0.038 0.403-0.082 0.195-0.042 0.394-0.065 0.593-0.069z"></path>
<path fill="#a0a3bd" d="M16.678 30.346c-0.176 0.008-0.352 0-0.526-0.024-0.176-0.004-0.329-0.025-0.502-0.059 0.352-0.029 0.685 0.001 1.028 0.083z"></path>
<path fill="#a0a3bd" opacity="0.2" d="M11.178 21.845c0.059 0.076 0.134 0.138 0.219 0.183s0.179 0.072 0.275 0.078c0.201 0.024 0.405 0.020 0.605-0.011 1.29-0.143 2.656-0.274 3.918-0.581-1.634 0.091-3.361 0.061-4.995 0.152l-0.017 0.139z"></path>
<path fill="#000" opacity="0.04000000000000001" d="M12.862 24.144l0.921 3.569-0.064-3.418-0.857-0.151z"></path>
<path fill="#407bff" d="M22.438 5.069c0.293 0.111 0.176 0.464 0.176 0.464s0.239-0.074 0.353 0.095c0.114 0.169-0.286 0.228-0.223 0.288s0.33 0.19 0.138 0.34c-0.191 0.15-0.447-0.081-0.447-0.081s-0.057 0.139-0.277 0.172c-0.22 0.033-0.131-0.335-0.131-0.335s-0.142 0.191-0.24-0.109c-0.016-0.036-0.023-0.075-0.021-0.115s0.013-0.078 0.032-0.112c0.019-0.034 0.046-0.064 0.078-0.087s0.069-0.038 0.108-0.044c0 0-0.138-0.263-0.019-0.328s0.339 0.149 0.339 0.149-0.013-0.352 0.134-0.297z"></path>
<path fill="#acaad1" d="M22.438 5.069c0.293 0.111 0.176 0.464 0.176 0.464s0.239-0.074 0.353 0.095c0.114 0.169-0.286 0.228-0.223 0.288s0.33 0.19 0.138 0.34c-0.191 0.15-0.447-0.081-0.447-0.081s-0.057 0.139-0.277 0.172c-0.22 0.033-0.131-0.335-0.131-0.335s-0.142 0.191-0.24-0.109c-0.016-0.036-0.023-0.075-0.021-0.115s0.013-0.078 0.032-0.112c0.019-0.034 0.046-0.064 0.078-0.087s0.069-0.038 0.108-0.044c0 0-0.138-0.263-0.019-0.328s0.339 0.149 0.339 0.149-0.013-0.352 0.134-0.297z"></path>
<path fill="#407bff" d="M24.475 6.574c0.055 0.134-0.1 0.207-0.1 0.207s0.101 0.056 0.080 0.149c-0.021 0.093-0.167-0.023-0.167 0.017s0.041 0.172-0.070 0.155-0.115-0.175-0.115-0.175c-0.025 0.006-0.052 0.006-0.077-0.001s-0.049-0.019-0.068-0.037c-0.081-0.063 0.071-0.149 0.071-0.149s-0.109 0.013-0.039-0.115c0.007-0.017 0.018-0.031 0.032-0.043s0.030-0.020 0.048-0.025c0.018-0.005 0.036-0.005 0.054-0.002s0.035 0.011 0.049 0.022c0 0 0.045-0.13 0.104-0.111s0.057 0.161 0.057 0.161c0 0 0.114-0.12 0.142-0.053z"></path>
<path fill="#acaad1" d="M24.475 6.574c0.055 0.134-0.1 0.207-0.1 0.207s0.101 0.056 0.080 0.149c-0.021 0.093-0.167-0.023-0.167 0.017s0.041 0.172-0.070 0.155-0.115-0.175-0.115-0.175c-0.025 0.006-0.052 0.006-0.077-0.001s-0.049-0.019-0.068-0.037c-0.081-0.063 0.071-0.149 0.071-0.149s-0.109 0.013-0.039-0.115c0.007-0.017 0.018-0.031 0.032-0.043s0.030-0.020 0.048-0.025c0.018-0.005 0.036-0.005 0.054-0.002s0.035 0.011 0.049 0.022c0 0 0.045-0.13 0.104-0.111s0.057 0.161 0.057 0.161c0 0 0.114-0.12 0.142-0.053z"></path>
<path fill="#407bff" d="M22.865 7.841c-0.155 0.142-0.331-0.034-0.331-0.034s-0.027 0.166-0.163 0.183c-0.136 0.017-0.051-0.24-0.106-0.218s-0.214 0.14-0.246-0.020 0.182-0.243 0.182-0.243c-0.022-0.031-0.035-0.068-0.038-0.106s0.003-0.076 0.018-0.111c0.046-0.141 0.241 0.022 0.241 0.022s-0.074-0.142 0.138-0.111c0.026 0.002 0.051 0.009 0.074 0.022s0.042 0.031 0.057 0.052c0.015 0.021 0.025 0.046 0.029 0.072s0.002 0.052-0.005 0.077c0 0 0.199 0 0.203 0.087s-0.193 0.158-0.193 0.158 0.217 0.1 0.14 0.171z"></path>
<path fill="#acaad1" d="M22.865 7.841c-0.155 0.142-0.331-0.034-0.331-0.034s-0.027 0.166-0.163 0.183c-0.136 0.017-0.051-0.24-0.106-0.218s-0.214 0.14-0.246-0.020 0.182-0.243 0.182-0.243c-0.022-0.031-0.035-0.068-0.038-0.106s0.003-0.076 0.018-0.111c0.046-0.141 0.241 0.022 0.241 0.022s-0.074-0.142 0.138-0.111c0.026 0.002 0.051 0.009 0.074 0.022s0.042 0.031 0.057 0.052c0.015 0.021 0.025 0.046 0.029 0.072s0.002 0.052-0.005 0.077c0 0 0.199 0 0.203 0.087s-0.193 0.158-0.193 0.158 0.217 0.1 0.14 0.171z"></path>
<path fill="#fff" d="M15.598 12.219c-0.246 0.076-0.576-0.221-0.71-0.379v0.899c0 0.213 0.17 0.611 0.284 0.592 0.142-0.024 0.544-0.379 0.426-1.112z"></path>
</svg>
