
<svg version="1.1" xmlns="http://www.w3.org/2000/svg"  viewBox="0 0 57 32">
<title>stats</title>
<path fill="#cee5ff" d="M56.814 0h-56.814v32h56.814v-32z"></path>
<path fill="#6fafff" d="M49.833 26.625c-1.26 0.020-2.52 0.033-3.779 0.039-1.258 0.012-2.517 0.010-3.779 0.014l0.053-0.053c0 0.533 0 1.066 0 1.599l-0.002 1.598c-0.011 1.066-0.021 2.133-0.046 3.199-0.026-1.066-0.036-2.133-0.047-3.199v-1.598c0-0.533 0-1.066 0-1.599v-0.056h0.053c1.258 0 2.517 0 3.779 0.014s2.509 0.021 3.767 0.041z"></path>
<path fill="#6fafff" d="M42.283 33.934c1.26-0.020 2.519-0.033 3.779-0.040 1.258-0.012 2.517-0.009 3.779-0.013l-0.053 0.053c0-0.523 0-1.045 0-1.568l0.007-1.569c0.010-1.045 0.020-2.091 0.044-3.136 0.026 1.045 0.036 2.091 0.046 3.136l0.007 1.569c0 0.523 0.006 1.045 0 1.568v0.054h-0.053c-1.258-0.006-2.517 0-3.779-0.014s-2.518-0.019-3.776-0.040z"></path>
<path fill="#6fafff" d="M33.304 26.625c1.26-0.020 2.519-0.033 3.779-0.039 1.258-0.012 2.517-0.010 3.779-0.014h0.053v0.053c0 0.533 0 1.066 0 1.599v1.598c-0.011 1.066-0.021 2.133-0.047 3.199-0.024-1.066-0.034-2.133-0.046-3.199v-1.598c0-0.533 0-1.066 0-1.599l0.053 0.053c-1.258 0-2.517 0-3.779-0.014s-2.535-0.019-3.794-0.039z"></path>
<path fill="#8dbdf9" d="M40.854 33.934c-1.258 0.021-2.517 0.032-3.779 0.040s-2.517 0.009-3.779 0.014h-0.053v-0.054c0-0.523 0-1.045 0-1.568l0.007-1.569c0.010-1.045 0.020-2.091 0.046-3.136 0.024 1.045 0.034 2.091 0.044 3.136l0.007 1.569c0 0.523 0.006 1.045 0 1.568l-0.053-0.053c1.258 0 2.517 0 3.779 0.013s2.524 0.021 3.783 0.040z"></path>
<path fill="#e4f0ff" d="M15.185 21.532l0.847 0.18-0.847 0.248c-0.053 0.015-0.101 0.045-0.138 0.085s-0.063 0.090-0.074 0.144l-0.212 1.016-0.234-0.997c-0.013-0.056-0.041-0.106-0.082-0.146s-0.091-0.068-0.147-0.081l-0.847-0.193 0.87-0.245c0.054-0.015 0.103-0.045 0.141-0.087s0.064-0.093 0.075-0.148l0.194-0.977 0.219 0.971c0.013 0.057 0.042 0.108 0.083 0.149s0.094 0.069 0.15 0.081z"></path>
<path fill="#e4f0ff" d="M11.265 28.815l0.444 0.094-0.445 0.131c-0.027 0.008-0.052 0.024-0.071 0.045s-0.032 0.047-0.037 0.075l-0.112 0.533-0.123-0.524c-0.007-0.029-0.021-0.056-0.043-0.077s-0.048-0.036-0.078-0.042l-0.444-0.102 0.457-0.129c0.028-0.008 0.054-0.024 0.074-0.045s0.034-0.048 0.040-0.077l0.101-0.513 0.115 0.51c0.007 0.030 0.022 0.057 0.043 0.078s0.048 0.036 0.078 0.043z"></path>
<path fill="#e4f0ff" d="M17.527 20.679l0.258 0.055-0.258 0.078c-0.016 0.004-0.031 0.013-0.042 0.026s-0.019 0.027-0.023 0.044l-0.065 0.313-0.071-0.304c-0.004-0.017-0.013-0.032-0.025-0.044s-0.028-0.021-0.045-0.024l-0.258-0.059 0.265-0.078c0.016-0.005 0.031-0.014 0.043-0.026s0.019-0.028 0.023-0.045l0.059-0.298 0.066 0.295c0.005 0.017 0.014 0.032 0.026 0.044s0.028 0.020 0.046 0.024z"></path>
<path fill="#e4f0ff" d="M18.8 25.907l0.258 0.054-0.258 0.078c-0.016 0.005-0.031 0.014-0.042 0.026s-0.019 0.028-0.023 0.044l-0.064 0.309-0.071-0.303c-0.004-0.017-0.013-0.032-0.025-0.045s-0.028-0.021-0.045-0.025l-0.258-0.059 0.265-0.078c0.016-0.005 0.031-0.014 0.043-0.026s0.019-0.028 0.023-0.045l0.059-0.298 0.066 0.295c0.004 0.018 0.012 0.034 0.025 0.046s0.029 0.022 0.046 0.025z"></path>
<path fill="#e4f0ff" d="M12.512 27.628l0.212 0.045-0.212 0.062c-0.013 0.004-0.025 0.011-0.034 0.021s-0.016 0.022-0.019 0.036l-0.055 0.255-0.059-0.25c-0.003-0.014-0.011-0.026-0.021-0.036s-0.023-0.017-0.036-0.021l-0.211-0.046 0.218-0.062c0.014-0.004 0.026-0.011 0.035-0.022s0.016-0.023 0.019-0.037l0.048-0.245 0.055 0.243c0.004 0.014 0.011 0.026 0.021 0.036s0.023 0.017 0.037 0.020z"></path>
<path fill="#e0e0e0" d="M26.623 30.043l0.212 0.045-0.212 0.062c-0.013 0.004-0.025 0.012-0.034 0.022s-0.016 0.023-0.019 0.036l-0.053 0.254-0.059-0.249c-0.003-0.014-0.011-0.026-0.021-0.036s-0.023-0.017-0.036-0.021l-0.212-0.048 0.218-0.061c0.013-0.004 0.026-0.012 0.035-0.022s0.016-0.023 0.019-0.037l0.049-0.245 0.055 0.243c0.003 0.014 0.011 0.027 0.021 0.037s0.023 0.017 0.038 0.021z"></path>
<path fill="#e4f0ff" d="M20.979 15.303l0.212 0.045-0.212 0.062c-0.013 0.004-0.025 0.012-0.034 0.022s-0.016 0.023-0.019 0.036l-0.053 0.254-0.059-0.249c-0.003-0.014-0.011-0.026-0.021-0.037s-0.023-0.017-0.036-0.021l-0.212-0.048 0.218-0.062c0.014-0.004 0.026-0.011 0.035-0.022s0.016-0.023 0.019-0.037l0.048-0.245 0.055 0.243c0.003 0.014 0.011 0.027 0.021 0.037s0.023 0.017 0.038 0.021z"></path>
<path fill="#e0e0e0" d="M40.638 22.26l0.212 0.045-0.212 0.062c-0.013 0.004-0.025 0.012-0.034 0.022s-0.016 0.023-0.019 0.036l-0.053 0.254-0.059-0.249c-0.003-0.014-0.011-0.027-0.021-0.037s-0.023-0.017-0.037-0.020l-0.212-0.048 0.218-0.062c0.014-0.003 0.026-0.011 0.035-0.021s0.016-0.023 0.018-0.037l0.049-0.245 0.055 0.243c0.003 0.014 0.011 0.027 0.021 0.037s0.023 0.017 0.038 0.021z"></path>
<path fill="#e0e0e0" d="M37.121 16.151l0.212 0.045-0.212 0.063c-0.013 0.004-0.025 0.011-0.034 0.021s-0.016 0.022-0.019 0.036l-0.053 0.255-0.059-0.25c-0.003-0.014-0.011-0.027-0.021-0.037s-0.023-0.017-0.037-0.020l-0.212-0.048 0.218-0.062c0.013-0.004 0.026-0.012 0.035-0.022s0.016-0.023 0.019-0.037l0.049-0.245 0.055 0.243c0.003 0.014 0.011 0.027 0.021 0.037s0.023 0.017 0.037 0.021z"></path>
<path fill="#e4f0ff" d="M29.81 4.413l0.212 0.045-0.212 0.062c-0.013 0.004-0.025 0.012-0.034 0.022s-0.016 0.023-0.019 0.036l-0.053 0.254-0.059-0.249c-0.003-0.014-0.011-0.027-0.021-0.037s-0.023-0.017-0.037-0.020l-0.212-0.048 0.219-0.062c0.013-0.004 0.025-0.012 0.035-0.022s0.016-0.023 0.019-0.037l0.048-0.245 0.055 0.243c0.003 0.014 0.011 0.027 0.021 0.037s0.023 0.017 0.038 0.021z"></path>
<path fill="#e0e0e0" d="M20.984 26.798l0.429 0.091-0.429 0.125c-0.027 0.008-0.051 0.023-0.070 0.044s-0.032 0.046-0.038 0.073l-0.108 0.514-0.119-0.505c-0.007-0.028-0.021-0.054-0.041-0.074s-0.046-0.035-0.074-0.041l-0.43-0.098 0.442-0.125c0.027-0.008 0.052-0.023 0.071-0.044s0.033-0.046 0.039-0.074l0.098-0.495 0.111 0.492c0.007 0.029 0.022 0.055 0.043 0.075s0.047 0.035 0.076 0.041z"></path>
<path fill="#e4f0ff" d="M21.892 17.437l0.429 0.091-0.429 0.126c-0.027 0.008-0.051 0.023-0.070 0.044s-0.032 0.046-0.038 0.073l-0.107 0.515-0.119-0.506c-0.007-0.028-0.021-0.054-0.042-0.074s-0.046-0.034-0.074-0.041l-0.429-0.098 0.442-0.125c0.027-0.008 0.052-0.023 0.071-0.044s0.032-0.047 0.038-0.075l0.098-0.495 0.111 0.492c0.007 0.029 0.021 0.055 0.042 0.076s0.047 0.035 0.076 0.041z"></path>
<path fill="#e4f0ff" d="M27.884 1.812l0.429 0.091-0.429 0.126c-0.027 0.008-0.051 0.023-0.070 0.044s-0.032 0.046-0.038 0.074l-0.107 0.514-0.122-0.506c-0.007-0.028-0.021-0.054-0.042-0.074s-0.046-0.034-0.074-0.041l-0.429-0.098 0.442-0.125c0.027-0.008 0.052-0.023 0.071-0.044s0.032-0.046 0.038-0.074l0.098-0.496 0.112 0.492c0.007 0.029 0.022 0.056 0.044 0.077s0.049 0.035 0.078 0.041z"></path>
<path fill="#e4f0ff" d="M40.173 12.41l0.738 0.156-0.738 0.216c-0.046 0.013-0.088 0.039-0.121 0.075s-0.055 0.079-0.065 0.126l-0.187 0.884-0.201-0.866c-0.012-0.048-0.036-0.092-0.072-0.127s-0.080-0.059-0.128-0.070l-0.738-0.168 0.759-0.214c0.047-0.013 0.090-0.040 0.123-0.076s0.056-0.080 0.065-0.128l0.169-0.852 0.191 0.846c0.012 0.049 0.037 0.094 0.073 0.129s0.081 0.060 0.131 0.070z"></path>
<path fill="#e0e0e0" d="M17.392 7.234h-6.909v-7.212h6.909v7.212zM10.486 7.23h6.901v-7.203h-6.901v7.203z"></path>
<path fill="#b8d9ff" d="M11.413 6.298c-0.036 0.053-0.078 0.101-0.125 0.145-0.078 0.085-0.194 0.201-0.321 0.326s-0.244 0.234-0.33 0.317c-0.043 0.046-0.092 0.087-0.146 0.121 0.036-0.053 0.078-0.101 0.124-0.145 0.078-0.085 0.194-0.2 0.322-0.326s0.244-0.234 0.331-0.317c0.043-0.046 0.092-0.086 0.145-0.12z"></path>
<path fill="#b8d9ff" d="M16.463 6.285c0.053 0.036 0.102 0.078 0.145 0.125 0.085 0.078 0.201 0.194 0.326 0.321s0.234 0.244 0.312 0.33c0.046 0.044 0.087 0.093 0.122 0.146-0.053-0.035-0.102-0.076-0.144-0.123-0.085-0.078-0.201-0.195-0.326-0.322s-0.234-0.245-0.317-0.331c-0.045-0.044-0.084-0.093-0.118-0.145z"></path>
<path fill="#b8d9ff" d="M16.448 1.007c0.036-0.053 0.077-0.102 0.124-0.145 0.078-0.085 0.194-0.2 0.322-0.326s0.243-0.234 0.329-0.313c0.043-0.047 0.092-0.088 0.146-0.122-0.036 0.052-0.077 0.1-0.125 0.141-0.078 0.085-0.194 0.201-0.322 0.327s-0.244 0.234-0.33 0.317c-0.043 0.046-0.092 0.087-0.144 0.121z"></path>
<path fill="#b8d9ff" d="M11.399 1.020c-0.053-0.036-0.102-0.077-0.145-0.124-0.085-0.078-0.2-0.195-0.325-0.322s-0.234-0.244-0.312-0.33c-0.046-0.044-0.087-0.093-0.122-0.146 0.053 0.035 0.102 0.077 0.144 0.124 0.085 0.078 0.201 0.195 0.326 0.322s0.234 0.245 0.312 0.331c0.046 0.044 0.086 0.092 0.121 0.145z"></path>
<path fill="#b8d9ff" d="M16.448 6.263c-0.001-0.009-0.001-0.017 0-0.026 0-0.018 0-0.042 0-0.074 0-0.066 0-0.161 0-0.284 0-0.25 0-0.613-0.005-1.074 0-0.923-0.005-2.238-0.009-3.812l0.020 0.020h-5.035l0.022-0.022c0 1.934 0 3.744 0 5.27l-0.019-0.020 4.678 0.015-4.708 0.023v-0.019c0-1.526 0-3.336 0-5.27v-0.023h5.077v0.020c-0.005 1.579-0.008 2.899-0.010 3.825 0 0.459 0 0.821-0.005 1.069 0 0.122 0 0.216 0 0.281 0 0.030 0 0.055 0 0.072s-0.004 0.029-0.004 0.029z"></path>
<path fill="#e0e0e0" d="M17.386 16.237h-6.91v-7.212h6.91v7.212zM10.48 16.233h6.901v-7.203h-6.901v7.203z"></path>
<path fill="#b8d9ff" d="M11.407 15.301c-0.036 0.053-0.078 0.102-0.125 0.145-0.078 0.085-0.194 0.2-0.321 0.326s-0.244 0.234-0.33 0.313c-0.044 0.046-0.093 0.087-0.146 0.122 0.036-0.052 0.078-0.099 0.125-0.141 0.078-0.085 0.194-0.201 0.322-0.327s0.244-0.234 0.331-0.317c0.043-0.046 0.092-0.087 0.144-0.121z"></path>
<path fill="#b8d9ff" d="M16.455 15.289c0.053 0.035 0.102 0.077 0.145 0.124 0.085 0.078 0.201 0.195 0.326 0.321s0.234 0.245 0.312 0.331c0.047 0.043 0.088 0.092 0.122 0.146-0.053-0.036-0.101-0.077-0.144-0.124-0.085-0.078-0.201-0.195-0.326-0.322s-0.234-0.245-0.317-0.331c-0.045-0.044-0.084-0.093-0.118-0.145z"></path>
<path fill="#b8d9ff" d="M16.442 10.010c0.036-0.053 0.077-0.101 0.124-0.145 0.078-0.085 0.194-0.201 0.322-0.326s0.243-0.234 0.329-0.317c0.044-0.046 0.093-0.087 0.146-0.121-0.035 0.053-0.077 0.101-0.124 0.144-0.078 0.085-0.194 0.201-0.322 0.327s-0.244 0.234-0.33 0.317c-0.043 0.046-0.092 0.087-0.145 0.121z"></path>
<path fill="#b8d9ff" d="M11.39 10.023c-0.053-0.036-0.102-0.078-0.145-0.125-0.085-0.078-0.2-0.194-0.325-0.321s-0.233-0.244-0.311-0.327c-0.046-0.044-0.087-0.093-0.122-0.146 0.053 0.036 0.101 0.077 0.144 0.124 0.085 0.078 0.201 0.195 0.326 0.322s0.234 0.245 0.312 0.331c0.045 0.042 0.086 0.090 0.119 0.142z"></path>
<path fill="#b8d9ff" d="M16.442 15.267c-0.001-0.008-0.001-0.017 0-0.025 0-0.018 0-0.042 0-0.074 0-0.066 0-0.161 0-0.285 0-0.249 0-0.613-0.005-1.074 0-0.923-0.006-2.238-0.009-3.812l0.019 0.020h-5.035l0.022-0.023c0 1.934 0 3.744 0 5.27l-0.019-0.019 5.035 0.015c-0.008 0.001-0.015 0.001-0.023 0h-0.335l-1.020 0.005-3.682 0.010v-0.008c0-1.526 0-3.336 0-5.27v-0.022h5.073v0.020c-0.005 1.579-0.008 2.899-0.010 3.825 0 0.46-0.004 0.821-0.005 1.070 0 0.122 0 0.216 0 0.281 0 0.030 0 0.054 0 0.071-0.002 0.009-0.004 0.017-0.006 0.026z"></path>
<path fill="#87bdff" d="M12.405 30.611l2.139-0.051c0 0 1.12-0.68 1.208-0.731s0.598-0.156 0.598-0.156l3.391 1.064v0.313h-7.941v-0.237l0.365-0.038 0.239-0.163z"></path>
<path fill="#133578" d="M21.15 26.039c-0.064-0.010-1.864 2.799-1.864 2.799l-2.15 0.395-2.384 1.329c0 0-0.054 0.27 0.215 0.288s1.717-0.625 1.717-0.625-0.496 0.242-0.401 0.553c0.111 0.365 1.046 0.078 1.046 0.078l1.997-0.13c0.092-0.006 0.181-0.031 0.262-0.074s0.153-0.102 0.21-0.174l0.254-0.322 2.796-2.225c0 0-0.247-1.675-1.699-1.89z"></path>
<path fill="#fff" d="M17.962 29.823c-0.013 0.019-0.029 0.036-0.048 0.051-0.047 0.042-0.097 0.081-0.149 0.116-0.078 0.053-0.161 0.098-0.249 0.132-0.108 0.041-0.222 0.064-0.338 0.070-0.113 0.003-0.225 0.011-0.337 0.027-0.089 0.021-0.174 0.055-0.253 0.1-0.138 0.078-0.209 0.145-0.214 0.139s0.013-0.021 0.047-0.052c0.047-0.042 0.098-0.079 0.152-0.113 0.081-0.050 0.168-0.088 0.26-0.112 0.113-0.018 0.227-0.028 0.342-0.030 0.204-0.011 0.402-0.075 0.574-0.185 0.133-0.084 0.208-0.148 0.212-0.143z"></path>
<path fill="#fff" d="M20.114 29.66c-0.048-0.022-0.091-0.051-0.13-0.088-0.194-0.162-0.349-0.368-0.451-0.599-0.024-0.047-0.041-0.097-0.049-0.149 0.082 0.155 0.173 0.306 0.272 0.45 0.111 0.136 0.231 0.265 0.357 0.386z"></path>
<path fill="#fff" d="M20.773 29.081c-0.007-0.023-0.011-0.046-0.011-0.070 0-0.045-0.008-0.111-0.009-0.192-0.003-0.212 0.011-0.424 0.043-0.634s0.080-0.417 0.144-0.62c0.025-0.078 0.048-0.139 0.066-0.181 0.007-0.023 0.017-0.044 0.030-0.063-0.018 0.086-0.041 0.17-0.068 0.253-0.114 0.406-0.176 0.824-0.187 1.245 0.002 0.088-0.002 0.175-0.009 0.263z"></path>
<path fill="#133578" d="M30.054 32.066l0.225-1.793 8.518-4.743c0 0 1.249 2.022 1.726 6.538l-5.985-0.028-4.484 0.027z"></path>
<path fill="#0075ff" d="M25.543 14.534l-1.086 1.21-0.18 2.409 2.090 4.291 2.397 5.052c0.198 0.434 0.397 1.433 0.256 2.002 0 0-0.39 1.376 1.591 1.467 1.080 0.050 2.323-0.235 3.229-0.506l0.023-0.007c1.55-0.459 2.858-1.508 3.643-2.922l1.39-1.922c-0.308-1.198-0.781-0.871-0.967-1.324-0.899-2.173-1.639-3.744-1.639-3.744l-2.978-6.871c-0.446-1.009-1.008-1.379-1.662-1.54-0.486-0.117-0.992-0.115-1.477 0.005l-1.463 0.352-3.167 2.048z"></path>
<path fill="#0075ff" d="M24.386 26.977c0.61-0.703 1.6-5.553 1.6-5.553l-1.529-5.681c0 0-0.707 0.806-0.926 1.576l-1.282 6.789c0 0-0.468 0.098-0.464 0.818 0.001 0.485 2.601 2.051 2.601 2.051z"></path>
<path fill="#133578" d="M27.121 24.007c-0.011-0.015-0.021-0.032-0.029-0.048l-0.078-0.142-0.272-0.527c-0.228-0.451-0.54-1.066-0.884-1.746l-0.871-1.751-0.261-0.533c-0.029-0.060-0.052-0.109-0.069-0.145-0.009-0.017-0.017-0.034-0.022-0.052 0.011 0.015 0.021 0.031 0.029 0.048l0.078 0.142 0.272 0.528c0.228 0.45 0.54 1.066 0.884 1.747l0.874 1.751 0.261 0.533c0.028 0.060 0.051 0.109 0.069 0.145 0.008 0.016 0.014 0.034 0.019 0.052z"></path>
<path fill="#133578" d="M37.9 24.755c-0.004 0.022-0.010 0.044-0.018 0.066l-0.059 0.186-0.044 0.134c-0.017 0.049-0.038 0.101-0.060 0.156-0.044 0.113-0.090 0.242-0.156 0.379-0.031 0.070-0.064 0.142-0.098 0.218s-0.078 0.151-0.116 0.231c-0.078 0.161-0.176 0.324-0.277 0.499-0.45 0.748-1.013 1.422-1.668 1.999-0.156 0.13-0.297 0.256-0.441 0.362-0.072 0.053-0.138 0.108-0.206 0.156s-0.134 0.091-0.197 0.135c-0.123 0.088-0.243 0.156-0.345 0.22-0.051 0.031-0.099 0.061-0.144 0.087l-0.125 0.064-0.173 0.091c-0.020 0.011-0.041 0.021-0.062 0.030 0.018-0.014 0.037-0.026 0.058-0.037l0.169-0.098 0.122-0.070c0.045-0.027 0.091-0.058 0.142-0.090 0.101-0.066 0.219-0.135 0.34-0.225l0.194-0.137c0.067-0.048 0.133-0.102 0.204-0.156 0.143-0.106 0.285-0.234 0.437-0.363 0.65-0.577 1.209-1.248 1.661-1.991 0.101-0.173 0.2-0.335 0.279-0.495 0.041-0.078 0.083-0.156 0.118-0.229l0.101-0.216c0.066-0.136 0.114-0.264 0.16-0.375 0.023-0.056 0.045-0.108 0.063-0.156l0.047-0.133 0.066-0.184c0.008-0.021 0.017-0.041 0.027-0.060z"></path>
<path fill="#133578" opacity="0.09" d="M32.397 24.49c0.637-0.012 1.536-0.118 2.148-0.296s1.197-0.485 1.635-0.946c0.438-0.461 0.721-1.094 0.702-1.728-0.36 0.782-1.062 1.495-1.861 1.9-0.266 0.135-0.746 0.371-0.801 0.301l-1.824 0.77z"></path>
<path fill="#0075ff" d="M34.153 23.978c0.503-0.203 0.988-0.418 1.318-0.672 1.561-1.206 1.664-2.294 1.461-3.089-0.222-0.875-3.773-7.034-4.165-7.43s-1.63-1.031-2.867 0.383c-0.718 0.821 0.709 3.136 0.709 3.136l2.537 4.445c-0.714-0.121-1.040 0.613-1.040 0.613l2.047 2.614z"></path>
<path fill="#133578" d="M32.16 21.553c-0.003-0.009-0.005-0.018-0.005-0.027-0.018-0.128-0.003-0.258 0.044-0.378 0.068-0.147 0.191-0.261 0.342-0.32 0.193-0.076 0.4-0.109 0.607-0.095l-0.016 0.025c-0.259-0.451-0.568-0.992-0.901-1.572l-1.153-2.032-0.346-0.618c-0.038-0.071-0.069-0.127-0.092-0.17-0.011-0.019-0.021-0.040-0.030-0.060 0.014 0.018 0.026 0.036 0.037 0.056 0.025 0.041 0.058 0.096 0.099 0.166l0.357 0.612c0.3 0.521 0.709 1.237 1.164 2.027l0.894 1.576 0.016 0.027h-0.031c-0.202-0.015-0.405 0.015-0.594 0.087-0.146 0.054-0.266 0.162-0.335 0.302-0.040 0.092-0.060 0.191-0.059 0.291 0 0.070 0.005 0.103 0.002 0.103z"></path>
<path fill="#133578" d="M36.821 19.917c0.009 0.016 0.017 0.033 0.023 0.051 0.013 0.034 0.037 0.083 0.059 0.149 0.064 0.187 0.101 0.382 0.111 0.579 0.007 0.136 0.001 0.273-0.018 0.409-0.024 0.155-0.061 0.308-0.112 0.456-0.059 0.162-0.131 0.319-0.217 0.469-0.093 0.16-0.197 0.313-0.312 0.458-0.417 0.502-0.931 0.913-1.511 1.209-0.174 0.091-0.355 0.169-0.54 0.235-0.066 0.025-0.118 0.039-0.152 0.050-0.018 0.006-0.036 0.011-0.055 0.014 0.017-0.009 0.034-0.016 0.052-0.022 0.034-0.013 0.086-0.030 0.15-0.057 0.182-0.071 0.36-0.153 0.532-0.245 0.572-0.302 1.079-0.713 1.493-1.21 0.115-0.143 0.219-0.294 0.312-0.452 0.084-0.148 0.157-0.303 0.216-0.463 0.051-0.146 0.090-0.296 0.114-0.449 0.020-0.133 0.028-0.267 0.023-0.402-0.007-0.195-0.040-0.389-0.097-0.576-0.019-0.066-0.041-0.116-0.051-0.152-0.009-0.016-0.015-0.033-0.020-0.051z"></path>
<path fill="#133578" opacity="0.09" d="M33.127 20.751c0.282 0.032 0.555 0.123 0.8 0.266s0.458 0.337 0.624 0.568c0.042 0.052 0.071 0.113 0.086 0.178 0.007 0.033 0.004 0.067-0.008 0.098s-0.033 0.058-0.059 0.078c-0.028 0.014-0.058 0.021-0.089 0.019s-0.061-0.011-0.087-0.027c-0.052-0.034-0.097-0.076-0.136-0.124-0.358-0.406-0.663-0.751-1.11-1.057z"></path>
<path fill="#133578" d="M34.509 22.287c-0.006 0-0.059-0.102-0.156-0.264-0.123-0.212-0.265-0.412-0.424-0.599-0.161-0.184-0.342-0.35-0.539-0.495-0.151-0.112-0.251-0.172-0.247-0.178 0.026 0.009 0.051 0.021 0.074 0.036 0.047 0.025 0.112 0.066 0.19 0.119 0.204 0.14 0.389 0.306 0.552 0.492s0.302 0.393 0.418 0.611c0.045 0.084 0.078 0.152 0.098 0.201 0.014 0.024 0.025 0.050 0.033 0.077z"></path>
<path fill="#133578" d="M31.684 12.13c-0.209 0.008-0.417 0.044-0.617 0.106-0.216 0.071-0.418 0.178-0.598 0.317-0.223 0.167-0.405 0.381-0.533 0.628s-0.2 0.519-0.209 0.797c-0.011 0.227 0.017 0.454 0.082 0.671 0.063 0.2 0.152 0.391 0.266 0.567 0 0-0.011-0.011-0.028-0.034-0.026-0.033-0.050-0.068-0.072-0.104-0.083-0.131-0.148-0.273-0.194-0.421-0.070-0.22-0.101-0.451-0.092-0.681 0.007-0.284 0.079-0.563 0.211-0.815s0.318-0.471 0.546-0.64c0.184-0.139 0.392-0.245 0.612-0.313 0.148-0.046 0.301-0.072 0.456-0.078 0.055-0.005 0.097 0 0.126 0 0.014-0.002 0.029-0.003 0.044-0.002z"></path>
<path fill="#05c168" d="M25.183 25.506l-0.097-0.191-0.219-0.099c0 0-0.937 0.151-1.165 0.541s-1.13 1.782-1.093 2.059c0.037 0.277 0.275 0.426 0.434 0.367s0.453-0.446 0.453-0.446l0.126-0.016 1.483 0.342 0.176-0.305-1.381-0.51 0.752-0.074 0.658-0.703-0.128-0.964z"></path>
<path fill="#fff" d="M26.59 27.859c-0.044 0.129-0.056 0.266-0.034 0.4s0.076 0.261 0.157 0.37c0.244 0.321 0.606 0.825 0.948 1.274 0.267 0.349 2.064 1.275 3.035 1.758 0.182 0.091 0.391 0.112 0.587 0.059s0.367-0.177 0.478-0.347c0.345-0.526 0.62-1.096 0.816-1.694 0.062-0.192 0.053-0.401-0.028-0.587s-0.225-0.336-0.408-0.422l-4.18-1.974c-0.106-0.050-0.221-0.077-0.337-0.079s-0.233 0.020-0.34 0.066-0.204 0.113-0.284 0.199c-0.080 0.086-0.14 0.187-0.178 0.298l-0.233 0.681z"></path>
<path fill="#133578" d="M26.59 27.859c0 0 0-0.015 0.012-0.042l0.040-0.123c0.036-0.109 0.089-0.267 0.156-0.469 0.033-0.116 0.090-0.224 0.165-0.317 0.092-0.111 0.21-0.197 0.345-0.249 0.155-0.060 0.324-0.073 0.485-0.037 0.087 0.023 0.171 0.055 0.251 0.096l0.254 0.119 3.874 1.826c0.129 0.066 0.238 0.163 0.319 0.283s0.129 0.258 0.142 0.402c0.011 0.146-0.013 0.293-0.069 0.429-0.048 0.138-0.098 0.274-0.156 0.41-0.111 0.268-0.238 0.529-0.38 0.782-0.070 0.125-0.144 0.246-0.22 0.364-0.037 0.061-0.080 0.118-0.128 0.17-0.121 0.127-0.278 0.213-0.45 0.247s-0.35 0.014-0.51-0.057c-0.24-0.116-0.468-0.234-0.695-0.35-0.451-0.235-0.877-0.459-1.268-0.682-0.197-0.111-0.385-0.221-0.561-0.334-0.174-0.103-0.337-0.222-0.489-0.356-0.063-0.070-0.122-0.143-0.176-0.22-0.054-0.073-0.107-0.145-0.156-0.214-0.102-0.139-0.2-0.27-0.29-0.391s-0.174-0.234-0.252-0.342c-0.074-0.093-0.142-0.192-0.202-0.295-0.075-0.149-0.104-0.317-0.082-0.483 0.006-0.058 0.020-0.114 0.042-0.167 0 0 0 0.014-0.011 0.042-0.011 0.041-0.019 0.083-0.023 0.126-0.018 0.164 0.012 0.329 0.088 0.475 0.061 0.102 0.129 0.199 0.204 0.291l0.255 0.339 0.292 0.391 0.16 0.213c0.053 0.076 0.111 0.149 0.174 0.217 0.15 0.131 0.313 0.248 0.485 0.349 0.176 0.111 0.364 0.22 0.561 0.331 0.39 0.221 0.818 0.446 1.268 0.678 0.226 0.114 0.457 0.234 0.695 0.349 0.121 0.054 0.254 0.077 0.386 0.067s0.26-0.052 0.372-0.122c0.057-0.036 0.11-0.079 0.156-0.128 0.046-0.051 0.087-0.106 0.123-0.164 0.078-0.118 0.148-0.235 0.218-0.363 0.141-0.251 0.268-0.511 0.379-0.777 0.056-0.134 0.106-0.27 0.156-0.407 0.055-0.13 0.078-0.272 0.067-0.413-0.011-0.137-0.058-0.269-0.134-0.383s-0.181-0.207-0.303-0.269l-4.122-1.956c-0.078-0.041-0.16-0.072-0.245-0.095-0.156-0.035-0.319-0.023-0.468 0.034-0.131 0.049-0.248 0.131-0.338 0.239-0.075 0.092-0.132 0.198-0.166 0.313-0.070 0.202-0.126 0.358-0.163 0.469-0.019 0.052-0.033 0.092-0.044 0.121s-0.023 0.034-0.023 0.034z"></path>
<path fill="#133578" d="M24.944 26.203c0 0 0.096-0.689 0.331-0.759s1.698-0.509 1.698-0.509l4.009-2.754 1.565 3.007-3.668 1.485c0 0-0.144 0.188-0.304 0.116 0 0-0.243 0.295-0.372 0.313s-0.083 0.087-0.083 0.087-1.075 1.798-1.333 1.833c-0.258 0.035-0.584-0.013-0.574-0.223 0 0-0.484 0.176-0.64-0.010 0 0-0.375 0.286-0.62-0.020-0.064-0.111-0.122-0.225-0.174-0.342 0 0-0.325 0.403-0.618 0.263-0.279-0.134-0.217-0.567-0.064-0.832s0.848-1.654 0.848-1.654z"></path>
<path fill="#133578" d="M23.436 27.83c-0.006 0-0.029-0.040-0.078-0.1-0.126-0.156-0.308-0.257-0.507-0.282-0.042-0.001-0.084-0.005-0.126-0.013 0.041-0.015 0.085-0.021 0.128-0.016 0.105 0.005 0.207 0.034 0.298 0.085s0.17 0.123 0.229 0.209c0.027 0.034 0.046 0.074 0.055 0.116z"></path>
<path fill="#133578" d="M24.692 26.673c-0.061 0.057-0.127 0.11-0.197 0.156-0.123 0.093-0.295 0.219-0.474 0.371-0.153 0.129-0.295 0.272-0.424 0.426-0.098 0.119-0.149 0.198-0.156 0.195 0.007-0.022 0.017-0.042 0.030-0.061 0.031-0.053 0.066-0.104 0.103-0.152 0.123-0.161 0.264-0.308 0.419-0.438s0.316-0.252 0.484-0.364c0.067-0.050 0.139-0.095 0.214-0.133z"></path>
<path fill="#fff" d="M26.778 27.917c-0.013 0.051-0.033 0.101-0.060 0.146-0.057 0.114-0.122 0.224-0.193 0.331s-0.15 0.207-0.234 0.303c-0.032 0.043-0.070 0.080-0.113 0.111-0.009-0.008 0.148-0.191 0.312-0.437s0.276-0.46 0.288-0.454z"></path>
<path fill="#fff" d="M27.875 26.287c-0.052-0.004-0.103-0.016-0.151-0.036-0.119-0.038-0.235-0.083-0.348-0.136s-0.223-0.112-0.329-0.178c-0.046-0.024-0.088-0.055-0.124-0.092 0.006-0.010 0.208 0.113 0.468 0.234s0.486 0.192 0.483 0.208z"></path>
<path fill="#133578" opacity="0.09" d="M28.573 26.561c-0.018-0.034-0.030-0.070-0.047-0.105-0.184-0.375-0.446-0.706-0.769-0.971-0.030-0.024-0.070-0.049-0.103-0.030-0.012 0.008-0.022 0.020-0.026 0.035s-0.004 0.030 0.001 0.044c0.010 0.028 0.025 0.053 0.046 0.073 0.291 0.342 0.525 0.67 0.816 1.012 0.022 0.029 0.101-0.018 0.082-0.057z"></path>
<path fill="#133578" d="M21.667 29.504c0.038-0.062 0.081-0.121 0.13-0.175 0.084-0.105 0.201-0.248 0.334-0.404s0.254-0.296 0.343-0.396c0.045-0.057 0.096-0.109 0.151-0.156-0.038 0.062-0.081 0.121-0.13 0.175-0.083 0.105-0.201 0.248-0.333 0.404s-0.254 0.296-0.343 0.395c-0.046 0.057-0.096 0.109-0.151 0.157z"></path>
<path fill="#211f54" d="M20.478 9.754c0-0.398 0.126-0.532 0.034-0.606-0.333-0.267-0.629-0.967-0.656-1.278-0.063-0.732 0.554-1.375 0.554-1.375 0.115-0.391 0.273-0.909 0.737-1.268 0.503-0.391 1.29-0.855 1.92-0.774s1.085 0.12 1.488 0.612l-0.88 7.809c-0.489-0.015-0.923-0.324-1.255-0.684s-0.594-0.782-0.937-1.128c-0.258-0.259-0.312-0.152-0.756-0.739-0.276-0.365-0.253-0.204-0.249-0.569z"></path>
<path fill="#ffbe9d" d="M26.714 7.369c-0.551-1.582-1.93-2.579-3.494-1.984l-0.141 0.064c-0.686 0.308-1.231 0.864-1.526 1.556s-0.319 1.47-0.067 2.18c0.485 1.368 1.038 2.871 1.364 3.576 0.675 1.458 2.242 1.028 2.242 1.028l0.665 1.266c0.691 0.137 1.408 0.020 2.020-0.329s1.077-0.908 1.311-1.574l-2.374-5.783z"></path>
<path fill="#211f54" d="M25.060 10.121c0.026 0.053 0.072 0.093 0.127 0.113s0.116 0.017 0.169-0.008c0.027-0.011 0.051-0.027 0.071-0.048s0.036-0.045 0.047-0.071c0.011-0.027 0.016-0.055 0.016-0.084s-0.007-0.057-0.018-0.084c-0.026-0.053-0.071-0.093-0.127-0.113s-0.116-0.017-0.17 0.008c-0.027 0.011-0.051 0.027-0.071 0.048s-0.036 0.045-0.047 0.071c-0.011 0.027-0.016 0.055-0.016 0.084s0.007 0.057 0.018 0.084z"></path>
<path fill="#211f54" d="M22.968 11.054c0.026 0.053 0.072 0.093 0.127 0.113s0.116 0.017 0.17-0.008c0.027-0.011 0.051-0.027 0.071-0.048s0.036-0.045 0.047-0.071c0.011-0.027 0.016-0.055 0.016-0.084s-0.006-0.057-0.018-0.084c-0.026-0.053-0.071-0.093-0.127-0.113s-0.116-0.017-0.17 0.008c-0.027 0.011-0.051 0.027-0.071 0.047s-0.036 0.045-0.047 0.072c-0.011 0.027-0.016 0.055-0.016 0.084s0.007 0.057 0.018 0.084z"></path>
<path fill="#211f54" d="M22.277 10.568c0.038 0.014 0.133-0.176 0.348-0.285s0.43-0.081 0.44-0.119c0.006-0.018-0.042-0.049-0.138-0.068-0.127-0.018-0.255 0.005-0.369 0.063-0.112 0.057-0.204 0.148-0.262 0.26-0.037 0.084-0.038 0.143-0.019 0.149z"></path>
<path fill="#211f54" d="M24.534 9.59c0.040 0.010 0.116-0.187 0.319-0.32s0.42-0.125 0.426-0.165c0.004-0.018-0.048-0.046-0.145-0.053-0.128-0.004-0.255 0.031-0.362 0.102-0.107 0.068-0.189 0.168-0.234 0.286-0.030 0.087-0.022 0.146-0.003 0.15z"></path>
<path fill="#211f54" d="M24.477 11.547c-0.006-0.013-0.151 0.032-0.384 0.115-0.058 0.022-0.118 0.039-0.144 0.005s-0.041-0.105-0.046-0.183c-0.016-0.16-0.032-0.326-0.050-0.504-0.076-0.714-0.162-1.291-0.191-1.288s0.010 0.586 0.087 1.3c0.020 0.175 0.039 0.343 0.057 0.503 0.011 0.073 0.011 0.163 0.081 0.232 0.018 0.015 0.039 0.026 0.062 0.032s0.047 0.007 0.070 0.002c0.035-0.007 0.069-0.018 0.1-0.034 0.226-0.098 0.362-0.167 0.357-0.179z"></path>
<path fill="#211f54" d="M25.19 11.374c-0.036 0.016 0.082 0.251-0.034 0.52s-0.379 0.369-0.364 0.403c0.007 0.015 0.079 0.017 0.188-0.034 0.139-0.068 0.249-0.183 0.312-0.324 0.060-0.136 0.065-0.29 0.013-0.429-0.044-0.101-0.099-0.146-0.115-0.136z"></path>
<path fill="#211f54" d="M23.938 8.82c0.056 0.043 0.242-0.115 0.5-0.24s0.494-0.184 0.494-0.254c-0.001-0.033-0.069-0.064-0.181-0.067-0.146 0.001-0.291 0.036-0.422 0.101s-0.246 0.16-0.335 0.276c-0.065 0.092-0.081 0.164-0.056 0.185z"></path>
<path fill="#211f54" d="M21.885 9.599c0.063 0.030 0.186-0.097 0.364-0.19s0.347-0.135 0.357-0.204c0.002-0.033-0.046-0.070-0.136-0.083-0.117-0.013-0.236 0.012-0.339 0.070-0.104 0.056-0.189 0.142-0.242 0.247-0.036 0.085-0.032 0.146-0.004 0.159z"></path>
<path fill="#211f54" d="M24.554 5.064c-0.050-0.020-0.101-0.039-0.156-0.057-0.436-0.156-0.925-0.242-1.3 0.010-0.215 0.145-0.353 0.382-0.56 0.54-0.279 0.213-0.651 0.259-0.958 0.429-0.184 0.104-0.34 0.25-0.457 0.427s-0.188 0.379-0.211 0.589c-0.032 0.327 0.055 0.68-0.098 0.969-0.071 0.134-0.312 0.228-0.396 0.354 0 0-0.149 1.063 0.665 1.016l0.102-0.087 0.798-1.057c0.266-0.090 0.54-0.156 0.656-0.401 0.078-0.162 0.056-0.357 0.067-0.538l0.427-0.508c0.135-0.034 0.284-0.046 0.418-0.078 0.159-0.036 0.309-0.104 0.441-0.199s0.244-0.217 0.328-0.356c0.084-0.14 0.14-0.295 0.163-0.456s0.013-0.326-0.029-0.484l0.097-0.112z"></path>
<path fill="#211f54" d="M23.216 6.284c0.179-0.147 0.542-0.459 0.575-0.684 0.073-0.488 0.381-0.932 0.821-1.094 0.23-0.078 0.479-0.079 0.709-0.003s0.431 0.224 0.57 0.422c0.521-0.219 1.171-0.109 1.628 0.275 0.23 0.199 0.409 0.451 0.521 0.734s0.152 0.59 0.119 0.893c-0.020 0.156-0.059 0.319 0 0.469 0.078 0.183 0.271 0.269 0.43 0.379 0.435 0.299 0.656 0.871 0.647 1.407s-0.083 0.75-0.329 0.961c-0.482 0.414 0.556 1.382-0.371 1.78l-1.681-3.273-0.004 0.006c-0.033 0.062-0.084 0.114-0.145 0.148s-0.131 0.051-0.202 0.048c-0.937-0.060-0.877-1.044-0.69-1.229-0.28-0.080-0.548-0.195-0.798-0.343-0.247-0.156-0.667-0.464-0.753-0.753-0.19 0.088-1.126-0.078-1.047-0.142z"></path>
<path fill="#eb996e" d="M27.598 9.493c0-0.005 0.023 0.005 0.059 0.006 0.049 0.001 0.097-0.018 0.133-0.052 0.091-0.084 0.111-0.292 0.041-0.477-0.034-0.089-0.087-0.169-0.156-0.234-0.023-0.027-0.052-0.049-0.085-0.062s-0.069-0.019-0.104-0.016c-0.023 0.003-0.044 0.014-0.059 0.030s-0.025 0.038-0.026 0.061c0 0.034 0.013 0.052 0.009 0.056s-0.029-0.008-0.038-0.053c-0.004-0.027 0.001-0.054 0.014-0.078 0.019-0.033 0.051-0.057 0.087-0.066 0.045-0.009 0.091-0.007 0.135 0.007s0.083 0.038 0.114 0.072c0.079 0.070 0.141 0.159 0.178 0.258 0.078 0.208 0.051 0.442-0.078 0.547-0.024 0.019-0.052 0.032-0.082 0.039s-0.061 0.007-0.091 0.001c-0.039-0.014-0.054-0.034-0.051-0.038z"></path>
<path fill="#fff" d="M27.488 18.508l0.429 0.091-0.429 0.126c-0.027 0.008-0.051 0.023-0.070 0.044s-0.032 0.046-0.038 0.073l-0.107 0.514-0.116-0.505c-0.007-0.028-0.021-0.054-0.042-0.074s-0.046-0.035-0.075-0.041l-0.429-0.098 0.442-0.124c0.026-0.009 0.050-0.025 0.068-0.046s0.031-0.047 0.036-0.074l0.098-0.495 0.112 0.492c0.007 0.029 0.022 0.056 0.043 0.076s0.048 0.035 0.078 0.041z"></path>
<path fill="#fff" d="M26.513 19.804l0.191 0.041-0.191 0.055c-0.012 0.004-0.023 0.010-0.031 0.020s-0.014 0.021-0.017 0.033l-0.048 0.229-0.053-0.225c-0.003-0.013-0.009-0.024-0.018-0.033s-0.021-0.015-0.033-0.018l-0.191-0.043 0.197-0.055c0.012-0.004 0.023-0.011 0.032-0.020s0.015-0.021 0.017-0.033l0.044-0.22 0.049 0.219c0.003 0.013 0.009 0.025 0.019 0.034s0.021 0.016 0.034 0.018z"></path>
<path fill="#fff" d="M32.244 13.511l0.191 0.041-0.191 0.056c-0.012 0.004-0.023 0.010-0.031 0.020s-0.014 0.021-0.017 0.033l-0.048 0.229-0.053-0.225c-0.003-0.013-0.009-0.024-0.018-0.033s-0.021-0.015-0.033-0.018l-0.191-0.043 0.197-0.056c0.012-0.003 0.023-0.010 0.032-0.020s0.015-0.021 0.017-0.034l0.044-0.22 0.049 0.219c0.003 0.013 0.009 0.025 0.019 0.034s0.021 0.016 0.034 0.018z"></path>
<path fill="#4a4566" d="M30.938 30.907h-21.28v1.102h21.28v-1.102z"></path>
<path fill="#6e7191" d="M30.94 30.907h-6.156v1.102h6.156v-1.102z"></path>
<path fill="#8883a5" d="M11.032 32.010c-0.009-0.016-0.018-0.032-0.025-0.049-0.016-0.031-0.038-0.078-0.068-0.132-0.153-0.288-0.356-0.547-0.599-0.765-0.047-0.042-0.085-0.078-0.112-0.098-0.015-0.011-0.029-0.023-0.041-0.037 0.015 0.010 0.030 0.020 0.045 0.032 0.028 0.020 0.068 0.052 0.115 0.094 0.249 0.214 0.453 0.475 0.602 0.768 0.028 0.056 0.050 0.102 0.063 0.135 0.008 0.016 0.014 0.033 0.019 0.051z"></path>
<path fill="#8883a5" d="M12.644 32.029c-0.105 0.001-0.21-0.010-0.312-0.032-0.108-0.023-0.214-0.056-0.317-0.098-0.127-0.053-0.249-0.119-0.363-0.196-0.207-0.142-0.387-0.319-0.532-0.524-0.060-0.084-0.112-0.173-0.156-0.267 0 0 0.005 0.006 0.012 0.018s0.020 0.034 0.032 0.053c0.038 0.065 0.080 0.128 0.124 0.188 0.147 0.201 0.327 0.376 0.532 0.517 0.113 0.077 0.233 0.142 0.359 0.196 0.103 0.043 0.21 0.076 0.318 0.1 0.042 0.010 0.084 0.018 0.126 0.023 0.032 0.006 0.064 0.010 0.097 0.012l0.061 0.005 0.019 0.003z"></path>
<path fill="#8883a5" d="M14.132 31.468c0 0-0.096 0.011-0.271 0.013-0.087 0-0.194 0-0.318-0.010-0.062-0.005-0.128-0.011-0.198-0.020l-0.108-0.015c-0.038-0.004-0.076-0.013-0.112-0.027-0.019-0.006-0.037-0.017-0.053-0.030s-0.028-0.030-0.037-0.048c-0.007-0.021-0.008-0.044-0.001-0.066s0.019-0.040 0.037-0.054c0.036-0.026 0.077-0.044 0.121-0.052 0.043-0.012 0.087-0.023 0.132-0.033 0.403-0.092 0.821-0.105 1.229-0.037 0.114 0.018 0.226 0.044 0.336 0.078 0.058 0.018 0.107 0.057 0.14 0.109 0.014 0.027 0.022 0.058 0.023 0.089s-0.004 0.062-0.015 0.090c-0.020 0.058-0.058 0.109-0.109 0.143-0.050 0.032-0.106 0.055-0.164 0.067-0.114 0.025-0.226 0.045-0.337 0.063-0.214 0.037-0.43 0.058-0.646 0.064-0.368 0.016-0.735-0.055-1.070-0.207-0.226-0.104-0.427-0.254-0.591-0.441-0.044-0.049-0.085-0.101-0.123-0.156-0.026-0.039-0.038-0.059-0.038-0.059s0.015 0.020 0.041 0.057c0.038 0.055 0.080 0.107 0.125 0.156 0.166 0.182 0.367 0.327 0.592 0.427 0.334 0.15 0.699 0.219 1.065 0.202 0.216-0.007 0.431-0.029 0.643-0.065 0.111-0.019 0.224-0.039 0.336-0.063 0.056-0.012 0.108-0.034 0.156-0.065 0.048-0.033 0.084-0.080 0.103-0.135 0.010-0.027 0.015-0.055 0.013-0.084s-0.009-0.056-0.022-0.082c-0.030-0.049-0.076-0.085-0.131-0.102-0.109-0.034-0.22-0.060-0.333-0.078-0.406-0.067-0.821-0.055-1.223 0.034-0.045 0.009-0.089 0.021-0.131 0.032-0.042 0.008-0.082 0.025-0.117 0.050-0.016 0.012-0.027 0.029-0.033 0.048s-0.006 0.039 0 0.058c0.015 0.035 0.043 0.063 0.078 0.078s0.072 0.023 0.109 0.027l0.108 0.016c0.069 0.009 0.136 0.016 0.197 0.020 0.123 0.010 0.234 0.013 0.318 0.013s0.156 0 0.201-0.004l0.077-0.002z"></path>
<path fill="#8883a5" d="M17.9 30.982h-0.030c-0.020 0-0.048-0.006-0.084-0.006-0.103-0.003-0.207 0.009-0.307 0.034-0.149 0.039-0.292 0.095-0.427 0.169-0.165 0.090-0.325 0.19-0.479 0.299-0.165 0.113-0.325 0.22-0.477 0.305-0.134 0.077-0.277 0.139-0.425 0.184-0.1 0.030-0.203 0.047-0.307 0.049-0.038 0.001-0.076 0-0.114-0.004h0.030c0.028 0.001 0.056 0.001 0.084 0 0.103-0.005 0.206-0.023 0.304-0.054 0.146-0.046 0.287-0.109 0.42-0.186 0.151-0.086 0.312-0.192 0.475-0.306 0.155-0.109 0.315-0.209 0.482-0.299 0.136-0.073 0.281-0.129 0.431-0.166 0.102-0.025 0.207-0.035 0.312-0.030 0.037 0.001 0.075 0.004 0.112 0.009z"></path>
<path fill="#8883a5" d="M19.351 31.47l-0.059-0.013c-0.056-0.012-0.113-0.019-0.17-0.021-0.090-0.005-0.181 0.003-0.269 0.022-0.055 0.012-0.11 0.028-0.162 0.048-0.060 0.017-0.113 0.054-0.151 0.104-0.017 0.030-0.023 0.064-0.018 0.098s0.020 0.065 0.044 0.089c0.051 0.055 0.116 0.096 0.187 0.119 0.159 0.051 0.329 0.055 0.489 0.010 0.088-0.021 0.173-0.049 0.256-0.084 0.088-0.032 0.17-0.078 0.244-0.137 0.037-0.030 0.067-0.068 0.088-0.111s0.032-0.090 0.034-0.138c-0.003-0.1-0.043-0.195-0.111-0.267-0.067-0.074-0.154-0.128-0.25-0.156-0.093-0.026-0.191-0.035-0.287-0.027-0.183 0.021-0.363 0.066-0.534 0.134-0.294 0.106-0.579 0.237-0.851 0.391-0.183 0.104-0.361 0.217-0.532 0.34-0.061 0.044-0.107 0.078-0.138 0.102s-0.049 0.036-0.049 0.036 0.063-0.054 0.183-0.143c0.171-0.125 0.348-0.24 0.531-0.345 0.272-0.156 0.556-0.288 0.851-0.395 0.172-0.069 0.353-0.115 0.538-0.136 0.099-0.009 0.198 0 0.293 0.027 0.098 0.028 0.187 0.082 0.258 0.156 0.071 0.076 0.112 0.175 0.115 0.278-0.001 0.050-0.013 0.1-0.035 0.145s-0.054 0.085-0.093 0.116c-0.074 0.060-0.158 0.107-0.247 0.14-0.084 0.035-0.17 0.063-0.258 0.084-0.164 0.045-0.337 0.040-0.498-0.012-0.073-0.024-0.14-0.067-0.192-0.123-0.024-0.028-0.041-0.062-0.047-0.099-0.005-0.036 0.002-0.072 0.021-0.102 0.039-0.052 0.094-0.090 0.156-0.108 0.053-0.020 0.108-0.036 0.164-0.048 0.089-0.018 0.18-0.024 0.271-0.020 0.058 0.003 0.115 0.012 0.171 0.025 0.042 0.014 0.059 0.020 0.059 0.020z"></path>
<path fill="#8883a5" d="M21.099 32.003c0 0 0-0.020 0-0.057 0.003-0.052 0.003-0.104 0-0.156-0.011-0.171-0.063-0.338-0.151-0.485-0.089-0.147-0.219-0.265-0.373-0.34-0.065-0.029-0.132-0.052-0.201-0.067 0.071 0.006 0.141 0.025 0.206 0.056 0.158 0.074 0.291 0.193 0.382 0.342 0.089 0.15 0.14 0.319 0.148 0.493 0.006 0.072 0.002 0.144-0.012 0.214z"></path>
<path fill="#8883a5" d="M23.373 31.992c-0.111-0.015-0.22-0.038-0.328-0.068-0.117-0.032-0.233-0.070-0.346-0.114-0.138-0.056-0.272-0.12-0.402-0.192-0.235-0.133-0.455-0.293-0.654-0.475-0.078-0.070-0.136-0.13-0.175-0.173l-0.045-0.049c-0.010-0.011-0.015-0.017-0.015-0.017s0.006 0.005 0.017 0.016l0.048 0.047c0.040 0.041 0.101 0.099 0.177 0.168 0.311 0.28 0.669 0.505 1.057 0.664 0.112 0.045 0.226 0.084 0.343 0.117 0.099 0.028 0.181 0.048 0.234 0.059l0.066 0.013c0.008 0.001 0.016 0.002 0.023 0.005z"></path>
<path fill="#8883a5" d="M24.971 31.685l-0.022-0.010c-0.014-0.007-0.033-0.020-0.060-0.032-0.075-0.037-0.154-0.067-0.234-0.091-0.119-0.035-0.241-0.062-0.364-0.078-0.138-0.020-0.292-0.034-0.453-0.055-0.322-0.040-0.609-0.136-0.781-0.263-0.069-0.048-0.132-0.104-0.187-0.168-0.038-0.046-0.055-0.073-0.055-0.073s0.006 0.005 0.016 0.017c0.010 0.012 0.023 0.030 0.044 0.052 0.057 0.061 0.12 0.116 0.19 0.163 0.173 0.123 0.457 0.216 0.781 0.256 0.16 0.021 0.312 0.035 0.453 0.056 0.123 0.016 0.245 0.042 0.365 0.078 0.081 0.025 0.159 0.057 0.234 0.097 0.044 0.033 0.074 0.052 0.074 0.052z"></path>
</svg>
